<?xml version="1.0" encoding="utf-8"?>
<!-- Generator: Adobe Illustrator 16.0.0, SVG Export Plug-In . SVG Version: 6.00 Build 0)  -->
<!DOCTYPE svg PUBLIC "-//W3C//DTD SVG 1.1//EN" "http://www.w3.org/Graphics/SVG/1.1/DTD/svg11.dtd">
<svg version="1.1" id="圖層_1" xmlns="http://www.w3.org/2000/svg" xmlns:xlink="http://www.w3.org/1999/xlink" x="0px" y="0px"
	 width="774.188px" height="510.594px" viewBox="0 0 774.188 510.594" enable-background="new 0 0 774.188 510.594"
	 xml:space="preserve">
<g>
	<defs>
		<path id="SVGID_1_" d="M630.064,136.135c0.023,0.073,0.022,0.189-0.002,0.355c-0.025,0.165-0.063,0.295-0.112,0.39
			c0.023,0.071,0.023,0.188-0.003,0.353c-0.199,1.085-0.45,2.499-0.75,4.243c-0.229,1.485-0.441,2.773-0.644,3.854
			c-0.095,0.191-0.154,0.366-0.18,0.532c0.024,0.07,0.008,0.151-0.039,0.245c-0.026,0.403-0.103,0.782-0.223,1.132l1.771,0.018
			c0.049-0.329,0.125-0.708,0.223-1.132c-0.023-0.071-0.009-0.154,0.039-0.247c0.223-1.014,0.434-2.179,0.635-3.501
			c0.379-2.239,0.654-3.937,0.831-5.091c0.048-0.094,0.084-0.224,0.11-0.388c0.025-0.168,0.027-0.284,0.004-0.356l0.11-0.389
			c-0.109-0.016-0.409-0.024-0.896-0.024C630.695,136.129,630.403,136.131,630.064,136.135 M626.77,136.139
			c-0.073,0.259-0.147,0.516-0.218,0.776c-0.154,0.991-0.367,2.395-0.647,4.21c-0.298,1.508-0.546,2.804-0.747,3.889
			c-0.071,0.258-0.146,0.52-0.221,0.777c-0.049,0.331-0.125,0.708-0.224,1.132l1.737-0.087c0.12-0.355,0.208-0.695,0.257-1.027
			c0.2-1.086,0.413-2.369,0.642-3.854c0.472-2.193,0.795-3.866,0.974-5.021c-0.023-0.309,0.016-0.555,0.112-0.742l0.003-0.355
			c-0.165-0.026-0.72-0.042-1.664-0.053C626.726,135.878,626.724,135.995,626.77,136.139 M622.979,136.063
			c-0.095,0.189-0.179,0.412-0.254,0.672c-0.177,1.156-0.415,2.606-0.716,4.35c-0.322,1.44-0.57,2.734-0.748,3.891
			c-0.002,0.234-0.041,0.482-0.111,0.743c-0.124,0.351-0.209,0.694-0.259,1.022l1.663,0.052c0.12-0.352,0.243-0.705,0.365-1.058
			c0.201-1.085,0.413-2.37,0.642-3.855c0.376-2.24,0.698-3.912,0.97-5.019l0.117-1.098c-0.163-0.026-0.731-0.078-1.698-0.159
			C622.924,135.77,622.935,135.923,622.979,136.063 M619.37,135.817c-0.074,0.256-0.146,0.517-0.222,0.777
			c0.021,0.069,0.011,0.153-0.037,0.248c-0.152,0.989-0.353,2.309-0.605,3.961c-0.299,1.507-0.538,2.842-0.716,3.995
			c-0.074,0.261-0.111,0.506-0.111,0.743l-0.106,0.034c-0.053,0.332-0.103,0.661-0.154,0.991l1.665,0.051
			c0.075-0.257,0.137-0.553,0.186-0.882l0.076-0.141c0.245-1.179,0.448-2.499,0.604-3.963c0.421-2.097,0.721-3.724,0.898-4.881
			l0.297-1.272c-0.214,0.069-0.802,0.063-1.773-0.016C619.347,135.627,619.348,135.747,619.37,135.817 M557.903,281.084
			c-2.114-1.2-3.455-2.808-4.025-4.821c-0.781-2.18-0.644-4.306,0.417-6.373c1.06-2.067,2.729-3.467,5.002-4.2
			c2.134-0.687,4.197-0.491,6.193,0.594c2.163,1.106,3.588,2.729,4.275,4.859c0.565,2.251,0.345,4.361-0.668,6.334
			c-1.059,2.069-2.618,3.437-4.681,4.102c-0.929,0.299-1.84,0.448-2.733,0.448C560.388,282.027,559.127,281.712,557.903,281.084
			 M572.871,265.081c-0.987-0.389-1.985-1.046-2.992-1.978c-0.817-0.834-1.743-1.517-2.777-2.048
			c-1.127-0.577-2.33-0.897-3.604-0.955c-1.11-0.037-2.112-0.223-3.007-0.562c-0.635-0.268-0.971-0.708-1.013-1.322
			c-0.043-0.376,0.272-1.343,0.95-2.895c30.21-56.971,46.658-87.498,49.344-91.58c1.848-2.791,4.205-3.513,7.07-2.162
			c2.799,1.374,3.649,3.652,2.553,6.827c-2.937,7.931-17.385,39.305-43.347,94.122c-0.824,1.796-1.679,2.694-2.563,2.694
			C573.283,265.223,573.078,265.175,572.871,265.081 M616.172,150.734l0.017-5.067l0.159-8.995l0.173-6.41l16.535,0.91l-0.344,5.875
			l-0.584,8.781l-0.3,5.274L616.172,150.734z M651.761,106.313c-0.073,2.692-0.241,6.314-0.5,10.871
			c-0.646,1.15-1.286,2.337-1.911,3.558c-0.53,1.033-1.281,1.629-2.25,1.785c-0.687,0.064-7.414-0.123-20.188-0.555l-21.043,0.07
			c1.389,14.54,2.138,24.654,2.247,30.348c0.132,5.764-3.778,15.303-11.729,28.613l-39.263,75.385l-2.384,4.65
			c-3.677,6.129-5.428,11.046-5.249,14.757c0.266,3.995,2.771,7.148,7.521,9.463c3.13,1.425,6.114,1.561,8.957,0.407
			c2.611-1.153,4.9-3.423,6.872-6.8l29.891-66.127c11.897-25.885,18.081-39.215,18.537-39.988c0.648-1.15,2.411-3.836,5.286-8.06
			c6.608-6.522,13.216-11.947,19.826-16.275c6.655-4.183,11.677-8.078,15.066-11.68c0.048-0.094,0.13-0.201,0.252-0.319
			c0.715-0.936,1.366-1.968,1.944-3.097c2.068-4.041,2.88-8.461,2.435-13.258c-0.34-3.738-1.448-7.54-3.321-11.405
			c-1.525-3.277-3.636-6.167-6.327-8.674c-0.983-0.859-2.357-1.595-4.121-2.203C652.169,99.784,651.987,102.631,651.761,106.313"/>
	</defs>
	<clipPath id="SVGID_2_">
		<use xlink:href="#SVGID_1_"  overflow="visible"/>
	</clipPath>
	
		<linearGradient id="SVGID_3_" gradientUnits="userSpaceOnUse" x1="-398.8345" y1="559.3423" x2="-397.8345" y2="559.3423" gradientTransform="matrix(35.8103 -144.5349 -144.5349 -35.8103 95735.8984 -37426.4805)">
		<stop  offset="0" style="stop-color:#C0C0C0"/>
		<stop  offset="0.2581" style="stop-color:#C0C0C0"/>
		<stop  offset="1" style="stop-color:#B8D8D6"/>
	</linearGradient>
	<polygon clip-path="url(#SVGID_2_)" fill="url(#SVGID_3_)" points="505.183,275.885 556.09,70.417 710.65,108.711 659.743,314.179 
			"/>
</g>
<path fill="#B1B3B3" d="M567.102,261.056c-1.127-0.579-2.33-0.898-3.604-0.956c-1.11-0.037-2.111-0.223-3.007-0.562
	c-0.635-0.268-0.972-0.709-1.013-1.322c-0.043-0.376,0.272-1.343,0.949-2.895c30.211-56.971,46.66-87.497,49.345-91.579
	c1.848-2.791,4.205-3.513,7.071-2.162c2.798,1.374,3.647,3.652,2.552,6.827c-2.937,7.93-17.385,39.305-43.346,94.12
	c-1.016,2.21-2.074,3.062-3.179,2.553c-0.987-0.388-1.986-1.047-2.992-1.979C569.061,262.268,568.135,261.585,567.102,261.056
	 M631.722,136.898c0.4,0.025,0.732,0.075,0.991,0.149l-0.585,8.781c-0.376,0.043-1.04,0.062-1.982,0.049
	c0.223-1.012,0.434-2.178,0.634-3.5c0.38-2.239,0.655-3.937,0.832-5.092C631.659,137.191,631.695,137.062,631.722,136.898
	 M628.321,136.934c0.615-0.043,1.158-0.061,1.629-0.054c0.022,0.072,0.022,0.188-0.004,0.353c-0.198,1.086-0.448,2.5-0.75,4.243
	c-0.229,1.486-0.44,2.773-0.642,3.855c-0.096,0.19-0.155,0.366-0.181,0.531c-0.474-0.004-1.028-0.022-1.666-0.053
	c0.199-1.085,0.413-2.369,0.641-3.854C627.82,139.763,628.144,138.089,628.321,136.934 M622.009,141.085
	c-0.322,1.44-0.57,2.734-0.747,3.891c-0.003,0.234-0.042,0.481-0.112,0.742c-0.638-0.032-1.265-0.025-1.881,0.017l0.075-0.141
	c0.247-1.18,0.449-2.499,0.604-3.964c0.423-2.096,0.723-3.723,0.899-4.88c0.566,0.055,1.191,0.048,1.877-0.016
	C622.548,137.892,622.31,139.341,622.009,141.085 M626.551,136.916c-0.153,0.99-0.366,2.394-0.646,4.21
	c-0.298,1.508-0.546,2.804-0.747,3.889c-0.071,0.258-0.146,0.52-0.221,0.776c-0.659-0.099-1.331-0.12-2.017-0.056
	c0.2-1.084,0.413-2.369,0.641-3.854c0.376-2.24,0.699-3.913,0.969-5.02C625.239,136.869,625.914,136.883,626.551,136.916
	 M616.348,136.672c0.474,0.004,1.396,0.061,2.764,0.169c-0.151,0.99-0.354,2.31-0.605,3.962c-0.299,1.507-0.538,2.841-0.716,3.994
	c-0.073,0.261-0.11,0.507-0.112,0.744l-0.106,0.035c-0.45,0.066-0.912,0.096-1.383,0.091L616.348,136.672 M607.968,117.601
	c3.521-7.099,5.673-11.126,6.461-12.086c2.704-3.305,6.293-5.678,10.768-7.121c0.927-0.297,1.862-0.559,2.811-0.786
	c-0.035,0.872-0.25,4.945-0.655,12.214c-0.219,5.405-0.364,9.457-0.44,12.15l-21.043,0.07
	C606.614,120.467,607.316,118.986,607.968,117.601"/>
<path fill="#A8A8A8" d="M617.572,145.577c-0.054,0.33-0.104,0.66-0.153,0.99l1.665,0.051c0.074-0.257,0.136-0.553,0.185-0.882
	c0.616-0.042,1.243-0.049,1.881-0.017c-0.124,0.351-0.209,0.695-0.26,1.023l1.664,0.053c0.121-0.353,0.243-0.706,0.366-1.06
	c0.685-0.064,1.357-0.043,2.017,0.056c-0.05,0.332-0.125,0.709-0.224,1.132l1.737-0.086c0.12-0.355,0.208-0.695,0.258-1.027
	c0.638,0.03,1.192,0.048,1.666,0.052c0.023,0.071,0.009,0.152-0.039,0.246c-0.027,0.403-0.103,0.781-0.223,1.131l1.771,0.019
	c0.049-0.329,0.124-0.708,0.223-1.131c-0.022-0.072-0.01-0.155,0.039-0.248c0.942,0.012,1.606-0.007,1.982-0.05l-0.299,5.274
	l-15.657-0.368l0.017-5.066C616.66,145.672,617.121,145.644,617.572,145.577 M619.372,135.462c-0.025,0.165-0.024,0.284-0.002,0.354
	c-0.074,0.257-0.146,0.519-0.223,0.778c0.022,0.069,0.012,0.153-0.036,0.247c-1.368-0.108-2.289-0.165-2.764-0.169l0.173-6.41
	l16.535,0.909l-0.343,5.876c-0.259-0.074-0.591-0.124-0.991-0.149c0.026-0.168,0.027-0.284,0.004-0.355l0.11-0.39
	c-0.165-0.025-0.754-0.03-1.772-0.018c0.024,0.073,0.023,0.189-0.002,0.355c-0.024,0.164-0.062,0.295-0.111,0.389
	c-0.471-0.007-1.014,0.011-1.628,0.055c-0.022-0.309,0.017-0.555,0.111-0.742l0.003-0.355c-0.164-0.025-0.718-0.042-1.664-0.054
	c-0.047,0.095-0.05,0.212-0.004,0.356c-0.072,0.259-0.146,0.516-0.218,0.776c-0.637-0.032-1.313-0.047-2.021-0.055l0.117-1.097
	c-0.163-0.026-0.731-0.078-1.698-0.159c-0.025,0.165-0.016,0.319,0.028,0.459c-0.093,0.19-0.178,0.412-0.253,0.671
	c-0.686,0.064-1.311,0.071-1.877,0.016l0.296-1.272C620.931,135.547,620.342,135.542,619.372,135.462"/>
<rect x="428.153" y="116.611" transform="matrix(-0.1814 -0.9834 0.9834 -0.1814 455.4622 622.9259)" fill="#D9D1D4" width="117.698" height="10.563"/>
<path fill="#BBBE64" d="M515.098,259.216c-0.854,0.366-1.775,0.645-2.771,0.827c-28.303,5.22-29.853-81.937-29.826-102.391
	c-2.129,0.07-4.049-1.417-4.446-3.575c-0.438-2.377,1.133-4.658,3.51-5.097l20.181-3.722c2.378-0.438,4.659,1.132,5.098,3.51
	c0.398,2.16-0.868,4.241-2.887,4.93C510.966,172.137,538.598,249.147,515.098,259.216"/>
<polygon fill="#D9D1D4" points="485.266,66.975 468.851,70.001 467.659,46.898 478.139,44.967 "/>
<polygon fill="#F08784" points="598.28,36.405 554.441,266.02 530.585,261.465 574.424,31.85 592.868,0 "/>
<path fill="#D9D1D4" d="M598.28,36.405c-8.089,5.496-11.928-2.277-11.928-2.277c-7.104,4.825-11.929-2.278-11.929-2.278
	l12.178-21.027L592.868,0l1.838,12.371L598.28,36.405z"/>
<polygon fill="#333745" points="594.706,12.371 586.603,10.824 592.868,0 "/>
<path fill="#B76C6C" d="M590.308,45.251c-0.36,1.927-0.722,3.854-1.082,5.781c-0.981,5.244-1.964,10.489-2.945,15.734
	c-1.451,7.757-2.904,15.515-4.356,23.273c-1.771,9.466-3.544,18.933-5.315,28.399c-1.949,10.412-3.897,20.823-5.847,31.234
	c-1.96,10.47-3.919,20.939-5.879,31.409c-1.827,9.761-3.654,19.522-5.481,29.284l-4.632,24.747
	c-1.111,5.933-2.222,11.865-3.332,17.798c-0.526,2.811-1.077,5.618-1.578,8.434c-0.021,0.121-0.046,0.241-0.068,0.363
	c-0.294,1.572,2.114,2.246,2.411,0.664c0.36-1.927,0.721-3.854,1.082-5.78c0.981-5.245,1.963-10.489,2.944-15.734
	c1.452-7.758,2.904-15.515,4.356-23.272c1.772-9.467,3.544-18.934,5.316-28.399c1.948-10.412,3.897-20.823,5.846-31.235
	c1.96-10.469,3.92-20.938,5.88-31.407c1.827-9.762,3.654-19.523,5.481-29.285c1.544-8.249,3.088-16.498,4.632-24.747
	c1.11-5.932,2.221-11.865,3.331-17.798c0.526-2.811,1.078-5.618,1.579-8.433c0.021-0.122,0.045-0.242,0.068-0.363
	C593.013,44.343,590.604,43.669,590.308,45.251"/>
<path fill="#B76C6C" d="M583.486,43.974c-0.361,1.927-0.722,3.854-1.082,5.781c-0.982,5.244-1.964,10.489-2.945,15.734
	c-1.452,7.757-2.904,15.515-4.356,23.273c-1.771,9.466-3.544,18.933-5.315,28.399c-1.949,10.412-3.898,20.823-5.847,31.234
	c-1.96,10.47-3.92,20.939-5.879,31.408c-1.827,9.762-3.654,19.524-5.481,29.284c-1.545,8.249-3.089,16.499-4.633,24.748
	c-1.11,5.933-2.221,11.864-3.331,17.797c-0.526,2.812-1.078,5.618-1.579,8.434c-0.021,0.122-0.045,0.242-0.067,0.363
	c-0.295,1.572,2.114,2.247,2.41,0.665c0.361-1.928,0.722-3.854,1.082-5.781c0.982-5.244,1.963-10.489,2.945-15.733l4.356-23.273
	c1.771-9.466,3.544-18.933,5.315-28.399c1.949-10.411,3.898-20.823,5.846-31.234c1.961-10.469,3.921-20.938,5.88-31.407
	c1.827-9.762,3.654-19.523,5.481-29.285c1.544-8.249,3.089-16.498,4.633-24.747c1.11-5.933,2.221-11.865,3.331-17.798
	c0.526-2.811,1.078-5.618,1.579-8.433c0.021-0.122,0.045-0.242,0.067-0.363C586.191,43.066,583.782,42.392,583.486,43.974"/>
<path fill="#B76C6C" d="M576.252,42.62c-0.36,1.927-0.722,3.854-1.082,5.781c-0.981,5.244-1.964,10.489-2.945,15.734
	c-1.452,7.757-2.904,15.515-4.356,23.273c-1.771,9.466-3.544,18.933-5.315,28.399c-1.949,10.412-3.897,20.823-5.847,31.234
	c-1.96,10.47-3.919,20.939-5.879,31.409c-1.827,9.761-3.654,19.522-5.481,29.284l-4.632,24.747
	c-1.111,5.933-2.222,11.865-3.332,17.798c-0.526,2.811-1.077,5.618-1.578,8.434c-0.021,0.121-0.046,0.242-0.068,0.363
	c-0.295,1.572,2.114,2.246,2.411,0.664c0.36-1.927,0.721-3.854,1.082-5.781c0.981-5.244,1.962-10.488,2.944-15.733
	c1.452-7.758,2.904-15.516,4.356-23.271c1.772-9.468,3.544-18.935,5.316-28.4c1.948-10.412,3.897-20.823,5.847-31.235
	c1.959-10.469,3.919-20.938,5.879-31.407c1.826-9.762,3.654-19.523,5.481-29.285c1.544-8.249,3.088-16.498,4.632-24.747
	c1.11-5.933,2.221-11.865,3.331-17.798c0.526-2.811,1.078-5.618,1.579-8.434c0.021-0.121,0.045-0.241,0.068-0.362
	C578.957,41.712,576.548,41.038,576.252,42.62"/>
<path fill="#5CCCCC" d="M295.451,300.42l108.573-63.828L282.929,30.604L295.451,300.42z M356.573,224.279l-29.083,17.099
	l-3.416-72.383L356.573,224.279z"/>
<line fill="none" stroke="#444444" stroke-miterlimit="10" x1="295.101" y1="69.313" x2="284.749" y2="69.78"/>
<line fill="none" stroke="#444444" stroke-miterlimit="10" x1="294.481" y1="55.584" x2="284.131" y2="56.051"/>
<line fill="none" stroke="#444444" stroke-miterlimit="10" x1="295.746" y1="83.625" x2="285.396" y2="84.092"/>
<line fill="none" stroke="#444444" stroke-miterlimit="10" x1="296.337" y1="96.721" x2="285.985" y2="97.188"/>
<line fill="none" stroke="#444444" stroke-miterlimit="10" x1="296.934" y1="109.971" x2="286.583" y2="110.438"/>
<line fill="none" stroke="#444444" stroke-miterlimit="10" x1="297.584" y1="124.393" x2="287.233" y2="124.859"/>
<line fill="none" stroke="#444444" stroke-miterlimit="10" x1="298.229" y1="138.705" x2="287.878" y2="139.172"/>
<line fill="none" stroke="#444444" stroke-miterlimit="10" x1="298.82" y1="151.801" x2="288.47" y2="152.268"/>
<line fill="none" stroke="#444444" stroke-miterlimit="10" x1="299.418" y1="165.051" x2="289.067" y2="165.518"/>
<line fill="none" stroke="#444444" stroke-miterlimit="10" x1="300.026" y1="178.548" x2="289.676" y2="179.015"/>
<line fill="none" stroke="#444444" stroke-miterlimit="10" x1="300.672" y1="192.861" x2="290.321" y2="193.328"/>
<line fill="none" stroke="#444444" stroke-miterlimit="10" x1="301.263" y1="205.957" x2="290.912" y2="206.423"/>
<line fill="none" stroke="#444444" stroke-miterlimit="10" x1="301.86" y1="219.207" x2="291.51" y2="219.673"/>
<line fill="none" stroke="#444444" stroke-miterlimit="10" x1="302.508" y1="233.551" x2="292.155" y2="234.018"/>
<line fill="none" stroke="#444444" stroke-miterlimit="10" x1="303.153" y1="247.864" x2="292.802" y2="248.331"/>
<line fill="none" stroke="#444444" stroke-miterlimit="10" x1="303.743" y1="260.959" x2="293.393" y2="261.426"/>
<line fill="none" stroke="#444444" stroke-miterlimit="10" x1="304.341" y1="274.209" x2="293.99" y2="274.676"/>
<polygon fill="#FFD15F" points="742.164,85.166 638.965,294.917 617.173,284.194 720.372,74.444 746.606,48.63 "/>
<path fill="#D9D1D4" d="M742.164,85.166c-9.257,3.152-10.896-5.361-10.896-5.361c-8.128,2.768-10.896-5.361-10.896-5.361
	l17.321-17.042l8.913-8.772l-1.511,12.415L742.164,85.166z"/>
<polygon fill="#333745" points="745.096,61.045 737.693,57.402 746.606,48.63 "/>
<path fill="#E8E8E8" d="M408.475,74.528c-0.066,0.269-0.083,0.542-0.051,0.813c-1.542,20.753-2.409,35.76-2.599,45.02l58.026,3.525
	c0.917-9.246,1.92-24.243,3.004-44.996c-0.025-0.272-0.008-0.544,0.05-0.813L408.475,74.528z"/>
<g>
	<defs>
		
			<rect id="SVGID_4_" x="405.166" y="122.105" transform="matrix(-0.9982 -0.0606 0.0606 -0.9982 859.6604 290.2543)" width="58.133" height="19.965"/>
	</defs>
	<clipPath id="SVGID_5_">
		<use xlink:href="#SVGID_4_"  overflow="visible"/>
	</clipPath>
	
		<linearGradient id="SVGID_6_" gradientUnits="userSpaceOnUse" x1="-398.3813" y1="559.4673" x2="-397.3826" y2="559.4673" gradientTransform="matrix(10.2198 -79.1662 -79.1662 -10.2198 48793.1523 -25662.2832)">
		<stop  offset="0" style="stop-color:#C0C0C0"/>
		<stop  offset="0.2581" style="stop-color:#C0C0C0"/>
		<stop  offset="1" style="stop-color:#B8D8D6"/>
	</linearGradient>
	<polygon clip-path="url(#SVGID_5_)" fill="url(#SVGID_6_)" points="401.636,143.429 405.584,112.839 466.83,120.746 
		462.881,151.335 	"/>
</g>
<g>
	<defs>
		<path id="SVGID_7_" d="M426.434,262.72c-1.447-0.088-2.64-0.658-3.57-1.715c-1.021-1.15-1.485-2.447-1.396-3.896
			c0.093-1.535,0.708-2.723,1.849-3.561c0.972-1.028,2.224-1.497,3.759-1.404c1.448,0.087,2.681,0.709,3.697,1.858
			c0.935,1.054,1.357,2.304,1.271,3.751c-0.083,1.357-0.656,2.59-1.723,3.705c-1.134,0.848-2.321,1.27-3.559,1.27
			C426.652,262.729,426.543,262.726,426.434,262.72 M416.395,170.397c5.947,9.429,8.466,17.974,7.559,25.632
			c-0.908,6.922-2.411,15.223-4.507,24.9c-0.322,1.141-0.617,2.3-0.893,3.484c-1.468,6.262-2.757,12.531-3.862,18.815
			c-1.244,6.999-1.726,11.188-1.446,12.565c0.122,1.007,0.745,2.677,1.873,5.014c1.78,3.554,3.312,6.733,4.593,9.532
			c4.272,4.34,8.479,4.551,12.616,0.631c1.514-2.539,3.371-5.466,5.568-8.78c1.406-2.271,2.23-3.856,2.465-4.748
			c0.353-1.339,0.385-5.556,0.09-12.649c-0.339-6.371-0.817-12.705-1.434-19c-0.174-1.279-0.322-2.514-0.455-3.703
			c-0.959-9.861-1.448-18.235-1.467-25.127c-0.103-7.81,3.539-16.297,10.937-25.461c7.397-9.256,12.266-18.486,14.608-27.689
			l-58.026-3.524C406.541,150.939,410.467,160.974,416.395,170.397"/>
	</defs>
	<clipPath id="SVGID_8_">
		<use xlink:href="#SVGID_7_"  overflow="visible"/>
	</clipPath>
	
		<linearGradient id="SVGID_9_" gradientUnits="userSpaceOnUse" x1="-398.8892" y1="559.4048" x2="-397.8892" y2="559.4048" gradientTransform="matrix(68.1251 -112.7696 -112.7696 -68.1251 90676.0938 -6639.6519)">
		<stop  offset="0" style="stop-color:#D29168"/>
		<stop  offset="0.1935" style="stop-color:#D29168"/>
		<stop  offset="1" style="stop-color:#D27B85"/>
	</linearGradient>
	<polygon clip-path="url(#SVGID_8_)" fill="url(#SVGID_9_)" points="345.04,238.903 420.128,114.608 522.212,176.278 
		447.125,300.573 	"/>
</g>
<path fill="#A67791" d="M403.706,101.598c0.618,7.749,2.915,11.742,6.894,11.984c1.053,0.065,3.106-0.899,6.163-2.892l0.576-9.49
	l0.99-0.62c0.618,1.761,0.812,4.54,0.579,8.338c-0.009,0.163-0.018,0.343-0.032,0.54c2.443-1.229,5.113-1.84,8.004-1.826
	c0.02-1.814,0.104-3.94,0.253-6.382l0.909-12.735l0.838-0.357c0.586,2.305,0.685,6.664,0.296,13.081
	c0.062,2.808,0.062,5.031,0.001,6.667c0.698,0.087,1.413,0.267,2.145,0.539l0.734-12.064c0.281-0.166,0.654-0.368,1.126-0.614
	c0.527,1.757,0.651,4.938,0.372,9.549c-0.092,1.479-0.173,2.835-0.249,4.066c0.489,0.241,1.014,0.545,1.578,0.914
	c2.437,1.689,5.419,2.641,8.942,2.855c2.531,0.154,4.894-0.654,7.088-2.427c1.026-0.909,2.327-1.464,3.911-1.666l1.128-18.574
	l0.99-0.621c0.583,2.395,0.686,6.618,0.318,12.676c0.174,2.692,0.269,4.829,0.29,6.411c0.978-0.011,2.059,0.099,3.248,0.335
	c4.409,0.898,6.505,0.028,6.282-2.612c1.036-8.719,1.733-14.983,2.095-18.787c0.272-3.904,0.249-7.259-0.071-10.074
	c-0.432-1.84-2.012-2.709-4.739-2.6l-10.489,0.178c-1.897-0.117-5.18-0.587-9.847-1.413c-4.576-0.824-7.633-1.282-9.168-1.374
	c-2.531-0.155-5.358,0.036-8.474,0.573c-2.657,0.472-7.504,0.36-14.538-0.34c-3.785-0.41-6.125,0.764-7.017,3.52
	c-0.109,0.266-0.335,3.245-0.68,8.94C403.657,93.43,403.51,98.865,403.706,101.598 M416.772,97.083
	c0.042-0.722,0.068-1.13,0.075-1.217c0.105-0.266,0.434-0.474,0.989-0.62c0.702,0.403,1.025,1.013,0.979,1.826
	c-0.04,0.634-0.438,1.199-1.194,1.696C417.001,98.551,416.717,97.99,416.772,97.083"/>
<g>
	<defs>
		<path id="SVGID_10_" d="M481.326,278.585c1.984,2.397,4.353,4.272,7.097,5.621c0.629,0.306,1.258,0.57,1.893,0.789
			c2.665,0.981,5.616,1.492,8.852,1.529l23.686-60.404l-1.834-0.711l-14.238-5.524l-1.772-0.706L481.326,278.585z"/>
	</defs>
	<clipPath id="SVGID_11_">
		<use xlink:href="#SVGID_10_"  overflow="visible"/>
	</clipPath>
	
		<linearGradient id="SVGID_12_" gradientUnits="userSpaceOnUse" x1="-398.645" y1="559.6724" x2="-397.6456" y2="559.6724" gradientTransform="matrix(40.0234 -80.0466 -80.0466 -40.0234 61239.4219 -9222.1719)">
		<stop  offset="0" style="stop-color:#FFA941"/>
		<stop  offset="0.1613" style="stop-color:#FFA941"/>
		<stop  offset="1" style="stop-color:#FFC241"/>
	</linearGradient>
	<polygon clip-path="url(#SVGID_11_)" fill="url(#SVGID_12_)" points="454.388,273.056 489.632,202.569 549.791,232.649 
		514.547,303.136 	"/>
</g>
<g>
	<defs>
		<path id="SVGID_13_" d="M532.582,153.174c-1.759,4.47-3.808,9.763-6.144,15.889c-8.051,21.11-14.164,36.935-18.342,47.471
			c-0.47,1.18-0.91,2.297-1.316,3.351l14.238,5.524c13.505-32.899,24.796-61.231,33.867-85.004
			c-1.574-0.478-3.515-1.231-5.819-2.251c-3.944-1.378-7.064-2.599-9.363-3.663C539.563,134.87,537.19,141.099,532.582,153.174"/>
	</defs>
	<clipPath id="SVGID_14_">
		<use xlink:href="#SVGID_13_"  overflow="visible"/>
	</clipPath>
	
		<linearGradient id="SVGID_15_" gradientUnits="userSpaceOnUse" x1="-399.7349" y1="558.6997" x2="-398.7349" y2="558.6997" gradientTransform="matrix(-54.8885 129.5977 129.5977 54.8885 -93805.9531 21294.3691)">
		<stop  offset="0" style="stop-color:#A9A9A9"/>
		<stop  offset="0.1183" style="stop-color:#A9A9A9"/>
		<stop  offset="1" style="stop-color:#B8D8D6"/>
	</linearGradient>
	<polygon clip-path="url(#SVGID_14_)" fill="url(#SVGID_15_)" points="587.536,148.319 547.569,242.685 474.13,211.582 
		514.097,117.216 	"/>
</g>
<path fill="#333745" d="M539.135,81.065c0.122-1.894-0.175-3.311-0.891-4.251c-0.609-0.748-2.271-1.595-4.985-2.54
	c-0.425-0.144-0.834-0.246-1.227-0.296c-2.125-0.378-3.737,0.403-4.843,2.34c-0.751,1.276-2.308,4.907-4.672,10.89
	c-1.507,3.928-2.547,6.873-3.126,8.836c-0.322,1.067-0.49,1.823-0.505,2.263c-0.279,2.716,0.829,4.554,3.319,5.511
	c2.391,1.033,4.108,1.444,5.162,1.232c1.118-0.072,2.347-1.104,3.679-3.1c5.589,2.353,9.252,4.004,10.987,4.949
	c1.776,0.994,2.364,3.228,1.761,6.698c-0.461,3.401-1.304,6.017-2.529,7.851c-1.528,0.147-2.639,0.465-3.322,0.949
	c-2.536,2.986-3.631,5.814-3.28,8.481c-0.008,0.709,1.674,1.913,5.04,3.613c2.299,1.065,5.42,2.285,9.363,3.663
	c2.305,1.02,4.245,1.773,5.82,2.251c3.501,1.053,5.515,1.258,6.046,0.618c0.347-0.263,0.634-0.58,0.862-0.949
	c1.48-1.752,2.306-4.261,2.479-7.523c-0.239-0.832-0.891-1.785-1.942-2.86c0.549-2.102,1.82-4.593,3.808-7.478
	c1.994-2.928,4.307-4.102,6.938-3.523c2.529,0.652,5.434,2.82,8.71,6.503c3.281,3.643,6.078,10.703,8.391,21.183
	c3.013-4.877,4.739-9.436,5.181-13.685c0.076-0.567,0.133-1.136,0.166-1.711c0.268-3.958-0.384-8.33-1.955-13.118
	c-1.774-5.612-5.201-10.472-10.286-14.577c-5.066-4.237-11.274-7.898-18.629-10.977c-0.551-0.208-1.095-0.438-1.639-0.688
	C556.043,88.679,548.082,85.161,539.135,81.065"/>
<path fill="#DDA11B" d="M732.546,89.786c-0.854,1.764-1.71,3.528-2.564,5.292c-2.326,4.802-4.653,9.604-6.979,14.406
	c-3.441,7.102-6.883,14.205-10.324,21.308l-12.598,26.001c-4.619,9.532-9.237,19.065-13.856,28.597
	c-4.644,9.585-9.288,19.171-13.933,28.756c-4.33,8.937-8.66,17.874-12.99,26.812c-3.659,7.553-7.319,15.105-10.979,22.657
	c-2.632,5.432-5.263,10.863-7.895,16.295c-1.247,2.573-2.518,5.137-3.741,7.722c-0.053,0.111-0.107,0.222-0.162,0.332
	c-0.698,1.442,1.457,2.711,2.159,1.262c0.855-1.764,1.71-3.528,2.564-5.292c2.327-4.802,4.653-9.604,6.979-14.405l10.324-21.308
	c4.199-8.668,8.398-17.335,12.598-26.002c4.619-9.532,9.237-19.064,13.856-28.597c4.644-9.585,9.288-19.171,13.933-28.755
	c4.33-8.937,8.66-17.875,12.99-26.812c3.66-7.553,7.319-15.105,10.979-22.658l7.896-16.295c1.246-2.573,2.517-5.136,3.741-7.721
	c0.053-0.111,0.107-0.221,0.16-0.332C735.403,89.606,733.248,88.337,732.546,89.786"/>
<path fill="#DDA11B" d="M726.3,86.76c-0.854,1.764-1.709,3.529-2.563,5.293c-2.327,4.802-4.653,9.603-6.98,14.405
	c-3.441,7.103-6.882,14.205-10.323,21.308c-4.2,8.667-8.4,17.334-12.599,26.001c-4.618,9.533-9.237,19.065-13.855,28.597
	c-4.645,9.586-9.289,19.171-13.933,28.756c-4.33,8.938-8.661,17.874-12.991,26.812l-10.978,22.658
	c-2.631,5.432-5.264,10.862-7.896,16.294c-1.247,2.574-2.518,5.138-3.741,7.722c-0.053,0.111-0.107,0.222-0.162,0.333
	c-0.697,1.441,1.458,2.711,2.16,1.262c0.854-1.765,1.709-3.528,2.564-5.293c2.326-4.802,4.652-9.604,6.979-14.405l10.324-21.308
	l12.597-26.001c4.619-9.533,9.238-19.065,13.856-28.598c4.644-9.586,9.289-19.17,13.933-28.755
	c4.331-8.937,8.661-17.874,12.991-26.811l10.978-22.659c2.632-5.431,5.264-10.862,7.896-16.294c1.247-2.574,2.517-5.137,3.741-7.722
	c0.053-0.111,0.107-0.221,0.161-0.332C729.157,86.58,727.002,85.311,726.3,86.76"/>
<path fill="#DDA11B" d="M719.677,83.551c-0.854,1.764-1.709,3.528-2.564,5.293c-2.326,4.802-4.652,9.603-6.979,14.405
	c-3.441,7.103-6.883,14.205-10.324,21.308l-12.598,26.001c-4.618,9.533-9.237,19.065-13.855,28.597
	c-4.645,9.585-9.289,19.171-13.933,28.756c-4.33,8.938-8.661,17.874-12.991,26.812l-10.978,22.658
	c-2.631,5.431-5.264,10.862-7.896,16.294c-1.247,2.574-2.518,5.138-3.741,7.722c-0.053,0.111-0.107,0.222-0.162,0.333
	c-0.697,1.441,1.458,2.711,2.16,1.262c0.854-1.765,1.709-3.529,2.564-5.293c2.326-4.802,4.652-9.604,6.979-14.405l10.324-21.308
	c4.199-8.667,8.398-17.334,12.597-26.002c4.619-9.532,9.238-19.064,13.856-28.597c4.644-9.586,9.289-19.17,13.933-28.755
	c4.33-8.937,8.661-17.874,12.991-26.812c3.659-7.552,7.318-15.105,10.978-22.658c2.632-5.431,5.264-10.862,7.896-16.294
	c1.247-2.574,2.517-5.137,3.741-7.722c0.053-0.111,0.107-0.221,0.161-0.332C722.534,83.371,720.379,82.102,719.677,83.551"/>
<path fill="#FF6666" d="M282.312,130.381l-0.313-0.39c-2.967-3.707-8.428-4.312-12.136-1.344l-25.923,20.751
	c-3.707,2.967-4.313,8.429-1.345,12.136l0.312,0.389c2.967,3.708,8.429,4.313,12.137,1.346l25.923-20.752
	C284.674,139.549,285.279,134.089,282.312,130.381"/>
<path fill="#FF6666" d="M141.77,157.834l0.157-0.474c1.489-4.509,6.396-6.98,10.906-5.49l31.531,10.413
	c4.509,1.489,6.98,6.398,5.49,10.907l-0.156,0.474c-1.489,4.51-6.397,6.98-10.907,5.491l-31.529-10.414
	C142.751,167.251,140.28,162.343,141.77,157.834"/>
<path fill="#FF6666" d="M279.252,186.838c5.635,30.553-14.232,59.828-44.374,65.387c-30.142,5.56-59.145-14.702-64.78-45.256
	c-5.635-30.554,14.232-59.828,44.374-65.387C244.614,136.023,273.617,156.284,279.252,186.838"/>
<path fill="#FFED80" d="M279.252,186.838c5.635,30.553-14.232,59.828-44.374,65.387c-30.142,5.56-59.145-14.702-64.78-45.256
	L279.252,186.838z"/>
<path fill="#FFFFFF" d="M224.355,160.756c0.642,3.479-1.658,6.818-5.137,7.46s-6.818-1.658-7.46-5.137
	c-0.642-3.478,1.658-6.818,5.137-7.459C220.374,154.979,223.714,157.278,224.355,160.756"/>
<path fill="#FFFFFF" d="M228.347,182.395c0.642,3.479-1.658,6.818-5.137,7.46c-3.479,0.643-6.818-1.658-7.46-5.137
	s1.658-6.818,5.137-7.46S227.704,178.917,228.347,182.395"/>
<path fill="#FFED80" d="M242.212,143.632l8.925,48.391l8.929-1.646l-7.766-42.113C252.3,148.264,248.678,142.653,242.212,143.632"/>
<path fill="#FFED80" d="M188.969,153.452l8.925,48.392l-8.93,1.646l-7.767-42.112C181.197,161.377,182.578,154.844,188.969,153.452"
	/>
<path fill="#172377" d="M154.942,124.175c-5.803,3.297-16.45,10.604-20.143,21.468c-0.251,0.74-0.306,1.531-0.188,2.303
	c0.443,2.901,2.64,9.3,13.444,7.825c1.165-0.159,2.227-0.747,3.018-1.616c2.935-3.223,9.981-12.159,11.432-25.013
	c0.152-1.342-0.244-2.694-1.09-3.747C159.851,123.449,157.112,122.942,154.942,124.175"/>
<path fill="#172377" d="M252.241,113.85c3.238,5.836,10.438,16.557,21.263,20.359c0.737,0.259,1.528,0.323,2.301,0.212
	c2.905-0.413,9.327-2.545,7.961-13.364c-0.146-1.166-0.725-2.234-1.585-3.034c-3.193-2.968-12.057-10.104-24.896-11.686
	c-1.341-0.165-2.696,0.218-3.758,1.053C251.566,108.933,251.03,111.667,252.241,113.85"/>
<path fill="#FFE8D2" d="M146.232,84.753c1.283-0.323,2.57-0.387,3.809-0.231c5.965-21.47,25.881-37.959,50.5-39.518
	c24.69-1.563,46.581,12.369,55.154,33.012c0.85-0.289,1.75-0.475,2.688-0.534c5.694-0.361,10.603,3.963,10.963,9.657
	c0.36,5.694-3.964,10.601-9.657,10.962c-0.053,0.003-0.104,0.003-0.157,0.006c-0.424,27.347-23.053,50.313-52.328,52.165
	c-29.282,1.854-54.631-18.084-58.49-45.169c-4.609-0.014-8.802-3.135-9.979-7.811C137.343,91.759,140.699,86.146,146.232,84.753"/>
<path fill="#FF2929" d="M237.965,109.706c-3.956,0.25-7.256-1.014-7.37-2.824c-0.115-1.811,2.999-3.481,6.955-3.732
	c3.956-0.25,7.257,1.014,7.371,2.825C245.035,107.785,241.921,109.456,237.965,109.706"/>
<path fill="#FF2929" d="M164.438,119.411c-3.471,0.64-6.552-0.287-6.881-2.071c-0.329-1.783,2.218-3.748,5.69-4.389
	c3.471-0.64,6.551,0.287,6.88,2.071C170.456,116.806,167.909,118.771,164.438,119.411"/>
<path fill="#172377" d="M260.929,76.272c-2.071,5.301-8.833,7.612-15.104,5.162c-6.271-2.451-9.676-8.734-7.604-14.035
	c2.071-5.301,8.834-7.612,15.104-5.162C259.596,64.688,263,70.971,260.929,76.272"/>
<path fill="#172377" d="M141.196,83.85c2.723,4.998,9.723,6.437,15.635,3.216c5.911-3.221,8.496-9.883,5.774-14.881
	c-2.723-4.997-9.723-6.437-15.635-3.216C141.058,72.19,138.473,78.852,141.196,83.85"/>
<path fill="#172377" d="M244.343,61.951c0.471,7.433-5.174,13.84-12.606,14.31c-7.434,0.471-13.841-5.174-14.311-12.607
	c-0.471-7.432,5.174-13.84,12.605-14.31C237.465,48.873,243.872,54.518,244.343,61.951"/>
<path fill="#172377" d="M221.722,63.383c0.471,7.433-5.174,13.84-12.606,14.31c-7.434,0.471-13.841-5.174-14.311-12.606
	c-0.471-7.433,5.174-13.841,12.605-14.311C214.845,50.305,221.251,55.95,221.722,63.383"/>
<path fill="#172377" d="M200.817,64.706c0.47,7.433-5.174,13.84-12.607,14.311c-7.433,0.47-13.84-5.174-14.31-12.607
	c-0.471-7.433,5.173-13.84,12.605-14.311C193.939,51.628,200.347,57.272,200.817,64.706"/>
<path fill="#172377" d="M181.764,65.912c0.471,7.433-5.174,13.84-12.607,14.311c-7.433,0.47-13.84-5.174-14.31-12.607
	c-0.471-7.433,5.174-13.841,12.606-14.311C174.887,52.834,181.293,58.479,181.764,65.912"/>
<path fill="#FFD039" d="M254.875,58.683c-1.476-23.313-26.705-40.69-56.352-38.814s-52.483,22.296-51.008,45.608l-9.599,8.704
	l125.843-7.965L254.875,58.683z"/>
<path fill="#00A550" d="M203.868,30.625c0.151,2.393-1.664,4.457-4.057,4.608c-2.391,0.151-4.454-1.667-4.605-4.06
	c-0.151-2.391,1.666-4.454,4.057-4.605C201.655,26.417,203.717,28.233,203.868,30.625"/>
<path fill="#00A550" d="M200.059,38.773c1.478-1.54,6.681-7.583,6.681-7.583l8.036,7.078c0,0,2.513,1.711,0.566,3.918
	c-1.947,2.211-4.205,4.866-4.205,4.866l0.492,7.766l-8.557,0.453l-0.396-5.231l5.696-0.361l-0.262-4.124l-5.631,0.357l-0.364-5.759
	l-4.12,0.261l0.347,5.499l-5.691,0.36l0.269,4.253l5.627-0.356l0.34,5.366l-8.376,0.53l-0.505-7.982c0,0-3.719-3.248-4.628-4.078
	c-1.088-1.081-1.203-2.212-0.313-3.364c1.682-1.815,7.389-8.384,7.389-8.384L200.059,38.773z"/>
<path fill="#FFFFFF" d="M237.271,91.271c0.487,7.687-5.351,14.313-13.038,14.8c-7.688,0.487-14.313-5.351-14.8-13.038
	c-0.487-7.688,5.351-14.314,13.038-14.801C230.158,77.746,236.784,83.583,237.271,91.271"/>
<path fill="#221E1F" d="M212.81,64.192c0.194-0.012,0.377-0.072,0.546-0.181c0.125-0.079,0.205-0.173,0.239-0.278
	c0.043-0.141,0.053-0.417,0.026-0.838l-0.338-5.336c-0.031-0.496-0.103-0.808-0.211-0.93c-0.169-0.189-0.42-0.276-0.758-0.254
	l-0.298,0.019l-0.015-0.231l3.546-0.224l0.015,0.23l-0.294,0.019c-0.196,0.012-0.38,0.072-0.554,0.182
	c-0.122,0.083-0.2,0.177-0.234,0.281c-0.045,0.137-0.054,0.413-0.027,0.834l0.337,5.336c0.032,0.496,0.101,0.809,0.207,0.934
	c0.168,0.19,0.423,0.272,0.767,0.25l0.293-0.019l0.015,0.231l-3.545,0.225l-0.015-0.231L212.81,64.192z"/>
<path fill="#221E1F" d="M206.18,56.354c0.054,0.192,0.114,0.313,0.187,0.375c0.071,0.058,0.159,0.083,0.265,0.077
	c0.095-0.006,0.252-0.065,0.474-0.181c0.48-0.249,0.939-0.389,1.38-0.417c0.706-0.044,1.3,0.136,1.784,0.532
	c0.483,0.402,0.744,0.896,0.782,1.49c0.021,0.342-0.036,0.662-0.173,0.955c-0.138,0.293-0.35,0.569-0.636,0.823
	c-0.284,0.254-0.771,0.6-1.459,1.04c-0.688,0.435-1.106,0.72-1.257,0.853c-0.225,0.193-0.388,0.399-0.486,0.61
	c-0.099,0.215-0.142,0.423-0.129,0.627c0.024,0.367,0.191,0.673,0.504,0.92c0.312,0.252,0.723,0.359,1.232,0.327
	c0.439-0.028,0.837-0.151,1.194-0.369c0.356-0.219,0.615-0.48,0.774-0.784c0.161-0.308,0.275-0.76,0.345-1.361l0.23-0.014
	l0.179,2.836l-0.23,0.015c-0.041-0.193-0.092-0.319-0.155-0.377c-0.063-0.059-0.145-0.085-0.246-0.079
	c-0.107,0.007-0.354,0.09-0.744,0.243c-0.387,0.158-0.644,0.25-0.769,0.28c-0.209,0.049-0.433,0.081-0.674,0.097
	c-0.767,0.048-1.404-0.139-1.919-0.56c-0.516-0.421-0.792-0.942-0.832-1.567c-0.021-0.332,0.035-0.647,0.169-0.958
	c0.133-0.311,0.333-0.586,0.601-0.826c0.269-0.239,0.777-0.587,1.527-1.049c0.92-0.569,1.497-1.011,1.731-1.333
	c0.162-0.215,0.236-0.451,0.221-0.704c-0.021-0.328-0.178-0.611-0.473-0.851c-0.293-0.239-0.651-0.345-1.075-0.318
	c-0.374,0.023-0.731,0.144-1.069,0.352c-0.339,0.213-0.592,0.486-0.762,0.822c-0.169,0.335-0.271,0.778-0.311,1.328l-0.23,0.015
	l-0.181-2.854L206.18,56.354z"/>
<path fill="#221E1F" d="M202.256,58.257c-0.025-0.403-0.067-0.672-0.124-0.802c-0.058-0.125-0.15-0.222-0.28-0.276
	c-0.18-0.082-0.368-0.119-0.563-0.107l-0.299,0.019l-0.015-0.23l3.545-0.225l0.015,0.231l-0.293,0.019
	c-0.196,0.012-0.381,0.072-0.554,0.182c-0.122,0.083-0.2,0.172-0.235,0.277c-0.044,0.136-0.053,0.417-0.026,0.838l0.338,5.336
	c0.031,0.496,0.101,0.808,0.206,0.934c0.169,0.19,0.424,0.272,0.766,0.25l0.293-0.018l0.016,0.23l-3.546,0.225l-0.015-0.231
	l0.3-0.019c0.195-0.012,0.377-0.072,0.545-0.181c0.125-0.079,0.205-0.174,0.239-0.278c0.043-0.141,0.053-0.417,0.025-0.838
	l-0.159-2.517l-3.847,0.243l0.159,2.517c0.03,0.497,0.103,0.809,0.213,0.935c0.168,0.19,0.422,0.271,0.759,0.25l0.295-0.019
	l0.014,0.231l-3.544,0.224l-0.015-0.231l0.294-0.018c0.195-0.013,0.381-0.073,0.554-0.182c0.122-0.079,0.201-0.173,0.236-0.277
	c0.044-0.141,0.051-0.417,0.024-0.839l-0.338-5.335c-0.025-0.403-0.066-0.672-0.119-0.803c-0.057-0.125-0.152-0.222-0.287-0.275
	c-0.181-0.082-0.37-0.119-0.564-0.107l-0.295,0.019l-0.015-0.231l3.545-0.224l0.015,0.231l-0.294,0.018
	c-0.195,0.012-0.378,0.073-0.548,0.182c-0.126,0.083-0.204,0.173-0.24,0.277c-0.045,0.137-0.054,0.418-0.027,0.839l0.15,2.375
	l3.848-0.243L202.256,58.257z"/>
<path fill="#221E1F" d="M189.921,64.297c-0.138,0.391-0.204,0.676-0.192,0.853c0.008,0.133,0.075,0.245,0.195,0.326
	c0.124,0.085,0.349,0.129,0.678,0.122l0.015,0.23l-3.281,0.208l-0.015-0.231c0.335-0.038,0.593-0.148,0.773-0.325
	c0.178-0.175,0.365-0.548,0.562-1.112l2.419-7.058l0.23-0.015l3.37,6.612c0.291,0.582,0.544,0.963,0.765,1.144
	c0.108,0.091,0.337,0.157,0.687,0.197l0.016,0.23l-2.604,0.165l-0.015-0.23c0.397-0.052,0.65-0.131,0.767-0.236
	c0.113-0.1,0.166-0.215,0.158-0.339c-0.011-0.159-0.094-0.395-0.254-0.704l-0.646-1.268l-3.211,0.203L189.921,64.297z
	 M193.329,62.435l-1.665-3.25l-1.171,3.43L193.329,62.435z"/>
<path fill="#FFA1A1" d="M195.9,112.748c0.183,2.889,2.673,5.082,5.562,4.899c2.888-0.183,5.082-2.672,4.898-5.561
	c-0.183-2.889-2.672-5.082-5.561-4.9C197.911,107.37,195.718,109.859,195.9,112.748"/>
<path fill="#FF6666" d="M271.932,142.915l0.462,0.189c4.395,1.799,9.463-0.324,11.262-4.719l12.583-30.729
	c1.8-4.395-0.324-9.463-4.719-11.262l-0.462-0.189c-4.395-1.8-9.462,0.324-11.262,4.718l-12.583,30.73
	C265.414,136.047,267.536,141.115,271.932,142.915"/>
<path fill="#FFE8D2" d="M296.424,107.145c1.542-4.636-0.99-9.691-5.626-11.233c-4.637-1.542-9.691,0.99-11.233,5.627"/>
<path fill="#FF6666" d="M154.96,166.616l-0.392,0.31c-3.725,2.945-9.182,2.307-12.128-1.418l-20.595-26.047
	c-2.945-3.725-2.307-9.183,1.418-12.128l0.391-0.31c3.725-2.945,9.183-2.307,12.128,1.418l20.595,26.047
	C159.323,158.213,158.685,163.671,154.96,166.616"/>
<path fill="#FFE8D2" d="M121.525,139.021c-2.765-4.028-1.73-9.586,2.298-12.352c4.029-2.764,9.587-1.73,12.352,2.299"/>
<path d="M232.555,91.569c0.321,5.083-3.538,9.463-8.621,9.785c-5.082,0.322-9.463-3.537-9.785-8.62
	c-0.322-5.082,3.538-9.464,8.621-9.785C227.852,82.627,232.232,86.486,232.555,91.569"/>
<path fill="#A82727" d="M222.041,127.898c-1.492,5.009-6.377,9.592-14.47,9.752c-8.092,0.16-14.735-3.947-14.837-9.173
	c-0.101-5.226,7.549-3.006,15.027-6.102C219.475,117.525,223.682,122.393,222.041,127.898"/>
<path fill="#FF2929" d="M221.012,130.349c-2.009-2.646-6.721-4.018-11.676-3.363c-8.855,1.172-14.175,3.878-15.089,5.553
	c2.401,3.064,7.297,5.229,13.302,5.11C213.943,137.523,218.532,134.513,221.012,130.349"/>
<path fill="#FFED80" d="M215.71,245.442c-0.841-2.163-3.3-3.245-5.463-2.403c-2.164,0.842-3.245,3.301-2.403,5.465l18.991,48.812
	l-8.021,3.121c-1.684,0.655-2.524,2.568-1.87,4.251c0.655,1.683,2.567,2.524,4.251,1.869l12.827-4.991
	c1.685-0.655,2.525-2.567,1.87-4.25l-0.269-0.692c-0.012-0.03-0.031-0.057-0.045-0.087c-0.011-0.03-0.015-0.063-0.026-0.095
	L215.71,245.442z"/>
<path fill="#FFED80" d="M267.208,219.316c-1.32-1.91-3.962-2.393-5.872-1.072c-1.909,1.319-2.392,3.962-1.072,5.871l29.781,43.087
	l-7.08,4.894c-1.485,1.027-1.86,3.083-0.834,4.568s3.082,1.86,4.567,0.834l11.323-7.827c1.486-1.026,1.861-3.082,0.834-4.567
	l-0.422-0.61c-0.019-0.028-0.043-0.049-0.063-0.075c-0.018-0.027-0.028-0.059-0.047-0.086L267.208,219.316z"/>
<path fill="#FFFFFF" d="M189.621,96.074c0.486,7.687-5.351,14.314-13.038,14.8c-7.688,0.487-14.314-5.351-14.8-13.038
	c-0.487-7.687,5.351-14.314,13.038-14.8C182.509,82.549,189.135,88.387,189.621,96.074"/>
<path d="M184.904,96.372c0.322,5.083-3.537,9.464-8.62,9.786c-5.083,0.321-9.463-3.538-9.785-8.621
	c-0.322-5.082,3.538-9.463,8.62-9.785C180.202,87.43,184.583,91.289,184.904,96.372"/>
<path fill="#F5F5F5" d="M87.753,91.88c0.08,0.038,0.151,0.089,0.211,0.151c5.447,3.811,9.335,6.629,11.665,8.453l-10.85,15.069
	c-2.473-1.64-6.387-4.422-11.741-8.346c-0.062-0.061-0.133-0.112-0.211-0.152L87.753,91.88z"/>
<g>
	<defs>
		
			<rect id="SVGID_16_" x="93.603" y="100.597" transform="matrix(-0.8116 -0.5843 0.5843 -0.8116 111.1473 255.6091)" width="6.377" height="18.569"/>
	</defs>
	<clipPath id="SVGID_17_">
		<use xlink:href="#SVGID_16_"  overflow="visible"/>
	</clipPath>
	
		<linearGradient id="SVGID_18_" gradientUnits="userSpaceOnUse" x1="-396.9438" y1="561.1353" x2="-395.9433" y2="561.1353" gradientTransform="matrix(-21.6535 -13.4645 13.4645 -21.6535 -16046.6396 6920.2056)">
		<stop  offset="0" style="stop-color:#C0C0C0"/>
		<stop  offset="0.2581" style="stop-color:#C0C0C0"/>
		<stop  offset="1" style="stop-color:#B8D8D6"/>
	</linearGradient>
	<polygon clip-path="url(#SVGID_17_)" fill="url(#SVGID_18_)" points="113.234,105.725 93.248,93.297 80.351,114.038 
		100.336,126.466 	"/>
</g>
<g>
	<defs>
		<path id="SVGID_19_" d="M128.33,134.727c-0.377-0.27-0.601-0.627-0.672-1.072c-0.079-0.483,0.017-0.914,0.287-1.29
			c0.287-0.398,0.657-0.613,1.107-0.646c0.438-0.113,0.856-0.026,1.254,0.261c0.376,0.271,0.603,0.648,0.682,1.133
			c0.073,0.444-0.027,0.854-0.297,1.23c-0.253,0.352-0.619,0.587-1.097,0.707c-0.064,0.005-0.127,0.007-0.188,0.007
			C128.995,135.057,128.636,134.947,128.33,134.727 M93.955,119.279c2.75,1.28,6.017,1.94,9.802,1.979
			c3.762,0.021,6.598,0.835,8.509,2.438c1.702,1.396,3.675,3.209,5.922,5.439c0.267,0.272,0.542,0.559,0.824,0.861
			c1.433,1.423,2.903,2.821,4.412,4.193c1.695,1.505,2.745,2.35,3.148,2.533c0.267,0.122,0.826,0.239,1.673,0.349
			c1.264,0.126,2.363,0.258,3.297,0.396c1.806-0.232,2.604-1.315,2.393-3.25c-0.434-0.881-0.911-1.903-1.431-3.061
			c-0.35-0.752-0.637-1.243-0.862-1.476c-0.285-0.348-1.419-1.075-3.401-2.181c-1.779-0.996-3.591-1.944-5.436-2.846
			c-0.35-0.171-0.696-0.332-1.043-0.482c-2.818-1.437-5.176-2.743-7.072-3.916c-2.079-1.323-3.684-3.672-4.815-7.049
			c-1.135-3.369-2.825-6.368-5.07-8.997L93.955,119.279z"/>
	</defs>
	<clipPath id="SVGID_20_">
		<use xlink:href="#SVGID_19_"  overflow="visible"/>
	</clipPath>
	
		<linearGradient id="SVGID_21_" gradientUnits="userSpaceOnUse" x1="-397.8423" y1="560.2622" x2="-396.8423" y2="560.2622" gradientTransform="matrix(-35.3059 -23.9021 23.9021 -35.3059 -27311.2754 10400.4043)">
		<stop  offset="0" style="stop-color:#D29168"/>
		<stop  offset="0.1935" style="stop-color:#D29168"/>
		<stop  offset="1" style="stop-color:#D27B85"/>
	</linearGradient>
	<polygon clip-path="url(#SVGID_20_)" fill="url(#SVGID_21_)" points="149.585,114.662 106.586,85.551 78.516,127.015 
		121.515,156.125 	"/>
</g>
<g>
	<defs>
		<path id="SVGID_22_" d="M91.242,98.992c-0.21-0.153-0.296-0.356-0.254-0.611c0.148-0.108,0.266-0.147,0.353-0.119
			c0.024,0.016,0.129,0.091,0.316,0.227c0.236,0.17,0.318,0.353,0.246,0.55c-0.117,0.037-0.224,0.056-0.32,0.056
			C91.451,99.095,91.337,99.061,91.242,98.992 M86.652,92.373c-1.248,1.882-2.198,3.104-2.852,3.667
			c-0.763,0.662-1.381,1.323-1.854,1.98c-0.288,0.398-0.792,1.248-1.512,2.547c-0.739,1.322-1.286,2.228-1.639,2.721l-2.164,2.56
			c-0.578,0.652-0.682,1.219-0.314,1.698c0.632,0.647,1.457,1.331,2.479,2.053c1.014,0.679,2.705,1.772,5.071,3.277
			c0.608,0.588,1.247,0.246,1.915-1.027c0.183-0.342,0.374-0.632,0.574-0.871c-0.387-0.325-0.897-0.781-1.528-1.367
			c-1.573-1.133-2.597-2.012-3.072-2.64l0.353-0.12l4.824,3.473c0.37-0.351,0.771-0.56,1.203-0.63
			c0.882-0.186,1.559-0.606,2.032-1.264c0.659-0.915,1.026-1.845,1.101-2.789c0.022-0.214,0.053-0.405,0.092-0.575
			c-0.32-0.231-0.672-0.484-1.056-0.761c-1.198-0.862-1.96-1.535-2.288-2.02c0.156-0.068,0.282-0.119,0.379-0.155l3.134,2.255
			c0.08-0.236,0.181-0.449,0.3-0.64c-0.417-0.316-0.967-0.764-1.65-1.346c-1.666-1.201-2.725-2.106-3.176-2.716l0.257-0.135
			l3.334,2.348c0.635,0.455,1.179,0.865,1.631,1.226c0.581-0.718,1.271-1.255,2.068-1.611c-0.051-0.036-0.098-0.07-0.139-0.102
			c-0.987-0.709-1.635-1.318-1.947-1.827l0.354-0.12l2.465,1.774c1.111-0.353,1.763-0.667,1.96-0.94
			c0.745-1.033,0.221-2.409-1.572-4.127c-0.637-0.601-2.012-1.662-4.124-3.183c-1.48-1.065-2.262-1.611-2.35-1.638
			c-0.213-0.083-0.421-0.125-0.622-0.125C87.707,91.222,87.152,91.606,86.652,92.373"/>
	</defs>
	<clipPath id="SVGID_23_">
		<use xlink:href="#SVGID_22_"  overflow="visible"/>
	</clipPath>
	
		<linearGradient id="SVGID_24_" gradientUnits="userSpaceOnUse" x1="-395.9346" y1="560.8931" x2="-394.9342" y2="560.8931" gradientTransform="matrix(-14.8288 -14.7729 14.7729 -14.8288 -14061.5654 2579.3955)">
		<stop  offset="0" style="stop-color:#FFA941"/>
		<stop  offset="0.1613" style="stop-color:#FFA941"/>
		<stop  offset="1" style="stop-color:#FFC241"/>
	</linearGradient>
	<polygon clip-path="url(#SVGID_23_)" fill="url(#SVGID_24_)" points="108.853,102.301 86.8,80.331 64.829,102.385 86.882,124.355 	
		"/>
</g>
<path fill="#DCE4FF" d="M191.773,249.387l-0.474-0.174c-4.508-1.656-9.55,0.677-11.207,5.184l-11.582,31.517
	c-1.656,4.508,0.677,9.551,5.184,11.207l0.474,0.174c4.507,1.656,9.549-0.677,11.206-5.184l11.582-31.517
	C198.613,256.086,196.28,251.043,191.773,249.387"/>
<path fill="#DCE4FF" d="M77.527,339.808l-0.102-0.494c-0.972-4.703,2.081-9.346,6.784-10.317l32.882-6.793
	c4.703-0.973,9.346,2.08,10.317,6.783l0.102,0.494c0.972,4.702-2.081,9.345-6.783,10.316l-32.883,6.794
	C83.141,347.563,78.499,344.51,77.527,339.808"/>
<path fill="#DCE4FF" d="M213.717,302.72c18.858,24.774,14.333,59.939-10.107,78.544s-59.542,13.604-78.399-11.171
	c-18.858-24.774-14.333-59.939,10.108-78.544C159.758,272.945,194.858,277.947,213.717,302.72"/>
<path fill="#19214F" d="M213.717,302.72c18.858,24.774,14.333,59.939-10.107,78.544s-59.542,13.604-78.399-11.171"/>
<path fill="#5B83F4" d="M153.17,303.966c2.147,2.82,1.601,6.847-1.22,8.994c-2.82,2.146-6.847,1.601-8.994-1.22
	s-1.601-6.848,1.22-8.994C146.997,300.599,151.023,301.146,153.17,303.966"/>
<path fill="#5B83F4" d="M167.592,322.912c2.147,2.82,1.601,6.848-1.219,8.994c-2.821,2.147-6.847,1.601-8.994-1.22
	s-1.601-6.847,1.219-8.994C161.418,319.545,165.445,320.091,167.592,322.912"/>
<path fill="#19214F" d="M160.886,280.961l29.869,39.238l7.24-5.512l-25.992-34.146C172.003,280.542,166.225,277.161,160.886,280.961
	"/>
<path fill="#19214F" d="M117.879,313.7l29.868,39.237l-7.241,5.512l-25.992-34.146C114.515,324.303,112.794,317.833,117.879,313.7"
	/>
<path fill="#DCE4FF" d="M92.743,342.419l-0.32,0.391c-3.043,3.713-8.572,4.264-12.286,1.22L54.163,322.75
	c-3.714-3.044-4.263-8.572-1.22-12.287l0.32-0.391c3.043-3.714,8.572-4.263,12.287-1.22l25.973,21.28
	C95.236,333.176,95.786,338.706,92.743,342.419"/>
<path fill="#FFE8D2" d="M53.752,322.385c-3.602-3.382-3.781-9.097-0.399-12.698c3.382-3.601,9.096-3.781,12.698-0.398"/>
<path fill="#DCE4FF" d="M186.928,265.319l0.496,0.092c4.722,0.873,9.3-2.275,10.173-6.997l6.106-33.018
	c0.874-4.722-2.275-9.3-6.997-10.173l-0.496-0.093c-4.722-0.872-9.3,2.276-10.173,6.998l-6.107,33.018
	C179.057,259.868,182.206,264.446,186.928,265.319"/>
<path fill="#FFE8D2" d="M203.782,224.852c0.568-4.907-2.982-9.389-7.891-9.957s-9.389,2.982-9.957,7.891"/>
<path fill="#FFE8D2" d="M159.455,223.989c-0.897,0.289-1.727,0.691-2.48,1.183c-13.417-17.939-38.114-26.075-61.711-18.471
	c-23.53,7.582-38.811,28.509-39.313,50.834c-1.241,0.153-2.475,0.534-3.642,1.164c-5.031,2.716-6.907,8.996-4.191,14.027
	c2.296,4.252,7.137,6.25,11.618,5.127c10.426,25.357,39.963,38.476,67.948,29.457c27.981-9.017,44.301-36.902,37.97-63.57
	c0.051-0.016,0.101-0.028,0.152-0.045c5.441-1.753,8.431-7.586,6.677-13.028C170.73,225.225,164.897,222.235,159.455,223.989"/>
<path fill="#FFFFFF" d="M97.657,257.014c2.368,7.348-1.669,15.223-9.016,17.591c-7.347,2.367-15.223-1.67-17.59-9.017
	c-2.368-7.348,1.669-15.223,9.016-17.59C87.414,245.63,95.29,249.667,97.657,257.014"/>
<path fill="#7C4415" d="M106.874,209.507c-5.921,1.908-9.985,6.634-10.663,11.688c-3.434-1.799-7.869-2.22-12.228-0.814
	c-7.229,2.329-11.694,8.856-10.598,15.055c-3.952-1.81-9.273-2.084-14.61-0.364c-9.21,2.968-14.953,10.719-12.828,17.312
	c2.125,6.594,11.313,9.533,20.522,6.565c8.333-2.686,13.806-9.284,13.203-15.4c3.403,1.703,7.738,2.085,12.006,0.709
	c5.921-1.908,9.985-6.633,10.662-11.686c3.434,1.797,7.869,2.219,12.228,0.813c7.787-2.509,12.378-9.889,10.253-16.48
	C122.696,210.309,114.662,206.999,106.874,209.507"/>
<path fill="#7C4415" d="M156.519,213.732c5.677,5.738,7.484,13.156,4.036,16.568c-3.449,3.412-10.847,1.526-16.524-4.212
	c-5.678-5.737-7.485-13.155-4.036-16.567C143.443,206.109,150.841,207.995,156.519,213.732"/>
<path fill="#FFD039" d="M151.264,206.667c-7.18-22.28-35.97-32.94-64.305-23.811c-28.334,9.131-45.483,34.596-38.303,56.876
	l-7.18,10.82l120.274-38.758L151.264,206.667z"/>
<path fill="#FF2929" d="M152.694,257.421c-3.781,1.219-7.298,0.804-7.855-0.926c-0.558-1.73,2.055-4.121,5.836-5.339
	c3.781-1.219,7.298-0.804,7.856,0.926C159.089,253.813,156.475,256.204,152.694,257.421"/>
<path fill="#FF2929" d="M75.498,283.573c-3.781,1.219-7.298,0.804-7.855-0.926c-0.558-1.73,2.055-4.121,5.836-5.339
	c3.781-1.219,7.298-0.804,7.856,0.926C81.893,279.964,79.279,282.355,75.498,283.573"/>
<path fill="#00A550" d="M91.196,191.58c0.737,2.287-0.518,4.739-2.805,5.477c-2.284,0.735-4.737-0.521-5.474-2.809
	c-0.737-2.286,0.521-4.737,2.806-5.474C88.009,188.037,90.459,189.293,91.196,191.58"/>
<path fill="#00A550" d="M89.43,200.458c1.055-1.86,4.619-9.014,4.619-9.014l9.551,4.895c0,0,2.861,1.043,1.516,3.666
	c-1.346,2.628-2.885,5.765-2.885,5.765l2.392,7.422l-8.2,2.549l-1.674-4.984l5.443-1.754l-1.271-3.94l-5.381,1.733l-1.774-5.504
	l-3.939,1.271l1.694,5.255l-5.44,1.753l1.31,4.065l5.378-1.733l1.652,5.128l-8.005,2.58l-2.458-7.629c0,0-4.414-2.238-5.5-2.82
	c-1.324-0.782-1.715-1.853-1.134-3.19c1.187-2.179,5.109-9.965,5.109-9.965L89.43,200.458z"/>
<path fill="#FFFFFF" d="M118.373,250.338c2.368,7.348,10.243,11.385,17.59,9.017c7.347-2.367,11.384-10.243,9.016-17.59
	c-2.367-7.348-10.242-11.384-17.589-9.017C120.042,235.117,116.005,242.992,118.373,250.338"/>
<path fill="#221E1F" d="M107.732,221.909c0.187-0.061,0.35-0.165,0.488-0.313c0.102-0.11,0.156-0.223,0.163-0.333
	c0.008-0.148-0.053-0.419-0.185-0.825l-1.67-5.126c-0.155-0.477-0.303-0.763-0.44-0.855c-0.211-0.143-0.479-0.163-0.803-0.058
	l-0.287,0.093l-0.072-0.222l3.406-1.109l0.072,0.222l-0.281,0.092c-0.189,0.062-0.353,0.166-0.495,0.316
	c-0.099,0.112-0.151,0.224-0.159,0.335c-0.009,0.144,0.051,0.416,0.183,0.82l1.67,5.126c0.156,0.478,0.301,0.765,0.437,0.861
	c0.212,0.143,0.481,0.158,0.811,0.051l0.282-0.092l0.072,0.222l-3.406,1.11l-0.073-0.222L107.732,221.909z"/>
<path fill="#221E1F" d="M99.288,215.919c0.1,0.175,0.19,0.277,0.276,0.32c0.084,0.038,0.177,0.041,0.278,0.008
	c0.091-0.029,0.23-0.127,0.417-0.296c0.407-0.363,0.82-0.616,1.243-0.754c0.678-0.221,1.305-0.194,1.876,0.072
	c0.574,0.27,0.952,0.688,1.139,1.258c0.106,0.329,0.13,0.655,0.07,0.976c-0.061,0.321-0.198,0.645-0.413,0.964
	c-0.215,0.319-0.603,0.78-1.163,1.382c-0.563,0.598-0.901,0.981-1.014,1.149c-0.171,0.244-0.278,0.486-0.322,0.718
	c-0.043,0.235-0.032,0.448,0.032,0.645c0.115,0.354,0.355,0.609,0.723,0.771c0.367,0.168,0.796,0.17,1.285,0.01
	c0.422-0.137,0.781-0.357,1.074-0.66s0.48-0.623,0.561-0.959c0.078-0.342,0.077-0.813-0.007-1.416l0.221-0.072l0.889,2.725
	l-0.222,0.072c-0.089-0.179-0.171-0.288-0.247-0.329c-0.076-0.041-0.162-0.046-0.26-0.015c-0.103,0.033-0.324,0.177-0.665,0.424
	c-0.339,0.252-0.566,0.406-0.681,0.467c-0.192,0.101-0.403,0.188-0.633,0.264c-0.736,0.239-1.407,0.218-2.016-0.064
	s-1.009-0.721-1.205-1.321c-0.104-0.319-0.129-0.642-0.076-0.979c0.051-0.337,0.178-0.656,0.379-0.957
	c0.202-0.302,0.611-0.77,1.228-1.408c0.755-0.787,1.208-1.363,1.356-1.736c0.104-0.252,0.117-0.5,0.038-0.743
	c-0.102-0.315-0.327-0.553-0.674-0.713c-0.346-0.16-0.724-0.174-1.131-0.041c-0.359,0.117-0.678,0.324-0.956,0.612
	c-0.277,0.294-0.456,0.625-0.537,0.995s-0.07,0.828,0.03,1.375l-0.221,0.071l-0.893-2.741L99.288,215.919z"/>
<path fill="#221E1F" d="M95.934,218.764c-0.126-0.388-0.234-0.64-0.323-0.752c-0.087-0.108-0.202-0.179-0.343-0.199
	c-0.196-0.035-0.389-0.023-0.576,0.037l-0.288,0.094l-0.072-0.222l3.406-1.109l0.072,0.222l-0.281,0.092
	c-0.189,0.062-0.353,0.166-0.495,0.316c-0.099,0.112-0.153,0.22-0.161,0.33c-0.009,0.145,0.053,0.42,0.185,0.825l1.67,5.126
	c0.156,0.478,0.302,0.764,0.437,0.86c0.212,0.144,0.481,0.159,0.811,0.052l0.281-0.092l0.073,0.222l-3.406,1.11l-0.073-0.222
	l0.288-0.094c0.188-0.062,0.35-0.166,0.486-0.314c0.102-0.108,0.157-0.221,0.164-0.331c0.008-0.148-0.053-0.421-0.185-0.825
	l-0.788-2.418l-3.695,1.204l0.788,2.418c0.155,0.478,0.302,0.764,0.442,0.859c0.211,0.144,0.48,0.159,0.804,0.054l0.283-0.093
	l0.072,0.222l-3.406,1.11l-0.072-0.222l0.283-0.093c0.187-0.061,0.353-0.166,0.495-0.316c0.099-0.107,0.152-0.22,0.161-0.331
	c0.008-0.147-0.055-0.419-0.187-0.824l-1.67-5.126c-0.126-0.387-0.234-0.64-0.318-0.753c-0.087-0.108-0.204-0.179-0.35-0.197
	c-0.197-0.035-0.391-0.023-0.578,0.038l-0.283,0.092l-0.072-0.222l3.406-1.109l0.072,0.222l-0.283,0.092
	c-0.188,0.062-0.351,0.166-0.489,0.315c-0.102,0.113-0.157,0.22-0.165,0.331c-0.01,0.145,0.052,0.421,0.184,0.825l0.744,2.282
	l3.696-1.204L95.934,218.764z"/>
<path fill="#221E1F" d="M85.405,227.762c-0.035,0.416-0.029,0.711,0.027,0.881c0.041,0.128,0.135,0.221,0.273,0.27
	c0.142,0.052,0.373,0.038,0.692-0.052l0.072,0.222l-3.153,1.027l-0.072-0.222c0.318-0.122,0.543-0.294,0.674-0.512
	c0.13-0.217,0.22-0.627,0.269-1.227l0.589-7.502l0.221-0.072l4.954,5.611c0.429,0.495,0.772,0.803,1.033,0.925
	c0.129,0.062,0.368,0.068,0.72,0.02l0.072,0.222l-2.501,0.815l-0.072-0.222c0.375-0.15,0.602-0.291,0.689-0.422
	c0.085-0.128,0.108-0.252,0.069-0.372c-0.049-0.153-0.19-0.361-0.424-0.624l-0.949-1.076l-3.085,1.006L85.405,227.762z
	 M88.266,225.087l-2.442-2.756l-0.283,3.644L88.266,225.087z"/>
<path fill="#FFA1A1" d="M116.539,270.291c0.89,2.761-0.627,5.72-3.388,6.609c-2.761,0.89-5.72-0.627-6.61-3.388
	s0.627-5.72,3.388-6.609C112.689,266.013,115.648,267.53,116.539,270.291"/>
<path fill="#A82727" d="M138.615,280.991c0.168,5.44-2.958,11.641-10.45,14.607c-7.492,2.967-14.961,1.236-16.681-3.864
	c-1.721-5.101,6.099-5.575,12.105-11.215C132.994,271.687,138.43,275.009,138.615,280.991"/>
<path fill="#FF2929" d="M138.418,283.756c-2.695-1.903-7.514-1.616-11.927,0.748c-7.888,4.227-10.456,4.822-12.637,10.478
	c3.194,2.429,8.73,2.824,14.29,0.623C134.063,293.26,137.403,288.709,138.418,283.756"/>
<path d="M75.479,264.162c1.579,4.901,6.833,7.594,11.734,6.015c4.902-1.579,7.595-6.833,6.016-11.734
	c-1.58-4.902-6.834-7.595-11.735-6.016C76.592,254.006,73.899,259.26,75.479,264.162"/>
<path d="M122.802,248.912c1.579,4.901,6.833,7.595,11.734,6.016c4.902-1.58,7.595-6.834,6.016-11.735
	c-1.58-4.901-6.834-7.595-11.735-6.015C123.915,238.756,121.222,244.01,122.802,248.912"/>
<path fill="#C4C4C4" d="M41.834,303.88c-0.202,0.403-0.378,0.807-0.528,1.21l0.944,0.718c0.202-0.378,0.428-0.73,0.68-1.06
	c0.202-0.326,0.428-0.642,0.68-0.943c0.353-0.453,0.731-0.907,1.134-1.362c0.327-0.375,0.68-0.729,1.058-1.056l-0.907-0.718
	c-0.428,0.277-0.832,0.578-1.209,0.906c-0.378,0.303-0.717,0.642-1.02,1.021c-0.076,0.101-0.151,0.188-0.227,0.265
	C42.212,303.212,42.011,303.552,41.834,303.88"/>
<g>
	<defs>
		<path id="SVGID_25_" d="M45.802,301.387c-0.378,0.326-0.73,0.681-1.058,1.058c-0.402,0.452-0.781,0.907-1.133,1.36
			c-0.253,0.302-0.479,0.617-0.681,0.944c-0.252,0.328-0.477,0.681-0.68,1.059c-0.302,0.427-0.566,0.868-0.794,1.321
			c0.656,0.58,1.285,1.173,1.89,1.777c0.68,0.628,1.373,1.258,2.078,1.888c6.171,5.644,12.469,10.807,18.892,15.493
			c1.209-0.757,2.255-1.603,3.137-2.533c1.46-1.51,2.468-3.248,3.022-5.213c-7.431-6.601-15.328-12.633-23.691-18.101
			C46.458,300.746,46.129,301.06,45.802,301.387"/>
	</defs>
	<clipPath id="SVGID_26_">
		<use xlink:href="#SVGID_25_"  overflow="visible"/>
	</clipPath>
	
		<linearGradient id="SVGID_27_" gradientUnits="userSpaceOnUse" x1="-397.3726" y1="560.5649" x2="-396.3726" y2="560.5649" gradientTransform="matrix(-26.7447 -18.9646 18.9646 -26.7447 -21192.4453 7776.6685)">
		<stop  offset="0" style="stop-color:#FFA941"/>
		<stop  offset="0.1613" style="stop-color:#FFA941"/>
		<stop  offset="1" style="stop-color:#FFC241"/>
	</linearGradient>
	<polygon clip-path="url(#SVGID_26_)" fill="url(#SVGID_27_)" points="82.67,309.089 51.166,286.749 29.261,317.64 60.766,339.98 	
		"/>
</g>
<g>
	<defs>
		<path id="SVGID_28_" d="M13.572,279.208c-0.049,0.023-0.075,0.05-0.075,0.075c-0.05,0.051-0.088,0.101-0.114,0.149l-0.075,0.076
			l-0.831,1.058c1.863,2.395,3.123,3.93,3.778,4.61c0.782-0.101,1.373-0.164,1.776-0.188l23.803,18.892
			c0.178-0.328,0.378-0.668,0.605-1.021c0.077-0.075,0.151-0.162,0.227-0.264c0.303-0.379,0.642-0.717,1.02-1.021l-23.804-18.894
			c-0.05-0.402-0.126-0.993-0.226-1.773c-0.782-0.504-2.557-1.374-5.328-2.607L13.572,279.208z"/>
	</defs>
	<clipPath id="SVGID_29_">
		<use xlink:href="#SVGID_28_"  overflow="visible"/>
	</clipPath>
	
		<linearGradient id="SVGID_30_" gradientUnits="userSpaceOnUse" x1="-397.6812" y1="560.1753" x2="-396.6812" y2="560.1753" gradientTransform="matrix(-31.8176 -25.4536 25.4536 -31.8176 -26866.6719 8005.7065)">
		<stop  offset="0" style="stop-color:#C0C0C0"/>
		<stop  offset="1" style="stop-color:#C0C0C0"/>
		<stop  offset="1" style="stop-color:#B8D8D6"/>
	</linearGradient>
	<polygon clip-path="url(#SVGID_29_)" fill="url(#SVGID_30_)" points="56.164,288.283 24.656,263.078 0,293.899 31.507,319.104 	"/>
</g>
<path fill="#C5BFED" d="M430.652,279.871l36.499-19.392l39.896,26.433c0,0-29.924,12.322-46.822,9.154
	C443.326,292.897,430.652,279.871,430.652,279.871"/>
<path fill="#EBEBEB" d="M434.173,283.391l32.134-22.912c0,0,0-14.147-22.531-20.436s-226.359-40.87-226.359-40.87l-45.062,30.915
	L434.173,283.391z"/>
<g>
	<g>
		<defs>
			<rect id="SVGID_31_" x="184.439" y="200.869" width="278.746" height="82.369"/>
		</defs>
		<clipPath id="SVGID_32_">
			<use xlink:href="#SVGID_31_"  overflow="visible"/>
		</clipPath>
		<g clip-path="url(#SVGID_32_)">
			<g>
				<defs>
					<rect id="SVGID_33_" x="212.789" y="200.869" width="250.396" height="61.579"/>
				</defs>
				<clipPath id="SVGID_34_">
					<use xlink:href="#SVGID_33_"  overflow="visible"/>
				</clipPath>
				<path clip-path="url(#SVGID_34_)" fill="none" stroke="#C5BFED" stroke-width="1.048" stroke-miterlimit="10" d="
					M212.884,201.383c0,0,209.821,38.515,223.452,41.176c21.153,4.13,26.353,19.723,26.353,19.723"/>
			</g>
		</g>
		<g opacity="0.9025" clip-path="url(#SVGID_32_)">
			<g>
				<defs>
					<rect id="SVGID_35_" x="209.245" y="203.467" width="250.396" height="61.579"/>
				</defs>
				<clipPath id="SVGID_36_">
					<use xlink:href="#SVGID_35_"  overflow="visible"/>
				</clipPath>
				<path clip-path="url(#SVGID_36_)" fill="none" stroke="#C2BDE5" stroke-width="1.048" stroke-miterlimit="10" d="
					M209.34,203.982c0,0,209.821,38.515,223.452,41.176c21.155,4.13,26.353,19.723,26.353,19.723"/>
			</g>
		</g>
		<g opacity="0.805" clip-path="url(#SVGID_32_)">
			<g>
				<defs>
					<rect id="SVGID_37_" x="205.701" y="206.065" width="250.397" height="61.579"/>
				</defs>
				<clipPath id="SVGID_38_">
					<use xlink:href="#SVGID_37_"  overflow="visible"/>
				</clipPath>
				<path clip-path="url(#SVGID_38_)" fill="none" stroke="#BFBBDE" stroke-width="1.048" stroke-miterlimit="10" d="
					M205.796,206.582c0,0,209.821,38.514,223.452,41.175c21.155,4.131,26.353,19.723,26.353,19.723"/>
			</g>
		</g>
		<g opacity="0.7075" clip-path="url(#SVGID_32_)">
			<g>
				<defs>
					<rect id="SVGID_39_" x="202.158" y="208.665" width="250.396" height="61.579"/>
				</defs>
				<clipPath id="SVGID_40_">
					<use xlink:href="#SVGID_39_"  overflow="visible"/>
				</clipPath>
				<path clip-path="url(#SVGID_40_)" fill="none" stroke="#BCB9D6" stroke-width="1.048" stroke-miterlimit="10" d="
					M202.253,209.18c0,0,209.82,38.514,223.451,41.175c21.154,4.131,26.353,19.723,26.353,19.723"/>
			</g>
		</g>
		<g opacity="0.61" clip-path="url(#SVGID_32_)">
			<g>
				<defs>
					<rect id="SVGID_41_" x="198.614" y="211.263" width="250.396" height="61.579"/>
				</defs>
				<clipPath id="SVGID_42_">
					<use xlink:href="#SVGID_41_"  overflow="visible"/>
				</clipPath>
				<path clip-path="url(#SVGID_42_)" fill="none" stroke="#BAB7CF" stroke-width="1.048" stroke-miterlimit="10" d="
					M198.709,211.779c0,0,209.82,38.514,223.452,41.175c21.153,4.131,26.353,19.723,26.353,19.723"/>
			</g>
		</g>
		<g opacity="0.5125" clip-path="url(#SVGID_32_)">
			<g>
				<defs>
					<rect id="SVGID_43_" x="195.07" y="213.861" width="250.396" height="61.58"/>
				</defs>
				<clipPath id="SVGID_44_">
					<use xlink:href="#SVGID_43_"  overflow="visible"/>
				</clipPath>
				<path clip-path="url(#SVGID_44_)" fill="none" stroke="#B7B4C7" stroke-width="1.048" stroke-miterlimit="10" d="
					M195.165,214.377c0,0,209.821,38.514,223.452,41.175c21.155,4.131,26.353,19.723,26.353,19.723"/>
			</g>
		</g>
		<g opacity="0.415" clip-path="url(#SVGID_32_)">
			<g>
				<defs>
					<rect id="SVGID_45_" x="191.526" y="216.46" width="250.396" height="61.579"/>
				</defs>
				<clipPath id="SVGID_46_">
					<use xlink:href="#SVGID_45_"  overflow="visible"/>
				</clipPath>
				<path clip-path="url(#SVGID_46_)" fill="none" stroke="#B4B2BF" stroke-width="1.048" stroke-miterlimit="10" d="
					M191.621,216.976c0,0,209.821,38.514,223.452,41.176c21.155,4.13,26.353,19.723,26.353,19.723"/>
			</g>
		</g>
		<g opacity="0.3175" clip-path="url(#SVGID_32_)">
			<g>
				<defs>
					<rect id="SVGID_47_" x="187.983" y="219.059" width="250.396" height="61.579"/>
				</defs>
				<clipPath id="SVGID_48_">
					<use xlink:href="#SVGID_47_"  overflow="visible"/>
				</clipPath>
				<path clip-path="url(#SVGID_48_)" fill="none" stroke="#B1B0B8" stroke-width="1.048" stroke-miterlimit="10" d="
					M188.077,219.575c0,0,209.821,38.515,223.452,41.176c21.155,4.13,26.353,19.723,26.353,19.723"/>
			</g>
		</g>
		<g opacity="0.22" clip-path="url(#SVGID_32_)">
			<g>
				<defs>
					<rect id="SVGID_49_" x="184.439" y="221.659" width="250.396" height="61.579"/>
				</defs>
				<clipPath id="SVGID_50_">
					<use xlink:href="#SVGID_49_"  overflow="visible"/>
				</clipPath>
				<path clip-path="url(#SVGID_50_)" fill="none" stroke="#AEAEB0" stroke-width="1.048" stroke-miterlimit="10" d="
					M184.534,222.173c0,0,209.82,38.515,223.452,41.176c21.153,4.13,26.352,19.723,26.352,19.723"/>
			</g>
		</g>
	</g>
</g>
<path fill="#EBEBEB" d="M498.247,283.04l-31.096-22.561c0,0,0-14.147,22.531-20.436c22.53-6.288,226.358-40.87,226.358-40.87
	l45.062,30.915L498.247,283.04z"/>
<g>
	<g>
		<defs>
			<rect id="SVGID_51_" x="470.272" y="200.869" width="278.746" height="82.369"/>
		</defs>
		<clipPath id="SVGID_52_">
			<use xlink:href="#SVGID_51_"  overflow="visible"/>
		</clipPath>
		<g clip-path="url(#SVGID_52_)">
			<g>
				<defs>
					<rect id="SVGID_53_" x="470.272" y="200.869" width="250.396" height="61.579"/>
				</defs>
				<clipPath id="SVGID_54_">
					<use xlink:href="#SVGID_53_"  overflow="visible"/>
				</clipPath>
				<path clip-path="url(#SVGID_54_)" fill="none" stroke="#C5BFED" stroke-width="1.048" stroke-miterlimit="10" d="
					M720.574,201.383c0,0-209.821,38.515-223.452,41.176c-21.155,4.13-26.353,19.723-26.353,19.723"/>
			</g>
		</g>
		<g opacity="0.9025" clip-path="url(#SVGID_52_)">
			<g>
				<defs>
					<rect id="SVGID_55_" x="473.816" y="203.467" width="250.392" height="61.579"/>
				</defs>
				<clipPath id="SVGID_56_">
					<use xlink:href="#SVGID_55_"  overflow="visible"/>
				</clipPath>
				<path clip-path="url(#SVGID_56_)" fill="none" stroke="#C2BDE5" stroke-width="1.048" stroke-miterlimit="10" d="
					M724.118,203.982c0,0-209.821,38.515-223.452,41.176c-21.155,4.13-26.353,19.723-26.353,19.723"/>
			</g>
		</g>
		<g opacity="0.805" clip-path="url(#SVGID_52_)">
			<g>
				<defs>
					<rect id="SVGID_57_" x="477.359" y="206.065" width="250.399" height="61.579"/>
				</defs>
				<clipPath id="SVGID_58_">
					<use xlink:href="#SVGID_57_"  overflow="visible"/>
				</clipPath>
				<path clip-path="url(#SVGID_58_)" fill="none" stroke="#BFBBDE" stroke-width="1.048" stroke-miterlimit="10" d="
					M727.661,206.582c0,0-209.82,38.514-223.452,41.175c-21.154,4.131-26.353,19.723-26.353,19.723"/>
			</g>
		</g>
		<g opacity="0.7075" clip-path="url(#SVGID_52_)">
			<g>
				<defs>
					<rect id="SVGID_59_" x="480.903" y="208.665" width="250.395" height="61.579"/>
				</defs>
				<clipPath id="SVGID_60_">
					<use xlink:href="#SVGID_59_"  overflow="visible"/>
				</clipPath>
				<path clip-path="url(#SVGID_60_)" fill="none" stroke="#BCB9D6" stroke-width="1.048" stroke-miterlimit="10" d="
					M731.205,209.18c0,0-209.821,38.514-223.452,41.175c-21.155,4.131-26.353,19.723-26.353,19.723"/>
			</g>
		</g>
		<g opacity="0.61" clip-path="url(#SVGID_52_)">
			<g>
				<defs>
					<rect id="SVGID_61_" x="484.447" y="211.263" width="250.401" height="61.579"/>
				</defs>
				<clipPath id="SVGID_62_">
					<use xlink:href="#SVGID_61_"  overflow="visible"/>
				</clipPath>
				<path clip-path="url(#SVGID_62_)" fill="none" stroke="#BAB7CF" stroke-width="1.048" stroke-miterlimit="10" d="
					M734.749,211.779c0,0-209.821,38.514-223.452,41.175c-21.155,4.131-26.353,19.723-26.353,19.723"/>
			</g>
		</g>
		<g opacity="0.5125" clip-path="url(#SVGID_52_)">
			<g>
				<defs>
					<rect id="SVGID_63_" x="487.991" y="213.861" width="250.396" height="61.58"/>
				</defs>
				<clipPath id="SVGID_64_">
					<use xlink:href="#SVGID_63_"  overflow="visible"/>
				</clipPath>
				<path clip-path="url(#SVGID_64_)" fill="none" stroke="#B7B4C7" stroke-width="1.048" stroke-miterlimit="10" d="
					M738.293,214.377c0,0-209.821,38.514-223.452,41.175c-21.155,4.131-26.353,19.723-26.353,19.723"/>
			</g>
		</g>
		<g opacity="0.415" clip-path="url(#SVGID_52_)">
			<g>
				<defs>
					<rect id="SVGID_65_" x="491.534" y="216.46" width="250.395" height="61.579"/>
				</defs>
				<clipPath id="SVGID_66_">
					<use xlink:href="#SVGID_65_"  overflow="visible"/>
				</clipPath>
				<path clip-path="url(#SVGID_66_)" fill="none" stroke="#B4B2BF" stroke-width="1.048" stroke-miterlimit="10" d="
					M741.836,216.976c0,0-209.82,38.514-223.451,41.176c-21.155,4.13-26.353,19.723-26.353,19.723"/>
			</g>
		</g>
		<g opacity="0.3175" clip-path="url(#SVGID_52_)">
			<g>
				<defs>
					<rect id="SVGID_67_" x="495.078" y="219.059" width="250.4" height="61.579"/>
				</defs>
				<clipPath id="SVGID_68_">
					<use xlink:href="#SVGID_67_"  overflow="visible"/>
				</clipPath>
				<path clip-path="url(#SVGID_68_)" fill="none" stroke="#B1B0B8" stroke-width="1.048" stroke-miterlimit="10" d="
					M745.38,219.575c0,0-209.82,38.515-223.452,41.176c-21.154,4.13-26.353,19.723-26.353,19.723"/>
			</g>
		</g>
		<g opacity="0.22" clip-path="url(#SVGID_52_)">
			<g>
				<defs>
					<rect id="SVGID_69_" x="498.622" y="221.659" width="250.396" height="61.579"/>
				</defs>
				<clipPath id="SVGID_70_">
					<use xlink:href="#SVGID_69_"  overflow="visible"/>
				</clipPath>
				<path clip-path="url(#SVGID_70_)" fill="none" stroke="#AEAEB0" stroke-width="1.048" stroke-miterlimit="10" d="
					M748.924,222.173c0,0-209.821,38.515-223.452,41.176c-21.155,4.13-26.353,19.723-26.353,19.723"/>
			</g>
		</g>
	</g>
</g>
<g>
	<defs>
		<path id="SVGID_71_" d="M159.045,227.615l38.019,241.042c0.562,3.563,3.356,6.359,6.92,6.925l220.75,28.478l0.308-21.636
			l-2.837-219.177l-257.432-41.345c-0.273-0.044-0.542-0.064-0.808-0.064C160.969,221.837,158.559,224.531,159.045,227.615"/>
	</defs>
	<clipPath id="SVGID_72_">
		<use xlink:href="#SVGID_71_"  overflow="visible"/>
	</clipPath>
	
		<linearGradient id="SVGID_73_" gradientUnits="userSpaceOnUse" x1="-399.3833" y1="559.3384" x2="-398.3828" y2="559.3384" gradientTransform="matrix(266.4259 0 0 -266.4259 106564.9844 149390.6406)">
		<stop  offset="0" style="stop-color:#F1AA57"/>
		<stop  offset="0.0936" style="stop-color:#F1AA57"/>
		<stop  offset="1" style="stop-color:#F2A64C"/>
	</linearGradient>
	<polygon clip-path="url(#SVGID_72_)" fill="url(#SVGID_73_)" points="158.559,221.837 425.042,221.837 424.841,514.226 
		158.559,482.423 	"/>
</g>
<g>
	<defs>
		<path id="SVGID_74_" d="M767.973,221.902l-257.432,41.345l-2.838,219.177l0.137,21.636l220.921-28.478
			c3.564-0.565,6.359-3.361,6.922-6.925l38.019-241.042c0.486-3.084-1.924-5.777-4.92-5.777
			C768.516,221.837,768.245,221.858,767.973,221.902"/>
	</defs>
	<clipPath id="SVGID_75_">
		<use xlink:href="#SVGID_74_"  overflow="visible"/>
	</clipPath>
	
		<linearGradient id="SVGID_76_" gradientUnits="userSpaceOnUse" x1="-399.3823" y1="559.3442" x2="-398.3818" y2="559.3442" gradientTransform="matrix(266.4259 0 0 -266.4259 106913.3594 149390.6406)">
		<stop  offset="0" style="stop-color:#F2A64C"/>
		<stop  offset="0.2539" style="stop-color:#F2A64C"/>
		<stop  offset="1" style="stop-color:#F1AA57"/>
	</linearGradient>
	<polygon clip-path="url(#SVGID_75_)" fill="url(#SVGID_76_)" points="507.703,221.837 774.188,221.837 774.188,482.423 
		507.767,511.049 	"/>
</g>
<path fill="none" stroke="#E8E8E8" stroke-width="0.873" stroke-miterlimit="10" d="M714.479,452.781
	c1.769-2.648,4.739-4.027,7.772-3.941l28.508-191.375c-1.739-0.043-3.5-0.563-5.069-1.611c-2.729-1.822-4.216-4.784-4.232-7.769
	l-201.753,32.792c0.023,1.74-0.453,3.491-1.48,5.03c-1.756,2.629-4.694,4.009-7.704,3.946l-4.375,190.919
	c1.717,0.055,3.452,0.573,5.001,1.607c2.72,1.816,4.207,4.765,4.232,7.739l177.621-32.336
	C712.981,456.051,713.456,454.312,714.479,452.781z"/>
<path fill="none" stroke="#F18468" stroke-miterlimit="10" d="M219.54,452.781c-1.77-2.648-4.739-4.027-7.773-3.941L183.26,257.464
	c1.738-0.043,3.499-0.563,5.069-1.611c2.729-1.822,4.216-4.784,4.232-7.769l201.753,32.792c-0.023,1.74,0.452,3.491,1.479,5.03
	c1.756,2.629,4.694,4.009,7.705,3.946l4.374,190.919c-1.716,0.055-3.451,0.573-5,1.607c-2.72,1.816-4.208,4.765-4.232,7.739
	l-177.622-32.336C221.037,456.051,220.562,454.312,219.54,452.781z"/>
<g>
	<defs>
		<path id="SVGID_77_" d="M494.605,285.238c-8.96,8.521-25.824,7.748-28.176,7.596v-0.021c0,0-0.059,0.005-0.143,0.011
			c-0.085-0.006-0.142-0.011-0.142-0.011v0.021c-2.353,0.152-19.216,0.926-28.178-7.596c-6.777-6.444-15.763-21.991-15.763-21.991
			l2.529,240.813h85.635V263.247C510.369,263.247,501.386,278.793,494.605,285.238"/>
	</defs>
	<clipPath id="SVGID_78_">
		<use xlink:href="#SVGID_77_"  overflow="visible"/>
	</clipPath>
	
		<linearGradient id="SVGID_79_" gradientUnits="userSpaceOnUse" x1="-399.5571" y1="559.8286" x2="-398.5571" y2="559.8286" gradientTransform="matrix(88.1637 0 0 -88.1637 35648.6797 49759.8203)">
		<stop  offset="0" style="stop-color:#F2A64C"/>
		<stop  offset="0.2539" style="stop-color:#F2A64C"/>
		<stop  offset="1" style="stop-color:#F1AA57"/>
	</linearGradient>
	<rect x="422.205" y="263.247" clip-path="url(#SVGID_78_)" fill="url(#SVGID_79_)" width="88.164" height="280.146"/>
</g>
</svg>
