<?xml version="1.0" encoding="utf-8"?>
<!-- Generator: Adobe Illustrator 16.0.0, SVG Export Plug-In . SVG Version: 6.00 Build 0)  -->
<!DOCTYPE svg PUBLIC "-//W3C//DTD SVG 1.1//EN" "http://www.w3.org/Graphics/SVG/1.1/DTD/svg11.dtd">
<svg version="1.1" id="圖層_1" xmlns="http://www.w3.org/2000/svg" xmlns:xlink="http://www.w3.org/1999/xlink" x="0px" y="0px"
	 width="570px" height="511.675px" viewBox="0 0 570 511.675" enable-background="new 0 0 570 511.675" xml:space="preserve">
<path fill="#3F3D56" stroke="#000000" stroke-width="9" stroke-miterlimit="10" d="M564.999,195.675
	c-0.204,0-0.403-0.063-0.571-0.179L287.869,2.892c-1.724-1.195-4.009-1.191-5.729,0.01L7.574,195.494
	c-0.453,0.317-1.076,0.207-1.393-0.246c-0.316-0.452-0.207-1.074,0.244-1.392L280.992,1.264c2.408-1.681,5.607-1.686,8.021-0.013
	l276.559,192.603c0.453,0.316,0.564,0.939,0.249,1.393C565.633,195.515,565.326,195.675,564.999,195.675z"/>
<path fill="#FFFFFF" stroke="#000000" stroke-width="9" stroke-miterlimit="10" d="M288.96,310.66
	c-0.984,0.001-1.959-0.189-2.869-0.563L124.5,243.049V33.175c0.005-3.864,3.136-6.996,7-7h310c3.864,0.004,6.995,3.136,7,7v210.021
	l-0.304,0.13l-156.28,66.739C290.981,310.458,289.975,310.66,288.96,310.66z"/>
<path fill="#3F3D56" stroke="#000000" stroke-width="9" stroke-miterlimit="10" d="M288.96,311.16c-1.049,0-2.089-0.203-3.06-0.6
	L124,243.383V33.175c0.005-4.141,3.359-7.496,7.5-7.5h310c4.14,0.004,7.495,3.359,7.5,7.5v210.351l-156.888,67
	C291.115,310.945,290.043,311.16,288.96,311.16z M126,242.047l160.663,66.665c1.498,0.608,3.177,0.598,4.668-0.028L447,242.205
	V33.175c-0.004-3.036-2.464-5.497-5.5-5.5h-310c-3.036,0.003-5.496,2.464-5.5,5.5V242.047z"/>
<path fill="#3F3D56" stroke="#000000" stroke-width="9" stroke-miterlimit="10" d="M563,193.675h-0.201L448,242.695l-157.07,67.07
	c-1.239,0.521-2.636,0.528-3.88,0.02L125,242.555l-117.62-48.8l-0.18-0.08H7c-3.864,0.004-6.996,3.136-7,7v304
	c0.004,3.863,3.136,6.996,7,7h556c3.863-0.004,6.995-3.137,7-7v-304C569.995,196.811,566.864,193.679,563,193.675z M568,504.675
	c-0.002,2.76-2.239,4.998-5,5H7c-2.761-0.002-4.999-2.24-5-5v-304c0.004-2.687,2.125-4.892,4.81-5L125,244.715l161.28,66.919
	c1.745,0.711,3.702,0.7,5.439-0.029L448,244.865l115.199-49.19c2.68,0.116,4.794,2.318,4.801,5V504.675z"/>
<path d="M393.536,164.013H182.628c-5.443,0.009-9.861-4.395-9.869-9.837s4.396-9.862,9.838-9.869c0.01,0,0.019,0,0.03,0h210.909
	c5.442-0.01,9.861,4.395,9.869,9.837s-4.396,9.862-9.839,9.869C393.557,164.013,393.546,164.013,393.536,164.013z"/>
<path d="M258.296,100.949h-75.668c-5.443,0.009-9.861-4.395-9.869-9.837c-0.008-5.443,4.396-9.862,9.838-9.869
	c0.01,0,0.019,0,0.03,0h75.668c5.442-0.01,9.861,4.396,9.869,9.837c0.008,5.442-4.396,9.862-9.838,9.869
	C258.317,100.949,258.306,100.949,258.296,100.949z"/>
</svg>
