<?xml version="1.0" encoding="utf-8"?>
<!-- Generator: Adobe Illustrator 16.0.0, SVG Export Plug-In . SVG Version: 6.00 Build 0)  -->
<!DOCTYPE svg PUBLIC "-//W3C//DTD SVG 1.1//EN" "http://www.w3.org/Graphics/SVG/1.1/DTD/svg11.dtd">
<svg version="1.1" id="圖層_1" xmlns="http://www.w3.org/2000/svg" xmlns:xlink="http://www.w3.org/1999/xlink" x="0px" y="0px"
	 width="434.795px" height="402.024px" viewBox="21.475 46.963 434.795 402.024"
	 enable-background="new 21.475 46.963 434.795 402.024" xml:space="preserve">
<path fill="#14B119" d="M262.295,144.567H144.831c-3.035-0.003-5.493-2.466-5.49-5.501c0.004-3.03,2.46-5.486,5.49-5.489h117.464
	c3.035-0.003,5.498,2.454,5.501,5.489c0.004,3.035-2.454,5.498-5.489,5.501C262.302,144.567,262.299,144.567,262.295,144.567z"/>
<path fill="#14B119" d="M284.963,163.114H144.831c-3.035,0-5.496-2.46-5.496-5.495c0-3.035,2.461-5.496,5.496-5.496h140.132
	c3.035,0,5.496,2.46,5.496,5.496C290.459,160.653,287.998,163.114,284.963,163.114z"/>
<path fill="#14B119" d="M262.295,216.69h-117.46c-3.034-0.004-5.498,2.453-5.502,5.488c-0.004,3.035,2.453,5.499,5.487,5.502
	c0.005,0,0.01,0,0.015,0h117.46c3.035-0.004,5.492-2.467,5.488-5.502C267.779,219.149,265.324,216.695,262.295,216.69z"/>
<path fill="#14B119" d="M248.391,235.241H143.453c-2.272-0.004-4.117,2.453-4.12,5.488c-0.003,3.035,1.837,5.498,4.109,5.502
	c0.003,0,0.007,0,0.011,0h104.938c2.273-0.004,4.113-2.467,4.11-5.502C252.498,237.699,250.659,235.245,248.391,235.241z"/>
<path fill="#14B119" d="M262.295,310.803H144.831c-3.035-0.004-5.493-2.467-5.49-5.502c0.004-3.03,2.46-5.486,5.49-5.489h117.464
	c3.035-0.003,5.498,2.454,5.501,5.489c0.004,3.035-2.454,5.498-5.489,5.502C262.302,310.803,262.299,310.803,262.295,310.803z"/>
<path fill="#14B119" d="M284.963,329.35H144.831c-3.035,0-5.496-2.461-5.496-5.496s2.461-5.495,5.496-5.495h140.132
	c3.035,0,5.496,2.46,5.496,5.495S287.998,329.35,284.963,329.35z"/>
<circle id="abdb8e2f-a218-463c-85f4-c869fef49971" fill="#14B119" cx="95.916" cy="148.345" r="19.423"/>
<path fill="#14B119" d="M117.335,231.461c0.004,10.727-8.688,19.426-19.415,19.43c-0.002,0-0.003,0-0.005,0
	c-0.167,0.003-0.334-0.003-0.5-0.02c-10.723-0.275-19.192-9.19-18.918-19.914c0.275-10.723,9.191-19.192,19.914-18.917
	C108.942,212.31,117.338,220.926,117.335,231.461z"/>
<circle id="e4a71040-498e-4958-ad41-c2d79154b8f7" fill="#14B119" cx="95.916" cy="314.581" r="19.423"/>
<g>
	<path fill="#14B119" d="M335.975,340.091v42.872c-0.015,12.973-10.527,23.485-23.5,23.5h-258
		c-12.973-0.015-23.485-10.527-23.5-23.5v-303c0.015-12.973,10.527-23.485,23.5-23.5h236.704l2.384,1.9v19.545
		c0,6.07,4.921,10.991,10.991,10.991h27.32l4.101,3.269v44.345c3.07-1.685,6.236-3.245,9.5-4.667V87.592l-50.973-40.629H54.475
		c-18.217,0.021-32.979,14.783-33,33v303c0.021,18.217,14.783,32.979,33,33h258c18.217-0.021,32.979-14.783,33-33v-38.199
		C342.241,343.349,339.069,341.792,335.975,340.091z"/>
</g>
<g>
	<path fill="#14B119" d="M446.424,448.414c-5.46,1.883-11.41-1.02-13.29-6.479l-46.535-135.064c-1.88-5.46,1.02-11.409,6.479-13.292
		c5.459-1.879,11.408,1.022,13.288,6.48L452.9,435.127C454.78,440.586,451.88,446.535,446.424,448.414z"/>
	<path fill="#14B119" d="M399.888,313.348c-43.665,15.043-91.261-8.16-106.304-51.826c-15.046-43.666,8.158-91.259,51.824-106.303
		c43.663-15.045,91.259,8.158,106.305,51.824l0,0C466.698,250.706,443.515,298.262,399.888,313.348z M352.219,174.986
		c-32.75,11.282-50.151,46.978-38.87,79.728c11.284,32.748,46.979,50.15,79.729,38.866c32.75-11.28,50.151-46.977,38.868-79.726
		C420.631,181.133,384.966,163.745,352.219,174.986z"/>
</g>
</svg>
