<?xml version="1.0" encoding="utf-8"?>
<!-- Generator: Adobe Illustrator 16.0.0, SVG Export Plug-In . SVG Version: 6.00 Build 0)  -->
<!DOCTYPE svg PUBLIC "-//W3C//DTD SVG 1.1//EN" "http://www.w3.org/Graphics/SVG/1.1/DTD/svg11.dtd">
<svg version="1.1" id="圖層_1" xmlns="http://www.w3.org/2000/svg" xmlns:xlink="http://www.w3.org/1999/xlink" x="0px" y="0px"
	 width="342.508px" height="320.911px" viewBox="345.517 109.261 342.508 320.911"
	 enable-background="new 345.517 109.261 342.508 320.911" xml:space="preserve">
<title>Books</title>
<path fill="#14B119" d="M448.921,140.712l-75.822,123.46l-22.229,4.736c0.828-4.743,2.297-9.352,4.366-13.699l59.42-124.842
	c0,0,4.255-2.321,10.214-4.492l-20.683-12.76l-57.774,155.849l208.379,123.087l58.292-150.062L448.921,140.712z"/>
<path fill="#14B119" d="M345.517,268.53l207.958,160.536c0,0,16.552,4.694,28.018-5.255l106.532-142.2l-225.491-172.35
	l-97.072,150.104L345.517,268.53z"/>
<rect x="370.603" y="192.379" transform="matrix(-0.5756 0.8177 -0.8177 -0.5756 829.7012 -43.5402)" fill="none" stroke="#FFFFFF" stroke-width="7" stroke-miterlimit="10" width="111.091" height="2.284"/>
<rect x="483.526" y="220.318" transform="matrix(-0.6069 0.7948 -0.7948 -0.6069 1039.2015 141.2528)" fill="none" stroke="#FFFFFF" stroke-width="7" stroke-miterlimit="10" width="2.284" height="214.62"/>
<rect x="559.347" y="343.299" transform="matrix(-0.5664 0.8241 -0.8241 -0.5664 1253.2087 29.5547)" fill="none" stroke="#FFFFFF" stroke-width="7" stroke-miterlimit="10" width="118.965" height="2.285"/>
<rect x="559.373" y="101.441" transform="matrix(-0.5877 0.8091 -0.8091 -0.5877 1058.8475 -122.0252)" fill="none" stroke="#FFFFFF" stroke-width="7" stroke-miterlimit="10" width="2.283" height="214.661"/>
<rect x="316.277" y="190.795" transform="matrix(-0.4741 0.8805 -0.8805 -0.4741 746.4113 -62.8321)" fill="none" stroke="#14B119" stroke-width="2" stroke-miterlimit="10" width="151.387" height="1.409"/>
<rect x="320.994" y="189.67" transform="matrix(-0.491 0.8712 -0.8712 -0.491 760.3708 -63.5156)" fill="none" stroke="#14B119" stroke-width="2" stroke-miterlimit="10" width="155.493" height="1.41"/>
</svg>
