<?xml version="1.0" encoding="utf-8"?>
<!-- Generator: Adobe Illustrator 16.0.0, SVG Export Plug-In . SVG Version: 6.00 Build 0)  -->
<!DOCTYPE svg PUBLIC "-//W3C//DTD SVG 1.1//EN" "http://www.w3.org/Graphics/SVG/1.1/DTD/svg11.dtd">
<svg version="1.1" id="圖層_1" xmlns="http://www.w3.org/2000/svg" xmlns:xlink="http://www.w3.org/1999/xlink" x="0px" y="0px"
	 width="250.986px" height="182.752px" viewBox="0 0 250.986 182.752" enable-background="new 0 0 250.986 182.752"
	 xml:space="preserve">
<path fill="#28A838" d="M229.455,0H93.756c-2.518,0.003-4.558,2.043-4.561,4.561v110.495c0.003,2.518,2.043,4.557,4.561,4.561
	h135.699c2.519-0.004,4.559-2.043,4.562-4.561V4.561C234.012,2.043,231.972,0.003,229.455,0z M230.939,101.87
	c-0.009,8.098-6.571,14.66-14.669,14.669H96.833c-2.518-0.003-4.558-2.043-4.561-4.562V7.639c0.003-2.518,2.043-4.558,4.561-4.561
	h129.545c2.519,0.003,4.559,2.043,4.562,4.561V101.87z"/>
<path fill="#28A838" d="M183.449,26.671h-54.541c-0.649,0-1.176-0.526-1.176-1.176c0-0.65,0.525-1.176,1.176-1.176h54.541
	c0.649,0,1.176,0.526,1.176,1.176C184.625,26.145,184.098,26.671,183.449,26.671L183.449,26.671z"/>
<path fill="#28A838" d="M211.058,39.22h-82.15c-0.649,0-1.176-0.526-1.176-1.176s0.525-1.176,1.176-1.176h82.15
	c0.648,0,1.176,0.526,1.176,1.176S211.708,39.22,211.058,39.22L211.058,39.22z"/>
<path fill="#28A838" d="M211.058,51.77h-82.15c-0.649,0-1.176-0.527-1.176-1.176c0-0.649,0.525-1.176,1.176-1.176h82.15
	c0.648,0,1.176,0.527,1.176,1.176C212.234,51.243,211.708,51.77,211.058,51.77L211.058,51.77z"/>
<path fill="#28A838" d="M211.058,64.318h-82.15c-0.649,0-1.176-0.527-1.176-1.176s0.525-1.176,1.176-1.176h82.15
	c0.648,0,1.176,0.526,1.176,1.176S211.708,64.318,211.058,64.318L211.058,64.318z"/>
<path fill="#28A838" d="M211.058,76.868h-82.15c-0.649,0-1.176-0.527-1.176-1.176c0-0.65,0.525-1.176,1.176-1.176h82.15
	c0.648,0,1.176,0.526,1.176,1.176C212.234,76.341,211.708,76.868,211.058,76.868L211.058,76.868z"/>
<path fill="#28A838" d="M213.694,108.174c-20.594,0-37.286,16.693-37.286,37.289c0,20.593,16.692,37.289,37.286,37.289
	c20.6,0,37.292-16.696,37.292-37.286C250.986,124.867,234.293,108.174,213.694,108.174z M234.672,147.728L224.1,163.155
	c-0.979,1.416-2.916,1.775-4.335,0.813c-1.437-0.976-1.81-2.923-0.837-4.355l7.172-10.471h-27.137
	c-2.035-0.004-3.682-1.658-3.669-3.688c0-2.033,1.65-3.676,3.682-3.668h26.793l-6.841-9.979l-0.008-0.013
	c-0.979-1.435-0.604-3.384,0.82-4.356c1.43-0.976,3.387-0.604,4.358,0.822l10.571,15.434
	C235.37,144.942,235.37,146.472,234.672,147.728z"/>
<g>
	<path fill="#FFFFFF" d="M77.992,46.34"/>
	<path fill="#26A839" d="M150.032,92.149c0-1.392,0-2.783,0-4.814c-1.021,0.934-1.453,1.194-1.7,1.575
		c-9.966,15.385-24.388,21.961-42.394,21.624l-21.171-0.016v5.447H70.883v-5.457l-29.688-0.021
		c-16.043-0.26-28.981-6.607-38.297-19.89c-0.688-0.98-1.538-1.846-2.817-3.362c0,20.73,0.09,40.557-0.079,60.381
		c-0.031,3.803,1.605,4.334,4.793,4.33c46.829-0.066,93.658-0.082,140.488,0.025c3.717,0.008,4.862-1.093,4.828-4.826
		C149.94,128.815,150.032,110.481,150.032,92.149z"/>
	<path fill="#26A839" d="M146.097,50.543c-6.646-0.3-13.314-0.118-19.976-0.114c-8.118,0.004-16.235,0.001-24.198,0.001
		c-2.943-12.225-8.136-16.337-20.078-16.365c-4.829-0.012-9.658-0.027-14.487,0.004C56.603,34.14,50.88,38.968,48.74,50.177
		c-1.402,0.096-2.541,0.242-3.68,0.242c-13.321,0.004-26.644,0.068-39.962-0.082c-3.563-0.04-5.227,0.951-4.935,4.808
		c0.288,3.808,0.008,7.656,0.087,11.484c0.354,17.057,11.627,33.38,28.16,37.027c12.111,2.671,24.926,2.149,37.315,3.043
		l5.156-0.142v-5.968h13.885v5.585l29.669-0.816c16.47-1.295,30.332-12.988,34.121-29.126c1.719-7.319,1.298-15.175,1.422-22.794
		C149.995,52.448,147.494,50.606,146.097,50.543z M59.336,50.23c0.14-4.034,2.281-6.008,5.855-6.107
		c6.653-0.185,13.347-0.421,19.958,0.142c2.708,0.2,4.856,2.098,5.739,5.965C80.447,50.23,70.007,50.23,59.336,50.23z"/>
	<circle fill="#26A839" cx="77.992" cy="108.173" r="4.167"/>
</g>
</svg>
