<?xml version="1.0" encoding="utf-8"?>
<!-- Generator: Adobe Illustrator 16.0.0, SVG Export Plug-In . SVG Version: 6.00 Build 0)  -->
<!DOCTYPE svg PUBLIC "-//W3C//DTD SVG 1.1//EN" "http://www.w3.org/Graphics/SVG/1.1/DTD/svg11.dtd">
<svg version="1.1" id="圖層_1" xmlns="http://www.w3.org/2000/svg" xmlns:xlink="http://www.w3.org/1999/xlink" x="0px" y="0px"
	 width="156.277px" height="134.958px" viewBox="224.607 352.944 156.277 134.958"
	 enable-background="new 224.607 352.944 156.277 134.958" xml:space="preserve">
<title>JavaScript frameworks</title>
<g opacity="0.7">
	<g opacity="0.1">
		
			<linearGradient id="SVGID_1_" gradientUnits="userSpaceOnUse" x1="241.1135" y1="241.1929" x2="241.1135" y2="372.0513" gradientTransform="matrix(1 0 0 -1 -0.02 729.0947)">
			<stop  offset="0" style="stop-color:#808080;stop-opacity:0.25"/>
			<stop  offset="0.5351" style="stop-color:#808080;stop-opacity:0.12"/>
			<stop  offset="1" style="stop-color:#808080;stop-opacity:0.1"/>
		</linearGradient>
		<polygon fill="url(#SVGID_1_)" points="224.607,357.043 224.607,375.59 224.607,381.773 224.607,464.203 224.607,470.386 
			224.607,487.902 249.338,487.902 257.581,487.902 257.581,470.386 257.581,464.203 257.581,381.773 257.581,375.59 
			257.581,357.043 249.338,357.043 		"/>
	</g>
	<g opacity="0.1">
		
			<linearGradient id="SVGID_2_" gradientUnits="userSpaceOnUse" x1="276.1467" y1="241.1929" x2="276.1467" y2="372.0513" gradientTransform="matrix(1 0 0 -1 -0.02 729.0947)">
			<stop  offset="0" style="stop-color:#808080;stop-opacity:0.25"/>
			<stop  offset="0.5351" style="stop-color:#808080;stop-opacity:0.12"/>
			<stop  offset="1" style="stop-color:#808080;stop-opacity:0.1"/>
		</linearGradient>
		<polygon fill="url(#SVGID_2_)" points="259.641,357.043 259.641,375.59 259.641,381.773 259.641,464.203 259.641,470.386 
			259.641,487.902 284.371,487.902 292.613,487.902 292.613,470.386 292.613,464.203 292.613,381.773 292.613,375.59 
			292.613,357.043 284.371,357.043 		"/>
	</g>
	<g opacity="0.1">
		
			<linearGradient id="SVGID_3_" gradientUnits="userSpaceOnUse" x1="325.6052" y1="241.2153" x2="325.6052" y2="376.1509" gradientTransform="matrix(1 0 0 -1 -0.02 729.0947)">
			<stop  offset="0" style="stop-color:#808080;stop-opacity:0.25"/>
			<stop  offset="0.5351" style="stop-color:#808080;stop-opacity:0.12"/>
			<stop  offset="1" style="stop-color:#808080;stop-opacity:0.1"/>
		</linearGradient>
		<polygon fill="url(#SVGID_3_)" points="358.377,479.383 331.027,376.838 331.027,376.838 329.433,370.865 329.433,370.865 
			324.654,352.944 292.795,361.441 297.574,379.362 297.574,379.362 298.844,384.119 320.411,464.982 320.411,464.982 
			322.004,470.955 322.004,470.955 326.517,487.88 		"/>
	</g>
</g>
<g>
	<rect x="227.982" y="467.865" fill="#14B119" width="31.309" height="16.632"/>
	<rect x="227.982" y="360.241" fill="#14B119" width="31.309" height="17.611"/>
	<rect x="227.982" y="383.723" fill="#14B119" width="31.309" height="78.271"/>
</g>
<g>
	<rect x="261.248" y="360.241" fill="#14B119" width="31.309" height="17.611"/>
	<rect x="261.248" y="467.865" fill="#14B119" width="31.309" height="16.632"/>
	<rect x="261.248" y="383.723" fill="#14B119" width="31.309" height="78.271"/>
</g>
<g>
	<polyline fill="#14B119" points="322.98,356.349 292.729,364.417 297.268,381.434 327.518,373.365 	"/>
	<path fill="#14B119" d="M350.716,460.337l-30.251,8.068l-1.513-5.672l30.25-8.068l-5.243-14.228c0,0-18.75-4.782-24.75-22.625
		s11.208-34.09,11.208-34.09l-1.387-4.686l-30.251,8.068l25.97,97.371l30.251-8.068L350.716,460.337z"/>
</g>
<g>
	<path fill="#14B119" d="M377.49,483.003c-1.883,0.648-3.936-0.352-4.584-2.234l-16.047-46.577
		c-0.648-1.884,0.352-3.935,2.235-4.583c1.882-0.648,3.934,0.352,4.582,2.234l16.047,46.578
		C380.37,480.302,379.37,482.354,377.49,483.003z"/>
	<path fill="#14B119" d="M361.441,436.425c-15.057,5.188-31.471-2.814-36.658-17.872c-5.188-15.058,2.813-31.471,17.872-36.659
		c15.057-5.188,31.47,2.814,36.66,17.872l0,0C384.481,414.823,376.486,431.223,361.441,436.425z M345.002,388.711
		c-11.293,3.891-17.294,16.2-13.404,27.493c3.892,11.294,16.201,17.295,27.495,13.404c11.293-3.891,17.294-16.201,13.402-27.494
		C368.594,390.831,356.295,384.835,345.002,388.711z"/>
</g>
</svg>
