<?xml version="1.0" encoding="utf-8"?>
<!-- Generator: Adobe Illustrator 16.0.0, SVG Export Plug-In . SVG Version: 6.00 Build 0)  -->
<!DOCTYPE svg PUBLIC "-//W3C//DTD SVG 1.1//EN" "http://www.w3.org/Graphics/SVG/1.1/DTD/svg11.dtd">
<svg version="1.1" id="圖層_1" xmlns="http://www.w3.org/2000/svg" xmlns:xlink="http://www.w3.org/1999/xlink" x="0px" y="0px"
	 width="451.55px" height="844.275px" viewBox="71.831 -1.234 451.55 844.275"
	 enable-background="new 71.831 -1.234 451.55 844.275" xml:space="preserve">
<path fill="#14B119" stroke="#FFFFFF" stroke-width="9" d="M507.783,77.979l-2.597,0.957c-1.155,0.419-2.311,0.822-3.462,1.23
	c-1.605,0.568-3.229,1.115-4.829,1.64c-0.408,0.134-0.822,0.28-1.229,0.41l-1.003,0.319c-1.154,0.358-2.307,0.685-3.462,1.002
	c-0.97,0.268-1.945,0.542-2.916,0.775l-0.228,0.045c-0.479,0.114-0.978,0.215-1.458,0.319c-0.997,0.215-2.006,0.424-3.006,0.593
	c-0.493,0.485-0.906,1.021-1.185,1.595c-0.14,0.287-0.262,0.566-0.319,0.866c-0.259,1.346,0.429,2.806,2.87,4.055
	c0.271,0.139,0.549,0.276,0.865,0.41c-7.118,11.805-10.146,5.669-15.534,9.614c0.094,2.694,0.427,4.313-0.228,5.605
	c-0.073,0.144-0.175,0.32-0.273,0.456c-0.591,0.815-1.669,1.493-3.599,2.278c-0.631,0.257-1.236,0.459-1.777,0.592
	c-0.54,0.133-1.004,0.193-1.457,0.228c-2.722,0.212-3.918-1.094-3.918-1.094s-6.194,5.943-11.344,10.435
	c-1.808,1.578-9.189,0.729-11.89,1.686c-1.846,0.655,1,3.163-0.593,3.873c-2.723,1.214-5.26-0.064-6.742,1.549
	c-0.402,0.439,0.103,1.217,0.638,1.959c0.269,0.371,0.564,0.727,0.729,1.048c0.123,0.241,0.183,0.467,0.137,0.638
	c-0.016,0.057-0.051,0.09-0.092,0.137c-4.38,5-0.321,10.82-2.05,14.034c-3.442,0.268-7.388,0.481-9.566,2.278
	c-2.021,1.667-2.962,4.238-4.556,5.422c-0.133,0.099-0.267,0.195-0.41,0.273c-0.429,0.234-0.899,0.364-1.458,0.365
	c-1.995,0.942-3.583,1.5-4.874,1.777c-0.323,0.069-0.625,0.148-0.911,0.182c-1.144,0.136-2.022-0.038-2.688-0.364
	c-0.166-0.082-0.313-0.169-0.456-0.273c-0.86-0.625-1.335-1.619-1.73-2.734c0.264,1.772-0.707,3.599-0.639,4.83
	c-0.66,3.228-0.712,4.672,0.092,9.523c0.511,3.086-4.733,6.549-5.193,7.428c-0.899,1.716-7.925-1.256-9.202-0.547
	c-0.135,0.274-0.267,0.52-0.41,0.774c0.048,0.131,0.083,0.262,0.091,0.41c0.009,0.148-0.023,0.295-0.045,0.456
	c-0.045,0.322-0.117,0.697-0.229,1.048c-0.217,0.698-0.51,1.418-0.546,2.05c-0.376,6.507-0.463,7.413-2.051,13.351
	c-0.211,0.791-0.712,1.892-1.412,3.099c-0.35,0.603-0.743,1.232-1.185,1.868c-2.206,3.177-5.43,6.451-8.382,6.834
	c-1.006,3.713-2.947,6.57-4.966,8.84c0.152,0.504,0.257,1.086,0.364,1.686c0.36,1.743,0.495,3.869,0.639,5.787
	c0.001,0.015-0.002,0.031,0,0.045c0.094,1.259,0.187,2.408,0.318,3.326c0.002,0.014-0.001,0.033,0,0.045
	c0.065,0.444,0.135,0.836,0.228,1.14c0.004,0.012-0.003,0.034,0,0.045c0.094,0.292,0.231,0.522,0.365,0.638
	c0.298,0.259,0.597,0.453,0.91,0.592c2.197,0.978,4.736-0.572,6.971,1.094c2.717,1.618-1.521,6.143,9.43,1.731
	c2.399-0.967,3.706-0.869,5.786-0.228c0.313,0.096,0.6,0.151,0.956,0.273c0.252,0.368,0.532,0.725,0.82,1.094
	c0.081,0.105,0.144,0.213,0.228,0.319c0.101,0.126,0.214,0.239,0.319,0.365c0.233,0.278,0.475,0.545,0.729,0.82
	c0.066,0.073,0.114,0.156,0.183,0.228c4.614,4.88,12.463,9.117,23.37,7.747c1.511,5.386,5.416,4.827,11.297,6.06
	c1.354,0.284,0.375-3.205,1.276-4.055c1.253-1.184,4.307-0.071,6.241-1.413c0.742-2.523-3.837-7.062-2.962-7.655
	c16.908,7.89,21.49,9.372,34.258,12.485c-0.922-4.969,0.218-6.405,3.6-12.121c-1.659-7.207-0.225-14.647,6.97-21.599
	c0.486-3.426,1.231,0.224,0-4.01c2.292-1.534,7.329-0.33,9.794-4.921c-4.778-3.551-9.158-8.713,2.278-8.977l2.004-19.274
	c-6.27-2.238-12.078-20.155-9.977-26.656c-0.459-1.844-3.244-3.277-3.371-5.969c-2.328-49.408,19.533-47.481,26.604-60.102
	C507.248,79.753,507.502,78.844,507.783,77.979L507.783,77.979z M385.512,174.671c-0.157,0.251-0.291,0.501-0.455,0.729
	c0.087-0.118,0.19-0.238,0.273-0.364C385.402,174.929,385.446,174.792,385.512,174.671z"/>
<path fill="#14B119" stroke="#FFFFFF" stroke-width="9" d="M420.636,0.836l-8.063,2.05c-9.457,1.858-14.56,8.715-19.134,15.629
	c-5.32,7.838-10.616,12.118-6.514,15.037c-2.774,5.039-14.124,9.149-31.252,12.53c2.795,2.334,12.054,6.341,16.901,11.483
	c6.889,4.108,13.418,7.369,12.255,16.86c-3.378,1.823-1.185,5.703-17.903,6.607c2.428,11.362-0.83,7.618-1.236,9.252
	c-0.197,0.791,1.499,4.205,2.284,6.241c1.325,5.462,6.799,11.679,3.599,15.538c-3.993,4.816,7.968,2.521,11.799,3.508
	c3.796,1.42,16.807,12.688,6.332,15.948c0.15,7.494,5.223,16.334,11.48,20.642c1.055,2.974,2.676,5.182,10.66,1.413
	c2.976-0.005,3.729-3.838,6.423-6.061c2.18-1.797,6.124-2.01,9.566-2.278c1.729-3.214-2.33-9.034,2.051-14.034
	c0.656-0.75-2.219-2.905-1.413-3.782c1.483-1.613,4.02-0.335,6.742-1.549c1.593-0.71-1.231-3.237,0.615-3.891
	c2.7-0.958,10.06-0.09,11.867-1.668c5.149-4.492,11.344-10.435,11.344-10.435s2.105,2.327,7.152,0.273
	c5.146-2.094,4.266-3.55,4.1-8.339c5.389-3.945,8.417,2.191,15.534-9.614c-5.062-2.138-4.203-4.986-2.231-6.926
	c11.871-1.996,23.521-7.485,35.807-11.255c6.295-1.431-3.457-9.231-14.669-5.149c-3.468-7.637-5.014-17.114-4.556-25.881
	c-6.406,2.5-8.133,1.306-19.271-0.273c-1.011-0.365-2.612-1.076-4.146-1.641c0.079,0.327,0.055,0.684-0.091,1.048
	c-0.005,0.01,0.005,0.034,0,0.045c-0.074,0.174-0.232,0.364-0.364,0.546c-0.156,0.216-0.303,0.412-0.547,0.638
	c-0.297,0.286-0.691,0.565-1.139,0.866c-0.415,0.279-0.901,0.575-1.458,0.866l-0.091,0.045l-0.456,0.228
	c-0.494,0.24-0.997,0.482-1.594,0.729c-0.276,0.366-0.668,0.572-1.14,0.684c-0.472,0.111-1.036,0.137-1.594,0.136
	c-0.559,0-1.109-0.021-1.641,0c-0.53,0.021-1.021,0.05-1.412,0.228c-0.047,0.933-0.096,1.838-0.137,2.688
	c-0.04,0.85-0.071,1.645-0.045,2.415c0.086,2.568,0.653,4.748,2.688,6.744c-8.291,5.739-19.4-1.226-26.695-7.928
	c-2.586-2.889-5.968-6.688-6.195-10.526c0.151-1.363,3.034-1.705,3.462-2.643c4.922-0.35,6.414-2.078,12.482-4.967
	c0.585-0.162,1.282-0.212,2.05-0.136c2-1.542-3.727-2.406-5.239-4.83c-0.69-1.106,5.559-3.995,4.374-5.878
	c-1.231-1.956-6.448,2.667-8.429,2.415c-0.672-1.554-3.557-3.16-3.416-7.154c0.048-1.382-2.688,1.099-2.824-0.501
	c-0.575-6.759-6.942-12.487-9.658-14.035L420.636,0.836L420.636,0.836L420.636,0.836z M419.451,25.214
	c0.405-0.005,0.814,0.037,1.185,0.091c0.252,0.038,0.493,0.072,0.729,0.136c0.106,0.029,0.216,0.057,0.319,0.091l0.091,0.045
	c0.156,0.055,0.307,0.115,0.455,0.182c0.217,0.097,0.438,0.197,0.639,0.319l0.136,0.091c0.171,0.11,0.342,0.236,0.502,0.365
	c0.144,0.118,0.273,0.232,0.409,0.364c0.12,0.115,0.206,0.239,0.319,0.365c0.169,0.188,0.346,0.38,0.501,0.592
	c0.065,0.089,0.119,0.18,0.183,0.273c0.182,0.27,0.383,0.518,0.546,0.82l0.092,0.182c0.183,0.353,0.342,0.746,0.501,1.139
	c0.277,2.937,0.324,5.892,0.41,8.84c0.53,0.249,0.968,0.499,1.366,0.774h0.046c0.187,0.131,0.341,0.273,0.501,0.41l0.045,0.045
	c0.316,0.278,0.607,0.563,0.82,0.866c0.007,0.009-0.007,0.037,0,0.046c0.321,0.467,0.528,0.976,0.638,1.503
	c0.149,0.72,0.118,1.489-0.045,2.324c-0.082,0.417-0.177,0.83-0.319,1.276c-0.005,0.015,0.005,0.031,0,0.045
	c-0.14,0.435-0.315,0.905-0.501,1.367c8.226,6.561,4.641,6.801,4.92,10.07c0.133,1.558,1.321,3.442-1.868,4.693
	c1.639,2.076,8.888,3.662,11.617,5.65c-0.32,0.208-0.746,0.381-1.185,0.546c0.183,0.103,0.376,0.207,0.547,0.319
	c0.24,0.158-1.941,0.352-4.556,0.593c-3.033,0.464-6.486,0.724-8.701,1.185c-0.226,0.055-0.44,0.123-0.638,0.182l-0.228,0.045
	c-0.179,0.059-0.354,0.119-0.501,0.183c-0.203,0.086-0.365,0.179-0.502,0.273c-0.046,0.032-0.099,0.058-0.136,0.091
	c-0.12,0.106-0.193,0.194-0.229,0.319c-0.537,1.902,1.899,4.922,3.144,7.473c0.124,0.255,0.223,0.531,0.319,0.774
	c0.289,0.731,0.429,1.388,0.318,1.959c-0.037,0.19-0.084,0.38-0.182,0.547c-0.099,0.167-0.243,0.317-0.41,0.456
	c-1.974,0.189-3.609,0.312-4.966,0.365c-3.393,0.132-5.057-0.118-5.877-0.547c-0.163-0.085-0.26-0.176-0.364-0.273
	c-0.512-0.478-0.414-1.106-0.547-1.641c-0.003-0.013,0.005-0.032,0-0.045c-0.025-0.096-0.089-0.184-0.136-0.273
	c-0.006-0.01,0.005-0.036,0-0.045c-0.117-0.202-0.318-0.352-0.639-0.501c-2.027-1.362-4.387-3.785-5.648-5.923
	c-1.329-2.252-2.311-4.665-1.868-4.602c-1.048-0.149-2.618,1.331-4.009,2.05c-0.279,0.142-0.56,0.259-0.819,0.319
	c-0.519,0.124-0.99,0.03-1.367-0.41c-0.195-0.228-0.374-0.488-0.547-0.82c-0.167-0.316-0.291-0.665-0.409-1.048
	c-0.123-0.398-0.234-0.79-0.273-1.23c-0.021-0.211-0.006-0.422,0-0.638c0.034-1.955,1.114-3.992,4.555-4.875
	c0.134-0.218,0.052-0.97-0.136-2.005c-0.004-0.012,0.003-0.033,0-0.045c-0.57-3.111-2.137-8.583-2.142-8.84
	c-0.238-0.164-0.748-0.505-1.822-1.139c-0.423-0.25-0.831-0.385-1.229-0.41c-0.797-0.049-1.55,0.302-2.187,0.729
	c-0.638,0.427-1.155,0.938-1.549,1.276c-0.592,0.507-0.872,0.598-0.684-0.684c-0.322-1.902-0.509-3.491-0.547-4.83
	c-0.019-0.669,0.002-1.268,0.046-1.823c0.131-1.663,0.54-2.846,1.139-3.782c0.205-0.321,0.435-0.594,0.683-0.866
	c0.477-0.521,1.038-1.017,1.641-1.458c0.917-0.675,1.964-1.315,3.052-2.188c1.089-0.873,2.209-1.961,3.326-3.509
	c0.37-0.511,0.731-1.067,1.093-1.686c0.192-0.329,0.442-0.664,0.729-1.002c0.005-0.007-0.005-0.038,0-0.045
	c0.292-0.342,0.682-0.664,1.048-1.003c0.381-0.354,0.747-0.711,1.184-1.048c2.141-1.66,4.814-3.015,6.515-3.281
	C418.507,25.261,418.988,25.221,419.451,25.214L419.451,25.214L419.451,25.214z"/>
<path fill="#14B119" stroke="#FFFFFF" stroke-width="9" d="M129.902,363.629c-1.669,0.292-2.846,1.904-4.754,2.132
	c-2.743,0.328-6.44,0.423-8.208,2.266c-2.014,2.23-4.007,12.43-5.595,15.693c-1.364,2.804-3.137,0.605-4.604,3.755
	c-1.275,2.74,0.364,6.405-1.003,11.038c-1.103,3.733-5.218,8.359-6.223,11.593c-1.961,8.745-1.289,22.729-0.722,28.709
	c0.945,1.768,2.045,1.881,4.255,2.654c2.209,0.773,3.735,0.771,4.964,2.125c0.582,0.641,2.555-1.256,3.866-1.1
	c1.815,0.219,2.823,0.748,4.688,0.977c1.934,0.236,3.205,0.16,4.225-0.277c2.714-1.162-0.995-8.93,3.175-9.111
	c1.891-0.082,1.367,4.023,3.441,3.826c1.521-0.146,3.354-5.004,4.025-5.635c0.607-0.572,1.291,0.33,2.142,0.293
	c0.662-0.029,0.511-2.998,1.154-3.318c0.688-0.344,2.155,1.949,2.361,1.682c0.036-0.047,0.284-2.072,1.188-2.559
	c0.988-0.533,2.671-0.455,3.546-0.996c1.676-1.037-0.804-2.986,3.084-3.824c5.166-1.109,8.952-8.5,12.405-8.711
	c2.625-0.16,4.729,0.398,7.216,1.35c1.781,0.682,4.02-1.899,5.413-2.908c7.498,0.366,13.169-0.438,17.559-1.788
	c3.014-0.927-0.559-7.311,2.743-8.492c0.939-0.335,2.368,0.3,3.599-0.146c1.504-0.545,2.785-2.185,3.44-2.717
	c2.127-1.733,1.317-3.219,5.593-3.149c1.367,0.381,2.683-0.55,4.081,0.336c1.356,0.86,2.782,3.511,4.974,5.631
	c2.681,2.594,2.864-1.554,2.036-7.469c-0.14-0.997-1.432-1.6-1.436-2.689c-0.006-1.161-0.048-4.432,0.771-5.195
	c0.883-0.823,2.645,0.878,3.025,0.052c0.542-1.175-1.216-2.803-1.132-4.312c0.171-3.045-1.696-8.241-4.204-8.507
	c-2.028-0.778-5.316-0.214-7.744-1.003c-3.195,0.224-4.855-1.31-7.563-1.321c-4.88-0.013-15.246,0.159-19.224-1.503
	c-2.453-1.025-4.396-4.591-10.204-5.742c-3.803-0.753-6.113,0.482-17.266,0.729c-6.436,1.145-14.294,3.204-19.087-2.37l0,0H129.902z
	"/>
<path fill="#14B119" stroke="#FFFFFF" stroke-width="9" d="M398.587,150.02c0.315,0.296,0.631,0.592,0.956,0.866
	C399.219,150.612,398.902,150.316,398.587,150.02z"/>
<path fill="#14B119" stroke="#FFFFFF" stroke-width="9" d="M367.017,212.218c-1.832,1.534-9.746,5.458-15.307,4.876
	c-0.128,0.046-0.252,0.112-0.364,0.182l-0.046,0.045l-0.273,0.182c-0.102,0.084-0.227,0.185-0.318,0.319
	c-0.088,0.079-0.198,0.13-0.273,0.228c-0.007,0.008,0.007,0.037,0,0.045c-0.168,0.224-0.323,0.471-0.456,0.729
	c-0.005,0.012,0.005,0.034,0,0.045c-0.131,0.26-0.263,0.546-0.364,0.82c-0.318,0.852-0.517,1.722-0.638,2.324
	c-0.08,0.406-0.137,0.7-0.183,0.774c-0.603,0.978-1.117,1.69-1.503,2.597c-0.125,0.294-0.236,0.575-0.364,0.82
	c-0.515,0.981-1.091,1.577-1.686,1.777c-0.149,0.05-0.301,0.044-0.456,0.045c-0.154,0.001-0.293,0.003-0.455-0.045
	c-0.162-0.049-0.332-0.131-0.501-0.228c-0.161-0.092-0.334-0.229-0.501-0.365c-0.191-0.154-0.392-0.335-0.593-0.546
	c-0.148-0.157-0.301-0.36-0.455-0.547c-0.282-0.341-0.563-0.742-0.866-1.185c-0.307-0.449-0.626-0.905-0.956-1.458
	c-0.916,4.395-3.877,4.181-5.786,4.192c-0.079,0-0.167,0.017-0.228,0.045c-0.061,0.028-0.09,0.082-0.137,0.136
	c-0.015,0.019-0.033,0.024-0.045,0.045c-0.058,0.088-0.095,0.195-0.137,0.319c-0.012,0.036-0.034,0.052-0.046,0.091
	c-0.025,0.16-0.044,0.294-0.091,0.501c-0.009,0.044-0.037,0.09-0.046,0.136c-0.057,0.27-0.104,0.524-0.182,0.866l-0.046,0.182
	c-0.06,0.245-0.135,0.52-0.228,0.774c-0.012,0.032-0.032,0.06-0.046,0.091c-0.078,0.205-0.162,0.389-0.272,0.592
	c-0.042,0.076-0.045,0.152-0.092,0.228c-0.021,0.035-0.068,0.056-0.091,0.091c-0.126,0.192-0.242,0.365-0.41,0.547
	c-0.154,0.167-0.351,0.347-0.547,0.501l-0.045,0.045c-0.045,0.034-0.09,0.057-0.137,0.091c-0.185,0.132-0.37,0.247-0.593,0.365
	c-0.353,0.187-0.688,0.406-1.047,0.638c-1.078,0.695-2.445-0.434-3.827,0.638c-0.921,0.714-1.722,3.507-2.915,4.374l-0.046,0.046
	c-1.183,0.857-2.543,1.786-4.1,2.779c-0.165,0.105-0.354,0.188-0.547,0.228s-0.396,0.048-0.593,0.045
	c-0.64-0.017-1.351-0.19-2.05-0.273c-0.231-0.029-0.505-0.047-0.729-0.045h-0.046c-0.419,0.015-0.832,0.092-1.185,0.319
	l-5.876,2.825l-1.549,5.923l-4.602-0.911l-1.503-4.511l-3.007,0.046l-2.779-4.466c-0.403-0.03-0.827-0.077-1.229-0.137h-0.046
	c-0.417-0.063-0.812-0.146-1.229-0.228c-2.513-0.488-5.014-1.338-7.289-1.914c-1.137-0.29-2.227-0.51-3.234-0.592
	s-1.945-0.005-2.779,0.273c-0.54,0.186-1.053,0.472-1.503,0.866c-0.172,0.15-0.326,0.335-0.456,0.547s-0.225,0.465-0.318,0.729
	c-0.188,0.529-0.324,1.14-0.41,1.823c-0.001,0.015,0.002,0.03,0,0.045c-0.07,0.567-0.1,1.161-0.137,1.777
	c-0.019,0.312-0.028,0.597-0.045,0.911c-0.017,0.315-0.071,0.64-0.092,0.957c-0.037,0.598-0.065,1.222-0.136,1.777
	c-0.073,0.569-0.179,1.123-0.319,1.595c-0.568,0.222-1.138,0.424-1.686,0.592c-0.548,0.168-1.073,0.302-1.595,0.41
	c-0.469,0.097-0.912,0.169-1.366,0.228s-0.93,0.11-1.367,0.137c-0.874,0.053-1.704,0.04-2.505,0
	c-1.669-0.083-3.185-0.342-4.602-0.547c-1.062-0.157-2.063-0.288-3.007-0.319c-0.314-0.01-0.653-0.017-0.956,0
	c-0.304,0.017-0.579,0.037-0.866,0.091c-0.286,0.054-0.583,0.141-0.865,0.228c-0.266,0.082-0.503,0.152-0.729,0.182
	s-0.439,0.019-0.638,0c-0.249-0.023-0.478-0.096-0.684-0.182c-0.18-0.075-0.349-0.158-0.501-0.273
	c-0.065-0.049-0.122-0.127-0.183-0.182c-0.124-0.114-0.255-0.228-0.364-0.365c-0.145-0.176-0.24-0.343-0.364-0.547
	c-0.497-0.816-0.881-1.81-1.321-2.597c-0.007-0.012,0.007-0.034,0-0.045c-0.173-0.304-0.378-0.555-0.592-0.774
	c-0.104-0.105-0.206-0.194-0.319-0.273l-0.046-0.046c-0.129-0.08-0.26-0.141-0.409-0.182c-0.708-0.196-1.469-0.406-2.232-0.638
	c-1.529-0.464-3.117-1.013-4.738-1.641c-3.239-1.255-6.481-2.857-9.02-4.921h-0.046c-0.317-0.259-0.617-0.547-0.911-0.82
	s-0.553-0.533-0.819-0.82c-1.21-0.658-2.336-1.334-3.417-2.005s-2.096-1.331-3.053-2.005c-0.968-0.682-1.882-1.37-2.732-2.051
	c-0.714-0.57-1.368-1.167-2.005-1.731c-0.144-0.128-0.315-0.236-0.456-0.364l-0.045-0.045c-0.69-0.629-1.313-1.254-1.913-1.868
	c-0.417-0.427-0.809-0.813-1.185-1.23l-0.593-0.684c-0.539-0.624-1.049-1.229-1.503-1.823c-0.457-0.598-0.853-1.217-1.23-1.777
	c-0.024-0.038-0.066-0.054-0.091-0.091c-0.353-0.527-0.668-1.017-0.956-1.503c-0.32-0.54-0.572-1.022-0.82-1.504
	c-0.306-0.585-0.56-1.104-0.774-1.595l-0.091-0.183c-0.203-0.479-0.376-0.915-0.502-1.275l-0.045-0.137
	c-0.332,0.045-1.577-1.454-1.913-1.367c-3.539,0.917-9.235,14.018-8.793,18.044c0.347,3.151-4.676,3.996-7.106,6.333
	c-1.997,1.921-0.664,6.078-2.778,8.43c-7.989,4.26-6.377,6.174-11.663,13.442c-1.873,2.058-1.8,8.327,1.504,13.624
	c3.741,5.998,5.732,19.006,11.343,21.735c1.825,0.763,12.476,3.265,13.895,5.787c1.724,3.063,3.051,12.005,5.513,15.265
	c2.399,3.176,5.893,0.668,9.293,1.686c3.155,3.263,12.085,7.292,19.862,3.099c4.213-2.271,6.975-10.042,10.113-13.897
	c1.46-1.794,3.701-1.355,4.92-1.641c0,0-0.656-11.363,3.872-11.893c5.391-0.631,6.879,7.017,6.879,7.017
	c3.454-0.154,3.205-3.723,4.146-5.514c0.858-1.633,3.967,2.534,5.513,2.233c1.674-0.327,6.08-4.564,7.426-5.149
	c2.291,1.514,7.932,0.578,9.716,1.484c2.164-4.606,2.922-7.635,5.819-8.994c3.636-1.704,7.882-0.707,10.477-2.515
	c0.727-0.967,3.133-0.726,3.323-1.806c1.016-5.773,11.613-5.979,13.936-7.027c2.588-1.168,0.534,0.254,2.33-2.513
	c2.375-3.658,4.412-2.394,6.977-0.602c1.143,0.798,4.792-3.711,8.46-3.05c3.978,0.716,6.072,2.014,6.248,0.69
	c0.362-2.729,1.677-7.256,6.104-1.094c0.241,0.336,2.505-0.815,5.738-0.707c2.702,0.091,6.081,1.455,9.522,1.572l0.046-0.045
	c0.382-0.538,0.719-1.038,0.956-1.503c0.094-0.182,0.149-0.339,0.183-0.501c0.016-0.068,0.038-0.117,0.046-0.182
	c0.007-0.077,0.001-0.154,0-0.228c0-0.146-0.027-0.274-0.046-0.41c-0.019-0.135-0.026-0.243-0.046-0.364
	c-0.008-0.062-0.039-0.121-0.045-0.182c-0.004-0.03,0.002-0.061,0-0.091c-0.014-0.271,0.037-0.531,0.228-0.82
	c0.085-0.128,0.212-0.271,0.364-0.41c0.006-0.272,0.073-0.502,0.137-0.683c0.005-0.015-0.005-0.034,0-0.045
	c0.009-0.024,0.035-0.023,0.046-0.046c0.067-0.142,0.129-0.272,0.228-0.364c0.024-0.023,0.065-0.025,0.091-0.045
	c0.061-0.048,0.115-0.1,0.183-0.137l0.137-0.091l0.228-0.091l0.228-0.091l0.456-0.136c0.159-0.065,0.281-0.163,0.41-0.273
	c0.115-0.1,0.237-0.202,0.318-0.365c0.081-0.162,0.122-0.375,0.137-0.638c0.107-0.031,0.235-0.036,0.364-0.045h0.456
	c0.798,0.005,1.977,0.107,3.234,0.182h0.136l0.183-0.045c0.079-0.024,0.156-0.058,0.228-0.091c0.104-0.047,0.188-0.113,0.273-0.182
	c0.14-0.112,0.232-0.229,0.319-0.41c0.084-0.175,0.159-0.431,0.182-0.684c0.021-0.224-0.008-0.48-0.045-0.774
	c-0.007-0.057,0.008-0.123,0-0.183c-0.021-0.128-0.06-0.313-0.091-0.456c-0.057-0.244-0.139-0.535-0.229-0.82l-0.091-0.273
	c-0.135-0.401-0.299-0.839-0.501-1.322c0-0.32-1.387-2.243-0.41-2.825c0.998-0.595,4.36,0.137,5.057-1.003
	c1.109-1.816,0.296-5.142,0.865-4.875c0.68,0.056,2.605-0.262,3.144-0.182c1.247,0.186,1.973-1.038,2.278-1.504
	c0.66-1.009-0.11-1.954,0.546-2.278c2.229-1.099,0.212-5.368,0.638-7.473c0.009-0.107,0.013-0.226,0.046-0.319
	c0.245,0.042,0.454,0.057,0.638,0.045c0.063-0.005,0.127-0.037,0.183-0.045l0.182-0.045c0.177-0.057,0.303-0.117,0.41-0.228
	c0.13-0.134,0.217-0.318,0.273-0.501c0.053-0.17,0.121-0.362,0.137-0.547c0.001-0.015-0.001-0.03,0-0.045
	c0.02-0.266,0.034-0.514,0.046-0.729c0.011-0.215,0.023-0.402,0.091-0.501c0.035-0.052,0.072-0.084,0.137-0.091h0.045
	c0.053-0.001,0.1,0.006,0.183,0.045c-0.878-0.928-1.636-1.886-2.278-2.825c-2.729-0.94-3.981-1.158-6.742-0.045
	c-10.95,4.411-6.713-0.113-9.43-1.731c-2.736-1.63-5.493,0.39-7.881-1.686C367.906,223.87,368.384,216.03,367.017,212.218
	L367.017,212.218L367.017,212.218z"/>
<path fill="#14B119" stroke="#FFFFFF" stroke-width="9" d="M352.211,45.217c-0.388,0.014-0.778,0.057-1.185,0.091
	c-1.625,0.139-3.438,0.464-5.648,0.82c-6.022,0.97-11.559,6.147-16.31,9.113c-3.404,2.125-14.642,1.854-17.174,8.156
	c-6.604,0.913-9.76,6.861-11.845,9.387c-0.795,0.963-2.242,6.421-2.323,8.475c-0.096,2.439-2.912,3.689-4.055,5.332
	c-0.91,1.31-2.335,3.702-1.229,4.739c0.934,0.876,5.258-1.651,6.423-1.048c1.526,0.79,6.288-0.248,7.335,0.912
	c1.377,1.525-0.831,2.445,1.32,3.873c0.912,0.605-1.093,4.783-0.091,5.377c1.362,0.808,6.35-0.386,7.744,0.319
	c1.999,1.01,3.922,4.703,6.424,5.058c3.07,0.436,6.67-2.45,7.972-0.774c0.671,0.863-1.215,7.817-0.501,8.931
	c4.085,6.366,5.373,6.386,14.396,10.845c1.882,0.93,3.932-1.21,5.467-0.228c2.271,1.454,2.289,4.176,3.781,6.061
	c1.838,2.322,8.292,2.518,9.566,4.42c1.033,1.542-1.867,5.692-1.867,6.789c0,2.474,2.13-1.105,3.188,1.003
	c1.059,2.107-2.535,5.59-1.458,7.473c4.982-0.337,11.018,8.305,11.8,14.991c0.159,1.369,2.603,8.897,3.188,9.888
	c2.958,4.771,6.804,2.904,9.111-1.823c1.277-0.709,8.303,2.263,9.202,0.547c0.46-0.878,5.704-4.341,5.193-7.428
	c-0.804-4.851-0.752-6.295-0.092-9.523c-0.068-1.231,0.902-3.058,0.639-4.83c-0.4-0.276-0.795-0.555-1.185-0.866
	c-0.758-0.604-1.481-1.286-2.187-2.005l-0.273-0.273c-0.264-0.277-0.521-0.576-0.774-0.866c-0.343-0.391-0.679-0.77-1.003-1.185
	c-0.153-0.195-0.307-0.392-0.455-0.592c-0.16-0.216-0.301-0.463-0.456-0.684c-0.291-0.416-0.594-0.845-0.865-1.276
	c-0.217-0.344-0.435-0.696-0.638-1.048c-0.044-0.077-0.093-0.15-0.137-0.228c-0.033-0.059-0.059-0.123-0.091-0.182
	c-0.501-0.899-0.964-1.798-1.367-2.734c-1.243-2.879-1.993-5.893-2.05-8.703c2.267-0.706,3.429-1.778,3.827-3.053
	c0.005-0.015-0.005-0.031,0-0.045c0.046-0.156,0.112-0.294,0.136-0.456c0.006-0.029-0.005-0.063,0-0.091
	c0.002-0.015-0.001-0.031,0-0.045c0.024-0.192,0.051-0.348,0.046-0.547c-0.005-0.198-0.06-0.434-0.091-0.638
	c-0.004-0.015,0.003-0.03,0-0.045l-0.046-0.228c-0.07-0.313-0.154-0.64-0.273-0.957c-1.588-4.222-7.559-8.955-9.931-9.842
	c-2.873-0.741-10.305,0.384-12.163-1.048c-0.17-0.124-0.288-0.244-0.365-0.41c-0.005-0.012,0.006-0.034,0-0.045
	c-0.035-0.079-0.032-0.139-0.045-0.228c-0.013-0.089-0.012-0.176,0-0.273c0.023-0.202,0.098-0.434,0.228-0.684
	c0.027-0.051,0.06-0.129,0.091-0.183c0.118-0.192,0.273-0.417,0.456-0.638c0.154-0.186,0.295-0.35,0.41-0.547l0.091-0.182
	c0.069-0.132,0.129-0.274,0.183-0.41c0.053-0.136,0.1-0.275,0.136-0.41c0.021-0.073,0.029-0.154,0.046-0.228
	c0.045-0.21,0.073-0.417,0.091-0.638c0.025-0.29,0.021-0.563,0-0.866c-0.082-1.211-0.482-2.514-1.048-3.873
	c-1.134-2.719-2.845-5.653-3.508-8.384c-0.784-2.036-2.475-5.452-2.277-6.243c0.407-1.634,3.658,2.113,1.229-9.25
	c16.72-0.904,14.526-4.783,17.903-6.607c1.164-9.491-5.366-12.751-12.254-16.86c-4.848-5.142-14.106-9.148-16.901-11.482
	c0.429-0.085,0.809-0.188,1.23-0.273c-0.413-0.124-0.839-0.234-1.276-0.319C354.478,45.268,353.374,45.18,352.211,45.217
	L352.211,45.217z"/>
<path fill="#14B119" stroke="#FFFFFF" stroke-width="9" d="M426.045,30.258c0.277,2.937,0.324,5.892,0.41,8.84
	c4.242,1.99,4.078,4.85,2.551,8.657c8.226,6.561,4.668,6.829,4.948,10.098c0.133,1.558,1.294,3.435-1.895,4.686
	c1.638,2.076,8.885,3.659,11.614,5.647c-3.602,2.343-15.556,1.744-16.119,3.74c-0.859,3.044,5.875,8.986,3.198,11.208
	c-15.789,1.517-9.975-1.779-12.536-2.976c-2.028-1.363-4.394-3.757-5.655-5.896c-1.329-2.253-2.312-4.699-1.869-4.636
	c-1.678-0.238-4.663,3.755-6.172,1.997s-2.792-7.08,3.325-8.651c0.531-0.871-2.295-10.544-2.301-10.889
	c-0.238-0.164-0.748-0.505-1.822-1.139c-3.381-1.998-6.149,4.335-5.646,0.918c-2.578-15.214,4.643-10.214,10.432-20.109
	c1.585-2.71,6.753-5.992,9.474-6.417C422.091,24.624,424.563,26.599,426.045,30.258L426.045,30.258z"/>
<path fill="#14B119" stroke="#FFFFFF" stroke-width="9" d="M167.073,467.298c-0.099-0.002-0.185,0.02-0.273,0.045
	c-0.154,0.043-0.278,0.133-0.41,0.229c-0.077,0.055-0.155,0.113-0.228,0.182c-0.054,0.053-0.131,0.078-0.182,0.137
	c-0.173,0.191-0.288,0.412-0.456,0.639c-0.071,0.096-0.153,0.176-0.228,0.273c-0.065,0.084-0.113,0.191-0.183,0.273
	c-0.056,0.064-0.123,0.119-0.182,0.182c-0.096,0.1-0.213,0.186-0.319,0.273l-0.137,0.09c-0.136,0.098-0.25,0.211-0.41,0.273h-0.045
	c-0.208,0.082-0.424,0.133-0.684,0.137c-2.8,0.061-1.64-1.584-8.154-1.367c-2.433,0.082-5.341,0.779-8.474,1.824
	c-0.783,0.26-1.609,0.564-2.414,0.865c-2.414,0.902-4.89,1.943-7.335,3.053c-2.523,1.063-2.921,2.02-5.057,2.734
	c-0.267,0.09-0.466,0.383-0.638,0.773c-0.171,0.393-0.325,0.881-0.455,1.367c-0.195,0.732-0.38,1.461-0.638,1.824
	c-0.087,0.119-0.167,0.199-0.273,0.227c-0.664,0.174-1.293,0.256-2.05,0.32c0.02-0.033,0.061-0.18,0.091-0.229
	c-0.061,0.066-0.121,0.111-0.183,0.229c-0.191,0.012-0.266,0.09-0.501,0.09c0.275,0,0.332,0.041,0.41,0.045
	c-0.402,0.707-0.798,1.32-1.23,1.777c-0.597,0.631-0.047,2.766-0.819,3.418c-1.545,1.307-3.484,0.645-5.513,1.959
	c-0.51,0.332-0.98,1.102-1.366,2.051c-0.193,0.475-0.341,0.984-0.501,1.504c-0.802,2.602-1.195,5.344-1.094,3.645
	c0.021-0.355-1.743,0.289-3.918,0.73c-0.362,0.072-0.713,0.172-1.093,0.227c-3.419,0.504-7.295,0.047-7.062-5.467
	c-3.156,1.17-4.624-0.268-5.512-1.504c-1.107-0.643-4.556-0.805-5.422-1.641c-0.207-0.199-0.367-0.43-0.546-0.639
	c-0.182-0.211-0.349-0.418-0.502-0.637c-0.321,0.119-0.639,0.275-1.002,0.5c-1.901,1.176-0.328,3.83-1.275,5.332
	s1.179,2.875,0.364,4.693c-0.339,0.756-0.017,1.336,0.273,1.959c0.258,0.553,0.48,1.131,0.183,1.869
	c-0.439,1.088-0.971-0.646-1.822,0.592c-0.612,0.889-0.081,3.711-0.866,5.285c-0.562,1.127-2.597,1.131-2.597,1.641
	c0,1.689,0.527,5.123-1.275,7.975c-1.811,2.863-0.897-2.104-3.689,5.65c-0.86,2.387,1.9,6.086,0.501,9.113
	c6.307,5.418-3.418,7.381-7.973,11.117c0.172,2.041,0.216,11.854,5.284,15.037c5.95,1.438,23.287,10.5,25.86,28.34
	c0.107,0.744,0.189,1.506,0.243,2.281c2.54-0.525,6.318-0.305,10.113,2.414c0.683,0.49,2.259-1.676,3.234-1.002
	c1.818,1.256,3.238,5.373,5.012,5.469c5.045-5.738,11.754-3.197,17.038,0.045h0.045c0.479,0.244,0.93,0.412,1.367,0.547
	c0.358,0.109,0.715,0.186,1.047,0.227l0.41,0.047h0.092c0.295,0.01,0.59-0.008,0.865-0.047c0.361-0.049,0.672-0.105,1.002-0.227
	c0.223-0.082,0.429-0.209,0.638-0.32c0.198-0.104,0.404-0.193,0.593-0.318l0.045-0.045l0.137-0.092
	c0.138-0.1,0.277-0.207,0.41-0.318c0.188-0.154,0.369-0.33,0.547-0.502c0.609-0.594,1.162-1.273,1.686-1.959
	c0.23-0.301,0.463-0.568,0.683-0.865c1.294-1.738,2.431-3.285,3.827-3.281c1.456,0.006,2.159,0.477,2.733,0.957
	c0.277,0.238,0.528,0.461,0.82,0.639c0.312,0.195,0.643,0.324,1.139,0.318c0.941-0.012,1.709-0.551,2.369-1.367
	c0.164-0.203,0.351-0.402,0.501-0.639c0.144-0.225,0.278-0.48,0.409-0.729c0.006-0.012-0.005-0.033,0-0.045
	c0.474-0.9,0.839-1.926,1.185-2.916c0.049-0.141,0.136-0.271,0.183-0.41c0.005-0.016-0.005-0.031,0-0.045
	c0.294-0.875,0.54-1.648,0.774-2.324c0.079-0.229,0.152-0.402,0.228-0.594c0.144-0.363,0.276-0.68,0.41-0.865
	c0.307-0.424,0.471-0.854,0.592-1.275c0.244-0.848,0.245-1.668,0.456-2.416c0.104-0.371,0.272-0.723,0.547-1.047
	c0.094-0.111,0.205-0.211,0.318-0.273c0.114-0.064,0.27-0.113,0.41-0.137c0.282-0.049,0.608-0.012,0.911,0
	c0.605,0.023,1.193,0.021,1.549-0.502c0.131-0.191,0.225-0.438,0.273-0.729c0.016-0.092,0.035-0.219,0.046-0.318
	c0.02-0.211,0.038-0.488,0.045-0.73c0.007-0.244-0.007-0.506,0-0.773c0.016-0.553,0.039-1.131,0.137-1.732
	c0.097-0.596,0.259-1.193,0.547-1.775c0.472-0.889,2.157-0.373,3.508-0.365c0.235,0.004,0.475-0.004,0.683-0.045h0.046
	c0.136-0.035,0.248-0.076,0.364-0.137l0.091-0.047c0.062-0.037,0.13-0.086,0.183-0.135c0.074-0.066,0.124-0.141,0.183-0.229
	c0.062-0.102,0.144-0.232,0.182-0.365s0.032-0.33,0.046-0.592c0.015-0.26,0.062-0.59,0.137-0.957
	c0.088-0.428,0.247-0.926,0.546-1.459c0.028-0.047,0.062-0.086,0.092-0.135c0.203-0.34,0.44-0.686,0.774-1.049
	c0.138-0.15,0.67-0.221,1.275-0.365l0.137-0.045c0.346-0.088,0.749-0.215,1.093-0.365c0.345-0.148,0.66-0.34,0.911-0.592
	c0.531-0.531,1.065-1.133,1.595-1.73c0.178-0.201,0.369-0.389,0.547-0.594c0.352-0.406,0.695-0.818,1.048-1.23l1.093-1.229
	c0.189-0.215,0.356-0.43,0.547-0.639l0.183-0.182c0.468-0.508,0.94-1.016,1.412-1.459c0.722-0.678,1.451-1.256,2.187-1.686
	c0.467-0.273,0.928-0.553,1.366-0.775c0.45-0.227,0.915-0.408,1.321-0.592c0.81-0.367,1.506-0.664,2.05-0.912
	c1.723-0.785,2.395-4.168,3.508-5.193c0.67-0.617,1.112-1.117,1.412-1.596c0.07-0.111,0.126-0.209,0.183-0.318
	c0.504-0.953,0.546-1.852,1.048-3.373c0.058-0.174,0.295-0.994,0.684-2.004c0.005-0.012-0.005-0.033,0-0.045
	c0.402-1.039,0.987-2.285,1.73-3.326c0.372-0.521,0.752-0.996,1.14-1.459c0.573-0.688,1.202-1.357,1.822-2.006l1.958-2.049
	c0.827-0.867,1.641-1.615,2.369-2.371c0.356-0.369,0.662-0.711,0.957-1.092c0.295-0.383,0.564-0.768,0.774-1.186
	c0.092-0.184,0.184-0.383,0.228-0.592c0.022-0.105,0.032-0.211,0.046-0.32c0.02-0.158,0.037-0.338,0.045-0.5
	c0.007-0.182-0.001-0.367,0-0.547c0.004-0.113-0.005-0.209,0-0.32c0.002-0.078,0.042-0.15,0.046-0.227
	c0.014-0.205,0.008-0.41,0.045-0.592c0.022-0.109,0.057-0.223,0.092-0.32c0.038-0.109,0.075-0.225,0.136-0.318
	c0.13-0.199,0.199-0.359,0.229-0.547c0.031-0.174,0.001-0.334,0-0.502c-0.006-0.334-0.004-0.66,0.182-1.002
	c0.316-0.582,1.483-0.826,2.05-1.367c0.209-0.197,0.383-0.393,0.547-0.639c0.156-0.225,0.254-0.451,0.364-0.682
	c0.223-0.469,0.364-0.898,0.365-1.186c-0.264-0.275-0.467-0.553-0.638-0.82c-0.086-0.135-0.162-0.271-0.229-0.41
	c-0.968-0.309-2.624-0.902-3.963-1.23c-0.446-0.109-0.84-0.203-1.185-0.227c-0.197-0.016-0.354-0.025-0.501,0
	c-0.278,0.047-0.449,0.174-0.593,0.363c-0.143,0.189-0.278,0.455-0.364,0.684c-0.171,0.457-0.283,0.873-0.684,0.865
	c-2.397-0.045-2.685,0.029-4.464-0.363c-0.118-0.027-0.226-0.109-0.319-0.184c-0.105-0.082-0.191-0.191-0.273-0.318
	c-0.027-0.043-0.065-0.09-0.091-0.137c-0.11-0.209-0.197-0.439-0.273-0.684c-0.037-0.123-0.059-0.244-0.091-0.363
	c-0.137-0.496-0.247-0.926-0.41-1.049c-0.119,0.055-0.243,0.125-0.364,0.182c-0.114,0.127-0.193,0.264-0.273,0.41
	s-0.171,0.293-0.228,0.457c-0.012,0.031-0.034,0.057-0.046,0.09c-0.082,0.252-0.165,0.537-0.228,0.775
	c-0.005,0.014,0.005,0.031,0,0.045c-0.036,0.139-0.095,0.244-0.137,0.365c-0.005,0.014,0.005,0.033,0,0.045
	c-0.043,0.115-0.078,0.229-0.137,0.318c-0.065,0.094-0.179,0.176-0.273,0.229c-0.088,0.045-0.197,0.092-0.318,0.092
	c-0.392,0-0.83,0.053-1.275,0.135c-0.445,0.084-0.897,0.193-1.275,0.32c-0.567,0.189-0.977,0.523-0.957,0.455
	c-0.117,0.135-0.258,0.232-0.41,0.318c-0.152,0.088-0.317,0.186-0.501,0.229c-2.569,0.602-7.96-2.912-10.387-4.238
	c-0.609-0.332-1.047-1.344-0.137-2.322c0.152-0.164,0.361-0.346,0.593-0.502c0.23-0.156,0.499-0.313,0.819-0.455
	c0.273-0.641,1.097-2.275,0.82-3.281c-0.032-0.117-0.076-0.221-0.137-0.318c-0.061-0.1-0.147-0.189-0.228-0.273
	c-0.479-0.508-1.198-0.795-1.094-1.23l-0.228-10.709c-0.093-0.77,0.074-1.127,0.364-1.32c0.146-0.098,0.308-0.148,0.501-0.184
	c0.967-0.17,2.347,0.094,2.142-2.551c-0.391-0.26-0.901-0.531-1.458-0.82c-1.671-0.867-3.805-1.941-4.737-3.736
	c-0.442-0.852-0.433-1.461-0.273-1.959c0.053-0.166,0.11-0.363,0.182-0.502c0.287-0.557,0.648-0.902,0.273-1.275
	c-1.598-1.592-5.485-1.451-5.467-3.053c0.006-0.365,0.08-0.709,0.183-1.004c0.103-0.293,0.243-0.533,0.41-0.773
	c1.003-1.447,2.867-2.096,2.05-3.736c-0.145-0.291-0.979,0.26-2.141,0.637c-0.232,0.076-0.474,0.129-0.729,0.184
	c-0.512,0.107-1.067,0.168-1.64,0.09c-2.595-0.352-6.311-4.648-8.018-4.967C167.281,467.324,167.171,467.3,167.073,467.298
	L167.073,467.298L167.073,467.298z"/>
<path fill="#14B119" stroke="#FFFFFF" stroke-width="9" d="M353.122,263.116c-1.498,0.061-2.097,2.486-2.323,4.192
	c-0.176,1.324-2.264,0.033-6.241-0.684c-3.669-0.661-7.331,3.851-8.474,3.053c-2.564-1.792-4.595-3.066-6.97,0.592
	c-1.797,2.767,0.265,1.338-2.323,2.506c-2.322,1.049-12.924,1.244-13.94,7.018c-0.189,1.081-2.599,0.855-3.325,1.822
	c-2.595,1.808-6.843,0.802-10.478,2.506c-2.897,1.358-3.667,4.416-5.831,9.022c-1.785-0.906-7.412,0.01-9.703-1.503
	c-1.346,0.584-5.752,4.822-7.426,5.149c-1.546,0.302-4.653-3.866-5.512-2.233c-0.941,1.791-0.692,5.36-4.146,5.514
	c0,0-1.488-7.648-6.879-7.017c-2.83,0.331-3.62,4.872-3.826,8.247c-0.02,0.331-0.036,0.701-0.046,1.002
	c-0.013,0.409-0.045,0.715-0.045,1.048c-0.001,0.028,0,0.062,0,0.091c-0.001,0.069-0.001,0.16,0,0.228
	c0.008,0.604,0.045,1.276,0.045,1.276c-0.326,0.076-0.746,0.107-1.185,0.137c-0.375,0.025-0.776,0.07-1.184,0.136
	c-0.225,0.038-0.46,0.07-0.684,0.137c-0.448,0.134-0.869,0.317-1.275,0.638c-0.204,0.16-0.41,0.368-0.593,0.592
	c-0.784,0.964-1.557,2.157-2.323,3.463c-0.769,1.307-1.515,2.701-2.323,4.055c-0.811,1.367-1.643,2.665-2.551,3.782
	c-0.226,0.278-0.45,0.523-0.684,0.774c-0.707,0.762-1.434,1.393-2.232,1.823c-0.418,0.226-0.853,0.414-1.275,0.592l-0.183,0.091
	c-0.102,0.042-0.216,0.052-0.318,0.091c-0.392,0.148-0.791,0.298-1.185,0.41c-0.291,0.083-0.574,0.163-0.865,0.228l-0.273,0.045
	c-0.336,0.068-0.667,0.137-1.002,0.182l-0.82,0.091h-0.046c-0.485,0.038-0.979,0.051-1.457,0.045c-0.229-0.001-0.457,0.012-0.684,0
	c-0.681-0.033-1.347-0.122-2.005-0.228c-0.247-0.04-0.485-0.087-0.729-0.137c-0.105-0.019-0.215-0.022-0.319-0.045
	c-0.061-0.013-0.123-0.023-0.182-0.045c-0.032-0.007-0.06-0.038-0.091-0.045l-0.229-0.045c-0.265-0.065-0.516-0.152-0.774-0.228
	c-0.559-0.163-1.117-0.346-1.64-0.547c-1.598-0.615-2.972-1.384-4.1-2.188l-1.641,2.278l-7.152-0.82
	c-0.557,1.634-0.436,2.423-0.091,2.916c0.229,0.329,0.562,0.541,0.865,0.774c0.456,0.35,0.842,0.761,0.729,1.823
	c-0.872,8.212-3.59,10.715-3.735,16.085c-0.184,6.736-1.794,15.491-1.641,17.543s1.836,4.151,3.234,6.835
	c1.667,3.48,8.796,0.464,9.84,4.375c-1.111,2.898-8.543,4.86-11.343,4.42c0.12,0.048,0.248,0.113,0.364,0.182l0.137,0.091
	c0.098,0.066,0.179,0.148,0.273,0.228c0.01,0.008,0.035-0.008,0.045,0c0.13,0.111,0.241,0.23,0.365,0.364
	c0.029,0.032,0.062,0.058,0.091,0.091c0.219,0.249,0.397,0.557,0.592,0.866l0.046,0.045c0.092,0.148,0.188,0.297,0.273,0.456
	c0.129,0.24,0.249,0.47,0.364,0.729c0.02,0.045,0.026,0.092,0.045,0.137c0.135,0.312,0.254,0.629,0.365,0.957l0.091,0.273
	c0.033,0.105,0.061,0.213,0.091,0.319c0.103,0.353,0.2,0.696,0.273,1.048c0.016,0.075,0.031,0.153,0.046,0.228
	c0.071,0.381,0.148,0.778,0.182,1.139c0.004,0.029-0.003,0.063,0,0.091c0.033,0.399,0.02,0.787,0,1.14
	c-0.021,0.377,0.083,0.756,0.228,1.139c0.145,0.383,0.32,0.771,0.502,1.139c0.271,0.557,0.513,1.069,0.501,1.549
	c-0.006,0.159-0.023,0.309-0.092,0.456c-0.047,0.103-0.096,0.148-0.182,0.182c-0.093,0.046-0.188,0.063-0.319,0.045
	c-0.697-0.091-1.843-0.891-2.505-0.273c-0.103,0.095-0.196,0.246-0.273,0.41c-0.387,0.824-0.48,2.396-0.501,3.6
	c-0.009,0.482-0.002,0.895,0,1.185c0.005,1.09,1.272,1.691,1.412,2.688c0.518,1.891,0.719,3.912,0.455,5.65
	c-0.005,0.029,0.005,0.062,0,0.091c-0.005,0.029,0.002,0.058,0,0.091c-0.069,1.344-0.366,2.249-0.911,2.415
	c-0.394,0.603-0.895,1.087-1.549,1.413c-2.552,1.79-1.926,7.559-0.684,10.571c1.937,0.187,2.641-3.546,3.6-2.232
	c1.028,0.437,1.007,3.831,2.004,4.739c1.193,1.086,3.543,0.968,4.692,0.774c1.906-0.322,0.09-2.445,1.911-2.843
	c1.202-0.263,4.435,0.355,6.732-1.475c1.091-0.869,3.238,3.891,4.002,3.955c2.226,0.331,3.902-1.641,5.981,0.336
	c2.376,2.259,11.925,1.814,13.065,3.79c1.53,2.65-3.29,9.982-2.748,13.24c1.009,6.074,3.303,14.529,6.886,16.221
	c2.613,1.234,3.52-0.91,9.79,1.861c0.917,0.406,2.638-2.801,5.124-2.672c6.616,0.344,17.33,1.82,23.652,3.275
	c1.232,0.283,0.682,4.906,1.518,5.18c1.245,0.295,2.565-0.646,4.211-1.254c0.589-0.197,1.973-1.432,2.694-1.703
	c0.401-0.15,1.421-0.385,2.188-0.592c0.386-0.111,0.71-0.219,0.865-0.318c0.077-0.051,0.111-0.092,0.091-0.137
	s-0.082-0.1-0.228-0.137c-0.241-0.063-0.426-0.131-0.638-0.229c-0.196-0.086-0.374-0.162-0.547-0.273
	c-0.183-0.117-0.343-0.223-0.501-0.365c-0.135-0.117-0.247-0.277-0.364-0.41l-0.046-0.045c-0.258-0.299-0.459-0.609-0.638-0.957
	c-0.178-0.346-0.301-0.715-0.41-1.094c-0.109-0.377-0.184-0.699-0.228-1.047c-0.134-1.047-0.012-1.959,0.273-2.324
	c1.522-3.127,4.02-3.039,6.014-8.064c6.912-0.279,9.677,0.205,15.853-0.41c0.17-0.408,0.276-1.092,0.365-1.914
	c0.177-1.645,0.234-3.842,0.364-5.559c0.064-0.859,0.15-1.615,0.273-2.098c0.233-0.92,0.624-0.836,1.093-0.637
	c0.233,0.098,0.467,0.236,0.729,0.273c0.262,0.037,0.549-0.025,0.819-0.273c0.395-0.363,0.048-1.25-0.455-2.232
	c-0.056-0.109-0.125-0.211-0.183-0.32c-0.287-0.543-0.605-1.066-0.819-1.549c-0.128-0.291-0.189-0.551-0.229-0.775
	c-0.026-0.129-0.058-0.219-0.045-0.318c0.021-0.164,0.117-0.299,0.273-0.365c0.09-0.029,0.225-0.051,0.364-0.045
	c0.4,0.016,0.782,0.008,1.139,0c0.376-0.008,0.716-0.014,1.048-0.045c1.244-0.125,2.209-0.426,2.961-0.775
	c0.38-0.176,0.71-0.346,1.002-0.547c0.59-0.402,1.008-0.822,1.413-1.184c0.401-0.361,0.794-0.68,1.229-0.821
	c1.865-0.601,3.503-0.117,4.465-0.182c0.322-0.023,0.579-0.12,0.729-0.319c0.189-0.366,0.395-0.782,0.593-1.276
	c2.971-7.4,6.677-28.271,2.824-36.453c-2.952-1.366-5.249,0.728-5.239-3.372c0.012-4.611,5.187-2.291,5.193-5.24
	c0.016-6.294,3.438-12.746,6.287-21.234c0.306-0.91,1.955,0.091,3.234-0.091c-0.182-0.867,0.052-1.786-0.183-2.552
	c-0.197-0.645-1.727-0.677-1.64-1.731c0.289-0.519-0.019-2.425,0.273-3.463c0.284-1.014,2.207-0.338,2.323-1.549
	c0.407-4.247-0.106-9.765,0.045-13.897c0.129-3.502-2.939,1.804-2.733-1.868l5.239-21.553c7.077,0.314,10.053-11.359,7.653-12.758
	h-0.046c-0.163-0.089-0.38-0.147-0.592-0.137c-0.757,0.038-1.353-0.1-1.868-0.364c-0.516-0.265-0.939-0.629-1.412-1.094
	c-0.944-0.93-2.006-2.17-3.963-3.281c-0.138-1.349-0.18-2.848-0.046-4.283c0.034-0.359,0.082-0.698,0.137-1.048
	c0.164-1.05,0.436-2.05,0.82-2.917c0.256-0.578,0.585-1.11,0.956-1.549c0.372-0.439,0.775-0.792,1.276-1.048
	c0.75-0.383,1.656-0.525,2.732-0.365c0.359,0.054,0.74,0.148,1.14,0.273c1.139-0.45,0.778-1.888,0.911-3.099
	c0.044-0.404,0.133-0.784,0.364-1.093c0.396-0.529,1.106-0.918,1.913-1.185c0.275-0.09,0.568-0.161,0.865-0.228
	c1.19-0.269,2.518-0.377,3.554-0.41c0-0.221-0.026-0.418-0.091-0.638c-0.058-0.206-0.134-0.388-0.228-0.593
	c-0.382-0.835-0.976-1.638-1.048-2.46c-0.045-0.402,0.032-0.782,0.318-1.185c-0.478-0.017-0.938-0.079-1.412-0.137
	c-2.939-0.357-5.782-1.379-8.108-1.458c-3.233-0.109-5.499,1.065-5.74,0.729C355.242,263.903,354.021,263.079,353.122,263.116
	L353.122,263.116L353.122,263.116z"/>
<path fill="#14B119" stroke="#FFFFFF" stroke-width="9" d="M272.17,141.864l-6.515,0.501c-4.88,11.887-11.566,17.256-23.461,17.68
	c-3.24,8.734-3.785,10.002-9.977,12.394c-5.802,2.241-7.315,17.438-9.977,22.555c-3.163,6.081-11.161,17.999-11.161,17.999
	s0.134,0.6,0.41,1.413l0.045,0.136c0.126,0.361,0.299,0.797,0.501,1.276c0.03,0.071,0.06,0.109,0.092,0.183
	c0.215,0.49,0.469,1.009,0.774,1.595c0.248,0.482,0.5,0.964,0.819,1.503c0.289,0.487,0.604,0.977,0.957,1.504
	c0.024,0.037,0.066,0.054,0.091,0.091c0.378,0.561,0.773,1.179,1.23,1.777c0.454,0.594,0.964,1.198,1.503,1.823
	c0.198,0.229,0.383,0.451,0.593,0.683c0.376,0.418,0.768,0.803,1.185,1.23c0.601,0.614,1.223,1.239,1.913,1.868l0.045,0.045
	c0.141,0.128,0.312,0.236,0.456,0.365c0.642,0.572,1.284,1.154,2.004,1.731c0.852,0.681,1.766,1.368,2.733,2.05
	c0.957,0.674,1.975,1.336,3.053,2.005c1.077,0.669,2.207,1.348,3.417,2.005c0.267,0.287,0.525,0.547,0.819,0.82
	c0.294,0.273,0.594,0.562,0.911,0.82h0.046c2.538,2.064,5.78,3.666,9.02,4.921c1.62,0.628,3.209,1.176,4.738,1.64
	c0.764,0.232,1.524,0.442,2.232,0.638c0.149,0.042,0.28,0.103,0.409,0.182l0.046,0.045c0.113,0.08,0.216,0.168,0.319,0.273
	c0.214,0.219,0.419,0.471,0.592,0.775c0.007,0.012-0.007,0.034,0,0.045c0.44,0.787,0.824,1.781,1.321,2.597
	c0.124,0.204,0.22,0.37,0.364,0.547c0.438,0.545,0.978,0.931,1.731,1.002c0.198,0.019,0.412,0.03,0.638,0s0.463-0.1,0.729-0.182
	c0.282-0.087,0.579-0.174,0.865-0.228c0.287-0.054,0.563-0.075,0.866-0.091c0.303-0.016,0.642-0.01,0.956,0
	c0.943,0.031,1.945,0.162,3.007,0.319c1.417,0.205,2.933,0.463,4.602,0.546c0.801,0.04,1.631,0.053,2.505,0
	c0.438-0.026,0.913-0.078,1.367-0.137s0.897-0.131,1.366-0.228c0.521-0.108,1.047-0.242,1.595-0.41
	c0.548-0.168,1.117-0.371,1.686-0.592c0.141-0.472,0.246-1.026,0.319-1.595c0.218-1.708,0.2-3.721,0.409-5.422
	c0.002-0.015-0.001-0.03,0-0.045c0.086-0.683,0.222-1.294,0.41-1.823c0.095-0.264,0.189-0.517,0.319-0.729
	c0.13-0.212,0.283-0.396,0.455-0.546c0.45-0.394,0.963-0.68,1.504-0.866c0.834-0.279,1.77-0.354,2.778-0.273
	c1.01,0.081,2.099,0.303,3.234,0.593c2.276,0.576,4.776,1.426,7.289,1.914c0.837,0.163,1.669,0.302,2.506,0.365l2.778,4.465
	l3.007-0.045l1.503,4.511l4.602,0.912l1.549-5.924l5.877-2.825c0.364-0.236,0.796-0.309,1.229-0.319
	c0.225-0.001,0.497,0.017,0.729,0.046c0.698,0.083,1.41,0.256,2.05,0.273c0.196,0.003,0.414-0.009,0.592-0.046
	c0.179-0.037,0.383-0.123,0.547-0.228c1.557-0.993,2.918-1.922,4.101-2.78l0.045-0.045c1.194-0.867,1.999-3.669,2.92-4.384
	c1.381-1.072,2.744,0.066,3.822-0.628c0.359-0.231,0.694-0.452,1.048-0.638c0.223-0.117,0.408-0.233,0.593-0.364
	c0.047-0.034,0.092-0.057,0.136-0.091l0.046-0.045c0.196-0.154,0.392-0.333,0.547-0.501c0.168-0.182,0.283-0.354,0.41-0.547
	c0.022-0.035,0.069-0.056,0.091-0.091c0.047-0.075,0.05-0.151,0.091-0.228c0.11-0.203,0.194-0.388,0.273-0.592l0.046-0.091
	c0.093-0.254,0.168-0.53,0.228-0.775l0.045-0.182c0.09-0.397,0.165-0.683,0.229-1.002c0.047-0.208,0.064-0.341,0.091-0.501
	c0.012-0.039,0.033-0.055,0.046-0.091c0.049-0.146,0.112-0.269,0.182-0.365c0.047-0.055,0.076-0.107,0.137-0.137
	c0.061-0.029,0.148-0.045,0.228-0.045c1.909-0.012,4.87,0.203,5.786-4.192c0.33,0.554,0.649,1.009,0.956,1.458
	c0.303,0.443,0.584,0.844,0.866,1.185c0.154,0.188,0.307,0.391,0.455,0.547c0.201,0.212,0.4,0.393,0.592,0.547
	c0.168,0.135,0.341,0.273,0.502,0.365c1.355,0.775,2.463-0.018,3.462-2.37c0.386-0.907,0.9-1.619,1.503-2.597
	c0.046-0.075,0.103-0.368,0.183-0.775c0.121-0.602,0.319-1.472,0.638-2.324c0.102-0.274,0.233-0.561,0.364-0.82
	c0.005-0.012-0.005-0.034,0-0.045c0.133-0.259,0.288-0.505,0.456-0.729c0.007-0.008-0.007-0.037,0-0.045
	c0.074-0.099,0.186-0.149,0.273-0.228c0.092-0.135,0.217-0.235,0.318-0.319c0.007-0.005-0.007-0.04,0-0.045
	c0.5-2.715,3.6-7.02,1.959-8.065c-1.281-0.816-7.783-7.664-10.478-12.941l-9.065,2.598l-8.93-1.094
	c-4.979,0.297-6.955,3.074-10.067,0.82c-8.791,2.496-2.774-6.408-5.057-13.579c-0.4-1.795,1.641-4.664,2.597-7.563
	c0.239-0.725,0.405-1.429,0.455-2.142c0.018-0.237,0.012-0.495,0-0.729c-0.233-4.429-6.127-3.089-7.243-4.055
	c-0.074-0.064-0.107-0.141-0.137-0.228c-0.227-0.494-0.508-0.903-0.819-1.276c-0.156-0.186-0.329-0.384-0.501-0.546
	c-2.24-2.112-5.705-2.392-6.788-5.696c-4.511-2.325-12.038-9.422-9.931-14.855c0.334-0.863-6.095-0.672-6.424-1.731
	c0.145,0.466,0.551,1.75,0.957,3.007L272.17,141.864L272.17,141.864z"/>
<path fill="#14B119" stroke="#FFFFFF" stroke-width="9" d="M257.228,596.251c0.388,0.033,0.743,0.102,1.094,0.182
	C257.976,596.345,257.611,596.283,257.228,596.251z M212.629,597.208c-1.67,0.08-2.664,1.775-4.419,2.141
	c-2.182,0.453-4.33,0.178-4.646,0.502l-7.38,7.609c-0.581,0.465-1.054,0.945-1.458,1.412c-0.007,0.008,0.007,0.037,0,0.045
	c-0.399,0.465-0.781,0.9-1.185,1.277c-0.413,0.383-0.858,0.709-1.458,0.91c-0.6,0.203-1.353,0.299-2.323,0.229
	c-1.587-0.117-2.594-0.582-3.645-0.957c-0.273-0.096-0.528-0.148-0.819-0.229c-0.292-0.078-0.553-0.176-0.866-0.227
	c-0.625-0.102-1.345-0.127-2.231-0.047c-0.664,0.061-1.246-0.268-2.188-0.592c-0.94-0.324-2.201-0.65-4.146-0.502
	c-0.098,0.008-0.223,0.059-0.318,0.092c-0.288,0.1-0.549,0.291-0.82,0.592c-0.361,0.402-0.719,0.967-1.048,1.641
	c-0.29,0.594-0.513,1.273-0.774,2.006c-0.035,0.1-0.102,0.172-0.137,0.273c-1.464,4.232-2.441,9.998-2.642,10.98
	c-0.065,0.318-0.138,0.596-0.229,0.867c-0.271,0.811-0.621,1.436-0.819,2.049c-0.265,0.818-0.264,1.631,0.547,2.826
	c0.305,0.961,0.447,2.98,0.455,5.285c0.014,2.303-0.098,4.887-0.318,7.063c-0.02,0.191-0.074,0.348-0.137,0.502
	c-0.064,0.17-0.131,0.318-0.229,0.455c-0.184,0.256-0.426,0.436-0.638,0.639c-0.111,0.109-0.179,0.209-0.273,0.318
	c-0.09,0.102-0.167,0.209-0.228,0.318c-0.117,0.223-0.178,0.461-0.091,0.775c-0.258,0.424-0.498,0.855-0.729,1.322
	c-0.006,0.012,0.005,0.033,0,0.045c-0.225,0.455-0.441,0.926-0.638,1.412c-0.006,0.014,0.005,0.033,0,0.045
	c-0.4,0.986-0.773,2.01-1.048,3.053c-0.138,0.531-0.264,1.068-0.365,1.596c-0.313,1.598-0.426,3.133-0.364,4.512
	c0.036,0.807,0.091,1.57,0.183,2.277c0.091,0.707,0.229,1.35,0.364,1.959c0.003,0.014-0.003,0.033,0,0.047
	c0.132,0.592,0.296,1.135,0.455,1.639c0.006,0.014-0.005,0.033,0,0.047c0.16,0.5,0.327,0.951,0.502,1.367
	c0.183,0.441,0.36,0.834,0.546,1.184c0.365,0.684,0.706,1.193,1.003,1.549c0.147,0.18,0.299,0.309,0.41,0.41
	c0.169,0.994,0.123,2.051-0.046,3.145c-0.169,1.096-0.474,2.205-0.865,3.326c-0.78,2.244-1.903,4.469-2.87,6.379
	c-0.646,1.273-1.213,2.42-1.595,3.328c-0.187,0.441-0.327,0.99-0.41,1.594c-0.164,1.207-0.156,2.662-0.091,4.146
	c0.032,0.742,0.094,1.467,0.137,2.188c0.084,1.457,0.151,2.783,0.091,3.781c-0.031,0.531-0.1,0.938-0.228,1.23
	c-0.112,0.291-0.23,0.432-0.456,0.457c0.479,0.172,2.388,0.043,2.813,0.885c0.519,1.031,1.977,7.027,6.56,8.807
	c4.895,1.9,8.247,2.373,11.421,5.959c9.66,5.479,14.183,7.891,18.313,13.613c0.969,1.342,0.557,2.262,1.738,4.137
	c0.192,0.311,0.13,0.973,0.61,1.221c7.761,4.02,9.856,12.465,9.546,20.967c2.653,0.109,8.696,8.811,10.894,22.471
	c0.462,3.736,3.058,9.773,3.854,16.002c0.219,1.709-2.36,2.92-2.872,4.877c-0.225,0.838,2.039,1.494,1.646,2.252
	c-2.685,5.186-5.158,8.074-5.216,9.563c-0.131,3.385,4.457,7.686,5.315,9.773c1.063,2.584,1.574,9.938-0.202,12.549
	c-1.311,1.926-0.121,1.895,1.956,1.389c1.473-0.357,2.462,3.99,4.273,4.133c0.806,0.063,1.628-1.504,2.475-3.434
	c0.569-1.295,0.24-3.314,0.833-4.553c0.744-1.555,2.549-2.654,3.209-2.297c3.188,1.723,6.94,3.939,10.453,5.484
	c1.348,0.594,3.019,0.371,4.08,1.041c1.046,0.662,0.419,2.281,1.314,2.887c0.98,0.664,2.188,0.693,2.883,1.348
	c1.043,0.98,0.497,3.041,0.951,3.748c1.241,1.934,2.813-0.455,2.922-2.035c0.121-1.742,1.381-5.965-0.854-6.008
	c-3.517-0.068-4.112-6.135-2.314-10.295c0.356-0.822-1.31-3.609-0.824-2.953c0.348,0.471,2.108-0.293,2.479-0.676
	c1.065-1.1,3.949-1.438,4.836-2.598c0.833-1.088,1.205-2.371,1.408-3.754c0.258-1.758,2.76-3.115,3.07-4.994
	c0.577-3.498-0.426-10.777-0.362-12.629c0.049-1.447,2.633-3.211,2.688-4.131c0.114-1.908-2.835-2.08-3.834-3.037
	c-0.294-1.488-0.541-2.984-0.04-4.016c1.063-0.648,1.497-1.635,2.426-2.258c0.654-0.439-1.225-1.342-1.28-2.068
	c-0.105-1.369-0.405-2.859,0.157-3.979c0.29-0.576,1.039-1.322,1.048-2.037c0.022-1.887-1.492-2.463-1.47-3.172
	c0.023-0.711,1.24-1.035,1.325-2.039c0.062-0.729-0.616-3.199-0.607-4.135c0.027-3.063,0.604-5.299,1.212-7.775l-0.547-0.363
	c-1.773,3.582-7.654,3.898-16.218-2.963c-1.845-1.154-3.876-2.723-5.923-2.096c-0.015-0.814,0.627-2.836,0.41-3.736
	c-0.267-1.113-1.729-1.846-1.959-3.189c-2.281-0.594-3.605-1.006-3.689-2.369c-0.085-1.363,2.854-1.215,3.508-2.051
	c0.466-0.598,1.237-4.182-0.729-6.426c-1.573-1.48-5.094-3.068-5.876-3.6c-0.643-0.436,0.167-1.766-0.866-1.914
	c-2.538-0.363-3.774-1.379-3.553-4.1c0.182-2.227,4.035-6.729,5.102-7.564c0.749-0.586,3.835-1.213,4.556-2.461
	c1.105-1.914-1.199-4.535-2.095-5.605c-1.064-1.27-2.013-3.352-3.144-3.508c-5.616-0.77-0.841-6.549-0.364-7.473
	s0.726-5.482-1.686-6.197c-2.281-0.676,0.331-6.072-1.276-6.471c-0.743-0.184-1.499-0.459-1.913-1.549
	c-0.892-2.35-0.683-5.408-0.091-7.018c0.451-1.227,2.295-0.477,2.414-1.594c0.14-1.299-1.594-1.83-1.594-3.145
	c-0.001-1.285,1.701-2.059,2.597-3.326c0.535-0.76-1.12-1.164-0.911-2.369c0.113-0.66,1.77-1.014,2.141-1.551
	c0.661-0.951,1.03-2.965,1.321-4.01c0.685-2.453,2.771-4.699,4.419-6.105c1.511-1.289,0.48-3.322,0.956-3.736
	c1.52-1.322-1.155-4.373,0.41-4.102c2.854,0.498,11.324,0.152,12.027-5.057c2.662-1.729,7.005-0.785,9.84-1.822
	c3.204-0.836,0.605-8.27,2.642-11.756c1.442-2.469,0.987-9.137,0.593-9.66c-0.616-0.818-1.944-1.623-3.234-1.914
	c-1.533-0.348-3.129,0.158-3.645-0.457c-1.268-1.512-1.491-2.93-1.321-6.424c0.058-1.182,0.834-1.592,1.094-2.734
	c0.044-0.193-0.035-0.748-0.183-1.457c-0.101,0.857-0.536,1.424-2.096,2.277c-0.222-0.104-0.438-0.264-0.684-0.455
	c-0.244-0.191-0.509-0.434-0.774-0.73c-0.477-0.529-1.121,0.93-1.867,0.502c-0.243-0.139-0.48-0.277-0.729-0.455
	c-0.239-0.17-0.445-0.357-0.683-0.547c-0.487-0.391-0.971-0.758-1.412-1.139c-0.649-0.559-1.187-1.07-1.595-1.277
	c-0.137-0.068-0.268-0.09-0.364-0.09c-0.99,0-1.825,0.467-2.688,1.139c-0.862,0.67-1.724,1.549-2.733,2.324
	c-0.303,0.232-0.557,0.486-0.774,0.729s-0.435,0.49-0.592,0.729c-0.005,0.01,0.005,0.037,0,0.047
	c-0.484,0.74-0.743,1.436-1.185,1.959s-1.064,0.857-2.232,0.865c-0.088,0-0.185-0.029-0.273-0.045
	c-0.061-0.018-0.122-0.018-0.182-0.045l-0.091-0.047h-0.046c-2.934-1.209-6.053-11.029-12.072-11.164
	c-6.421-0.143-8.83,5.492-12.163,5.561c-3.477,0.068-2.407-3.248-2.688-4.238c-0.316-1.115-0.714-1.965-2.87-2.461
	C213.135,597.236,212.868,597.197,212.629,597.208L212.629,597.208L212.629,597.208L212.629,597.208z"/>
<path fill="#14B119" stroke="#FFFFFF" stroke-width="9" d="M395.124,231.083c-0.064,0.007-0.101,0.039-0.136,0.091
	c-0.141,0.208-0.098,0.699-0.137,1.23c-0.001,0.015,0.001,0.03,0,0.045c-0.016,0.185-0.084,0.377-0.137,0.547
	c-0.059,0.182-0.145,0.368-0.273,0.501c-0.107,0.111-0.234,0.171-0.41,0.228l-0.182,0.045l-0.183,0.046
	c-0.184,0.012-0.393-0.004-0.638-0.046c-0.727,1.965,1.656,6.637-0.684,7.792c-0.656,0.324,0.114,1.269-0.547,2.278
	c-0.305,0.466-1.03,1.689-2.277,1.504c-0.538-0.08-2.464,0.238-3.144,0.182c-0.569-0.267,0.244,3.059-0.865,4.875
	c-0.696,1.14-4.06,0.407-5.057,1.002c-0.977,0.583,0.41,2.505,0.41,2.825c0.201,0.482,0.365,0.92,0.501,1.321
	c0.027,0.084,0.065,0.193,0.091,0.273c0.089,0.285,0.172,0.576,0.228,0.82c0.031,0.142,0.071,0.327,0.092,0.456
	c0.008,0.06-0.007,0.125,0,0.182c0.036,0.294,0.065,0.55,0.045,0.775c-0.022,0.253-0.098,0.508-0.182,0.684
	c-0.087,0.181-0.18,0.298-0.319,0.41c-0.086,0.069-0.17,0.135-0.273,0.182l-0.228,0.091l-0.228,0.045h-0.092
	c-0.295,0.047-0.616,0.067-0.956,0.046h-0.137c-0.32-0.005-0.647-0.083-1.002-0.137c-0.397-0.052-0.791-0.075-1.139-0.091h-0.456
	c-0.129,0.01-0.257,0.015-0.364,0.045c-0.016,0.262-0.06,0.471-0.137,0.638s-0.203,0.265-0.319,0.365
	c-0.128,0.11-0.25,0.208-0.409,0.273c-0.159,0.064-0.299,0.087-0.456,0.136c-0.078,0.025-0.15,0.064-0.228,0.091
	c-0.129,0.046-0.248,0.116-0.364,0.182c-0.067,0.037-0.122,0.089-0.183,0.137c-0.025,0.021-0.066,0.022-0.091,0.045
	c-0.099,0.093-0.161,0.223-0.228,0.365c-0.016,0.033-0.033,0.055-0.046,0.091c-0.064,0.181-0.13,0.412-0.137,0.684
	c-0.152,0.139-0.279,0.282-0.364,0.41s-0.148,0.242-0.183,0.365c-0.202,0.736,0.383,1.4-0.136,2.415
	c-0.239,0.466-0.574,0.962-0.957,1.503l-0.046,0.045c-0.143,0.202-0.224,0.391-0.273,0.592c-0.049,0.202-0.067,0.391-0.045,0.592
	c0.001,0.015-0.002,0.032,0,0.045c0.021,0.19,0.07,0.358,0.137,0.547c0.005,0.015-0.005,0.031,0,0.045
	c0.032,0.09,0.096,0.183,0.136,0.273c0.046,0.102,0.086,0.217,0.137,0.319c0.052,0.102,0.123,0.209,0.183,0.319
	c0.161,0.301,0.315,0.604,0.455,0.911c0.094,0.205,0.171,0.386,0.229,0.592c0.005,0.014-0.006,0.033,0,0.046
	c0.055,0.201,0.091,0.387,0.091,0.592c-1.037,0.033-2.363,0.142-3.554,0.41c-0.297,0.067-0.59,0.138-0.865,0.228
	c-0.103,0.034-0.175,0.099-0.273,0.137c-0.68,0.26-1.295,0.586-1.64,1.048c-0.116,0.155-0.217,0.317-0.273,0.501
	c-0.057,0.184-0.069,0.391-0.091,0.592c-0.045,0.403-0.04,0.822-0.046,1.23c-0.005,0.2-0.023,0.408-0.046,0.593
	c-0.021,0.184-0.031,0.385-0.091,0.547c-0.029,0.079-0.095,0.157-0.137,0.228c-0.021,0.037-0.064,0.057-0.091,0.091
	c-0.049,0.064-0.073,0.128-0.137,0.183c-0.021,0.022-0.066,0.024-0.091,0.045c-0.083,0.06-0.165,0.139-0.273,0.182
	c-0.398-0.125-0.779-0.22-1.139-0.273c-1.077-0.161-1.983-0.019-2.733,0.365c-0.5,0.255-0.904,0.608-1.275,1.048
	c-0.372,0.44-0.7,0.972-0.957,1.549c-0.128,0.29-0.217,0.596-0.318,0.912c-0.103,0.315-0.196,0.621-0.273,0.957
	c-0.078,0.336-0.173,0.692-0.229,1.048c-0.055,0.356-0.103,0.688-0.136,1.048c-0.135,1.435-0.093,2.934,0.045,4.283
	c1.958,1.11,3.019,2.351,3.964,3.281c0.472,0.465,0.896,0.829,1.412,1.094c0.516,0.265,1.111,0.403,1.867,0.364
	c0.212-0.01,0.43,0.048,0.593,0.137h0.045c0.15,0.088,0.257,0.202,0.365,0.365c0.006,0.008-0.006,0.036,0,0.045
	c0.11,0.175,0.207,0.393,0.272,0.638c0.056,0.207,0.113,0.436,0.137,0.684c0.005,0.048-0.005,0.087,0,0.137
	c0.022,0.309,0.024,0.646,0,1.002c-0.023,0.356-0.068,0.709-0.137,1.093c-0.067,0.384-0.161,0.781-0.272,1.185
	c-0.112,0.404-0.253,0.814-0.41,1.23c-0.081,0.212-0.137,0.427-0.229,0.638c-0.086,0.2-0.177,0.395-0.273,0.592
	c-0.089,0.182-0.175,0.368-0.272,0.547c-0.118,0.216-0.234,0.429-0.365,0.638c-0.096,0.154-0.216,0.307-0.318,0.456
	c-0.09,0.131-0.224,0.238-0.319,0.365c-0.153,0.203-0.289,0.402-0.455,0.592c-0.197,0.226-0.377,0.435-0.593,0.638
	c-0.086,0.082-0.184,0.15-0.272,0.228c-0.572,0.496-1.225,0.941-1.914,1.23l-0.137,0.045c-0.059,0.023-0.122,0.024-0.182,0.045
	c-0.324,0.114-0.655,0.215-1.002,0.273c-0.41,0.068-0.833,0.11-1.276,0.091l-5.238,21.553c-0.014,0.229-0.012,0.383,0,0.547
	c0.001,0.014-0.001,0.033,0,0.045c0.012,0.14,0.017,0.27,0.045,0.365c0.033,0.125,0.082,0.209,0.137,0.273
	c0.038,0.044,0.09,0.07,0.137,0.091c0.017,0.007,0.027,0.041,0.046,0.045h0.091h0.091c0.088-0.01,0.177-0.051,0.273-0.091
	c0.404-0.169,0.85-0.537,1.23-0.638h0.091c0.061-0.008,0.129-0.01,0.182,0c0.054,0.01,0.128,0.029,0.183,0.091
	c0.076,0.075,0.144,0.187,0.183,0.364c0.003,0.014-0.004,0.032,0,0.045c0.035,0.186,0.057,0.413,0.045,0.729
	c-0.076,2.066,0.033,4.499,0.091,6.926c0.061,2.43,0.067,4.849-0.136,6.972c-0.068,0.71-0.751,0.777-1.367,0.911
	c-0.107,0.021-0.219,0.063-0.318,0.091c-0.135,0.038-0.26,0.068-0.365,0.136l-0.045,0.046l-0.046,0.045
	c-0.08,0.081-0.146,0.192-0.182,0.319c-0.146,0.519-0.142,1.243-0.137,1.914c0.003,0.335,0.017,0.641,0,0.912
	c-0.016,0.286-0.061,0.502-0.137,0.638c-0.021,0.264,0.048,0.477,0.183,0.638c0.134,0.161,0.349,0.254,0.546,0.364
	c0.175,0.092,0.345,0.183,0.502,0.273c0.193,0.119,0.355,0.279,0.409,0.456c0.044,0.144,0.076,0.301,0.092,0.456
	c0.005,0.046-0.004,0.09,0,0.136c0.005,0.11,0,0.206,0,0.319c0.003,0.32-0.011,0.673,0,1.003c0.007,0.22,0.046,0.421,0.091,0.638
	c-0.626,0.089-1.356-0.113-1.959-0.228h-0.045c-0.611-0.114-1.078-0.136-1.23,0.319c-1.425,4.244-2.978,7.977-4.191,11.437
	c-0.301,0.866-0.616,1.717-0.865,2.552s-0.454,1.649-0.638,2.46c-0.154,0.688-0.313,1.375-0.41,2.05
	c-0.075,0.521-0.103,1.034-0.137,1.549c-0.026,0.395-0.044,0.792-0.045,1.185c-0.002,0.737-0.334,1.143-0.82,1.413h-0.046
	l-0.045,0.045c-0.216,0.109-0.471,0.195-0.729,0.273l-0.956,0.273c-0.325,0.092-0.652,0.177-0.957,0.319
	c-0.151,0.07-0.271,0.181-0.41,0.273c-0.139,0.092-0.288,0.199-0.409,0.319c-0.177,0.178-0.32,0.382-0.456,0.638
	c-0.056,0.112-0.139,0.235-0.183,0.365c-0.005,0.013,0.006,0.032,0,0.045c-0.05,0.157-0.106,0.315-0.136,0.501
	c-0.039,0.237-0.045,0.486-0.046,0.775c-0.001,0.512,0.023,0.938,0.091,1.276c0.049,0.244,0.146,0.422,0.229,0.592
	c0.017,0.033,0.027,0.061,0.045,0.091c0.078,0.139,0.172,0.271,0.273,0.365c0.08,0.072,0.135,0.132,0.228,0.182
	c0.187,0.102,0.402,0.143,0.638,0.183c0.459,0.078,1.03,0.082,1.641,0.136c0.644,0.058,1.338,0.196,2.096,0.547
	c0.24,0.511,0.454,1.082,0.638,1.686c0.01,0.034,0.035,0.057,0.045,0.091c0.172,0.578,0.286,1.173,0.41,1.822
	c0.129,0.669,0.237,1.362,0.319,2.096c0.003,0.031-0.004,0.061,0,0.091c0.015,0.141,0.032,0.267,0.045,0.41
	c0.135,1.389,0.189,2.83,0.183,4.375c-0.001,0.291,0.005,0.571,0,0.866c-0.012,0.572-0.019,1.147-0.046,1.731
	c-0.005,0.107,0.006,0.211,0,0.319c-0.084,1.654-0.264,3.327-0.455,5.013c-0.016,0.121-0.031,0.243-0.046,0.364
	c-0.043,0.364-0.089,0.731-0.137,1.094c-0.123,0.948-0.261,1.896-0.409,2.825c-0.117,0.731-0.235,1.431-0.365,2.142
	c-0.201,1.103-0.412,2.203-0.638,3.235c-0.044,0.204-0.091,0.437-0.136,0.638c-0.021,0.093-0.025,0.181-0.046,0.273
	c-0.197,0.859-0.432,1.587-0.638,2.369c-0.049,0.175-0.09,0.375-0.137,0.547l-0.228,0.82c-0.194,0.675-0.397,1.328-0.593,1.914
	c-0.208,0.626-0.388,1.224-0.592,1.731c-0.198,0.493-0.403,0.91-0.592,1.276c-0.075,0.1-0.196,0.176-0.319,0.228
	c-0.123,0.052-0.249,0.08-0.41,0.091c-0.224,0.015-0.528-0.025-0.82-0.045c-0.105-0.009-0.251,0.01-0.364,0l-0.729-0.045
	c-0.25-0.012-0.503-0.009-0.774,0c-0.559,0.023-1.155,0.073-1.776,0.273c-0.437,0.14-0.828,0.459-1.23,0.82l-0.638,0.592
	c-0.233,0.201-0.481,0.393-0.774,0.594c-0.293,0.199-0.623,0.371-1.002,0.547c-0.377,0.174-0.785,0.32-1.276,0.455
	c-0.209,0.057-0.449,0.092-0.683,0.137c-0.318,0.063-0.639,0.146-1.003,0.182c-0.316,0.031-0.69,0.037-1.048,0.045
	c-0.356,0.01-0.738,0.016-1.139,0c-0.139-0.004-0.273,0.016-0.364,0.047c-0.156,0.064-0.252,0.199-0.273,0.363
	c-0.014,0.102,0.019,0.189,0.046,0.32c0.039,0.223,0.1,0.482,0.228,0.773s0.331,0.588,0.501,0.912
	c0.118,0.213,0.202,0.416,0.319,0.639l0.182,0.318c0.005,0.012-0.005,0.033,0,0.045c0.118,0.232,0.228,0.469,0.319,0.684
	c0.032,0.074,0.063,0.156,0.091,0.229c0.053,0.139,0.104,0.285,0.137,0.41c0.031,0.123,0.084,0.262,0.091,0.363
	c0.001,0.043,0.005,0.098,0,0.137c-0.005,0.051-0.032,0.092-0.045,0.137c-0.006,0.016,0.005,0.031,0,0.045
	c-0.027,0.072-0.082,0.133-0.137,0.184c-0.271,0.248-0.558,0.313-0.82,0.273c-0.131-0.02-0.244-0.086-0.364-0.137l-0.364-0.137
	c-0.235-0.1-0.452-0.16-0.638-0.092c-0.186,0.07-0.339,0.27-0.456,0.73c-0.122,0.48-0.208,1.236-0.273,2.096
	c-0.064,0.859-0.128,1.807-0.182,2.779c-0.054,0.984-0.093,1.943-0.183,2.779c-0.088,0.822-0.194,1.506-0.364,1.914
	c-1.544,0.154-2.864,0.229-4.101,0.273c-3.707,0.137-6.568-0.074-11.753,0.137c-0.249,0.627-0.513,1.154-0.774,1.641
	c-0.262,0.484-0.505,0.902-0.774,1.275c-1.083,1.514-2.179,2.254-3.144,3.281c-0.239,0.254-0.511,0.512-0.729,0.82
	c-0.218,0.307-0.402,0.656-0.593,1.047c-0.017,0.111-0.083,0.203-0.182,0.318c-0.005,0.016,0.005,0.031,0,0.047
	c-0.148,0.459-0.192,1.174-0.091,1.959c0.044,0.348,0.12,0.686,0.228,1.049c0.106,0.361,0.224,0.732,0.41,1.092
	c0.186,0.361,0.38,0.658,0.638,0.957l0.045,0.047c0.118,0.131,0.23,0.291,0.365,0.41c0.157,0.141,0.317,0.246,0.501,0.363
	c0.173,0.111,0.35,0.188,0.546,0.273c0.213,0.098,0.396,0.166,0.639,0.229c0.145,0.037,0.207,0.092,0.228,0.137
	s-0.014,0.086-0.092,0.137c-0.154,0.102-0.479,0.209-0.865,0.318c-0.767,0.207-1.785,0.443-2.187,0.592
	c-0.723,0.271-2.099,1.49-2.688,1.686c-1.195,0.441-2.242,1.039-3.189,1.23c-0.158,0.033-0.301,0.086-0.455,0.092h-0.091
	c-0.123,0-0.243-0.025-0.364-0.045c-0.129,0.117-0.237,0.229-0.365,0.363c2.33,6.242,3.662,7.283,1.822,9.205l-7.607,3.873
	l-0.774,6.744c6.827,3.707,10.733,3.797,13.348,10.98c3.451,9.842,4.92,14.492,7.061,19.32c1.287,2.9,4.471,3.627,10.206,3.383
	c2.955-0.127,1.68,3.916,3.763,5.139c1.031,0.605,2.209,0.947,3.251,1.547c1.939,1.119,3.548-2.994,5.834-3.061
	c5.104-0.15,4.158,8.004,6.33,10.1c0.997,0.996,0.599,5.012,1.561,6.338c0.741,1.023,2.478,0.441,3.369,1.111
	c0.824,0.619,0.866,1.004,1.492,1.748c0.869,1.033,5.28,0.34,6.723,1.92c1.781,1.949-0.153,5.027,3.338,5.449
	c3.023-1.783,1.526-0.514,3.235-2.168c0.637-0.617,2.428-0.768,3.697-0.223c0.862,0.369,1.128,1.674,1.977,1.521
	c2.811-0.502,1.718-4.23,1.103-6.627c-0.228-0.887,1.913-4.598,1.249-5.232c-1.539-1.469-1.495-3.104-0.557-4.004
	c0.307-0.293,0.818-1.158,1.434-2.328c0.278-0.527,1.598-0.754,1.908-1.381c0.556-1.121,0.211-2.074,0.56-3.377
	c0.203-0.758,1.729-0.723,2.11-1.52c0.41-0.855,0.989-2.682,1.277-3.287c0.528-0.982-0.529-2.283-0.388-3.18
	c0.142-0.902,0.607-0.6,0.981-1.432c0.374-0.834,0.339-4.574,0.811-5.02c0.927-0.873,2.658-2.029,3.479-3.691
	c0.924-2.152,0.004-4.779,1.433-7.711c2.007-4.117,4.53-6.941,5.574-9.662c0.777-1.146,2.742,0.078,3.146-4.48
	c0.146-1.641-3.591-1.076-3.817-2.193c-0.46-2.271-0.381-3.742-0.393-4.449c-0.022-1.4,1.153-1.775,1.657-2.125
	c4.475-3.111,2.043-7.43,3.371-7.965c2.698-0.496,3.596-2.309,5.375-3.736l4.565,0.154l2.277,1.959l2.866,2.504
	c0.186,0.162,2.346-12.797,5.789-14.67l-2.962-5.191c0.183-3.203-0.251-7.732,0.729-10.162c1.204-2.984,3.433-3.953,4.602-7.838
	c2.29-7.61,3.987-31.158,7.698-38.047c3.022-5.612,1.741-13.703,2.415-19.821c7.138-6.082,6.521-18.557,7.517-23.74
	c0.884-4.608,0.309-15.197,1.913-17.953c2.165-3.719,5.494,0.325,7.881-7.108c0.611-1.903-2.626-2.321-3.918-3.508
	c-3.194-2.886-3.627-7.918-3.645-12.03c0.475-2.369,0.369-7.465,4.556-9.478c7.654-3.68,5.057-9.688,5.057-14.9
	c0-2.727,0.104-3.284,0.502-3.919c0.396-0.635,1.869-2.037,5.238-4.602c4.217-3.21,7.731-6.655,10.296-10.116
	c2.358-3.183,8.512-12.469,9.293-16.996c-4.788-1.167-8.416-2.102-11.98-3.235c-2.377-0.755-4.745-1.589-7.381-2.643
	c-2.635-1.054-5.574-2.315-9.11-3.918c-1.769-0.802-3.673-1.702-5.786-2.688c-0.055,0.037-0.076,0.07-0.091,0.137
	c-0.205,0.56,1.234,2.306,2.232,4.146c0.217,0.399,0.391,0.79,0.546,1.185c0.085,0.21,0.125,0.434,0.183,0.638
	c0.049,0.176,0.112,0.332,0.137,0.501c0.003,0.015-0.002,0.031,0,0.045c0.021,0.167,0.053,0.344,0.046,0.501
	c-0.006,0.188-0.041,0.331-0.092,0.501c-0.967,0.671-2.209,0.74-3.371,0.775c-1.162,0.035-2.243,0.046-2.87,0.638
	c-0.9,0.851,0.078,4.339-1.275,4.055c-5.881-1.233-9.786-0.674-11.298-6.06c-4.653,0.606-9.1,0.071-13.575-1.413
	c-2.81-1.017-5.229-2.407-7.243-4.01c-1.38-1.469-2.142-2.134-2.552-2.324c-0.102-0.048-0.163-0.052-0.228-0.045v0L395.124,231.083z
	"/>
<path fill="#14B119" stroke="#FFFFFF" stroke-width="9" d="M180.415,272.318c-1.827,0.085-1.688,0.977-2.414,1.458
	c-3.438,1.857-3.661,5.193-4.647,8.475c-4.479,0.639-11.026,1.157-10.888,8.794c0.051,2.765,3.542,1.583,3.007,4.83
	c-0.229,1.764-7.221,11.354-8.108,12.85c-3.534,2.981-6.253,4.89-9.704,10.526c-0.602,0.983,0.391,2.242-0.182,3.235
	c-1.317,2.286-3.36,0.349-5.103,2.232c-3.354,3.625,0.471,6.13-0.091,8.202c-1.973,7.277-7.604,16.51-9.795,19.183
	c-3.848,3.473-4.782,5.487-3.279,10.663c4.701,6.669,13.016,4.437,19.771,3.235c11.152-0.247,13.463-1.482,17.266-0.729
	c5.809,1.15,7.751,4.716,10.204,5.741c3.979,1.663,14.345,1.49,19.224,1.504c2.707,0.012,4.368,1.54,7.563,1.316
	c2.428,0.789,5.713,0.234,7.742,1.012c2.222,0.852,10.721-1.178,11.912-4.286c-1.044-3.91-8.185-0.899-9.852-4.38
	c-1.398-2.684-3.091-4.779-3.243-6.831c-0.153-2.052,1.456-10.807,1.64-17.543c0.146-5.37,2.864-7.873,3.735-16.084
	c0.301-2.833-2.988-1.156-1.503-5.514l7.152,0.82l1.64-2.278c-0.651-0.463-1.242-0.909-1.686-1.367
	c-3.4-1.017-6.894,1.491-9.293-1.686c-2.462-3.259-3.789-12.202-5.513-15.264c-1.419-2.522-12.069-5.024-13.895-5.787
	c-5.61-2.729-7.602-15.737-11.343-21.736C180.615,272.718,180.526,272.51,180.415,272.318L180.415,272.318z"/>
<path fill="#14B119" stroke="#FFFFFF" stroke-width="9" d="M292.215,89.234c-4.741,2.208-4.833,8.514-8.291,13.214l-0.456,0.228
	c-2.039,6.205-1.47,5.827-5.877,9.66c1.292,1.78,5.166,2.57,7.335,4.739c2.972,2.972,13.353-4.408,15.625,18.135
	c-0.147,0.007-6.379-5.879-7.698-5.012c-4.544,2.986-8.293,8.721-12.209,9.66c-0.018,0.368-0.145,1.566-0.228,2.916
	c-0.04,0.63-0.067,1.302-0.046,1.914c0.022,0.641,0.086,1.23,0.228,1.686c0.329,1.059,6.758,0.869,6.424,1.732
	c-2.107,5.433,5.42,12.529,9.931,14.854c1.333,4.066,6.294,3.569,8.108,7.519c0.464,1.396,7.131-0.441,7.381,4.283
	c0.197,3.743-3.587,8.041-3.053,10.435c2.282,7.171-3.733,16.074,5.057,13.579c3.113,2.254,5.089-0.522,10.068-0.82l8.929,1.094
	l9.065-2.597c2.694,5.277,9.196,12.124,10.478,12.94c1.649,1.051-1.484,5.399-1.959,8.111c0.211-0.167,0.429-0.318,0.684-0.41
	c5.561,0.582,13.475-3.342,15.307-4.876c2.048-2.285,4.036-5.167,5.057-8.931c4.724-0.613,10.133-8.636,10.979-11.802
	c1.588-5.938,1.675-6.844,2.051-13.351c0.073-1.265,1.113-2.917,0.729-3.964c-0.044,0.078-0.092,0.152-0.137,0.228
	c-0.017,0.029-0.028,0.063-0.045,0.091c-0.107,0.178-0.207,0.38-0.319,0.547l-0.273,0.365l-0.045,0.045
	c-0.032,0.042-0.06,0.095-0.092,0.136c-0.031,0.042-0.064,0.058-0.091,0.091s-0.064,0.058-0.091,0.091
	c-0.251,0.31-0.508,0.616-0.774,0.866l-0.091,0.091c-0.056,0.05-0.127,0.09-0.183,0.137c-0.119,0.101-0.243,0.185-0.364,0.273
	c-0.188,0.135-0.355,0.261-0.547,0.365c-0.191,0.104-0.357,0.202-0.547,0.273l-0.182,0.045c-0.132,0.042-0.277,0.064-0.41,0.091
	c-0.184,0.036-0.362,0.086-0.547,0.091c-0.195,0.005-0.396-0.015-0.592-0.045c-0.194-0.032-0.4-0.067-0.593-0.136
	c-0.077-0.028-0.157-0.054-0.228-0.091l-0.092-0.045c-0.049-0.024-0.087-0.065-0.136-0.091c-0.124-0.064-0.242-0.146-0.364-0.228
	c-0.07-0.047-0.156-0.083-0.229-0.136c-0.033-0.025-0.058-0.065-0.091-0.091c-0.188-0.149-0.362-0.309-0.547-0.501
	s-0.374-0.369-0.547-0.592c-0.007-0.01,0.007-0.036,0-0.045c-0.18-0.235-0.372-0.494-0.546-0.775
	c-0.146-0.248-0.414-0.912-0.729-1.777c-0.482-1.323-1.057-3.052-1.549-4.648c-0.261-0.845-0.429-1.523-0.592-2.142
	c-0.163-0.606-0.289-1.065-0.319-1.321c-0.1-0.849-0.291-1.708-0.547-2.597c-0.124-0.438-0.251-0.836-0.409-1.276
	c-0.238-0.663-0.516-1.352-0.82-2.005c-0.101-0.217-0.212-0.423-0.319-0.638c-0.221-0.439-0.437-0.851-0.683-1.276
	c-0.24-0.414-0.469-0.791-0.729-1.185c-0.526-0.799-1.092-1.547-1.686-2.233c-0.293-0.339-0.605-0.653-0.911-0.957
	c-0.468-0.467-0.925-0.862-1.412-1.23c-0.155-0.118-0.299-0.212-0.455-0.319c-0.319-0.217-0.636-0.427-0.957-0.593
	c-0.246-0.126-0.483-0.225-0.729-0.319l-0.229-0.091c-0.169-0.057-0.332-0.096-0.501-0.136l-0.455-0.091
	c-0.318-0.046-0.646-0.066-0.957-0.045c-0.148-0.26-0.186-0.552-0.182-0.866c0-0.243,0.021-0.508,0.091-0.774
	c0.003-0.014-0.004-0.033,0-0.046c0.084-0.312,0.225-0.624,0.364-0.957c0.204-0.495,0.458-0.995,0.684-1.504
	c0.083-0.188,0.152-0.361,0.228-0.546c0.133-0.327,0.235-0.643,0.319-0.957c0.005-0.015-0.006-0.031,0-0.045
	c0.08-0.312,0.137-0.623,0.136-0.912c0-0.015,0.001-0.031,0-0.045c-0.005-0.301-0.05-0.557-0.182-0.82
	c-0.198-0.395-0.432-0.61-0.684-0.683c-0.252-0.073-0.51-0.005-0.774,0.091c-0.19,0.064-0.368,0.142-0.547,0.228
	c-0.332,0.161-0.604,0.318-0.819,0.273c-0.055-0.012-0.14-0.053-0.183-0.091c-0.034-0.031-0.064-0.085-0.091-0.137
	c-0.005-0.008,0.005-0.036,0-0.045c-0.061-0.143-0.092-0.329-0.092-0.638c0-0.548,0.724-1.875,1.321-3.235s1.063-2.783,0.547-3.554
	c-0.159-0.238-0.382-0.445-0.684-0.638c-0.604-0.386-1.47-0.709-2.414-1.002c-1.902-0.592-4.188-1.064-5.604-2.005
	c-0.354-0.231-0.636-0.484-0.865-0.774c-0.179-0.226-0.358-0.483-0.501-0.729c-0.007-0.012,0.005-0.034,0-0.045
	c-1.035-1.802-1.293-4.014-3.28-5.286c-0.192-0.123-0.386-0.191-0.592-0.228c-0.414-0.075-0.865-0.031-1.321,0.091
	c-0.457,0.122-0.935,0.329-1.412,0.456c-0.239,0.063-0.489,0.109-0.729,0.137c-0.48,0.055-0.941,0.005-1.412-0.228
	c-2.195-1.085-3.899-1.882-5.33-2.597c-0.054-0.027-0.084-0.065-0.137-0.091c-0.659-0.331-1.232-0.655-1.776-0.957
	c-0.063-0.035-0.12-0.056-0.183-0.091c-1.638-0.924-2.844-1.813-4.009-3.099c-0.4-0.442-0.813-0.946-1.229-1.503l-0.319-0.41
	c-0.443-0.619-0.901-1.3-1.412-2.096c-0.05-0.077-0.064-0.189-0.091-0.319c-0.023-0.105-0.037-0.228-0.046-0.365
	c-0.017-0.259-0.022-0.609,0-0.957c0.005-0.087,0.038-0.181,0.046-0.273c0.068-0.806,0.177-1.685,0.318-2.643
	c0.039-0.26,0.055-0.473,0.092-0.729c0.106-0.734,0.221-1.457,0.273-2.051c0.026-0.306,0.047-0.538,0.045-0.774
	c-0.001-0.237-0.01-0.444-0.045-0.592c-0.023-0.099-0.05-0.174-0.092-0.228c-0.081-0.104-0.175-0.203-0.273-0.273
	c-0.147-0.106-0.317-0.184-0.501-0.228c-0.183-0.044-0.379-0.056-0.592-0.046c-0.566,0.03-1.239,0.225-1.959,0.456
	c-0.361,0.114-0.755,0.246-1.139,0.364c-0.369,0.115-0.76,0.23-1.139,0.319c-0.38,0.089-0.787,0.146-1.185,0.182
	c-0.395,0.034-0.801,0.054-1.185,0c-0.313-0.044-0.615-0.137-0.911-0.273c-0.586-0.273-1.151-0.729-1.686-1.23
	c-1.354-1.257-2.577-2.923-3.827-3.554c-1.395-0.705-6.382,0.489-7.744-0.319c-1.002-0.594,1.003-4.772,0.091-5.377
	c-2.151-1.427,0.057-2.348-1.32-3.873c-1.047-1.159-5.809-0.122-7.335-0.911c-1.165-0.603-5.489,1.924-6.423,1.048
	c-0.514-0.481-0.458-1.274-0.183-2.096L292.215,89.234L292.215,89.234z"/>
<path fill="#14B119" stroke="#FFFFFF" stroke-width="9" d="M450.796,32.901c-6.067,2.889-7.575,4.646-12.497,4.996
	c-0.428,0.938-3.303,1.273-3.455,2.635c0.228,3.837,3.603,7.652,6.188,10.541c7.296,6.703,18.426,13.646,26.717,7.907
	c-3.255-3.193-2.78-6.854-2.529-11.829c1.565-0.714,4.693,0.379,5.797-1.083c12.338-5.101,2.065-8.752-4.195-8.172
	c-2.165,0.2-4.27,0.257-5.187,1.754C461.864,35.417,454.24,31.949,450.796,32.901L450.796,32.901z"/>
<path fill="#14B119" stroke="#FFFFFF" stroke-width="9" d="M277.688,112.611c-5.811,5.162-5.019,9.287-3.794,18.116
	c1.111,8.011-8.278,11.999-8.424,11.634l6.727-0.514l9.363,7.535c-0.406-1.257-0.813-2.542-0.957-3.007
	c-0.565-1.821,0.01-5.796,0.046-6.516c3.916-0.939,7.664-6.674,12.208-9.66c1.32-0.867,7.552,5.02,7.699,5.012
	c-2.273-22.542-12.653-15.163-15.625-18.136c-2.038-2.039-5.57-2.851-7.062-4.42L277.688,112.611L277.688,112.611L277.688,112.611z"
	/>
<path fill="#14B119" stroke="#FFFFFF" stroke-width="9" d="M213.95,395.486c0.104,0.739,0.204,1.467,0.273,2.142
	c0.068,0.674,0.106,1.278,0.137,1.868c0.056,1.121,0.024,2.064-0.092,2.779c0.005-0.02,0.042-0.024,0.046-0.045
	c0.004-0.021-0.004-0.032,0-0.045c0.046-0.266,0.074-0.54,0.091-0.866c0.002-0.033-0.001-0.057,0-0.091
	c0.002-0.034-0.005-0.062,0-0.091C214.669,399.397,214.468,397.376,213.95,395.486L213.95,395.486z M205.659,396.944
	c-0.261-0.005-0.524,0.02-0.774,0.045c-0.675,0.074-1.321,0.19-2.005,0c-4.275-0.07-3.476,1.411-5.604,3.144
	c-0.654,0.533-1.913,2.189-3.416,2.734c-0.308,0.111-0.636,0.174-0.957,0.182s-0.643-0.059-0.957-0.091
	c-0.628-0.061-1.216-0.123-1.686,0.045c-2.477,0.885-1.127,4.684-1.549,6.926c-0.036,0.187-0.072,0.339-0.137,0.501
	c-0.005,0.013,0.006,0.033,0,0.045c-0.061,0.147-0.136,0.288-0.228,0.41c-0.198,0.281-0.474,0.472-0.865,0.592
	c-0.549,0.168-1.096,0.351-1.686,0.501s-1.235,0.279-1.868,0.41c-3.79,0.773-8.382,1.185-13.985,0.912
	c-1.393,1.009-3.641,3.598-5.421,2.916c-2.486-0.952-4.573-1.527-7.198-1.367c-0.216,0.014-0.464,0.071-0.683,0.137
	c-0.426,0.133-0.882,0.343-1.321,0.638c-2.26,1.519-4.726,4.874-7.653,6.744c-0.294,0.188-0.608,0.348-0.911,0.502
	c-0.594,0.299-1.235,0.547-1.868,0.684c-0.485,0.104-0.877,0.229-1.185,0.363c-0.308,0.137-0.513,0.299-0.683,0.457
	c-1.021,0.949,0.072,2.229-1.185,3.006c-0.876,0.543-2.565,0.471-3.554,1.004c-0.451,0.244-0.731,0.885-0.911,1.457
	c-0.18,0.574-0.256,1.07-0.273,1.094c-0.103,0.135-0.523-0.369-1.002-0.865c-0.359-0.373-0.774-0.732-1.094-0.82
	c-0.105-0.029-0.187-0.043-0.272,0c-0.161,0.08-0.278,0.314-0.365,0.639c-0.17,0.648-0.234,1.609-0.41,2.186
	c-0.05,0.166-0.109,0.279-0.182,0.365s-0.1,0.133-0.183,0.137c-0.425,0.018-0.831-0.215-1.185-0.365
	c-0.353-0.148-0.652-0.24-0.956,0.047c-0.084,0.078-0.201,0.215-0.319,0.41c-0.007,0.012,0.007,0.031,0,0.045l-0.137,0.227
	c-0.339,0.6-0.79,1.461-1.275,2.324c-0.549,0.984-1.14,1.926-1.73,2.369c-0.198,0.15-0.402,0.256-0.593,0.273
	c-0.274,0.027-0.488,0.014-0.684-0.09c-0.093-0.047-0.148-0.113-0.228-0.184c-0.088-0.076-0.153-0.172-0.228-0.271
	c-0.135-0.18-0.262-0.363-0.364-0.594c-0.52-1.146-0.732-2.74-1.914-2.688c-0.767,0.033-1.271,0.361-1.594,0.82
	c-0.077,0.111-0.125,0.232-0.183,0.363c-0.022,0.053-0.07,0.082-0.091,0.137c-0.078,0.205-0.14,0.402-0.183,0.639
	c-0.04,0.221-0.073,0.441-0.091,0.684c-0.11,1.461,0.15,3.246,0,4.602c-0.025,0.225-0.04,0.396-0.091,0.592
	c-0.149,0.609-0.437,1.055-0.957,1.277c-0.755,0.322-1.67,0.463-2.87,0.41h-0.045c-0.408-0.02-0.838-0.078-1.321-0.137
	c-0.466-0.057-0.845-0.143-1.23-0.229c-0.4-0.086-0.77-0.178-1.139-0.273c-0.713-0.184-1.416-0.346-2.323-0.455
	c-0.328-0.039-0.673,0.037-1.048,0.182c-1.136,0.438-2.343,1.393-2.778,0.912c-0.146-0.162-0.301-0.33-0.456-0.457
	c-0.01-0.008-0.035,0.01-0.045,0c-0.48-0.383-1.003-0.623-1.595-0.818h-0.046c-0.812-0.266-1.72-0.48-2.824-0.867
	c-0.517-0.18-1.004-0.316-1.412-0.455l-0.091-0.045c-0.379-0.131-0.699-0.264-1.003-0.41c-0.045-0.023-0.092-0.023-0.136-0.047
	l-0.229-0.135l-0.136-0.092c-0.083-0.055-0.15-0.119-0.229-0.182c-0.067-0.055-0.117-0.123-0.182-0.184
	c-0.104-0.098-0.222-0.199-0.319-0.318c-0.122-0.148-0.25-0.314-0.364-0.502c-6.941,0.072-9.151,8.598,0.592,10.207
	c-0.6,4.961-0.305,15.283,1.822,20.322c0.754,1.787,2.034,6.121-0.592,8.613c-8.861-1.035-11.234,5.83-6.651,10.252
	c0.866,0.836,4.314,0.998,5.421,1.641c0.889,1.236,2.356,2.674,5.513,1.504c-0.416,9.803,12.129,3.561,12.072,4.51
	c-0.163,2.717,0.922-5.875,2.961-7.199c2.028-1.314,3.968-0.652,5.513-1.959c0.771-0.652,0.223-2.787,0.819-3.418
	c0.433-0.457,0.828-1.07,1.23-1.775c-0.078-0.006-0.135-0.047-0.41-0.047c0.235,0,0.309-0.076,0.501-0.09
	c0.062-0.117,0.122-0.162,0.183-0.229c-0.03,0.049-0.072,0.195-0.092,0.229c0.758-0.064,1.387-0.146,2.051-0.32
	c0.855-0.223,0.937-3.834,2.004-4.191c2.136-0.715,2.533-1.672,5.057-2.734c6.52-2.961,13.358-5.578,18.223-5.74
	c6.515-0.219,5.354,1.426,8.154,1.365c2.15-0.045,2.294-3.016,4.055-2.688c1.707,0.318,5.423,4.613,8.018,4.967
	c2.291,0.311,4.279-1.375,4.51-0.912c1.09,2.189-2.607,2.598-2.643,5.514c-0.019,1.602,3.869,1.463,5.467,3.053
	c0.75,0.748-1.361,1.469-0.182,3.736c1.244,2.395,4.632,3.521,6.195,4.557c0.329,4.234-3.38,0.975-3.007,4.057l0.228,10.707
	c-0.139,0.582,1.202,0.891,1.458,1.822c0.276,1.006-0.546,2.641-0.819,3.281c-2.565,1.15-2.089,2.838-1.276,3.281
	c2.773,1.516,9.417,5.859,11.298,3.691c-0.02,0.068,0.39-0.268,0.957-0.457c0.756-0.252,1.769-0.455,2.551-0.455
	c1.101,0,0.669-1.986,1.731-2.961c0.673-0.619,0.529,2.422,1.731,2.688c1.779,0.393,2.066,0.32,4.464,0.365
	c0.801,0.016,0.529-1.725,1.641-1.914c1.172-0.199,4.173,0.988,5.648,1.457c-0.274-0.572-0.434-1.215-0.501-2.049
	c-2.228-8.119-2.356-12.014-0.957-13.99c0.124-0.203,0.244-0.389,0.41-0.547c1.378-1.311,8.787,1.02,12.026,2.371
	c0.123,0.051,0.183,0.004,0.229-0.092c0.045-0.096,0.09-0.25,0.091-0.455c0.001-0.414-0.063-1-0.046-1.641
	c0.007-0.322,0.032-0.678,0.092-1.004c0.183-0.975,0.678-1.865,1.913-2.232c2.008-0.596,3.46-0.404,5.011-1.275
	c0.285-0.16,0.551-0.363,0.82-0.592c0.269-0.229,0.56-0.494,0.82-0.775c1.559-1.682,2.988-4.133,5.011-5.559
	c0.379-0.268,0.812-0.395,1.275-0.455c0.694-0.09,1.447-0.045,2.187-0.092s1.481-0.211,2.096-0.729
	c0.225-0.189,0.441-0.383,0.638-0.594c0.007-0.008-0.007-0.037,0-0.045c1.418-1.535,2.218-3.564,4.009-5.332
	c0.122-0.117,0.258-0.207,0.41-0.271c0.152-0.066,0.323-0.104,0.501-0.137c0.357-0.072,0.748-0.105,1.185-0.184
	s0.931-0.195,1.412-0.455c0.482-0.26,0.965-0.664,1.458-1.275c0.479-0.594,0.979-1.414,1.458-2.324c0.005-0.012-0.005-0.035,0-0.045
	c1.456-2.777,2.951-6.48,4.737-8.066c2.809-2.492,5.412-3.912,8.474-4.83c1.205-0.361,0.796-1.852,1.366-2.824
	c0.006-0.01-0.005-0.037,0-0.047c0.086-0.139,0.182-0.252,0.319-0.363c0.218-0.178,0.452-0.326,0.684-0.455
	c0.231-0.131,0.52-0.268,0.774-0.365c1.519-0.574,3.173-0.59,4.464-1.596c0.453-0.352,1.047-0.635,1.686-0.865
	c0.792-0.285,1.624-0.504,2.46-0.729c0.868-0.232,1.698-0.457,2.324-0.775c0.244-0.123,0.462-0.256,0.638-0.41
	c-4.492-0.635-9.064-1.141-12.528-1.32c-0.311-0.018-0.624,0.016-0.911,0.09c-0.573,0.15-1.072,0.473-1.549,0.82
	c-0.238,0.176-0.469,0.363-0.684,0.547c-0.646,0.555-1.219,1.084-1.64,1.23c-0.124,0.037-0.261,0.047-0.364,0
	c-6.271-2.771-7.136-0.635-9.749-1.867c-0.213-0.102-0.434-0.264-0.638-0.41h-0.046c-0.204-0.15-0.396-0.311-0.592-0.502
	c-0.418-0.41-0.809-0.883-1.185-1.457c-0.007-0.012,0.007-0.035,0-0.047c-0.359-0.555-0.727-1.195-1.048-1.867
	c-0.659-1.381-1.234-2.943-1.73-4.604c-0.249-0.82-0.476-1.623-0.684-2.459c-0.413-1.674-0.75-3.357-1.002-4.877
	c-0.07-0.418-0.037-0.879,0.045-1.412c0.155-1.033,0.541-2.24,1.002-3.508c0.683-1.893,1.521-3.9,1.868-5.561
	c0.003-0.014-0.004-0.029,0-0.045c0.057-0.277,0.109-0.518,0.137-0.775c0.082-0.768,0.014-1.416-0.273-1.912
	c-0.138-0.238-0.42-0.461-0.774-0.639h-0.046c-0.176-0.086-0.374-0.199-0.592-0.273h-0.046l-0.137-0.045
	c-0.675-0.211-1.505-0.392-2.414-0.547l-2.05-0.319h-0.046c-1.413-0.209-2.853-0.422-4.1-0.729
	c-0.624-0.153-1.195-0.339-1.686-0.547c-0.232-0.099-0.445-0.205-0.638-0.319h-0.046c-0.2-0.122-0.353-0.269-0.501-0.41
	c-1.805-1.716-3.328-0.419-5.147-0.273c-0.263,0.019-0.542-0.005-0.82-0.045c-0.096-0.007-0.23-0.093-0.364-0.228
	c-0.536-0.538-1.325-1.92-2.096-2.871c-0.385-0.475-0.764-0.862-1.093-0.957c-0.165-0.047-0.319-0.017-0.456,0.091
	c-2.298,1.831-5.54,1.241-6.742,1.504c-0.228,0.05-0.418,0.131-0.547,0.228c-0.355,0.292-0.355,0.731-0.364,1.185
	c0,0.015,0,0.03,0,0.045c-0.003,0.14-0.028,0.278-0.046,0.41c-0.001,0.015,0.002,0.031,0,0.045c-0.02,0.13-0.034,0.252-0.091,0.365
	c-0.005,0.014,0.007,0.032,0,0.045c-0.13,0.238-0.405,0.424-0.865,0.501c-1.149,0.194-3.499,0.312-4.692-0.774
	c-0.997-0.908-0.976-4.302-2.005-4.739c-0.839-1.149-1.47,1.57-2.915,2.142l-0.319,0.091c-0.111,0.017-0.243,0.012-0.364,0
	c-1.242-3.012-1.868-8.781,0.684-10.571c0.654-0.325,1.155-0.81,1.549-1.413c-0.181,0.045-0.399,0.014-0.638-0.091h-0.046
	c-0.26-0.124-0.53-0.359-0.865-0.684c-1.096-1.061-2.024-2.246-2.824-3.281c-0.393-0.508-0.787-0.97-1.139-1.367
	c-0.007-0.008,0.006-0.038,0-0.045c-0.354-0.389-0.716-0.701-1.048-0.911c-0.175-0.111-0.329-0.213-0.501-0.273
	C206.178,396.989,205.921,396.95,205.659,396.944L205.659,396.944z M211.034,512.5c0.297,0.072,0.594,0.168,0.911,0.273
	C211.641,512.671,211.321,512.57,211.034,512.5z"/>
<path fill="#14B119" stroke="#FFFFFF" stroke-width="9" d="M284.835,452.716c-1.402,1.227-5.297,1.371-7.107,2.779
	c-1.722,1.342-4.097,0.932-5.922,2.416c-1.101,0.895-0.292,2.818-1.686,3.234c-3.062,0.918-5.665,2.338-8.474,4.83
	c-2.382,2.115-4.257,8.031-6.195,10.436c-1.974,2.449-3.994,1.383-4.966,2.324c-2.047,2.02-2.782,4.396-4.646,5.969
	c-1.638,1.381-4.041,0.207-5.558,1.275c-2.697,1.902-4.373,5.648-6.651,6.926c-1.551,0.871-3.003,0.68-5.011,1.277
	c-3.295,0.979-1.299,5.83-2.278,5.422c-3.239-1.35-10.648-3.68-12.026-2.369c-1.862,1.771-1.895,5.639,0.547,14.535
	c0.067,0.836,0.227,1.479,0.501,2.051c0.081,0.168,0.164,0.338,0.273,0.5c0.16,0.244,0.354,0.48,0.592,0.73
	c0,0.287-0.142,0.717-0.364,1.184c-0.111,0.232-0.209,0.459-0.364,0.684l-0.046,0.047c-0.153,0.219-0.309,0.408-0.501,0.592
	c-0.142,0.135-0.354,0.256-0.547,0.363c-0.575,0.316-1.271,0.574-1.503,1.004c-0.186,0.34-0.187,0.666-0.183,1.002
	c0.002,0.168,0.032,0.328,0,0.502c-0.003,0.014,0.004,0.029,0,0.045c-0.032,0.17-0.106,0.316-0.228,0.5
	c-0.061,0.094-0.098,0.209-0.137,0.32c-0.035,0.098-0.068,0.211-0.091,0.318c-0.037,0.184-0.032,0.389-0.045,0.592
	c-0.004,0.047-0.044,0.09-0.046,0.137c-0.007,0.029,0.001,0.063,0,0.092c-0.005,0.109,0.003,0.205,0,0.318
	c-0.002,0.18,0.007,0.367,0,0.547c-0.009,0.164-0.025,0.342-0.046,0.502c-0.013,0.107-0.022,0.215-0.045,0.318
	c-0.01,0.049-0.033,0.09-0.046,0.137c-0.049,0.158-0.11,0.314-0.182,0.455c-0.21,0.42-0.478,0.805-0.774,1.186
	c-0.298,0.381-0.601,0.723-0.957,1.094l-0.045,0.045c-0.719,0.742-1.513,1.473-2.324,2.324l-1.958,2.051
	c-0.62,0.648-1.249,1.316-1.822,2.004c-0.388,0.465-0.768,0.938-1.14,1.459c-0.743,1.043-1.328,2.287-1.73,3.326
	c-0.005,0.012,0.005,0.033,0,0.045c-0.389,1.01-0.626,1.83-0.684,2.006c-0.201,0.607-0.34,1.141-0.456,1.594
	c-0.022,0.094-0.068,0.23-0.091,0.32c-0.085,0.334-0.159,0.611-0.273,0.91c-0.067,0.178-0.134,0.369-0.228,0.547l-0.182,0.32
	c-0.058,0.09-0.115,0.178-0.183,0.271c-0.113,0.158-0.216,0.289-0.364,0.457c-0.056,0.064-0.121,0.115-0.183,0.182
	c-0.198,0.213-0.419,0.439-0.684,0.684c-0.278,0.256-0.527,0.666-0.774,1.139c-0.369,0.711-0.71,1.561-1.139,2.324
	s-0.948,1.438-1.595,1.732c-0.544,0.248-1.24,0.543-2.05,0.91c-0.406,0.184-0.871,0.367-1.321,0.594
	c-0.438,0.223-0.899,0.502-1.366,0.773c-0.735,0.43-1.465,1.008-2.187,1.686c-0.361,0.34-0.734,0.717-1.094,1.094
	c-0.111,0.121-0.207,0.244-0.318,0.365l-0.046,0.045l-0.137,0.137c-0.189,0.209-0.356,0.424-0.547,0.639l-1.093,1.23
	c-0.353,0.41-0.695,0.824-1.048,1.23c-0.178,0.203-0.369,0.391-0.547,0.592c-0.529,0.6-1.063,1.199-1.595,1.73
	c-0.251,0.252-0.567,0.443-0.911,0.594c-0.343,0.148-0.747,0.275-1.093,0.363l-0.137,0.047l-0.82,0.182
	c-0.226,0.055-0.386,0.107-0.455,0.182c-0.185,0.201-0.365,0.4-0.501,0.594c-0.03,0.041-0.063,0.094-0.091,0.137
	c-0.071,0.105-0.12,0.213-0.183,0.318c-0.03,0.049-0.063,0.088-0.091,0.137c-0.043,0.076-0.1,0.152-0.137,0.227
	c-0.089,0.182-0.167,0.379-0.228,0.547c-0.012,0.031-0.036,0.063-0.046,0.092c-0.069,0.207-0.099,0.408-0.137,0.592
	c-0.074,0.369-0.122,0.699-0.137,0.957c-0.013,0.262-0.008,0.465-0.045,0.594c-0.042,0.145-0.111,0.256-0.183,0.363
	c-0.058,0.088-0.107,0.162-0.182,0.229c-0.053,0.049-0.122,0.098-0.183,0.137l-0.091,0.045c-0.116,0.061-0.229,0.104-0.364,0.137
	h-0.046c-0.209,0.043-0.447,0.049-0.684,0.045c-0.27,0-0.535-0.018-0.819-0.045h-0.183c-0.371-0.037-0.754-0.082-1.093-0.092
	c-0.163-0.004-0.311-0.014-0.456,0s-0.284,0.053-0.41,0.092c-0.051,0.016-0.091,0.025-0.137,0.045l-0.091,0.047
	c-0.133,0.078-0.242,0.174-0.318,0.318c-0.288,0.582-0.45,1.182-0.547,1.777c-0.098,0.602-0.122,1.18-0.137,1.73
	c-0.007,0.268,0.007,0.529,0,0.775c-0.007,0.24-0.025,0.518-0.046,0.729c-0.01,0.1-0.03,0.229-0.045,0.318
	c-0.05,0.291-0.143,0.537-0.273,0.73c-0.089,0.129-0.204,0.244-0.319,0.318c-0.345,0.215-0.775,0.201-1.229,0.182
	c-0.303-0.012-0.629-0.049-0.911,0c-0.142,0.025-0.284,0.072-0.41,0.137c-0.125,0.064-0.225,0.162-0.318,0.273
	c-0.274,0.324-0.442,0.676-0.547,1.049c-0.21,0.746-0.213,1.57-0.456,2.414c-0.121,0.424-0.285,0.854-0.592,1.277
	c-0.134,0.184-0.267,0.502-0.41,0.865c-0.075,0.189-0.148,0.363-0.228,0.592c-0.08,0.229-0.14,0.457-0.228,0.729
	c-0.169,0.508-0.345,0.994-0.547,1.596c-0.005,0.016,0.005,0.031,0,0.045l-0.046,0.137c-0.044,0.092-0.104,0.178-0.137,0.273
	c-0.174,0.504-0.342,1.004-0.546,1.504c-0.194,0.492-0.401,0.963-0.639,1.412c-0.005,0.012,0.006,0.035,0,0.045
	c-0.131,0.248-0.267,0.506-0.409,0.73c-0.15,0.234-0.337,0.434-0.502,0.637c-0.329,0.408-0.701,0.766-1.093,1.004
	c-0.198,0.117-0.376,0.209-0.593,0.273c-0.216,0.063-0.447,0.088-0.683,0.09c-0.469,0.006-0.796-0.096-1.094-0.273l-0.045-0.045
	c-0.291-0.176-0.543-0.4-0.82-0.639c-0.574-0.48-1.277-0.951-2.733-0.957c-1.396-0.002-2.533,1.543-3.826,3.281
	c-0.221,0.297-0.453,0.564-0.684,0.865c-0.523,0.688-1.076,1.367-1.686,1.961c-0.178,0.17-0.359,0.346-0.547,0.5
	c-0.133,0.111-0.272,0.219-0.41,0.32l-0.137,0.09l-0.045,0.045c-0.188,0.125-0.395,0.215-0.593,0.32
	c-0.209,0.109-0.415,0.236-0.638,0.318c-0.33,0.123-0.64,0.178-1.002,0.229c-0.275,0.037-0.57,0.055-0.865,0.045h-0.092
	c-0.133-0.006-0.272-0.029-0.409-0.045c-0.333-0.043-0.689-0.119-1.048-0.229c-0.437-0.133-0.888-0.303-1.367-0.547H140.7
	c-5.284-3.242-11.993-5.783-17.038-0.045c-1.773-0.096-3.193-4.213-5.011-5.469c-0.977-0.674-2.553,1.492-3.235,1.002
	c-3.795-2.719-7.573-2.939-10.113-2.414c0.086,5.547,4.255,11.244,5.049,13.641c0.488,2.395,2.173,11.553,4.092,14.768
	c2.688,7.768,10.237,19.994,11.966,29.512c-0.361,3.879-4.25,4.725-3.849,7.256c-1.591,3.98,3.24,3.973,3.35,5.855
	c0.634,10.908,3.171,8.078,11.725,18.889c-0.174,1.02-1.112,0.918-0.739,1.725c1.283,2.777,16.794,18.211,25.237,17.27
	c1.806-0.201-0.512-9.855,0.978-13.395c1.527-3.629,6.261-10.889,5.356-16.189c-0.89-0.816-3.152-3.996-3.441-10.457
	c-0.163-3.643,1.1-8.6,3.159-11.984c-0.349-1.256,1.401-1.486,1.557-3.012c0.441-4.352,0.495-10.436-0.115-12.359
	c-1.621-2.391-0.014-3.195,0.505-5.742c0.319-1.566,2.589-15.334,5.715-15.572c3.889-0.299,5.044,1.209,6.371,1.09
	c3.546-0.32,4.368,1.191,7.542,1.426c3.881,0.285,4.049-1.982,6.41-3.875l7.39-7.584c0.316-0.324,2.481-0.068,4.663-0.523
	c2.005-0.416,3.013-2.535,5.169-2.039s2.558,1.35,2.874,2.465c0.281,0.99-0.768,4.299,2.709,4.229
	c3.333-0.066,5.724-5.693,12.145-5.549c6.422,0.143,9.558,11.328,12.671,11.305c3.114-0.023,2.258-2.42,4.763-4.346
	c2.018-1.553,3.472-3.457,5.451-3.461c0.773-0.002,2.919,2.455,4.791,3.529c0.746,0.428,1.365-1.031,1.842-0.5
	c2.125,2.361,3.601,1.152,4.007,0.371c0.357-0.689-0.776-8.863-7.825-9.125c-0.732-0.027-1.87-1.865-1.876-3.564
	c-0.003-1.021,0.99-1.621,0.773-2.668c-0.218-1.047-2.546-3.617-2.551-5.506c-0.003-1.227,1.548-2.111,1.486-3.211
	c-0.079-1.451-1.873-2.678-1.051-3.377c2.521-2.143,8.736-9.902,10.678-14.828c0.917-2.326,2.588-2.201,3.119-3.713
	c1.038-2.961-3.402-5.965-1.55-9.979c1.257-2.723,3.988-4.195,2.998-7.004c-5.288-14.994,1.541-14.529,4.685-19.789
	c1.258-2.105-2.57-2.316-1.323-4.348c1.782-2.904,2.516-7.236,4.709-9.742c1.563-1.787,4.437-1.199,6.281-2.637
	c1.873-1.457,1.672-4.199,3.775-5.363c6.75-3.734,10.923-4.557,17.788-6.982c-0.535-1.543-0.081-0.574-0.743-2.461
	c-2.614-7.186-6.52-7.275-13.348-10.982l0.774-6.744l7.607-3.873c1.84-1.92,0.509-2.963-1.821-9.203
	c0.127-0.137,0.235-0.246,0.364-0.365c-0.042-0.006-0.095,0.01-0.137,0c-0.823-0.268-0.297-4.742-1.458-5.148
	c-0.017-0.006-0.028-0.043-0.045-0.047c-0.777-0.178-1.612-0.369-2.506-0.547h-0.046c-0.91-0.18-1.871-0.326-2.869-0.5
	c-1.81-0.316-3.751-0.635-5.695-0.912L284.835,452.716L284.835,452.716L284.835,452.716L284.835,452.716z"/>
<path fill="#14B119" stroke="#FFFFFF" stroke-width="9" d="M396.172,459.779c-1.334,1.072-2.17,2.359-3.645,3.145
	c-0.491,0.262-1.057,0.469-1.73,0.594c-0.332,0.133-0.427,0.473-0.456,1.002c-0.001,0.016,0.001,0.027,0,0.045
	c-0.057,1.193,0.211,3.172-1.048,5.059c-0.141,0.211-0.318,0.383-0.501,0.592c-0.368,0.426-0.795,0.832-1.366,1.23
	c-0.252,0.174-0.693,0.371-1.048,0.684s-0.649,0.758-0.638,1.457c0.005,0.355,0.005,0.9,0.045,1.641
	c0.041,0.74,0.135,1.691,0.365,2.826c0.027,0.139,0.104,0.223,0.228,0.318c0.494,0.379,1.642,0.463,2.505,0.729
	c0.432,0.133,0.779,0.305,0.957,0.594l0.046,0.045c0.071,0.135,0.107,0.316,0.091,0.5c-0.403,4.561-2.366,3.322-3.144,4.467
	c-0.13,0.34-0.282,0.701-0.455,1.047s-0.384,0.693-0.593,1.049c-0.829,1.424-1.891,2.92-2.961,4.693
	c-0.269,0.443-0.556,0.891-0.82,1.367c-0.27,0.486-0.518,0.977-0.774,1.504c-0.356,0.732-0.554,1.449-0.683,2.141
	c-0.063,0.346-0.106,0.668-0.137,1.004c-0.002,0.014,0.001,0.029,0,0.045c-0.097,1.004-0.084,1.934-0.183,2.824
	c-0.065,0.596-0.179,1.148-0.41,1.686c-0.103,0.209-0.237,0.4-0.364,0.594c-0.007,0.01,0.007,0.035,0,0.045
	c-0.121,0.182-0.272,0.332-0.41,0.502c-0.88,1.08-1.986,1.891-2.688,2.551c-0.118,0.111-0.203,0.436-0.273,0.865
	c-0.138,0.854-0.205,2.15-0.318,3.1c-0.029,0.238-0.056,0.453-0.092,0.637s-0.09,0.354-0.137,0.457
	c-0.187,0.416-0.405,0.547-0.592,0.684c-0.186,0.135-0.339,0.277-0.41,0.729c-0.035,0.225,0.021,0.465,0.092,0.729
	c0.07,0.264,0.18,0.539,0.272,0.82c0.091,0.279,0.16,0.592,0.183,0.865c0.012,0.139,0.021,0.279,0,0.41
	c-0.023,0.119-0.077,0.254-0.137,0.365c-0.288,0.605-0.866,2.426-1.275,3.281c-0.382,0.797-1.938,0.744-2.141,1.504
	c-0.088,0.324-0.111,0.621-0.137,0.91c-0.025,0.291-0.034,0.551-0.046,0.82c-0.026,0.557-0.079,1.064-0.364,1.641
	c-0.044,0.088-0.104,0.154-0.183,0.229c-0.066,0.068-0.142,0.121-0.228,0.182c-0.34,0.225-0.813,0.434-1.139,0.639
	c-0.168,0.107-0.295,0.232-0.364,0.363c-0.309,0.586-0.582,1.105-0.82,1.504c-0.231,0.377-0.444,0.68-0.592,0.82
	c-0.235,0.225-0.435,0.473-0.547,0.775c-0.005,0.012,0.005,0.033,0,0.045c-0.261,0.75-0.116,1.68,0.592,2.598
	c0.007,0.01-0.008,0.035,0,0.045c0.14,0.18,0.317,0.371,0.501,0.547c0.665,0.635-1.457,4.307-1.229,5.195
	c0.153,0.598,0.313,1.262,0.455,1.959c0.004,0.016-0.003,0.031,0,0.045c0.067,0.334,0.142,0.672,0.183,1.002
	c0.141,1.049,0.111,2.039-0.319,2.734c-0.076,0.125-0.169,0.217-0.272,0.32c-0.284,0.291-0.658,0.496-1.185,0.592
	c-0.106,0.02-0.184,0.021-0.273,0c-0.091-0.021-0.195-0.082-0.273-0.137c-0.323-0.219-0.535-0.654-0.865-1.002
	c-0.079-0.088-0.138-0.156-0.229-0.229s-0.211-0.137-0.318-0.182c-0.953-0.408-2.175-0.414-3.007-0.137
	c-0.277,0.092-0.524,0.209-0.684,0.363c-0.427,0.414-0.673,0.633-0.82,0.775c-0.146,0.143-0.207,0.215-0.318,0.273
	c-0.218,0.113-0.584,0.248-2.096,1.139c-1.091-0.131-1.648-0.512-1.959-1.047c-0.186-0.322-0.299-0.695-0.364-1.094
	c-0.09-0.547-0.097-1.15-0.228-1.732c-0.062-0.285-0.149-0.547-0.273-0.82c-0.067-0.146-0.135-0.271-0.228-0.41
	c-0.085-0.129-0.162-0.242-0.273-0.363c-0.091-0.1-0.207-0.191-0.319-0.273c-0.335-0.246-0.757-0.418-1.229-0.547
	c-1.575-0.434-3.66-0.359-4.692-0.775c-0.207-0.082-0.393-0.189-0.501-0.318c-0.627-0.746-0.679-1.113-1.504-1.732
	c-0.212-0.16-0.49-0.26-0.774-0.318h-0.137c-0.721-0.111-1.573-0.107-2.141-0.502c-0.12-0.082-0.227-0.189-0.319-0.318
	c-0.213-0.295-0.347-0.732-0.455-1.23c-0.014-0.063-0.033-0.117-0.046-0.182c-0.112-0.578-0.202-1.223-0.273-1.869
	c-0.108-0.971-0.195-1.928-0.455-2.551c-0.086-0.209-0.194-0.377-0.319-0.502c-0.278-0.27-0.487-0.609-0.683-1.047
	c-0.192-0.424-0.354-0.887-0.502-1.414c-0.296-1.057-0.528-2.275-0.865-3.416c-0.168-0.57-0.359-1.137-0.592-1.641
	c-0.11-0.242-0.279-0.467-0.41-0.684c-0.007-0.01,0.007-0.035,0-0.047c-0.277-0.453-0.607-0.83-1.002-1.139
	c-0.395-0.307-0.838-0.531-1.367-0.637c-0.286-0.059-0.575-0.057-0.911-0.047c-0.143,0.006-0.271,0.012-0.41,0.047
	c-0.138,0.033-0.276,0.078-0.409,0.137c-0.533,0.232-1.024,0.645-1.504,1.092c-0.479,0.449-0.954,0.947-1.412,1.322
	c-0.344,0.281-0.701,0.496-1.048,0.592c-0.347,0.098-0.684,0.074-1.048-0.137c-1.042-0.6-2.203-0.943-3.234-1.549
	c-0.13-0.076-0.259-0.176-0.364-0.273c-0.105-0.096-0.188-0.205-0.273-0.318c-0.689-0.922-0.746-2.314-1.185-3.326
	c-0.107-0.254-0.245-0.447-0.41-0.639c-0.328-0.381-0.81-0.623-1.549-0.592c-2.867,0.121-5.114,0.012-6.787-0.502
	c-0.419-0.127-0.789-0.275-1.14-0.455c-1.05-0.539-1.795-1.328-2.277-2.416c-0.497-1.119-0.955-2.248-1.412-3.416
	c-0.033-0.086-0.059-0.189-0.092-0.273c-0.421-1.086-0.874-2.266-1.32-3.51c-0.06-0.162-0.168-0.424-0.229-0.592
	c-0.872-2.451-2.006-5.773-3.279-9.432c-1.048,0.744-1.836,1.234-1.959,1.047c-5.693,1.916-9.764,2.945-15.808,6.289
	c-2.104,1.164-1.909,3.918-3.781,5.377c-1.846,1.438-4.724,0.855-6.287,2.643c-2.193,2.508-2.91,6.85-4.691,9.752
	c-1.248,2.031,2.579,2.223,1.32,4.328c-3.144,5.26-9.979,4.781-4.691,19.775c0.989,2.807-1.751,4.295-3.007,7.018
	c-1.853,4.012,2.587,7.02,1.549,9.979c-0.53,1.514-2.182,1.41-3.098,3.736c-1.941,4.926-8.185,12.666-10.706,14.809
	c-0.821,0.699,0.968,1.922,1.048,3.373c0.061,1.1-1.461,1.963-1.458,3.189c0.005,1.889,2.335,4.469,2.552,5.514
	s-0.777,1.666-0.774,2.688c0.005,1.699,1.134,3.541,1.867,3.555c6.229,0.125,7.768,8.211,7.563,9.113
	c-0.26,1.143-1.036,1.553-1.094,2.734c-0.17,3.494,0.054,4.912,1.321,6.424c0.516,0.615,2.112,0.109,3.645,0.457
	c1.29,0.291,2.618,1.096,3.234,1.914c0.395,0.523,0.85,7.191-0.592,9.66c-2.037,3.486,0.563,10.92-2.643,11.756
	c-2.835,1.037-7.178,0.094-9.84,1.822c-0.703,5.209-9.174,5.555-12.026,5.057c-1.566-0.271,1.109,2.779-0.41,4.102
	c-0.477,0.414,0.554,2.447-0.957,3.736c-1.647,1.406-3.734,3.652-4.419,6.105c-0.291,1.045-0.66,3.059-1.321,4.01
	c-0.371,0.537-2.027,0.891-2.141,1.551c-0.209,1.205,1.446,1.609,0.911,2.369c-0.896,1.268-2.597,2.041-2.597,3.326
	c0,1.314,1.733,1.846,1.595,3.145c-0.12,1.117-1.964,0.367-2.415,1.594c-0.592,1.609-0.8,4.668,0.091,7.018
	c0.414,1.09,1.17,1.365,1.914,1.549c1.606,0.398-1.006,5.795,1.275,6.471c2.411,0.715,2.162,5.273,1.686,6.197
	s-5.252,6.703,0.364,7.473c1.132,0.156,2.08,2.238,3.144,3.508c0.896,1.07,3.2,3.691,2.096,5.605
	c-0.721,1.248-3.808,1.875-4.556,2.461c-1.067,0.836-4.921,5.338-5.103,7.564c-0.222,2.721,1.015,3.736,3.554,4.1
	c1.032,0.148,0.223,1.479,0.865,1.914c0.782,0.531,4.303,2.119,5.877,3.6c1.967,2.242,1.194,5.828,0.729,6.426
	c-0.653,0.836-3.592,0.688-3.508,2.051c0.085,1.363,1.408,1.775,3.69,2.369c0.23,1.344,1.691,2.076,1.959,3.189
	c0.216,0.9-0.425,2.922-0.41,3.736c2.047-0.627,4.077,0.941,5.922,2.096c12.035,9.645,18.827,5.176,16.264-2.734
	c-1.691-5.217-2.059-10.834-0.273-16.723c0.431-1.418,2.388-3.4,2.961-4.967c1.26-3.438,1.884-7.463,3.872-10.98
	c0.881-2.232,2.679-4.604,3.554-8.156c1.085-4.406,1.786-10.133,2.779-12.668c0.893-2.281,2.234-6.152,2.915-8.43
	c0.662-2.215,1.171-1.684,1.367-3.234c0.195-1.553,4.754-10.471,8.746-14.264c2.102-1.996,1.005-10.398,1.959-12.666
	c1.996-4.746,6.165-8.975,15.898-14.08c9.964-5.229,15.121-10.139,17.903-13.717c2.783-3.578,2.831-4.459,3.6-7.791
	c0.374-1.625,3.226-1.756,3.553-4.057c0.531-3.73-2.189-6.428-1.959-7.973c0.411-2.748,0.78-4.873,4.282-7.656
	c1.229-1.053,5.069,0.15,6.15,0.092c0.621-0.035,0.066-2.355,0.729-3.691c0.396-0.797,2.214-0.496,2.415-1.094
	c0.852-2.527,4.999-8.24,6.332-11.254c0.741-6.795,6.62-8.238,9.566-12.986c0.383-1.291-0.082-3.252,0.774-4.512
	c0.803-1.18,0.794-0.967,1.959-3.008c0.967-1.691,3.169-3.533,3.28-6.061c0.353-8.012,4.553-15.514,7.152-15.582
	c1.177-0.033,3.624-0.941,4.965-3.418c0.261-0.48,3.445-0.5,3.417-2.369c-0.02-1.313-1.791-1.328-2.004-2.461
	c-0.419-2.223-0.536-5.74,0.592-7.93c0.71-1.377-2.262-4.543-2.096-6.195c0.424-4.223,2.786-6.961,4.236-9.342
	c0.313-1.293-0.297-3.33,0.137-4.875c0.42-1.494,0.543-3.359,1.412-4.648c0.761-1.127,0.421-3.365,1.23-4.465
	c1.686-2.291,3.358-4.758,4.92-7.383c0.549-0.922,3.21,0.309,3.188-0.773c-0.154-7.928,3.542-14.328,4.556-20.277
	c0.188-1.104,0.883-3.814,0.957-6.016l-2.506-2.188l-2.277-1.959L396.172,459.779L396.172,459.779z"/>
</svg>
