<?xml version="1.0" encoding="utf-8"?>
<!-- Generator: Adobe Illustrator 16.0.0, SVG Export Plug-In . SVG Version: 6.00 Build 0)  -->
<!DOCTYPE svg PUBLIC "-//W3C//DTD SVG 1.1//EN" "http://www.w3.org/Graphics/SVG/1.1/DTD/svg11.dtd">
<svg version="1.1" id="Capa_2" xmlns="http://www.w3.org/2000/svg" xmlns:xlink="http://www.w3.org/1999/xlink" x="0px" y="0px"
	 width="511.889px" height="378.977px" viewBox="-254.416 244.468 511.889 378.977"
	 enable-background="new -254.416 244.468 511.889 378.977" xml:space="preserve">
<g>
	<path fill-rule="evenodd" clip-rule="evenodd" fill="#14B119" d="M90.887,475.915c-48.119,24.098-92.512,46.613-137.296,68.327
		c-4.617,2.238-12.429,1.479-17.279-0.902c-60.034-29.479-119.876-59.36-179.568-89.528c-14.59-7.372-14.958-19.104-0.608-26.402
		c59.597-30.317,119.36-60.318,179.491-89.554c6.011-2.922,16.094-2.245,22.32,0.792c59.302,28.94,118.257,58.595,177.024,88.608
		c4.574,2.335,9.345,8.727,9.683,13.538c0.284,4.037-4.956,9.713-9.165,12.582"/>
	<path fill-rule="evenodd" clip-rule="evenodd" fill="#14B119" d="M-175.293,501.522c27.083,13.531,51.595,25.726,76.063,38.008
		c47.648,23.921,40.737,23.718,87.924,0.074c24.49-12.275,49.005-24.495,77.169-38.569c-1.235,24.443-0.459,46.203-4.004,67.237
		c-2.82,16.746-17.068,27.544-31.847,34.602c-57.578,27.486-115.596,27.804-172.647-1.315
		c-22.207-11.336-34.564-29.977-32.813-56.433C-174.56,531.703-175.293,518.172-175.293,501.522z"/>
	<path fill-rule="evenodd" clip-rule="evenodd" fill="#14B119" d="M114.369,566.54c-5.647,0-9.929,0-16.079,0
		c0-26.161,1.196-66.505,0.631-78.266c0.187-3.972,8.783-7.548,15.448-12.869C114.369,507.649,114.369,536.405,114.369,566.54z"/>
	<path fill-rule="evenodd" clip-rule="evenodd" fill="#14B119" d="M107.007,604.771C84.001,592.8,81.259,587.451,92.8,577.974
		c5.375-4.412,21.016-4.989,26.682-0.987C132.435,586.148,130.494,590.625,107.007,604.771z"/>
	<path fill="#14B119" d="M151.669,537.299"/>
</g>
<path fill="#14B119" d="M150.945,557.503h70.408c19.943,0,36.121-16.742,36.121-37.31V281.779c0-20.568-16.177-37.311-36.121-37.311
	h-409.006c-19.926,0-36.12,16.742-36.12,37.311v75.486c17.621,0,33.94-6.288,48.16,1.988v-66.626h384.929v216.717h-48.161"/>
</svg>
