<?xml version="1.0" encoding="utf-8"?>
<!-- Generator: Adobe Illustrator 16.0.0, SVG Export Plug-In . SVG Version: 6.00 Build 0)  -->
<!DOCTYPE svg PUBLIC "-//W3C//DTD SVG 1.1//EN" "http://www.w3.org/Graphics/SVG/1.1/DTD/svg11.dtd">
<svg version="1.1" id="圖層_1" xmlns="http://www.w3.org/2000/svg" xmlns:xlink="http://www.w3.org/1999/xlink" x="0px" y="0px"
	 width="641px" height="208px" viewBox="0 0 641 208" enable-background="new 0 0 641 208" xml:space="preserve">
<rect fill="#FFFFFF" width="641" height="208"/>
<g>
	<g>
		<path fill="#054A97" d="M195.38,103.393c0,45.522-36.767,82.29-82.288,82.29c-45.959,0.438-82.727-36.33-82.727-82.29
			c0-45.521,36.768-82.289,82.288-82.289C158.175,21.104,195.38,57.871,195.38,103.393"/>
		<path fill="#FFFFFF" d="M112.216,192.686c-23.636,0-45.521-9.193-62.154-25.389C32.991,150.665,23.8,127.905,23.8,103.83
			c0-49.023,39.831-89.292,88.854-89.292c49.023,0,89.293,39.832,89.293,88.854c0,49.024-39.832,88.854-88.854,88.854
			C112.653,192.686,112.653,192.686,112.216,192.686z M112.653,27.669c-41.582,0-75.723,34.141-75.723,75.723
			c0,20.573,7.879,39.833,22.323,53.838c14.007,14.006,32.828,21.885,52.962,21.885c0.438,0,0.438,0,0.876,0
			c42.02,0,75.723-34.141,75.723-75.723C188.814,61.811,154.674,27.669,112.653,27.669z"/>
	</g>
	<g>
		<polygon fill="#FFFFFF" points="138.479,62.686 110.903,88.948 83.327,62.686 40.87,105.583 76.762,141.036 76.762,170.799 
			101.711,170.799 101.711,132.282 75.887,106.458 74.136,104.705 82.452,97.265 110.903,125.715 110.903,125.715 110.903,125.715 
			110.903,125.715 110.903,125.715 139.354,97.265 147.232,105.583 145.481,106.458 120.095,132.282 120.095,170.799 
			145.044,170.799 145.044,141.036 180.936,105.583 		"/>
		<path fill="#FFFFFF" d="M151.609,177.803h-38.08v-45.084l-2.626,2.627l-2.627-2.627v45.084h-38.08V144.1l-38.519-38.518
			l51.649-51.651l27.576,26.263l27.575-26.263l51.649,51.651L151.609,144.1V177.803z M126.66,164.672h11.818v-25.824l33.266-33.266
			l-33.266-33.267l-27.575,26.263L83.327,72.315l-33.266,33.267l33.266,33.266v25.824h11.818v-29.326l-30.64-30.641l17.946-16.194
			l28.013,28.013l28.451-28.452l17.946,17.948l-7.441,5.689l-23.198,23.637v29.326H126.66z"/>
	</g>
	<g>
		<path fill="#FFFFFF" d="M111.778,69.689c10.505,0,18.821-8.316,18.821-18.822c0-10.505-8.316-18.821-18.821-18.821
			s-18.821,8.316-18.821,18.821C92.52,60.935,101.273,69.689,111.778,69.689"/>
		<path fill="#FFFFFF" d="M111.778,76.692c-7.003,0-13.568-3.064-18.384-7.878c-4.814-4.815-7.003-11.38-7.003-17.508
			c0-14.007,10.942-24.949,25.387-24.949s25.387,10.942,25.387,25.387S126.223,76.692,111.778,76.692z M111.778,38.612
			c-7.003,0-12.256,5.252-12.256,12.255c0,3.064,0.876,6.128,3.064,8.316c2.188,2.626,5.689,3.939,9.191,3.939
			c7.003,0,12.256-5.252,12.256-12.256C124.034,44.302,118.781,38.612,111.778,38.612z"/>
	</g>
</g>
<g>
	<g>
		<path fill="#040000" d="M234.773,159.858l8.316-20.135h12.693v0.875h-0.875c-0.875,0-1.751,0-2.188,0.438
			c-0.438,0-0.875,0.438-0.875,0.875s-0.438,1.314-0.438,2.627v20.135c0,1.75,0,2.625,0.438,3.064c0,0.438,0.438,0.875,0.875,0.875
			c0.438,0.438,1.313,0.438,2.188,0.438h0.875v1.313h-16.194v-0.875h0.875c0.876,0,1.751,0,2.188-0.438
			c0.438,0,0.876-0.438,0.876-0.875s0.438-1.314,0.438-3.064v-22.762l-11.818,28.014h-0.438l-11.818-28.014v21.449
			c0,1.313,0,2.625,0,2.625c0,0.875,0.438,1.314,1.313,1.752c0.438,0.438,1.751,0.875,3.063,0.875v1.313h-10.505v-0.875h0.438
			c0.876,0,1.313,0,1.751-0.438s0.876-0.438,1.313-0.875s0.438-0.877,0.875-1.752c0,0,0-0.875,0-2.188v-19.26
			c0-1.75,0-2.627-0.438-3.064c0-0.438-0.438-0.875-0.875-0.875c-0.438-0.438-1.313-0.438-2.188-0.438h-0.876v-0.875h12.693
			L234.773,159.858z"/>
		<path fill="#FFFFFF" d="M234.773,176.928L234.773,176.928h-27.575V162.92h4.377v-15.756h-4.377v-14.008h6.128h9.63h7.878
			l3.939,9.631l3.939-9.631h2.188h9.63h11.818v14.008h-4.377v15.318h4.377v14.445H234.773z M258.41,141.473
			C258.41,141.911,258.41,141.911,258.41,141.473C258.41,141.911,258.41,141.911,258.41,141.473z"/>
	</g>
	<g>
		<path fill="#040000" d="M266.289,149.352v16.633c0,1.313,0,2.627,0.438,3.064s0.875,0.438,2.188,0.875v0.438h-11.381v-0.875
			c0.876,0,1.751-0.438,2.188-0.875c0.438-0.438,0.438-1.314,0.438-2.627v-12.256c0-1.313,0-2.625-0.438-3.064
			c-0.438-0.438-0.875-0.438-2.188-0.875v-0.875h8.755V149.352z M263.225,138.409c0.875,0,1.751,0.439,2.626,0.877
			c0.876,0.875,0.876,1.313,0.876,2.625c0,0.877-0.438,1.752-0.876,2.627c-0.875,0.875-1.313,0.875-2.626,0.875
			c-0.875,0-1.751-0.438-2.626-0.875c-0.876-0.875-0.876-1.313-0.876-2.627c0-0.875,0.438-1.75,0.876-2.625
			C261.474,138.848,261.911,138.409,263.225,138.409z"/>
		<path fill="#FFFFFF" d="M268.915,176.928h-17.946V162.92h2.626v-7.439l-2.626-0.877v-12.256h2.188
			c0-2.625,0.876-4.377,1.751-5.689l0.876-1.75l1.75-0.877c1.313-0.438,2.627-1.75,5.69-1.75c2.626,0,4.377,0.875,5.69,1.75
			l0.875,0.439l0.876,0.875c2.626,2.625,2.626,5.689,2.626,7.441c0,0.875,0,2.188-0.438,3.063v19.26l2.626,0.875v11.381
			L268.915,176.928z M265.851,141.911L265.851,141.911c0.438-0.438,0-1.313-0.438-1.75l-0.438,1.313L265.851,141.911z
			 M260.161,141.911L260.161,141.911L260.161,141.911L260.161,141.911z M264.1,141.036L264.1,141.036l1.313-1.313l0,0L264.1,141.036
			z M261.474,139.723l1.313,0.438l0.875-1.313C262.787,139.286,261.911,139.723,261.474,139.723z"/>
	</g>
	<g>
		<path fill="#040000" d="M279.42,149.352v2.627c0.875-1.314,2.188-2.189,3.063-2.627c0.876-0.438,2.188-0.875,3.064-0.875
			c1.313,0,2.626,0.438,3.502,1.313c0.875,0.875,1.313,1.752,1.75,3.064c0.438,0.875,0.438,2.627,0.438,4.814v8.316
			c0,1.752,0,2.627,0.438,3.064s0.875,0.438,1.751,0.875v0.438h-10.505v-0.875c0.875,0,1.313-0.438,1.75-0.875
			c0.438-0.438,0.438-1.314,0.438-2.627v-9.629c0-1.752,0-2.627,0-3.502c0-0.438-0.438-0.875-0.876-0.875
			c-0.438-0.438-0.875-0.438-0.875-0.438c-1.313,0-2.626,0.875-3.502,2.625v11.818c0,1.752,0,2.627,0.438,3.064
			s0.876,0.875,1.751,0.875v0.438h-10.942v-0.875c0.875,0,1.313-0.438,1.751-0.875c0.438-0.438,0.438-1.314,0.438-3.064v-11.818
			c0-1.75,0-2.625-0.438-3.064c-0.438-0.438-0.876-0.438-1.751-0.875v-0.875h8.316V149.352z"/>
		<path fill="#FFFFFF" d="M293.427,176.928h-28.889V162.92h2.188v-7.879l-2.188-1.313v-11.381h17.945
			c0.876-0.438,1.751-0.438,3.064-0.438c3.063,0,6.128,1.314,8.316,3.064c1.751,1.75,2.626,3.502,3.063,5.252
			c0.876,2.189,0.876,4.377,0.876,7.004v7.004l2.188,1.313v10.506L293.427,176.928z"/>
	</g>
	<g>
		<path fill="#040000" d="M304.807,149.352v16.633c0,1.313,0,2.627,0.438,3.064c0.438,0.438,0.876,0.438,2.188,0.875v0.438h-11.38
			v-0.875c0.875,0,1.751-0.438,2.188-0.875s0.438-1.314,0.438-2.627v-12.256c0-1.313,0-2.625-0.438-3.064
			c-0.438-0.438-0.875-0.438-2.188-0.875v-0.875h8.754V149.352z M301.743,138.409c0.875,0,1.75,0.439,2.626,0.877
			c0.875,0.875,0.875,1.313,0.875,2.625c0,0.877-0.438,1.752-0.875,2.627c-0.876,0.875-1.313,0.875-2.626,0.875
			c-0.876,0-1.751-0.438-2.627-0.875c-0.875-0.875-0.875-1.313-0.875-2.627c0-0.875,0.438-1.75,0.875-2.625
			C299.992,138.848,300.867,138.409,301.743,138.409z"/>
		<path fill="#FFFFFF" d="M307.433,176.928h-17.945V162.92h2.626v-7.439l-2.626-0.877v-12.256h2.188
			c0-2.625,0.875-4.377,1.751-5.689l0.875-1.75l1.751-0.877c1.313-0.438,3.063-1.75,5.69-1.75c2.626,0,4.377,0.875,5.689,1.75
			l0.876,0.439l0.875,0.875c2.626,2.625,2.626,5.689,2.626,7.441c0,0.875,0,2.188-0.438,3.063v19.26l2.627,0.875v11.381
			L307.433,176.928z M304.369,141.911L304.369,141.911c0.438-0.438,0-1.313-0.438-1.75l-0.438,1.313L304.369,141.911z
			 M298.679,141.911L298.679,141.911L298.679,141.911L298.679,141.911z M299.992,139.723l1.313,0.438l0.876-1.313
			C301.305,139.286,300.43,139.723,299.992,139.723z"/>
	</g>
	<g>
		<path fill="#040000" d="M322.753,148.04l0.438,7.441h-0.876c-0.875-2.189-1.751-3.502-3.063-4.377
			c-0.876-0.877-2.188-1.314-3.063-1.314c-0.438,0-1.313,0-1.751,0.438s-0.876,0.877-0.876,1.314s0,0.875,0.438,1.313
			c0.438,0.438,1.75,1.75,3.938,3.064c2.188,1.313,3.502,2.625,4.377,3.939c0.876,0.875,0.876,2.188,0.876,3.502
			c0,1.313-0.438,2.188-0.876,3.5c-0.438,1.314-1.313,2.189-2.626,2.627c-0.875,0.438-2.188,0.875-3.501,0.875
			c-0.876,0-2.188-0.438-3.939-0.875c-0.438,0-0.876-0.438-0.876-0.438c-0.438,0-0.875,0.438-1.313,1.313h0.438l-0.438-7.441h0.875
			c0.875,2.189,1.751,3.502,2.626,4.377c1.313,0.877,2.188,1.314,3.502,1.314c0.875,0,1.313-0.438,1.751-0.875
			c0.438-0.439,0.875-0.877,0.875-1.752s-0.438-1.313-0.875-1.75c-0.438-0.438-1.313-1.314-3.064-2.189
			c-2.188-1.75-3.938-2.625-4.377-3.502c-0.875-1.313-1.313-2.625-1.313-3.939c0-1.75,0.438-3.063,1.751-4.377
			c1.313-1.313,2.626-2.188,4.814-2.188c1.313,0,2.188,0.438,3.501,0.875c0.438,0.438,0.876,0.438,0.876,0.438
			c0.438,0,0.438,0,0.438,0s0.438-0.438,0.875-0.875L322.753,148.04L322.753,148.04z"/>
		<path fill="#FFFFFF" d="M317.5,176.928h-17.945l4.377-8.754l-0.876-11.818h0.438c0-0.438,0-1.314,0-1.752
			c0-3.5,1.313-6.564,3.502-9.191c1.751-1.75,4.815-3.939,9.63-3.939c1.313,0,2.188,0,3.063,0.438h2.626v0.877l1.313,0.438
			l0.875,0.875c-0.438-0.438-1.313-0.875-2.188-1.313v2.188c0.438,0,0.438,0.438,0.876,0.875c0.875,0.438,1.313,1.314,2.188,1.752
			l3.939-0.438l0.875,14.443h-0.438c0,0.438,0,0.875,0,1.313c0,2.189-0.438,3.939-0.876,4.816l-0.438,0.438
			c-0.875,3.063-3.501,5.252-6.128,6.564C321.002,176.053,319.688,176.928,317.5,176.928L317.5,176.928z"/>
	</g>
	<g>
		<path fill="#040000" d="M335.884,141.036v7.879h5.252v2.189h-5.252v13.131c0,1.313,0,2.188,0,2.188
			c0,0.438,0.438,0.438,0.438,0.875c0.438,0.439,0.438,0.439,0.875,0.439c0.876,0,1.751-0.877,2.627-2.189l0.875,0.438
			c-1.313,3.064-3.063,4.377-6.128,4.377c-1.313,0-2.626-0.438-3.502-1.313c-0.875-0.875-1.313-1.752-1.75-2.627
			c0-0.438-0.438-1.75-0.438-4.377v-11.381h-2.626v-0.875c1.751-1.313,3.502-2.625,4.815-4.377c1.313-1.313,2.626-3.064,3.501-4.814
			h1.313V141.036L335.884,141.036z"/>
		<path fill="#FFFFFF" d="M334.57,176.928c-3.063,0-6.128-1.314-8.316-3.064c-1.751-1.75-2.626-3.064-3.063-4.377l-0.876-1.313
			v-0.877c0-0.875-0.438-2.625-0.438-4.814v-4.814h-2.626v-10.504l2.626-2.189c1.313-0.875,2.626-2.188,3.502-3.064l0.438-0.875
			c0.875-0.875,1.751-2.188,2.188-3.064l1.751-3.5h11.818v8.316h5.252v15.318h-5.252v1.752l6.565,3.502l-2.626,5.689
			C344.2,174.301,340.261,176.928,334.57,176.928z"/>
	</g>
	<g>
		<path fill="#040000" d="M352.079,149.352v4.814c1.313-2.188,2.626-3.502,3.501-4.377c0.876-0.875,2.188-0.875,3.064-0.875
			c0.875,0,1.313,0.438,2.188,0.875c0.438,0.438,0.875,1.314,0.875,2.189s-0.438,1.75-0.875,2.188s-0.875,0.875-1.751,0.875
			c-0.875,0-1.313-0.438-2.188-0.875c-0.438-0.438-0.875-0.875-0.875-0.875h-0.438c-0.438,0-0.875,0-1.313,0.438
			s-0.876,1.313-1.313,2.189c-0.438,1.313-0.875,3.063-0.875,4.814v4.814v1.313c0,0.877,0,1.314,0,1.752s0.438,0.875,0.875,0.875
			s0.875,0.438,1.751,0.438v0.438h-11.381v-0.875c0.876,0,1.751-0.438,1.751-0.875c0.438-0.438,0.438-1.752,0.438-3.502v-11.818
			c0-1.313,0-2.188,0-2.188c0-0.439-0.438-0.877-0.438-0.877c-0.438,0-0.875-0.438-1.313-0.438v-0.875h8.316V149.352z"/>
		<path fill="#FFFFFF" d="M345.514,176.928h-8.755V162.92h2.188v-6.564h-1.751v-14.008h21.448c2.188,0,3.939,0.877,4.814,1.314
			l0.876,0.438l0.875,0.875c1.751,1.75,2.626,4.377,2.626,7.004c0,2.625-0.875,5.252-2.626,7.002
			c-0.875,0.877-2.626,2.627-6.565,2.627h-0.438v1.75h3.063v13.133l-6.565,0.438h-8.754H345.514z"/>
	</g>
	<g>
		<path fill="#040000" d="M373.526,170.799l-7.003-15.758c-0.876-2.188-1.751-3.938-2.188-4.377
			c-0.438-0.438-0.876-0.875-1.751-1.313v-0.875h11.38v0.875c-0.875,0-1.313,0-1.751,0.438c-0.438,0.438-0.438,0.875-0.438,1.314
			c0,0.438,0.438,1.75,1.313,3.5l3.502,8.316l2.626-6.564c0.875-2.189,1.313-3.939,1.313-4.814c0-0.438,0-0.877-0.438-1.314
			s-0.875-0.438-1.751-0.438v-0.875h6.566v0.875c-0.876,0-1.313,0.438-1.751,0.875c-0.438,0.439-1.313,2.189-2.188,4.816
			l-6.128,15.756c-1.313,3.939-2.627,6.129-3.502,7.441c-0.875,1.314-2.188,1.752-3.939,1.752c-1.313,0-2.188-0.438-3.063-0.877
			c-0.876-0.875-1.313-1.75-1.313-2.625s0.438-1.752,0.875-2.189c0.438-0.438,1.313-0.875,2.188-0.875
			c0.876,0,1.313,0.438,1.751,0.875s0.876,1.314,0.876,2.189c0,0.438,0,0.875,0,1.313l0.438,0.438c0.438,0,0.875,0,1.313-0.875
			c0.438-0.438,1.313-2.189,2.188-4.377L373.526,170.799z"/>
		<path fill="#FFFFFF" d="M367.398,187.432c-3.063,0-4.814-0.875-6.128-1.75l-0.875-0.438l-0.876-0.875
			c-2.626-2.627-3.063-5.254-3.063-7.441c0-2.627,0.875-5.254,2.626-7.004c1.313-1.313,3.502-2.627,5.69-2.627l-4.377-9.629
			c-0.438-1.313-0.876-2.188-1.313-2.627l-3.502-1.75v-11.381h24.512v0.438h10.942v14.008h-3.501c0,0.438-0.438,0.875-0.438,1.313
			l-6.128,16.195c-1.313,4.377-3.064,7.004-3.939,8.754C375.277,184.807,372.651,187.432,367.398,187.432z M388.408,154.604
			L388.408,154.604L388.408,154.604z"/>
	</g>
	<g>
		<path fill="#040000" d="M447.061,151.542v14.443c0,1.313,0,2.189,0.438,2.627c0.438,0.438,1.313,0.875,2.626,0.875v0.875h-12.693
			v-0.875c0.875,0,1.751,0,2.188-0.438c0.438,0,0.875-0.438,0.875-0.875s0.438-1.314,0.438-2.189v-14.881h-3.063v-2.189h3.063v-1.75
			v-0.877c0-2.188,0.876-3.939,2.189-5.252c1.75-1.313,3.938-2.188,6.565-2.188c1.751,0,3.063,0.438,3.939,0.875
			c0.875,0.875,1.313,1.313,1.313,2.188c0,0.877-0.438,1.314-0.875,1.752s-1.313,0.875-2.188,0.875c-0.876,0-1.313,0-1.751-0.438
			s-0.875-0.875-0.875-1.313c0,0,0-0.439,0-0.877s0-0.438,0-0.875s0-0.438-0.438-0.875c-0.438-0.438-0.438-0.438-0.875-0.438
			s-0.875,0-1.313,0.438c-0.438,0.438-0.438,0.875-0.438,1.75v3.939v2.627h4.377v2.188h-3.502V151.542z"/>
		<path fill="#FFFFFF" d="M456.69,176.928h-25.824V162.92h3.501v-5.252h-3.063v-15.32h3.502c0.438-2.188,1.75-4.377,3.501-6.127
			l0.876-0.438c5.252-3.939,12.256-4.377,17.508-1.752l0.876,0.439l0.875,0.875c1.313,1.313,3.063,3.063,3.063,7.002
			s-2.188,5.691-2.626,6.566c-0.438,0.438-0.875,0.875-1.751,1.313v7.879h-3.501v5.691h3.063V176.928L456.69,176.928z
			 M433.93,167.737L433.93,167.737L433.93,167.737z"/>
	</g>
	<g>
		<path fill="#040000" d="M504.4,159.858l-1.313,10.504h-27.138v-0.875h0.876c0.875,0,1.751,0,2.188-0.438
			c0.438,0,0.875-0.438,0.875-0.875s0.438-1.314,0.438-3.064v-20.135c0-1.75,0-2.627-0.438-3.064c0-0.438-0.438-0.875-0.875-0.875
			c-0.438-0.438-1.313-0.438-2.188-0.438h-0.876v-0.875h16.195v0.875h-1.313c-0.876,0-1.751,0-2.189,0.438
			c-0.438,0-0.875,0.438-0.875,0.875s-0.438,1.314-0.438,3.064v19.697c0,1.75,0,2.625,0.438,3.064c0,0.438,0.438,0.875,0.875,0.875
			c0.438,0,1.313,0,2.627,0h2.626c1.751,0,3.063-0.438,3.939-0.875c0.875-0.439,2.188-1.314,2.626-2.627
			c0.876-1.313,1.751-3.064,2.188-5.689L504.4,159.858L504.4,159.858z"/>
		<path fill="#FFFFFF" d="M508.777,176.928h-39.394V162.92h4.377v-15.756h-4.377v-14.008h29.326v14.008h-4.814v14.881
			c0.438,0,0.438,0,0.875,0l0.438-0.438c0.438-0.438,0.875-1.75,1.313-3.064l0.876-5.689h14.006v7.879L508.777,176.928z
			 M473.323,167.737L473.323,167.737L473.323,167.737z M494.333,141.473C494.333,141.911,494.333,141.911,494.333,141.473
			C494.333,141.911,494.333,141.911,494.333,141.473z"/>
	</g>
	<g>
		<path fill="#040000" d="M519.282,166.86c-2.626,2.189-4.814,3.502-7.003,3.502c-1.313,0-2.188-0.438-3.064-1.313
			c-0.875-0.875-1.313-1.752-1.313-3.064c0-1.75,0.875-3.064,2.188-4.377c1.313-1.313,4.377-3.064,9.191-5.252v-2.189
			c0-1.75,0-2.625-0.438-3.063c0-0.439-0.438-0.877-0.875-0.877c-0.438-0.438-0.876-0.438-1.751-0.438c-0.876,0-1.751,0-2.626,0.438
			c-0.438,0.438-0.438,0.438-0.438,0.877c0,0.438,0,0.875,0.438,1.313c0.438,0.438,0.875,1.313,0.875,1.75
			c0,0.875-0.438,1.314-0.875,1.752c-0.438,0.438-1.313,0.875-2.189,0.875c-0.875,0-1.75-0.438-2.188-0.875
			c-0.438-0.438-0.875-1.314-0.875-2.189s0.438-2.188,1.313-3.064c0.875-0.875,2.188-1.75,3.501-2.188
			c1.751-0.438,3.064-0.875,4.815-0.875c2.188,0,3.501,0.438,4.814,1.313s1.751,1.75,2.188,2.627c0,0.438,0.438,2.188,0.438,4.377
			v8.316c0,0.875,0,1.75,0,1.75c0,0.438,0,0.438,0.438,0.438h0.438c0.438,0,0.875-0.438,1.313-0.875l0.876,0.438
			c-0.876,1.313-1.751,1.752-2.188,2.627c-0.876,0.438-1.751,0.875-2.627,0.875c-1.313,0-2.188-0.438-2.626-0.875
			C519.72,169.049,519.282,168.612,519.282,166.86z M519.282,165.547v-7.004c-1.751,0.877-3.063,2.189-3.939,3.502
			c-0.438,0.875-0.875,1.752-0.875,2.627s0.438,1.313,0.875,1.75c0.438,0.438,0.876,0.438,1.751,0.438
			C517.531,166.422,518.407,165.985,519.282,165.547z"/>
		<path fill="#FFFFFF" d="M512.279,176.928c-3.064,0-5.69-0.875-7.879-3.064c-2.188-2.188-3.063-4.814-3.063-7.879
			s0.875-5.252,2.188-6.564c-0.876-1.752-1.751-3.502-1.751-5.691c0-2.625,1.313-5.689,3.063-7.879
			c1.751-1.75,3.939-3.063,6.128-3.939l1.313-0.438c1.751-0.438,3.502-0.875,5.69-0.875c3.501,0,6.128,0.875,8.316,2.627
			c2.626,1.75,3.939,3.939,4.377,5.252l0.875,1.313v1.314c0,1.313,0.438,3.063,0.438,4.814v4.377l6.128,3.064l-3.939,6.127
			c-0.875,1.313-1.75,1.75-2.188,2.627l-0.875,1.313l-1.751,0.875c-1.313,0.438-3.063,1.752-5.69,1.752
			c-1.75,0-3.063-0.439-4.377-0.877h-0.438C517.094,176.491,514.905,176.928,512.279,176.928z"/>
	</g>
	<g>
		<path fill="#040000" d="M538.979,139.286v11.818c1.751-1.752,3.939-2.627,5.69-2.627c1.313,0,2.626,0.438,3.938,1.313
			c1.313,0.875,2.189,2.189,3.064,3.502c0.875,1.75,0.875,3.502,0.875,5.252c0,2.189-0.438,4.377-1.313,6.129
			c-0.876,1.75-2.188,3.502-3.502,4.377c-1.751,0.875-3.502,1.313-5.253,1.313c-1.313,0-2.188,0-3.063-0.438
			s-1.751-0.875-2.626-1.75l-3.502,2.188h-0.875v-26.699c0-1.314,0-2.189,0-2.189c0-0.438-0.438-0.875-0.876-0.875
			s-0.875-0.438-1.751-0.438v-0.875H538.979z M538.979,152.854v9.629c0,1.752,0,3.064,0,3.502c0,0.875,0.438,1.752,0.875,2.189
			s1.313,0.875,2.188,0.875c0.876,0,1.313,0,2.188-0.875c0.438-0.438,0.876-1.314,1.313-2.627s0.438-3.502,0.438-7.004
			c0-3.063-0.438-5.689-1.313-6.564c-0.438-0.875-1.313-1.314-2.188-1.314C541.605,151.104,540.292,151.542,538.979,152.854z"/>
		<path fill="#FFFFFF" d="M542.481,176.928c-1.751,0-3.502,0-5.69-0.875l-1.751,0.875h-9.192v-30.203h-2.626v-14.006h22.323v9.191
			c2.188,0,4.377,0.877,6.565,2.189c2.626,1.75,3.939,3.939,4.814,5.252l0.438,0.875c1.751,3.064,1.751,6.129,1.751,8.316
			c0,3.502-0.876,6.566-2.189,9.193c-0.875,1.313-2.626,4.814-5.689,7.002l-0.876,0.438
			C548.171,176.491,545.107,176.928,542.481,176.928z"/>
	</g>
	<g>
		<path fill="#040000" d="M566.555,148.04c1.751,0,3.502,0.438,5.253,1.313c1.75,0.875,2.626,2.189,3.501,3.939
			c0.876,1.75,1.313,3.502,1.313,5.689c0,3.064-0.875,5.691-2.188,7.441c-1.751,2.627-4.377,3.502-7.441,3.502
			c-3.063,0-5.689-1.313-7.44-3.502c-1.751-2.188-2.627-4.814-2.627-7.879c0-3.063,0.876-5.689,2.627-7.879
			C561.303,149.352,563.491,148.04,566.555,148.04z M566.555,149.79c-0.875,0-1.313,0.438-2.188,0.875
			c-0.438,0.439-0.875,1.752-0.875,3.502c0,1.752-0.438,3.939-0.438,7.004c0,1.75,0,3.064,0.438,4.377
			c0,0.875,0.438,1.75,0.875,2.627c0.438,0.438,1.313,0.875,1.751,0.875c0.875,0,1.313,0,1.751-0.438s0.875-1.314,1.313-2.189
			c0.438-1.313,0.438-4.377,0.438-8.754c0-2.627,0-4.377-0.438-5.252c-0.438-0.875-0.875-1.752-1.313-2.189
			C567.868,149.79,567.431,149.79,566.555,149.79z"/>
		<path fill="#FFFFFF" d="M566.992,176.928c-4.814,0-9.629-2.189-12.693-6.129c-2.626-3.502-3.939-7.441-3.939-11.818
			s1.313-8.754,3.939-11.816l1.313-1.314c2.188-1.75,5.69-3.939,10.942-3.939c2.626,0,5.69,0.877,8.316,2.189
			c3.502,1.75,5.253,4.377,6.565,7.004c1.313,2.625,2.188,5.252,2.188,8.754c0,4.377-1.313,8.316-3.501,11.379
			C577.936,173.426,573.996,176.928,566.992,176.928z"/>
	</g>
	<g>
		<path fill="#040000" d="M588.44,149.352v4.814c1.313-2.188,2.626-3.502,3.501-4.377c0.876-0.875,2.188-0.875,3.064-0.875
			c0.875,0,1.313,0.438,2.188,0.875c0.438,0.438,0.875,1.314,0.875,2.189s-0.438,1.75-0.875,2.188s-0.876,0.875-1.751,0.875
			s-1.313-0.438-2.188-0.875c-0.438-0.438-0.875-0.875-0.875-0.875h-0.438c-0.438,0-0.875,0-1.313,0.438
			c-0.438,0.438-0.876,1.313-1.313,2.189c-0.438,1.313-0.875,3.063-0.875,4.814v4.814v1.313c0,0.877,0,1.314,0,1.752
			s0.438,0.875,0.875,0.875s0.875,0.438,1.751,0.438v0.438h-11.381v-0.875c0.876,0,1.751-0.438,1.751-0.875
			c0.438-0.438,0.438-1.752,0.438-3.502v-11.818c0-1.313,0-2.188,0-2.188c0-0.439-0.438-0.877-0.875-0.877s-0.875-0.438-1.313-0.438
			v-0.875h8.755V149.352z"/>
		<path fill="#FFFFFF" d="M581.874,176.928h-8.754V162.92h2.188v-6.564h-2.188v-14.008h21.886c2.188,0,3.939,0.877,4.814,1.314
			l0.876,0.438l0.875,0.875c1.751,1.75,2.626,4.377,2.626,7.004c0,2.625-0.875,5.252-2.626,7.002
			c-0.875,0.877-2.626,2.627-6.565,2.627h-0.438v1.75h2.626v13.133l-6.565,0.438H581.874L581.874,176.928z"/>
	</g>
	<g>
		<path fill="#040000" d="M424.738,147.602c1.751,0,3.501,0.438,5.252,1.313s2.626,2.189,3.502,3.939
			c0.875,1.75,1.313,3.502,1.313,5.689c0,3.064-0.876,5.691-2.188,7.441c-1.751,2.627-4.378,3.502-7.441,3.502
			c-3.064,0-5.69-1.313-7.441-3.502c-1.75-2.188-2.626-4.814-2.626-7.879s0.876-5.689,2.626-7.879
			C419.048,148.477,421.674,147.602,424.738,147.602z M424.738,149.352c-0.876,0-1.313,0.438-2.188,0.875
			c-0.438,0.438-0.876,1.752-0.876,3.502c0,1.752-0.438,3.939-0.438,7.004c0,1.75,0,3.064,0.438,4.377
			c0,0.875,0.438,1.75,0.876,2.627c0.438,0.438,1.313,0.875,1.75,0.875c0.876,0,1.313,0,1.751-0.438
			c0.438-0.438,0.876-1.314,1.313-2.189c0.438-1.313,0.438-4.377,0.438-8.754c0-2.627,0-4.377-0.438-5.252s-0.875-1.752-1.313-2.189
			C426.051,149.352,425.613,149.352,424.738,149.352z"/>
		<path fill="#FFFFFF" d="M425.176,176.491c-4.814,0-9.63-2.189-12.693-6.129c-2.626-3.502-3.939-7.441-3.939-11.818
			s1.313-8.754,3.939-11.818c2.188-3.063,6.565-5.252,12.256-5.252c2.626,0,5.689,0.875,8.316,2.189
			c3.501,1.75,5.252,4.377,6.565,7.002c1.313,2.627,2.188,5.691,2.188,8.756c0,4.377-1.313,8.316-3.502,11.379
			C436.118,172.989,432.179,176.491,425.176,176.491z"/>
	</g>
</g>
<g>
	<g>
		<path fill="#040000" d="M261.474,78.006c-9.629,0-18.821,0.875-27.575,2.626c-2.626,0-3.939,1.313-3.939,4.377
			c0,3.939-0.875,7.441-2.188,10.067c-0.875,2.188-1.751,3.064-3.063,2.188c-1.751-0.876-3.064-2.626-3.064-5.253
			c-0.875-6.127-1.313-11.817-0.438-17.07c0-0.438,0-0.875,0.438-0.875c0.438-0.438,0.438-0.875,0.438-0.875
			c-6.128,0.875-10.067,0-12.256-2.626c-1.751-3.939-1.313-5.69,0.876-5.69c3.063,0.438,6.565,0.438,10.505,0
			c14.007-2.626,21.01-8.316,20.135-17.508c-0.876-5.69,0.875-8.316,5.252-8.316c4.814,0,6.565,2.626,5.69,7.879
			c0,0.875-0.438,1.75-0.876,3.939c-1.313,4.815-1.313,7.441,0,7.879c1.313,0.875,3.502,1.313,6.566,2.188
			c3.501,0.875,6.127,1.751,7.878,2.626h0.876c0.875-0.875,2.626-1.751,5.252-1.751c6.565-0.438,10.943-3.939,13.132-11.38
			c0.875-3.501,1.313-7.003,0.438-10.067c-0.438-2.188,1.313-3.064,5.252-3.064c4.377,0.438,6.128,2.626,5.253,7.003
			c-0.438,3.502-0.438,5.69-0.438,7.003c0,0.875,0,1.751,0.438,1.751c3.502,2.188,9.191,4.377,17.07,6.565
			c3.939,1.313,9.191,2.626,16.195,3.939c1.751,0.438,1.313,1.75-0.876,4.814c-1.313,1.751-3.939,3.939-7.879,5.69
			c-0.438,0-0.438,0-0.875,0c0,0.875,0,1.75-0.438,2.626v0.438c0,3.939,0,6.565-0.438,7.878c-0.438,5.253-1.313,8.755-3.064,10.505
			c-2.188,2.189-3.938,1.313-5.689-2.188c0-0.875,0-1.751,0-3.063c0.438-1.751,0.438-3.064,0-4.377c0-0.438,0-0.875,0-0.875
			c-0.438-2.626-1.313-3.939-3.064-4.814c-0.875-0.875-4.814-1.313-11.38-2.188c-12.256-0.875-19.26-0.875-21.886,0
			c0.876,1.75,1.313,3.939,0.438,5.69c0,0.875,0,1.313,0,1.751c1.313,0.438,3.939,0.438,7.441,0.438
			c2.626,0.438,4.377,0.438,5.253,0.438c1.313,0.875,2.626,0.875,3.938,0.438c0.876,0,1.751,0,3.064-0.438
			c1.313-0.438,2.626-0.438,3.063-0.438c4.377,0.438,6.566,2.188,7.004,5.69c0,0.876-0.438,2.627-0.876,4.814
			c-0.875,1.314-0.875,2.627-0.875,3.064c-3.064,14.883-10.067,21.885-21.01,21.448c-7.441-0.875-13.132-2.625-16.633-6.564
			c-3.064-4.377-3.064-6.566,0-6.566c0.875,0,2.626,0.438,4.377,0.875c8.754,2.627,14.882,1.752,17.508-2.625l0.438-0.438
			c2.188-3.502,3.063-6.567,3.063-9.194c0-1.313-1.313-2.625-3.939-3.938c-3.063-0.876-7.44-0.876-12.693-0.876
			c-1.313-0.438-2.626,0.438-3.939,2.189l-0.875,1.75c-0.438,0.875-0.876,1.751-0.876,2.627
			c-9.191,14.444-23.636,22.323-43.333,23.635c-7.003,0.877-11.38-1.75-12.693-7.002c-0.875-2.189-0.438-3.064,0.876-3.064
			c3.063,0.438,7.44,0,13.131-0.438c-4.377,0.875-3.939,0.875,0.438,0c14.007-0.875,24.512-6.567,31.515-16.196
			c0.438-0.875,0.438-1.751,0.438-2.188c-0.438-0.438-0.876-0.438-2.188-0.438c-1.751,0-4.815,0.438-8.316,1.752
			c-3.502,0.875-6.566,1.313-8.755,1.75c-3.063-0.438-3.501-2.188-2.188-5.689c2.188-2.627,4.377-4.377,7.004-4.377
			c0.438,0,0.875,0,1.75,0.438c1.751,0.438,3.064,0.438,3.939,0c1.313-0.438,3.502-0.438,5.69,0c2.188,0,3.939,0,4.814,0
			c1.313-0.438,2.188-1.751,2.188-4.815c0-0.875,0.438-1.751,0.876-2.626l0.438-0.875C262.35,78.006,261.911,78.006,261.474,78.006z
			 M234.336,56.558c-2.188-0.875-4.377-1.751-7.003-2.626c-3.064-1.313-4.377-3.501-4.377-5.69c0.875-3.939,2.626-5.69,5.689-5.69
			c2.627,0,4.815,2.626,5.253,7.441c0,0.438,0,0.875,0.438,0.875c1.313,0.875,1.751,1.751,2.188,2.626
			C237.4,55.245,236.524,56.121,234.336,56.558z M229.084,72.315c2.188,0.875,3.501,1.751,4.377,1.751
			c9.629-1.313,19.259-2.188,29.326-2.188c1.751,0,4.377,0,7.879,0c14.444-0.438,25.387,0,33.266,0.875
			c2.626,0.875,4.814,0.438,6.565-0.875c-4.377-4.815-9.192-8.754-14.444-11.818l-0.438-0.438c-1.313-0.875-2.627-0.875-3.064,0
			c0,0.438,0,0.875-0.438,0.875c-2.626,3.939-4.814,6.565-7.441,7.441c-6.565,3.064-12.255,3.064-16.194-0.438
			c-1.313,2.189-3.064,3.064-5.253,2.626c-3.063,0-7.441-1.751-13.131-5.252c-2.188-2.626-4.815-1.751-8.754,1.751
			c-1.313,0.875-4.815,2.626-9.63,4.814C235.212,69.251,234.773,69.689,229.084,72.315z M257.534,46.929
			c1.313-2.626,3.939-3.939,7.004-2.626c2.626,1.751,3.063,3.939,0.875,6.565c-3.063,3.502-6.565,5.253-9.63,5.69
			c-1.75-0.438-2.188-1.313-1.313-2.626c0.875-1.313,1.751-3.501,2.626-5.69C257.097,48.679,257.534,48.242,257.534,46.929z
			 M276.355,55.683c-3.063-0.875-5.252-2.188-7.003-4.815c-0.875-4.377,0.438-6.565,4.377-7.003
			c3.939,0.875,6.565,4.814,7.441,11.818C281.171,56.558,279.42,56.558,276.355,55.683z M299.992,50.868
			c0.438-0.438,0.875-0.875,2.188-2.188c0.875-0.438,1.751-1.75,2.626-4.814c1.313-2.188,3.064-3.064,5.253-3.064
			c4.377,0.875,5.252,3.501,3.063,7.441c-3.939,3.501-7.44,5.252-11.38,4.815c-0.876,0-1.751,0-2.627-0.438
			C299.116,52.181,299.116,51.306,299.992,50.868z"/>
		<path fill="#FFFFFF" d="M221.643,128.342c-9.63,0-14.444-5.689-16.195-11.818c-1.313-3.064-0.875-6.127,0.438-8.316
			c1.313-2.188,3.939-3.502,6.566-3.502h0.875c1.751,0.438,5.69,0,9.63-0.438h2.188l0,0h0.438c4.377-0.438,8.316-0.875,11.818-2.188
			c-2.188-0.438-3.502-1.313-4.815-1.752c-0.875,1.313-2.188,3.064-4.814,3.939c-2.188,0.875-4.377,0.438-6.565-0.875
			c-3.939-2.188-6.128-5.689-6.565-10.505c-0.438-3.939-0.876-8.316-0.876-12.693c-3.501-0.438-6.565-1.751-9.191-5.252
			l-0.438-0.875l-0.438-0.438c-0.875-1.75-3.063-7.003-0.438-11.38c1.313-2.188,3.939-3.501,7.004-3.501h0.875
			c2.626,0.438,5.253,0.438,8.754,0c0.438,0,0.876,0,1.313-0.438c-3.064-2.626-5.253-6.128-5.253-10.067v-1.313
			c2.188-9.63,8.316-10.943,12.256-10.943c2.626,0,4.815,0.875,7.004,2.626c0.438-0.875,0.875-1.751,1.75-2.626
			c1.313-1.751,4.378-3.939,9.192-3.939c3.939,0,7.003,1.313,8.754,2.626l8.316,2.188c1.313,0,2.188,0.438,3.502,0.875l0.875,0.438
			c1.751,0,3.502-0.438,5.253-0.438h0.875l0.876,0.438c1.313,0.438,2.626,0.875,3.938,1.313c0-1.751,0.876-3.064,1.751-4.377
			c2.627-3.064,7.004-3.501,10.067-3.501h0.438c3.939,0.438,7.441,2.188,9.192,4.815c0.438,0.438,0.875,1.313,0.875,1.75
			c2.188-2.188,5.253-3.064,8.316-3.064h1.313c5.252,0.875,7.44,3.939,8.754,6.128c0.875,2.188,1.751,6.128-0.876,10.943
			l-0.438,0.875l-0.438,0.438l-0.438,0.438c3.501,0.875,8.316,1.751,13.568,3.064c3.064,0.875,5.253,2.626,6.128,4.815
			c1.751,4.377-1.313,7.879-2.626,10.067c-1.751,2.626-4.814,4.814-7.879,6.565c0,3.064,0,5.69-0.438,7.441
			c-0.438,5.252-1.313,10.504-4.814,14.006c-3.064,3.064-6.565,3.064-8.316,3.064c-1.313-0.438-2.626-0.875-3.502-1.751
			c-4.814,21.886-17.508,26.263-27.575,25.826h-0.438c-6.565-0.875-15.32-2.627-20.572-8.754l-0.438-0.438
			c0-0.439-0.438-0.439-0.438-0.877c-9.191,6.566-20.572,10.068-33.703,10.943C223.394,128.342,222.518,128.342,221.643,128.342z
			 M272.417,102.518c5.252,1.313,7.878,0.875,8.316,0l0.875-1.313c0.438-0.876,0.875-2.188,1.313-3.063
			c-2.188-0.438-5.253-0.438-8.316-0.438v0.438v0.438v1.313l-0.876,1.751C272.854,101.642,272.854,102.08,272.417,102.518z
			 M295.615,92.45c0.438,0.875,0.438,1.751,0.875,2.626c0-0.438,0.438-0.875,0.438-0.875v-0.876c0-0.438,0-0.438,0-0.875h-0.438
			C296.053,92.45,296.053,92.45,295.615,92.45C296.053,92.45,295.615,92.45,295.615,92.45z M314.874,67.063h1.751
			c-0.876,0-1.313-0.438-2.188-0.438C314.437,67.063,314.874,67.063,314.874,67.063z M245.717,44.302L245.717,44.302z"/>
	</g>
	<g>
		<path fill="#040000" d="M428.239,52.181c0.876-4.377,0.876-8.316,0.438-11.818c2.626-3.939,6.565-2.626,11.817,3.064
			c1.313,2.626,0.876,7.003-0.875,13.131c0.875,0.438,4.814,0.438,11.818,0.438c6.565-0.875,9.629,0.438,10.066,3.939
			c0.876,2.188,0.876,5.69-0.875,10.505c-0.438,2.188-0.875,6.566-2.188,12.694c-0.875,6.565-1.751,10.942-2.626,13.131
			c-3.064,14.007-9.63,21.449-19.697,21.886c-7.44,0-12.693-3.502-16.195-10.506c-4.814,7.441-10.505,11.381-17.07,11.818
			c-6.128,0.438-9.629-0.875-10.505-3.064c-0.875-0.875-1.751-1.75-1.751-2.188c0.438-0.875,0.876-1.313,2.188-1.752
			c4.815-2.188,9.192-5.252,13.132-9.192c-0.876,0-0.876,0-0.876,0.438c-27.575,4.817-45.959,8.754-55.15,12.694
			c-2.627,1.314-4.377,1.314-5.253-0.438c-0.875-1.75-0.875-3.939,0.876-6.564c3.501-4.814,6.128-6.567,7.878-5.692
			c1.313,0,3.502,0,5.69-0.438c1.751-0.438,4.377-0.875,7.879-0.875c3.063-0.875,5.69-0.875,7.003-0.875
			c0.438-0.876,0.438-2.189,0.438-3.064c0-1.75-0.438-2.626-1.75-2.626c-6.566,0-11.818,0.876-16.633,2.188
			c-2.189,0-2.627-1.313-1.751-3.939c2.626-3.064,4.814-4.814,7.44-4.377c3.064,0.438,6.565,0.438,10.067,0.438
			c1.313,0,2.188-0.875,2.188-2.626c0-0.876-0.875-1.751-2.188-1.751c-3.939,0-7.003,0.438-9.191,0.875
			c-4.815,0.876-7.004-0.875-7.441-4.814c-0.438-2.626-0.875-6.565-0.875-11.818c0-4.815,2.188-6.565,6.565-6.565
			c3.502,0.438,7.44,0.438,11.818,0c2.188-1.313,2.188-2.626,0-4.377c-6.128-0.438-10.943,0-14.444,1.751
			c-8.316,1.751-11.818,1.313-11.381-0.875c0.876-3.501,3.939-5.69,9.63-5.69h15.319c0.876,0,1.751-0.438,2.188-1.751
			c-0.438-0.875-0.875-1.751-2.188-1.751c-8.754,0-14.444-0.438-17.07-1.75c-1.313-1.313,0-2.188,3.939-2.188
			c12.256,0.875,24.073-2.626,35.017-9.63c3.501-2.626,6.565-2.188,9.629,0.875c2.188,1.751,3.064,3.501,3.064,4.815
			c-0.438,0.875-1.751,1.75-4.377,2.626c-0.876,0-1.751,0.438-3.064,0.875c-5.252,3.064-9.191,3.939-10.942,4.377
			c-0.875,0-1.751,0.875-2.188,2.188c0,1.313,0.438,2.189,1.751,2.189c8.316,0,14.006,0,17.945,0c2.188,0,3.502,0.875,3.939,2.626
			c0,1.751-0.875,2.626-3.063,2.626h-17.946c-2.188,1.313-2.188,3.064,0,4.377c5.253,0.438,8.754,0.438,10.505,0
			c6.128-1.751,9.192,0.438,9.192,7.003c0,2.188-0.438,4.377-0.876,6.565c0,1.313,0,2.626-0.438,3.064
			c-0.875,5.252-3.939,7.004-9.191,5.252c-0.438,0-0.876,0-2.188,0c-2.627-0.438-4.815-0.438-6.566-0.438
			c-1.313,0-2.188,0.875-2.188,2.189c0,0.875,0.876,1.75,2.188,1.75h16.633c1.313,0,2.188,0.875,2.627,2.627
			c0,0.875-0.876,1.75-2.627,1.75c-0.438,0-2.626,0-7.003,0.438c-5.69,0.438-8.754,0.438-9.63,0.438
			c-0.875,0.438-1.75,1.752-2.188,3.939v1.752c2.188-0.438,5.253-0.876,9.63-0.876c3.939-0.438,7.003-0.438,9.191-0.438
			c2.627-0.438,3.939,0,4.378,1.751c7.003-8.316,12.693-19.697,16.633-33.704c0.875-2.626-0.438-4.377-3.064-4.377
			c-0.438,0-0.875,0-0.875,0c-2.627,0.438-4.815,0.875-6.565,1.75c-2.627,0.438-4.378,0-5.253-0.438
			c-0.875-0.875-0.875-2.626,0-4.377c3.063-4.815,6.565-7.003,10.067-5.69c1.751,0.438,3.501,0.875,4.377,0.438
			C426.927,56.558,428.239,55.245,428.239,52.181z M368.273,74.942c2.189,0,3.939,0,5.69,0c0.876,0,1.751-0.875,1.751-2.188
			c0-1.313-0.875-2.189-2.188-2.189c-2.188,0-3.939,0-4.814,0c-1.313,0-2.188,0.875-2.188,2.189
			C366.523,74.066,366.961,74.942,368.273,74.942z M368.273,83.258c0.876-0.438,2.627-0.438,4.815,0c0.875,0,1.313,0,1.751,0
			c0.875,0,0.875-0.875,0.875-2.188c0-1.313-0.438-2.188-1.751-2.188h-5.69c-0.875-0.438-1.75,0.438-1.75,2.626
			C366.523,82.82,366.961,83.258,368.273,83.258z M386.657,74.942h7.004c1.313,0,2.188-0.875,2.188-2.188
			c0.438-1.313-0.438-2.189-2.626-2.189h-6.566c-0.875,0-1.75,0.438-1.75,1.751C385.345,74.066,385.782,74.942,386.657,74.942z
			 M387.971,78.881c-1.313,0-2.188,0.875-2.188,2.188c0,1.313,0.875,2.188,2.188,2.188c2.188-0.438,3.939-0.438,5.69-0.438
			c1.313,0,2.188-0.438,2.188-1.75c0-1.313-0.438-2.188-1.751-2.188C391.91,78.881,389.722,78.881,387.971,78.881z M435.681,68.814
			c-4.377,16.195-9.191,28.889-14.444,38.081h0.438c7.004,2.627,12.693,2.188,17.07-0.875c4.815-6.129,7.879-17.948,8.755-35.018
			c0.438-3.502-1.751-5.69-7.004-5.69C438.307,64.437,436.556,65.75,435.681,68.814z"/>
		<path fill="#FFFFFF" d="M400.664,127.467c-8.316,0-11.818-3.064-13.568-5.691c-1.313-1.75-3.064-3.5-3.064-6.127
			c-16.195,3.064-25.824,5.689-31.515,8.316c-7.003,3.502-11.818,0.438-13.569-3.502c-1.313-2.188-2.626-7.441,1.313-13.131
			c2.626-3.502,5.253-6.128,7.441-7.442c-0.438-1.75-0.438-3.939,0.438-6.565l0.438-1.313l0.875-0.875
			c0.438-0.438,0.876-0.875,1.313-1.313c-0.875-1.313-1.751-3.502-1.751-5.69c-0.438-3.502-0.875-7.879-0.875-12.694
			c0-0.438,0-1.313,0-1.75c-2.188-0.438-3.939-0.875-5.253-2.626c-1.751-1.751-2.626-4.377-2.188-7.003
			c0.438-2.626,2.188-7.003,7.441-9.192c-0.438-1.313,0-3.063,0.438-3.939c2.188-5.252,8.316-5.252,10.505-5.252h0.438
			c10.505,0.875,21.01-2.188,30.64-8.316c5.69-4.377,12.256-3.939,17.946,1.313c3.501,2.626,5.252,6.128,5.252,9.629v1.751
			l-1.313,0.875c-0.876,1.313-1.751,2.626-3.064,3.501c0.876,0.438,1.313,0.438,2.188,0.875c4.377-3.064,8.316-2.626,10.505-1.751
			c0.876-2.626,0.876-5.252,0.438-8.316l-0.438-2.626l1.313-2.188c2.188-2.626,5.252-4.377,8.316-4.815
			c5.69-0.438,10.505,3.939,14.007,7.441l0.438,0.875l0.438,0.875c1.313,2.626,1.751,5.69,1.313,10.067c0.875,0,2.188,0,3.501,0
			c3.939-0.438,9.192-0.438,13.132,2.189c2.188,1.75,3.501,3.939,3.939,6.565c0.875,2.626,1.313,7.441-0.876,14.006
			c0,0.438,0,1.313-0.438,2.188c-0.438,2.626-0.875,5.69-1.751,9.63c-1.313,8.317-2.188,11.818-2.626,14.006
			c-4.814,21.01-16.633,26.262-25.825,26.702l0,0c-6.565,0-12.256-2.189-16.633-6.129c-4.814,4.814-10.066,7.441-16.194,7.441
			C402.415,127.467,401.54,127.467,400.664,127.467z M440.495,75.817c-3.063,10.067-6.128,19.259-9.629,26.701
			c1.313,0,2.626-0.438,3.063-0.876C436.118,98.141,439.183,91.137,440.495,75.817z M379.217,93.764
			c0.875,0.875,1.313,2.188,1.313,3.501c0.438-0.876,0.876-1.751,1.313-2.626c-0.875-0.875-1.313-2.188-1.751-3.502
			C380.092,92.012,379.654,92.888,379.217,93.764z M412.92,85.009c-0.438,0.875-0.438,1.751-0.875,2.626
			c2.626-4.376,4.377-9.629,6.565-14.881h-0.438h-0.876c-0.875,0-1.751,0.438-2.188,0.438c0,2.626-0.438,4.815-0.875,7.003
			C413.795,81.507,413.795,83.258,412.92,85.009z M369.149,72.753h3.939c0-0.438-0.438-0.875-0.438-1.313c-0.876,0-2.188,0-3.064,0
			C369.149,71.878,369.149,72.315,369.149,72.753z M451.876,63.562c1.313,1.75,2.188,4.377,2.188,7.003v-0.438l0.438-0.875
			c1.313-3.939,0.875-5.69,0.875-5.69l0,0C454.939,63.562,453.627,63.562,451.876,63.562L451.876,63.562z M420.361,67.063
			L420.361,67.063L420.361,67.063z M379.654,66.625l0.438,0.438l0.438-0.438c0-0.438-0.438-0.875-0.438-1.313
			C380.092,65.75,380.092,66.188,379.654,66.625z M430.866,61.373c0,0.438,0.438,0.438,0.438,0.875c0,0,0,0,0,0.438
			c0.438-0.438,0.875-0.875,1.313-1.313l-1.313-0.438C431.741,60.498,431.304,60.935,430.866,61.373L430.866,61.373z
			 M454.939,61.811L454.939,61.811L454.939,61.811z M379.217,57.871c0.875,0.875,1.313,2.188,1.313,3.064
			c0-0.438,0.438-0.875,0.438-0.875c-0.438-0.875-1.313-1.75-1.313-2.626C379.654,57.434,379.217,57.434,379.217,57.871z"/>
	</g>
	<g>
		<path fill="#040000" d="M503.963,51.306c2.188,0.875,3.939,1.751,5.69,1.751c0.875,0,2.188,0,3.939,0
			c1.313,0,2.188-0.875,2.188-2.189c0-1.75,0-3.501,0-5.252c0.438-3.064,3.063-4.377,7.878-3.939c3.939,0.875,5.69,3.501,5.69,7.003
			c-0.438,2.626,0.438,3.502,2.626,3.064c0.438,0,4.378,0.438,12.256,0.875c1.751,0.438,2.627,1.313,2.188,3.064
			c-0.438,2.188-1.313,3.064-3.063,3.064c-2.188,0-4.377,0-6.565,0c1.751,4.815,1.313,8.316-0.876,10.067
			c-0.438,0.438-0.875,0.875-1.75,2.188c-1.313,1.751-2.189,3.064-2.627,3.939c5.69,0,10.505,0,14.882,0
			c3.064,1.75,2.627,3.939-0.875,6.565c-14.882,0-25.824,0.438-33.266,0.875c-7.441,0.875-15.319,2.188-24.074,4.814
			c-3.501,0.875-6.128,0.438-7.44-0.875c-0.876-1.313-0.876-3.502,0.438-5.69c3.064-4.377,7.003-6.128,11.818-5.252
			c1.751,0.875,3.501,0.875,4.814,0.875c3.502,0,7.441-0.438,12.256-0.875c-6.128-5.69-7.003-10.505-3.064-14.882
			c-0.438,0-1.75,0-3.938,0.438c-4.815,0.875-7.441,0-7.879-3.939C496.521,52.181,499.586,50.43,503.963,51.306z M500.461,113.022
			c0-2.625-0.438-8.317-0.875-17.071c-0.438-1.75-0.438-3.063-0.438-3.939c0.875-5.252,4.377-7.003,10.505-5.252
			c0.438,0,0.875,0,0.875,0.438c0.875,0.438,1.751,0.438,2.626,0.438c2.627,0,6.566,0,11.818,0.438
			c1.751,0.438,3.063,0.438,4.377,0.438s2.626-0.438,3.939-0.876c6.128-3.939,10.067-2.626,11.818,3.064
			c0,4.814-0.438,12.256-0.876,21.448c-2.626,6.566-7.003,7.004-14.006,2.189c-5.253,0-9.63,0-13.132,0
			c-1.313-0.438-2.626,0-3.939,1.75C506.151,120.901,501.774,120.463,500.461,113.022z M527.599,108.208
			c2.627,0,4.377-1.313,4.377-4.377v-5.252c0-2.627-1.313-4.377-4.377-4.377c-3.063,0-7.44,0-12.693,0
			c-3.063,0-4.377,1.313-4.377,4.377c0,1.313,0,3.063,0,5.252c0,3.065,1.751,4.377,5.253,4.377
			C519.72,108.208,523.659,108.208,527.599,108.208z M511.842,59.184c2.188,1.313,3.501,3.502,3.939,5.69
			c0.875,7.441,3.063,10.942,5.689,10.067c2.188,0.438,3.502-0.875,4.377-3.064c2.627-5.252,3.939-9.63,3.064-12.694
			C528.912,59.622,511.842,59.622,511.842,59.184z M556.487,46.491c2.188,0.438,4.377,1.751,6.565,4.377c6.566,0,12.694,0,17.946,0
			c5.69-4.814,10.067-4.377,13.131,0.875c3.064,7.441,0.876,14.007-7.003,19.259c-5.253,3.501-10.067,5.69-14.007,6.565
			c21.01,1.751,31.077,7.879,31.077,17.946c-0.875,10.506-8.316,17.071-22.323,19.26c-7.003,0.875-14.006-0.875-20.134-4.377
			c0,0.438,0,1.313,0.438,2.625c0,1.314,0,2.627,0,3.064c0.875,4.814-0.875,8.316-4.377,10.068
			c-4.815,0.875-7.441-0.877-7.879-5.254c0.438-27.576,0.875-47.71,0.875-60.841C548.608,52.181,550.359,47.366,556.487,46.491z
			 M577.936,105.583c7.003-1.315,10.942-4.816,11.38-9.631c-0.438-4.814-4.377-8.316-11.818-10.504
			c-7.878-2.626-13.131-2.626-15.319-0.875c0,6.128,0,12.693,0,19.696C565.68,106.458,570.932,107.77,577.936,105.583z
			 M566.117,74.942c3.063-1.751,6.565-3.939,9.63-6.566c4.814-5.69,5.252-9.629,0.875-12.255c-2.626,0-5.69,0-9.63,0
			c-3.063,0-4.377,1.313-4.377,4.377c-0.438,3.939-0.438,7.878-0.438,12.256c-0.438,1.313,0,2.188,0.438,2.626
			S564.366,75.379,566.117,74.942z"/>
		<path fill="#FFFFFF" d="M555.612,133.157c-3.064,0-5.253-0.875-7.441-2.188c-1.751-1.314-3.939-3.502-4.377-7.879
			c-0.438,0.438-1.313,0.438-2.188,0.875c-5.252,1.75-10.505-0.875-13.131-2.627H517.97l-0.876,0.438
			c-2.188,1.314-8.754,6.129-15.319,3.502c-2.626-1.313-6.128-3.939-7.441-10.504v-1.314c0-1.313,0-3.938-0.438-7.439
			c0-2.627-0.438-5.253-0.438-8.755c-0.438-1.751-0.438-3.063-0.438-3.939c-0.876,0.438-1.751,0.438-2.627,0.876
			c-7.878,2.188-12.256-0.876-14.006-2.627l-0.876-0.875c-2.188-3.502-2.188-8.316,0.438-12.693l0.438-0.438
			c4.377-6.565,10.942-9.192,18.384-7.878h0.875l0.875,0.438c0.438,0.438,1.751,0,2.627,0c0-0.875-0.438-1.313-0.438-2.188
			c-1.75-0.438-3.501-0.875-5.252-2.188s-3.939-3.502-4.377-7.879v-1.313l0.438-1.313c0-0.438,0.438-1.313,0.438-1.751l0.438-0.875
			c2.627-6.128,8.316-9.192,15.32-7.878l1.313,0.438l1.313,0.438c0.438,0,1.313,0.438,1.751,0.438v-1.751
			c0.875-5.252,5.252-10.505,14.882-9.629h0.876c5.689,1.313,9.191,4.815,10.505,10.067c2.188,0,4.814,0.438,9.191,0.438h0.875
			c0,0,0,0,0-0.438c1.313-2.189,4.378-5.252,10.067-6.128h1.313l1.313,0.438c3.063,0.438,5.689,2.188,7.878,4.377h13.132
			c3.939-2.626,7.879-3.939,11.38-3.064c2.627,0.438,6.565,2.188,9.63,7.441l0.438,0.875c3.939,9.63,1.313,18.821-7.003,25.387
			c11.817,3.939,17.508,10.942,17.508,20.572v0.438c-0.438,7.879-5.252,21.448-28.013,25.387c-4.815,0.438-9.63,0.438-14.007-0.875
			c-0.438,5.252-3.502,9.191-8.316,11.818l-0.875,0.438h-0.876C557.801,133.157,556.487,133.157,555.612,133.157z M507.026,111.709
			v0.438C507.026,112.147,507.026,112.147,507.026,111.709C507.026,112.147,507.026,112.147,507.026,111.709z M536.353,110.834
			c0.438,0,0.876,0.438,0.876,0.438s0,0,0-0.438v-2.627C537.666,109.083,537.229,109.959,536.353,110.834z M594.13,90.262
			c0.876,1.75,1.313,3.939,1.751,5.689v0.438v0.438c-0.438,2.626-0.875,4.814-2.188,7.003c3.064-2.626,3.939-5.689,3.939-8.316
			C597.632,93.325,596.318,91.574,594.13,90.262z M517.094,101.642h8.316v-0.875h-8.316V101.642z M568.743,99.891
			c2.188,0.438,4.814,0,7.441-0.438h0.438c1.751-0.438,5.252-1.313,6.128-3.064c-0.876-2.188-4.814-3.501-7.003-4.377
			c-3.064-0.875-5.253-1.313-7.004-1.75V99.891z M537.229,93.325c0.438,1.313,0.875,2.188,1.313,3.502c0-1.751,0-3.063,0-4.377
			C538.104,92.45,537.666,92.888,537.229,93.325z M538.104,91.574L538.104,91.574L538.104,91.574z M543.794,68.376L543.794,68.376
			c0.438-0.438,0.438-1.313,0.438-1.75C544.231,67.5,543.794,67.938,543.794,68.376z M569.181,62.686c0,0.875,0,1.751,0,2.626
			c0.876-0.438,1.313-1.313,2.188-1.75c0.438-0.438,0.438-0.875,0.876-0.875H569.181z M585.376,56.121
			c0.438,0.875,0.876,2.188,0.876,3.063c0.438,1.751,0,3.502-0.438,4.815c3.502-3.501,3.502-6.128,2.188-9.192
			c0-0.438-0.438-0.438-0.438-0.438S586.689,54.807,585.376,56.121L585.376,56.121z M556.487,53.932c0,0.438,0,1.313,0,2.626
			c0.438-0.875,0.438-1.313,0.876-1.751C557.363,54.37,556.925,53.932,556.487,53.932z M522.347,53.057h0.875
			c-0.438-1.313-0.438-2.626-0.438-4.377l0,0l0,0c0,0,0,0-0.438,0v2.626C522.347,51.743,522.347,52.181,522.347,53.057z
			 M513.593,46.491L513.593,46.491L513.593,46.491z"/>
	</g>
</g>
<g>
	<path fill="#054A97" d="M195.38,103.393c0,45.522-36.767,82.29-82.288,82.29c-45.959,0.438-82.727-36.33-82.727-82.29
		c0-45.521,36.768-82.289,82.288-82.289C158.175,21.104,195.38,57.871,195.38,103.393"/>
	<polygon fill="#FFFFFF" points="138.479,62.686 110.903,88.948 83.327,62.686 40.87,105.583 76.762,141.036 76.762,170.799 
		101.711,170.799 101.711,132.282 75.887,106.458 74.136,104.705 82.452,97.265 110.903,125.715 110.903,125.715 110.903,125.715 
		110.903,125.715 110.903,125.715 139.354,97.265 147.232,105.583 145.481,106.458 120.095,132.282 120.095,170.799 
		145.044,170.799 145.044,141.036 180.936,105.583 	"/>
	<path fill="#FFFFFF" d="M111.778,69.689c10.505,0,18.821-8.316,18.821-18.822c0-10.505-8.316-18.821-18.821-18.821
		s-18.821,8.316-18.821,18.821C92.52,60.935,101.273,69.689,111.778,69.689"/>
</g>
<g>
	<path fill="#040000" d="M234.773,159.858l8.316-20.135h12.693v0.875h-0.875c-0.875,0-1.751,0-2.188,0.438
		c-0.438,0-0.875,0.438-0.875,0.875s-0.438,1.314-0.438,2.627v20.135c0,1.75,0,2.625,0.438,3.064c0,0.438,0.438,0.875,0.875,0.875
		c0.438,0.438,1.313,0.438,2.188,0.438h0.875v1.313h-16.194v-0.875h0.875c0.876,0,1.751,0,2.188-0.438
		c0.438,0,0.876-0.438,0.876-0.875s0.438-1.314,0.438-3.064v-22.762l-11.818,28.014h-0.438l-11.818-28.014v21.449
		c0,1.313,0,2.625,0,2.625c0,0.875,0.438,1.314,1.313,1.752c0.438,0.438,1.751,0.875,3.063,0.875v1.313h-10.505v-0.875h0.438
		c0.876,0,1.313,0,1.751-0.438s0.876-0.438,1.313-0.875s0.438-0.877,0.875-1.752c0,0,0-0.875,0-2.188v-19.26
		c0-1.75,0-2.627-0.438-3.064c0-0.438-0.438-0.875-0.875-0.875c-0.438-0.438-1.313-0.438-2.188-0.438h-0.876v-0.875h12.693
		L234.773,159.858z"/>
	<path fill="#040000" d="M266.289,149.352v16.633c0,1.313,0,2.627,0.438,3.064s0.875,0.438,2.188,0.875v0.438h-11.381v-0.875
		c0.876,0,1.751-0.438,2.188-0.875c0.438-0.438,0.438-1.314,0.438-2.627v-12.256c0-1.313,0-2.625-0.438-3.064
		c-0.438-0.438-0.875-0.438-2.188-0.875v-0.875h8.755V149.352z M263.225,138.409c0.875,0,1.751,0.439,2.626,0.877
		c0.876,0.875,0.876,1.313,0.876,2.625c0,0.877-0.438,1.752-0.876,2.627c-0.875,0.875-1.313,0.875-2.626,0.875
		c-0.875,0-1.751-0.438-2.626-0.875c-0.876-0.875-0.876-1.313-0.876-2.627c0-0.875,0.438-1.75,0.876-2.625
		C261.474,138.848,261.911,138.409,263.225,138.409z"/>
	<path fill="#040000" d="M279.42,149.352v2.627c0.875-1.314,2.188-2.189,3.063-2.627c0.876-0.438,2.188-0.875,3.064-0.875
		c1.313,0,2.626,0.438,3.502,1.313c0.875,0.875,1.313,1.752,1.75,3.064c0.438,0.875,0.438,2.627,0.438,4.814v8.316
		c0,1.752,0,2.627,0.438,3.064s0.875,0.438,1.751,0.875v0.438h-10.505v-0.875c0.875,0,1.313-0.438,1.75-0.875
		c0.438-0.438,0.438-1.314,0.438-2.627v-9.629c0-1.752,0-2.627,0-3.502c0-0.438-0.438-0.875-0.876-0.875
		c-0.438-0.438-0.875-0.438-0.875-0.438c-1.313,0-2.626,0.875-3.502,2.625v11.818c0,1.752,0,2.627,0.438,3.064
		s0.876,0.875,1.751,0.875v0.438h-10.942v-0.875c0.875,0,1.313-0.438,1.751-0.875c0.438-0.438,0.438-1.314,0.438-3.064v-11.818
		c0-1.75,0-2.625-0.438-3.064c-0.438-0.438-0.876-0.438-1.751-0.875v-0.875h8.316V149.352z"/>
	<path fill="#040000" d="M304.807,149.352v16.633c0,1.313,0,2.627,0.438,3.064c0.438,0.438,0.876,0.438,2.188,0.875v0.438h-11.38
		v-0.875c0.875,0,1.751-0.438,2.188-0.875s0.438-1.314,0.438-2.627v-12.256c0-1.313,0-2.625-0.438-3.064
		c-0.438-0.438-0.875-0.438-2.188-0.875v-0.875h8.754V149.352z M301.743,138.409c0.875,0,1.75,0.439,2.626,0.877
		c0.875,0.875,0.875,1.313,0.875,2.625c0,0.877-0.438,1.752-0.875,2.627c-0.876,0.875-1.313,0.875-2.626,0.875
		c-0.876,0-1.751-0.438-2.627-0.875c-0.875-0.875-0.875-1.313-0.875-2.627c0-0.875,0.438-1.75,0.875-2.625
		C299.992,138.848,300.867,138.409,301.743,138.409z"/>
	<path fill="#040000" d="M322.753,148.04l0.438,7.441h-0.876c-0.875-2.189-1.751-3.502-3.063-4.377
		c-0.876-0.877-2.188-1.314-3.063-1.314c-0.438,0-1.313,0-1.751,0.438s-0.876,0.877-0.876,1.314s0,0.875,0.438,1.313
		c0.438,0.438,1.75,1.75,3.938,3.064c2.188,1.313,3.502,2.625,4.377,3.939c0.876,0.875,0.876,2.188,0.876,3.502
		c0,1.313-0.438,2.188-0.876,3.5c-0.438,1.314-1.313,2.189-2.626,2.627c-0.875,0.438-2.188,0.875-3.501,0.875
		c-0.876,0-2.188-0.438-3.939-0.875c-0.438,0-0.876-0.438-0.876-0.438c-0.438,0-0.875,0.438-1.313,1.313h0.438l-0.438-7.441h0.875
		c0.875,2.189,1.751,3.502,2.626,4.377c1.313,0.877,2.188,1.314,3.502,1.314c0.875,0,1.313-0.438,1.751-0.875
		c0.438-0.439,0.875-0.877,0.875-1.752s-0.438-1.313-0.875-1.75c-0.438-0.438-1.313-1.314-3.064-2.189
		c-2.188-1.75-3.938-2.625-4.377-3.502c-0.875-1.313-1.313-2.625-1.313-3.939c0-1.75,0.438-3.063,1.751-4.377
		c1.313-1.313,2.626-2.188,4.814-2.188c1.313,0,2.188,0.438,3.501,0.875c0.438,0.438,0.876,0.438,0.876,0.438
		c0.438,0,0.438,0,0.438,0s0.438-0.438,0.875-0.875L322.753,148.04L322.753,148.04z"/>
	<path fill="#040000" d="M335.884,141.036v7.879h5.252v2.189h-5.252v13.131c0,1.313,0,2.188,0,2.188
		c0,0.438,0.438,0.438,0.438,0.875c0.438,0.439,0.438,0.439,0.875,0.439c0.876,0,1.751-0.877,2.627-2.189l0.875,0.438
		c-1.313,3.064-3.063,4.377-6.128,4.377c-1.313,0-2.626-0.438-3.502-1.313c-0.875-0.875-1.313-1.752-1.75-2.627
		c0-0.438-0.438-1.75-0.438-4.377v-11.381h-2.626v-0.875c1.751-1.313,3.502-2.625,4.815-4.377c1.313-1.313,2.626-3.064,3.501-4.814
		h1.313V141.036L335.884,141.036z"/>
	<path fill="#040000" d="M352.079,149.352v4.814c1.313-2.188,2.626-3.502,3.501-4.377c0.876-0.875,2.188-0.875,3.064-0.875
		c0.875,0,1.313,0.438,2.188,0.875c0.438,0.438,0.875,1.314,0.875,2.189s-0.438,1.75-0.875,2.188s-0.875,0.875-1.751,0.875
		c-0.875,0-1.313-0.438-2.188-0.875c-0.438-0.438-0.875-0.875-0.875-0.875h-0.438c-0.438,0-0.875,0-1.313,0.438
		s-0.876,1.313-1.313,2.189c-0.438,1.313-0.875,3.063-0.875,4.814v4.814v1.313c0,0.877,0,1.314,0,1.752s0.438,0.875,0.875,0.875
		s0.875,0.438,1.751,0.438v0.438h-11.381v-0.875c0.876,0,1.751-0.438,1.751-0.875c0.438-0.438,0.438-1.752,0.438-3.502v-11.818
		c0-1.313,0-2.188,0-2.188c0-0.439-0.438-0.877-0.438-0.877c-0.438,0-0.875-0.438-1.313-0.438v-0.875h8.316V149.352z"/>
	<path fill="#040000" d="M373.526,170.799l-7.003-15.758c-0.876-2.188-1.751-3.938-2.188-4.377
		c-0.438-0.438-0.876-0.875-1.751-1.313v-0.875h11.38v0.875c-0.875,0-1.313,0-1.751,0.438c-0.438,0.438-0.438,0.875-0.438,1.314
		c0,0.438,0.438,1.75,1.313,3.5l3.502,8.316l2.626-6.564c0.875-2.189,1.313-3.939,1.313-4.814c0-0.438,0-0.877-0.438-1.314
		s-0.875-0.438-1.751-0.438v-0.875h6.566v0.875c-0.876,0-1.313,0.438-1.751,0.875c-0.438,0.439-1.313,2.189-2.188,4.816
		l-6.128,15.756c-1.313,3.939-2.627,6.129-3.502,7.441c-0.875,1.314-2.188,1.752-3.939,1.752c-1.313,0-2.188-0.438-3.063-0.877
		c-0.876-0.875-1.313-1.75-1.313-2.625s0.438-1.752,0.875-2.189c0.438-0.438,1.313-0.875,2.188-0.875
		c0.876,0,1.313,0.438,1.751,0.875s0.876,1.314,0.876,2.189c0,0.438,0,0.875,0,1.313l0.438,0.438c0.438,0,0.875,0,1.313-0.875
		c0.438-0.438,1.313-2.189,2.188-4.377L373.526,170.799z"/>
	<path fill="#040000" d="M447.061,151.542v14.443c0,1.313,0,2.189,0.438,2.627c0.438,0.438,1.313,0.875,2.626,0.875v0.875h-12.693
		v-0.875c0.875,0,1.751,0,2.188-0.438c0.438,0,0.875-0.438,0.875-0.875s0.438-1.314,0.438-2.189v-14.881h-3.063v-2.189h3.063v-1.75
		v-0.877c0-2.188,0.876-3.939,2.189-5.252c1.75-1.313,3.938-2.188,6.565-2.188c1.751,0,3.063,0.438,3.939,0.875
		c0.875,0.875,1.313,1.313,1.313,2.188c0,0.877-0.438,1.314-0.875,1.752s-1.313,0.875-2.188,0.875c-0.876,0-1.313,0-1.751-0.438
		s-0.875-0.875-0.875-1.313c0,0,0-0.439,0-0.877s0-0.438,0-0.875s0-0.438-0.438-0.875c-0.438-0.438-0.438-0.438-0.875-0.438
		s-0.875,0-1.313,0.438c-0.438,0.438-0.438,0.875-0.438,1.75v3.939v2.627h4.377v2.188h-3.502V151.542z"/>
	<path fill="#040000" d="M504.4,159.858l-1.313,10.504h-27.138v-0.875h0.876c0.875,0,1.751,0,2.188-0.438
		c0.438,0,0.875-0.438,0.875-0.875s0.438-1.314,0.438-3.064v-20.135c0-1.75,0-2.627-0.438-3.064c0-0.438-0.438-0.875-0.875-0.875
		c-0.438-0.438-1.313-0.438-2.188-0.438h-0.876v-0.875h16.195v0.875h-1.313c-0.876,0-1.751,0-2.189,0.438
		c-0.438,0-0.875,0.438-0.875,0.875s-0.438,1.314-0.438,3.064v19.697c0,1.75,0,2.625,0.438,3.064c0,0.438,0.438,0.875,0.875,0.875
		c0.438,0,1.313,0,2.627,0h2.626c1.751,0,3.063-0.438,3.939-0.875c0.875-0.439,2.188-1.314,2.626-2.627
		c0.876-1.313,1.751-3.064,2.188-5.689L504.4,159.858L504.4,159.858z"/>
	<path fill="#040000" d="M519.282,166.86c-2.626,2.189-4.814,3.502-7.003,3.502c-1.313,0-2.188-0.438-3.064-1.313
		c-0.875-0.875-1.313-1.752-1.313-3.064c0-1.75,0.875-3.064,2.188-4.377c1.313-1.313,4.377-3.064,9.191-5.252v-2.189
		c0-1.75,0-2.625-0.438-3.063c0-0.439-0.438-0.877-0.875-0.877c-0.438-0.438-0.876-0.438-1.751-0.438c-0.876,0-1.751,0-2.626,0.438
		c-0.438,0.438-0.438,0.438-0.438,0.877c0,0.438,0,0.875,0.438,1.313c0.438,0.438,0.875,1.313,0.875,1.75
		c0,0.875-0.438,1.314-0.875,1.752c-0.438,0.438-1.313,0.875-2.189,0.875c-0.875,0-1.75-0.438-2.188-0.875
		c-0.438-0.438-0.875-1.314-0.875-2.189s0.438-2.188,1.313-3.064c0.875-0.875,2.188-1.75,3.501-2.188
		c1.751-0.438,3.064-0.875,4.815-0.875c2.188,0,3.501,0.438,4.814,1.313s1.751,1.75,2.188,2.627c0,0.438,0.438,2.188,0.438,4.377
		v8.316c0,0.875,0,1.75,0,1.75c0,0.438,0,0.438,0.438,0.438h0.438c0.438,0,0.875-0.438,1.313-0.875l0.876,0.438
		c-0.876,1.313-1.751,1.752-2.188,2.627c-0.876,0.438-1.751,0.875-2.627,0.875c-1.313,0-2.188-0.438-2.626-0.875
		C519.72,169.049,519.282,168.612,519.282,166.86z M519.282,165.547v-7.004c-1.751,0.877-3.063,2.189-3.939,3.502
		c-0.438,0.875-0.875,1.752-0.875,2.627s0.438,1.313,0.875,1.75c0.438,0.438,0.876,0.438,1.751,0.438
		C517.531,166.422,518.407,165.985,519.282,165.547z"/>
	<path fill="#040000" d="M538.979,139.286v11.818c1.751-1.752,3.939-2.627,5.69-2.627c1.313,0,2.626,0.438,3.938,1.313
		c1.313,0.875,2.189,2.189,3.064,3.502c0.875,1.75,0.875,3.502,0.875,5.252c0,2.189-0.438,4.377-1.313,6.129
		c-0.876,1.75-2.188,3.502-3.502,4.377c-1.751,0.875-3.502,1.313-5.253,1.313c-1.313,0-2.188,0-3.063-0.438s-1.751-0.875-2.626-1.75
		l-3.502,2.188h-0.875v-26.699c0-1.314,0-2.189,0-2.189c0-0.438-0.438-0.875-0.876-0.875s-0.875-0.438-1.751-0.438v-0.875H538.979z
		 M538.979,152.854v9.629c0,1.752,0,3.064,0,3.502c0,0.875,0.438,1.752,0.875,2.189s1.313,0.875,2.188,0.875
		c0.876,0,1.313,0,2.188-0.875c0.438-0.438,0.876-1.314,1.313-2.627s0.438-3.502,0.438-7.004c0-3.063-0.438-5.689-1.313-6.564
		c-0.438-0.875-1.313-1.314-2.188-1.314C541.605,151.104,540.292,151.542,538.979,152.854z"/>
	<path fill="#040000" d="M566.555,148.04c1.751,0,3.502,0.438,5.253,1.313c1.75,0.875,2.626,2.189,3.501,3.939
		c0.876,1.75,1.313,3.502,1.313,5.689c0,3.064-0.875,5.691-2.188,7.441c-1.751,2.627-4.377,3.502-7.441,3.502
		c-3.063,0-5.689-1.313-7.44-3.502c-1.751-2.188-2.627-4.814-2.627-7.879c0-3.063,0.876-5.689,2.627-7.879
		C561.303,149.352,563.491,148.04,566.555,148.04z M566.555,149.79c-0.875,0-1.313,0.438-2.188,0.875
		c-0.438,0.439-0.875,1.752-0.875,3.502c0,1.752-0.438,3.939-0.438,7.004c0,1.75,0,3.064,0.438,4.377
		c0,0.875,0.438,1.75,0.875,2.627c0.438,0.438,1.313,0.875,1.751,0.875c0.875,0,1.313,0,1.751-0.438s0.875-1.314,1.313-2.189
		c0.438-1.313,0.438-4.377,0.438-8.754c0-2.627,0-4.377-0.438-5.252c-0.438-0.875-0.875-1.752-1.313-2.189
		C567.868,149.79,567.431,149.79,566.555,149.79z"/>
	<path fill="#040000" d="M588.44,149.352v4.814c1.313-2.188,2.626-3.502,3.501-4.377c0.876-0.875,2.188-0.875,3.064-0.875
		c0.875,0,1.313,0.438,2.188,0.875c0.438,0.438,0.875,1.314,0.875,2.189s-0.438,1.75-0.875,2.188s-0.876,0.875-1.751,0.875
		s-1.313-0.438-2.188-0.875c-0.438-0.438-0.875-0.875-0.875-0.875h-0.438c-0.438,0-0.875,0-1.313,0.438
		c-0.438,0.438-0.876,1.313-1.313,2.189c-0.438,1.313-0.875,3.063-0.875,4.814v4.814v1.313c0,0.877,0,1.314,0,1.752
		s0.438,0.875,0.875,0.875s0.875,0.438,1.751,0.438v0.438h-11.381v-0.875c0.876,0,1.751-0.438,1.751-0.875
		c0.438-0.438,0.438-1.752,0.438-3.502v-11.818c0-1.313,0-2.188,0-2.188c0-0.439-0.438-0.877-0.875-0.877s-0.875-0.438-1.313-0.438
		v-0.875h8.755V149.352z"/>
	<path fill="#040000" d="M424.738,147.602c1.751,0,3.501,0.438,5.252,1.313s2.626,2.189,3.502,3.939
		c0.875,1.75,1.313,3.502,1.313,5.689c0,3.064-0.876,5.691-2.188,7.441c-1.751,2.627-4.378,3.502-7.441,3.502
		c-3.064,0-5.69-1.313-7.441-3.502c-1.75-2.188-2.626-4.814-2.626-7.879s0.876-5.689,2.626-7.879
		C419.048,148.477,421.674,147.602,424.738,147.602z M424.738,149.352c-0.876,0-1.313,0.438-2.188,0.875
		c-0.438,0.438-0.876,1.752-0.876,3.502c0,1.752-0.438,3.939-0.438,7.004c0,1.75,0,3.064,0.438,4.377
		c0,0.875,0.438,1.75,0.876,2.627c0.438,0.438,1.313,0.875,1.75,0.875c0.876,0,1.313,0,1.751-0.438
		c0.438-0.438,0.876-1.314,1.313-2.189c0.438-1.313,0.438-4.377,0.438-8.754c0-2.627,0-4.377-0.438-5.252s-0.875-1.752-1.313-2.189
		C426.051,149.352,425.613,149.352,424.738,149.352z"/>
</g>
<g>
	<path fill="#040000" d="M261.474,78.006c-9.629,0-18.821,0.875-27.575,2.626c-2.626,0-3.939,1.313-3.939,4.377
		c0,3.939-0.875,7.441-2.188,10.067c-0.875,2.188-1.751,3.064-3.063,2.188c-1.751-0.876-3.064-2.626-3.064-5.253
		c-0.875-6.127-1.313-11.817-0.438-17.07c0-0.438,0-0.875,0.438-0.875c0.438-0.438,0.438-0.875,0.438-0.875
		c-6.128,0.875-10.067,0-12.256-2.626c-1.751-3.939-1.313-5.69,0.876-5.69c3.063,0.438,6.565,0.438,10.505,0
		c14.007-2.626,21.01-8.316,20.135-17.508c-0.876-5.69,0.875-8.316,5.252-8.316c4.814,0,6.565,2.626,5.69,7.879
		c0,0.875-0.438,1.75-0.876,3.939c-1.313,4.815-1.313,7.441,0,7.879c1.313,0.875,3.502,1.313,6.566,2.188
		c3.501,0.875,6.127,1.751,7.878,2.626h0.876c0.875-0.875,2.626-1.751,5.252-1.751c6.565-0.438,10.943-3.939,13.132-11.38
		c0.875-3.501,1.313-7.003,0.438-10.067c-0.438-2.188,1.313-3.064,5.252-3.064c4.377,0.438,6.128,2.626,5.253,7.003
		c-0.438,3.502-0.438,5.69-0.438,7.003c0,0.875,0,1.751,0.438,1.751c3.502,2.188,9.191,4.377,17.07,6.565
		c3.939,1.313,9.191,2.626,16.195,3.939c1.751,0.438,1.313,1.75-0.876,4.814c-1.313,1.751-3.939,3.939-7.879,5.69
		c-0.438,0-0.438,0-0.875,0c0,0.875,0,1.75-0.438,2.626v0.438c0,3.939,0,6.565-0.438,7.878c-0.438,5.253-1.313,8.755-3.064,10.505
		c-2.188,2.189-3.938,1.313-5.689-2.188c0-0.875,0-1.751,0-3.063c0.438-1.751,0.438-3.064,0-4.377c0-0.438,0-0.875,0-0.875
		c-0.438-2.626-1.313-3.939-3.064-4.814c-0.875-0.875-4.814-1.313-11.38-2.188c-12.256-0.875-19.26-0.875-21.886,0
		c0.876,1.75,1.313,3.939,0.438,5.69c0,0.875,0,1.313,0,1.751c1.313,0.438,3.939,0.438,7.441,0.438
		c2.626,0.438,4.377,0.438,5.253,0.438c1.313,0.875,2.626,0.875,3.938,0.438c0.876,0,1.751,0,3.064-0.438
		c1.313-0.438,2.626-0.438,3.063-0.438c4.377,0.438,6.566,2.188,7.004,5.69c0,0.876-0.438,2.627-0.876,4.814
		c-0.875,1.314-0.875,2.627-0.875,3.064c-3.064,14.883-10.067,21.885-21.01,21.448c-7.441-0.875-13.132-2.625-16.633-6.564
		c-3.064-4.377-3.064-6.566,0-6.566c0.875,0,2.626,0.438,4.377,0.875c8.754,2.627,14.882,1.752,17.508-2.625l0.438-0.438
		c2.188-3.502,3.063-6.567,3.063-9.194c0-1.313-1.313-2.625-3.939-3.938c-3.063-0.876-7.44-0.876-12.693-0.876
		c-1.313-0.438-2.626,0.438-3.939,2.189l-0.875,1.75c-0.438,0.875-0.876,1.751-0.876,2.627
		c-9.191,14.444-23.636,22.323-43.333,23.635c-7.003,0.877-11.38-1.75-12.693-7.002c-0.875-2.189-0.438-3.064,0.876-3.064
		c3.063,0.438,7.44,0,13.131-0.438c-4.377,0.875-3.939,0.875,0.438,0c14.007-0.875,24.512-6.567,31.515-16.196
		c0.438-0.875,0.438-1.751,0.438-2.188c-0.438-0.438-0.876-0.438-2.188-0.438c-1.751,0-4.815,0.438-8.316,1.752
		c-3.502,0.875-6.566,1.313-8.755,1.75c-3.063-0.438-3.501-2.188-2.188-5.689c2.188-2.627,4.377-4.377,7.004-4.377
		c0.438,0,0.875,0,1.75,0.438c1.751,0.438,3.064,0.438,3.939,0c1.313-0.438,3.502-0.438,5.69,0c2.188,0,3.939,0,4.814,0
		c1.313-0.438,2.188-1.751,2.188-4.815c0-0.875,0.438-1.751,0.876-2.626l0.438-0.875C262.35,78.006,261.911,78.006,261.474,78.006z
		 M234.336,56.558c-2.188-0.875-4.377-1.751-7.003-2.626c-3.064-1.313-4.377-3.501-4.377-5.69c0.875-3.939,2.626-5.69,5.689-5.69
		c2.627,0,4.815,2.626,5.253,7.441c0,0.438,0,0.875,0.438,0.875c1.313,0.875,1.751,1.751,2.188,2.626
		C237.4,55.245,236.524,56.121,234.336,56.558z M229.084,72.315c2.188,0.875,3.501,1.751,4.377,1.751
		c9.629-1.313,19.259-2.188,29.326-2.188c1.751,0,4.377,0,7.879,0c14.444-0.438,25.387,0,33.266,0.875
		c2.626,0.875,4.814,0.438,6.565-0.875c-4.377-4.815-9.192-8.754-14.444-11.818l-0.438-0.438c-1.313-0.875-2.627-0.875-3.064,0
		c0,0.438,0,0.875-0.438,0.875c-2.626,3.939-4.814,6.565-7.441,7.441c-6.565,3.064-12.255,3.064-16.194-0.438
		c-1.313,2.189-3.064,3.064-5.253,2.626c-3.063,0-7.441-1.751-13.131-5.252c-2.188-2.626-4.815-1.751-8.754,1.751
		c-1.313,0.875-4.815,2.626-9.63,4.814C235.212,69.251,234.773,69.689,229.084,72.315z M257.534,46.929
		c1.313-2.626,3.939-3.939,7.004-2.626c2.626,1.751,3.063,3.939,0.875,6.565c-3.063,3.502-6.565,5.253-9.63,5.69
		c-1.75-0.438-2.188-1.313-1.313-2.626c0.875-1.313,1.751-3.501,2.626-5.69C257.097,48.679,257.534,48.242,257.534,46.929z
		 M276.355,55.683c-3.063-0.875-5.252-2.188-7.003-4.815c-0.875-4.377,0.438-6.565,4.377-7.003
		c3.939,0.875,6.565,4.814,7.441,11.818C281.171,56.558,279.42,56.558,276.355,55.683z M299.992,50.868
		c0.438-0.438,0.875-0.875,2.188-2.188c0.875-0.438,1.751-1.75,2.626-4.814c1.313-2.188,3.064-3.064,5.253-3.064
		c4.377,0.875,5.252,3.501,3.063,7.441c-3.939,3.501-7.44,5.252-11.38,4.815c-0.876,0-1.751,0-2.627-0.438
		C299.116,52.181,299.116,51.306,299.992,50.868z"/>
	<path fill="#040000" d="M428.239,52.181c0.876-4.377,0.876-8.316,0.438-11.818c2.626-3.939,6.565-2.626,11.817,3.064
		c1.313,2.626,0.876,7.003-0.875,13.131c0.875,0.438,4.814,0.438,11.818,0.438c6.565-0.875,9.629,0.438,10.066,3.939
		c0.876,2.188,0.876,5.69-0.875,10.505c-0.438,2.188-0.875,6.566-2.188,12.694c-0.875,6.565-1.751,10.942-2.626,13.131
		c-3.064,14.007-9.63,21.449-19.697,21.886c-7.44,0-12.693-3.502-16.195-10.506c-4.814,7.441-10.505,11.381-17.07,11.818
		c-6.128,0.438-9.629-0.875-10.505-3.064c-0.875-0.875-1.751-1.75-1.751-2.188c0.438-0.875,0.876-1.313,2.188-1.752
		c4.815-2.188,9.192-5.252,13.132-9.192c-0.876,0-0.876,0-0.876,0.438c-27.575,4.817-45.959,8.754-55.15,12.694
		c-2.627,1.314-4.377,1.314-5.253-0.438c-0.875-1.75-0.875-3.939,0.876-6.564c3.501-4.814,6.128-6.567,7.878-5.692
		c1.313,0,3.502,0,5.69-0.438c1.751-0.438,4.377-0.875,7.879-0.875c3.063-0.875,5.69-0.875,7.003-0.875
		c0.438-0.876,0.438-2.189,0.438-3.064c0-1.75-0.438-2.626-1.75-2.626c-6.566,0-11.818,0.876-16.633,2.188
		c-2.189,0-2.627-1.313-1.751-3.939c2.626-3.064,4.814-4.814,7.44-4.377c3.064,0.438,6.565,0.438,10.067,0.438
		c1.313,0,2.188-0.875,2.188-2.626c0-0.876-0.875-1.751-2.188-1.751c-3.939,0-7.003,0.438-9.191,0.875
		c-4.815,0.876-7.004-0.875-7.441-4.814c-0.438-2.626-0.875-6.565-0.875-11.818c0-4.815,2.188-6.565,6.565-6.565
		c3.502,0.438,7.44,0.438,11.818,0c2.188-1.313,2.188-2.626,0-4.377c-6.128-0.438-10.943,0-14.444,1.751
		c-8.316,1.751-11.818,1.313-11.381-0.875c0.876-3.501,3.939-5.69,9.63-5.69h15.319c0.876,0,1.751-0.438,2.188-1.751
		c-0.438-0.875-0.875-1.751-2.188-1.751c-8.754,0-14.444-0.438-17.07-1.75c-1.313-1.313,0-2.188,3.939-2.188
		c12.256,0.875,24.073-2.626,35.017-9.63c3.501-2.626,6.565-2.188,9.629,0.875c2.188,1.751,3.064,3.501,3.064,4.815
		c-0.438,0.875-1.751,1.75-4.377,2.626c-0.876,0-1.751,0.438-3.064,0.875c-5.252,3.064-9.191,3.939-10.942,4.377
		c-0.875,0-1.751,0.875-2.188,2.188c0,1.313,0.438,2.189,1.751,2.189c8.316,0,14.006,0,17.945,0c2.188,0,3.502,0.875,3.939,2.626
		c0,1.751-0.875,2.626-3.063,2.626h-17.946c-2.188,1.313-2.188,3.064,0,4.377c5.253,0.438,8.754,0.438,10.505,0
		c6.128-1.751,9.192,0.438,9.192,7.003c0,2.188-0.438,4.377-0.876,6.565c0,1.313,0,2.626-0.438,3.064
		c-0.875,5.252-3.939,7.004-9.191,5.252c-0.438,0-0.876,0-2.188,0c-2.627-0.438-4.815-0.438-6.566-0.438
		c-1.313,0-2.188,0.875-2.188,2.189c0,0.875,0.876,1.75,2.188,1.75h16.633c1.313,0,2.188,0.875,2.627,2.627
		c0,0.875-0.876,1.75-2.627,1.75c-0.438,0-2.626,0-7.003,0.438c-5.69,0.438-8.754,0.438-9.63,0.438
		c-0.875,0.438-1.75,1.752-2.188,3.939v1.752c2.188-0.438,5.253-0.876,9.63-0.876c3.939-0.438,7.003-0.438,9.191-0.438
		c2.627-0.438,3.939,0,4.378,1.751c7.003-8.316,12.693-19.697,16.633-33.704c0.875-2.626-0.438-4.377-3.064-4.377
		c-0.438,0-0.875,0-0.875,0c-2.627,0.438-4.815,0.875-6.565,1.75c-2.627,0.438-4.378,0-5.253-0.438
		c-0.875-0.875-0.875-2.626,0-4.377c3.063-4.815,6.565-7.003,10.067-5.69c1.751,0.438,3.501,0.875,4.377,0.438
		C426.927,56.558,428.239,55.245,428.239,52.181z M368.273,74.942c2.189,0,3.939,0,5.69,0c0.876,0,1.751-0.875,1.751-2.188
		c0-1.313-0.875-2.189-2.188-2.189c-2.188,0-3.939,0-4.814,0c-1.313,0-2.188,0.875-2.188,2.189
		C366.523,74.066,366.961,74.942,368.273,74.942z M368.273,83.258c0.876-0.438,2.627-0.438,4.815,0c0.875,0,1.313,0,1.751,0
		c0.875,0,0.875-0.875,0.875-2.188c0-1.313-0.438-2.188-1.751-2.188h-5.69c-0.875-0.438-1.75,0.438-1.75,2.626
		C366.523,82.82,366.961,83.258,368.273,83.258z M386.657,74.942h7.004c1.313,0,2.188-0.875,2.188-2.188
		c0.438-1.313-0.438-2.189-2.626-2.189h-6.566c-0.875,0-1.75,0.438-1.75,1.751C385.345,74.066,385.782,74.942,386.657,74.942z
		 M387.971,78.881c-1.313,0-2.188,0.875-2.188,2.188c0,1.313,0.875,2.188,2.188,2.188c2.188-0.438,3.939-0.438,5.69-0.438
		c1.313,0,2.188-0.438,2.188-1.75c0-1.313-0.438-2.188-1.751-2.188C391.91,78.881,389.722,78.881,387.971,78.881z M435.681,68.814
		c-4.377,16.195-9.191,28.889-14.444,38.081h0.438c7.004,2.627,12.693,2.188,17.07-0.875c4.815-6.129,7.879-17.948,8.755-35.018
		c0.438-3.502-1.751-5.69-7.004-5.69C438.307,64.437,436.556,65.75,435.681,68.814z"/>
	<path fill="#040000" d="M503.963,51.306c2.188,0.875,3.939,1.751,5.69,1.751c0.875,0,2.188,0,3.939,0
		c1.313,0,2.188-0.875,2.188-2.189c0-1.75,0-3.501,0-5.252c0.438-3.064,3.063-4.377,7.878-3.939c3.939,0.875,5.69,3.501,5.69,7.003
		c-0.438,2.626,0.438,3.502,2.626,3.064c0.438,0,4.378,0.438,12.256,0.875c1.751,0.438,2.627,1.313,2.188,3.064
		c-0.438,2.188-1.313,3.064-3.063,3.064c-2.188,0-4.377,0-6.565,0c1.751,4.815,1.313,8.316-0.876,10.067
		c-0.438,0.438-0.875,0.875-1.75,2.188c-1.313,1.751-2.189,3.064-2.627,3.939c5.69,0,10.505,0,14.882,0
		c3.064,1.75,2.627,3.939-0.875,6.565c-14.882,0-25.824,0.438-33.266,0.875c-7.441,0.875-15.319,2.188-24.074,4.814
		c-3.501,0.875-6.128,0.438-7.44-0.875c-0.876-1.313-0.876-3.502,0.438-5.69c3.064-4.377,7.003-6.128,11.818-5.252
		c1.751,0.875,3.501,0.875,4.814,0.875c3.502,0,7.441-0.438,12.256-0.875c-6.128-5.69-7.003-10.505-3.064-14.882
		c-0.438,0-1.75,0-3.938,0.438c-4.815,0.875-7.441,0-7.879-3.939C496.521,52.181,499.586,50.43,503.963,51.306z M500.461,113.022
		c0-2.625-0.438-8.317-0.875-17.071c-0.438-1.75-0.438-3.063-0.438-3.939c0.875-5.252,4.377-7.003,10.505-5.252
		c0.438,0,0.875,0,0.875,0.438c0.875,0.438,1.751,0.438,2.626,0.438c2.627,0,6.566,0,11.818,0.438
		c1.751,0.438,3.063,0.438,4.377,0.438s2.626-0.438,3.939-0.876c6.128-3.939,10.067-2.626,11.818,3.064
		c0,4.814-0.438,12.256-0.876,21.448c-2.626,6.566-7.003,7.004-14.006,2.189c-5.253,0-9.63,0-13.132,0
		c-1.313-0.438-2.626,0-3.939,1.75C506.151,120.901,501.774,120.463,500.461,113.022z M527.599,108.208
		c2.627,0,4.377-1.313,4.377-4.377v-5.252c0-2.627-1.313-4.377-4.377-4.377c-3.063,0-7.44,0-12.693,0
		c-3.063,0-4.377,1.313-4.377,4.377c0,1.313,0,3.063,0,5.252c0,3.065,1.751,4.377,5.253,4.377
		C519.72,108.208,523.659,108.208,527.599,108.208z M511.842,59.184c2.188,1.313,3.501,3.502,3.939,5.69
		c0.875,7.441,3.063,10.942,5.689,10.067c2.188,0.438,3.502-0.875,4.377-3.064c2.627-5.252,3.939-9.63,3.064-12.694
		C528.912,59.622,511.842,59.622,511.842,59.184z M556.487,46.491c2.188,0.438,4.377,1.751,6.565,4.377c6.566,0,12.694,0,17.946,0
		c5.69-4.814,10.067-4.377,13.131,0.875c3.064,7.441,0.876,14.007-7.003,19.259c-5.253,3.501-10.067,5.69-14.007,6.565
		c21.01,1.751,31.077,7.879,31.077,17.946c-0.875,10.506-8.316,17.071-22.323,19.26c-7.003,0.875-14.006-0.875-20.134-4.377
		c0,0.438,0,1.313,0.438,2.625c0,1.314,0,2.627,0,3.064c0.875,4.814-0.875,8.316-4.377,10.068c-4.815,0.875-7.441-0.877-7.879-5.254
		c0.438-27.576,0.875-47.71,0.875-60.841C548.608,52.181,550.359,47.366,556.487,46.491z M577.936,105.583
		c7.003-1.315,10.942-4.816,11.38-9.631c-0.438-4.814-4.377-8.316-11.818-10.504c-7.878-2.626-13.131-2.626-15.319-0.875
		c0,6.128,0,12.693,0,19.696C565.68,106.458,570.932,107.77,577.936,105.583z M566.117,74.942c3.063-1.751,6.565-3.939,9.63-6.566
		c4.814-5.69,5.252-9.629,0.875-12.255c-2.626,0-5.69,0-9.63,0c-3.063,0-4.377,1.313-4.377,4.377
		c-0.438,3.939-0.438,7.878-0.438,12.256c-0.438,1.313,0,2.188,0.438,2.626S564.366,75.379,566.117,74.942z"/>
</g>
</svg>
