<?xml version="1.0" encoding="utf-8"?>
<!-- Generator: Adobe Illustrator 16.0.0, SVG Export Plug-In . SVG Version: 6.00 Build 0)  -->
<!DOCTYPE svg PUBLIC "-//W3C//DTD SVG 1.1//EN" "http://www.w3.org/Graphics/SVG/1.1/DTD/svg11.dtd">
<svg version="1.1" id="圖層_1" xmlns="http://www.w3.org/2000/svg" xmlns:xlink="http://www.w3.org/1999/xlink" x="0px" y="0px"
	 width="250px" height="60px" viewBox="-23.5 -7.5 250 60" enable-background="new -23.5 -7.5 250 60" xml:space="preserve">
<g>
	<g>
		<path fill="#413D3C" d="M76.381,41.783c-0.039-0.242-0.108-0.515-0.215-0.82l0.746-0.098c0.292-0.328,0.609-0.729,0.952-1.207
			c-0.579-0.541-1.156-0.976-1.739-1.304c0.134-0.248,0.266-0.493,0.395-0.736c0.055,0.015,0.219,0.109,0.479,0.287
			c0.286-0.547,0.547-1.152,0.793-1.814c0.263,0.126,0.513,0.258,0.757,0.384c-0.188,0.485-0.492,1.122-0.919,1.914
			c0.197,0.155,0.42,0.339,0.662,0.554c0.291-0.547,0.514-1.081,0.661-1.601l0.81,0.233c-0.196,0.835-0.797,1.879-1.803,3.142
			l1.324-0.182c-0.122-0.364-0.206-0.603-0.256-0.717l0.77-0.211c0.285,0.745,0.493,1.45,0.63,2.113l-0.78,0.157
			c-0.038-0.162-0.074-0.333-0.12-0.513l-0.757,0.109v4.774h-0.844v-4.667L76.381,41.783z M77.449,42.521
			c-0.024,0.889-0.184,1.945-0.482,3.162l-0.79-0.138c0.292-1.284,0.448-2.323,0.469-3.119L77.449,42.521z M80.271,44.71
			l-0.793,0.106l-0.333-2.264l0.781-0.17L80.271,44.71z M82.032,37.99c-0.322,0.626-0.634,1.142-0.934,1.552
			c-0.031,0.021-0.037,0.065-0.009,0.126c0.256,0.258,0.605,0.772,1.057,1.54l-0.714,0.471c-0.329-0.685-0.651-1.253-0.98-1.7
			c-0.214-0.279-0.279-0.459-0.196-0.544c0.421-0.521,0.761-1.134,1.022-1.838L82.032,37.99z M82.842,42.874h-2.159v-0.843h5.438
			v0.843h-2.349v2.231h2.561v0.846h-6.033v-0.846h2.543V42.874z M86.25,36.475v0.845h-5.906v-0.845H86.25z M84.082,38.005
			c-0.307,0.597-0.633,1.113-0.972,1.547c-0.029,0.012-0.029,0.046,0,0.095c0.298,0.301,0.662,0.804,1.09,1.508l-0.694,0.49
			c-0.358-0.729-0.718-1.294-1.08-1.707c-0.201-0.236-0.253-0.406-0.162-0.517c0.401-0.451,0.762-1.065,1.08-1.834L84.082,38.005z
			 M86.047,37.958c-0.286,0.666-0.571,1.2-0.854,1.605c-0.037,0.034-0.033,0.077,0.01,0.128c0.241,0.234,0.588,0.703,1.047,1.411
			l-0.695,0.5c-0.32-0.604-0.656-1.132-1.005-1.58c-0.221-0.26-0.288-0.427-0.203-0.51c0.376-0.494,0.687-1.129,0.927-1.906
			L86.047,37.958z"/>
		<path fill="#413D3C" d="M98.443,38.848c0.419,0.325,0.869,0.779,1.347,1.354l-0.695,0.642c-0.497-0.598-0.934-1.04-1.303-1.324
			L98.443,38.848z M100.131,41.966c-0.259,1.782-0.74,3.198-1.442,4.25l-0.897-0.331c0.818-1.254,1.303-2.594,1.454-4.026
			L100.131,41.966z M98.498,36.239c0.47,0.32,0.981,0.772,1.536,1.357l-0.648,0.698c-0.587-0.607-1.083-1.056-1.496-1.336
			L98.498,36.239z M100.171,39.114v-0.77h2.491c0.099,0.007,0.181,0.056,0.244,0.15c0.007,0.012,0.015,0.034,0.024,0.063
			c-0.01,1.367-0.066,2.168-0.172,2.404c-0.079,0.162-0.186,0.282-0.32,0.352c-0.23,0.098-0.604,0.095-1.122-0.012l-0.063-0.887
			c0.379,0.158,0.632,0.204,0.745,0.141c0.05-0.029,0.091-0.078,0.118-0.152c0.007-0.027,0.014-0.044,0.022-0.052
			c0.07-0.653,0.075-1.051,0.01-1.188c-0.021-0.033-0.053-0.051-0.096-0.051h-0.545c-0.215,0.918-0.504,1.645-0.874,2.181
			l-0.728-0.313c0.407-0.563,0.698-1.186,0.873-1.868H100.171z M101.689,44.452c-0.199,0.799-0.545,1.423-1.035,1.872l-0.738-0.546
			c0.661-0.513,1.018-1.408,1.06-2.693v-1.503h0.886v0.534h4.368v-0.662h0.888v4.795h-0.888v-1.796L101.689,44.452L101.689,44.452z
			 M103.581,36.154h0.889v0.621h3.138v0.757h-7.102v-0.757h3.076V36.154z M106.23,42.874h-4.369v0.211
			c0,0.188-0.017,0.391-0.045,0.609h4.414V42.874z M102.641,38.036l0.606-0.449c0.023,0.015,0.263,0.318,0.719,0.918
			c0.094-0.121,0.184-0.238,0.278-0.35c0.214-0.268,0.345-0.439,0.396-0.527l0.576,0.493c-0.194,0.263-0.493,0.632-0.896,1.11v2.318
			h-0.761v-2.328C103.296,38.838,102.99,38.441,102.641,38.036z M105.996,38.891c-0.04,0-0.061,0.023-0.056,0.074v1.506
			c0.234-0.056,0.449-0.118,0.643-0.181l0.174,0.704c-0.538,0.185-1.199,0.323-1.993,0.415l-0.124-0.714
			c0.183-0.029,0.368-0.054,0.544-0.075v-2.21c-0.015-0.109,0.044-0.165,0.182-0.173c0.651-0.043,1.269-0.16,1.847-0.35l0.373,0.671
			c-0.206,0.065-0.408,0.124-0.608,0.17c0.156,0.755,0.492,1.496,1.015,2.222l-0.748,0.235c-0.528-0.896-0.834-1.673-0.918-2.338
			C106.214,38.869,106.102,38.881,105.996,38.891z"/>
		<path fill="#413D3C" d="M123.43,38.077l0.793,0.277c-0.123,0.505-0.332,1.175-0.633,2.011h1.379v0.843h-5.52v-0.843h3.254
			C123.082,39.396,123.322,38.636,123.43,38.077z M121.736,36.154h0.927v0.794h2.095v0.84h-5.095v-0.84h2.073V36.154z
			 M120.591,46.174h-0.887V42.17c0-0.095,0.044-0.139,0.139-0.139h4.575c0.124,0.005,0.189,0.065,0.189,0.18v3.965h-0.887v-0.479
			h-3.132v0.477H120.591z M120.963,38.131c0.283,0.805,0.472,1.403,0.557,1.795l-0.814,0.18c-0.171-0.685-0.351-1.263-0.542-1.741
			L120.963,38.131z M123.724,44.849V42.99c0-0.077-0.047-0.116-0.133-0.116h-2.872c-0.092,0-0.136,0.044-0.128,0.13v1.845H123.724z
			 M126.251,37.468v8.813h-0.93v-9.668c0-0.107,0.056-0.16,0.163-0.16h3.137l0.601,0.471l-1.007,3.238
			c-0.019,0.084-0.006,0.173,0.044,0.255c0.496,0.676,0.838,1.27,1.014,1.786c0.271,1.024,0.225,1.839-0.14,2.437
			c-0.185,0.276-0.398,0.46-0.64,0.552c-0.479,0.192-1.114,0.121-1.909-0.225l0.115-1.014c0.633,0.337,1.087,0.459,1.366,0.375
			c0.408-0.097,0.578-0.565,0.515-1.398c-0.116-0.6-0.53-1.401-1.239-2.403c-0.082-0.109-0.105-0.186-0.087-0.234l0.867-2.811
			c0.02-0.099,0.028-0.145,0.02-0.138h-1.761C126.295,37.342,126.251,37.383,126.251,37.468z"/>
		<path fill="#413D3C" d="M145.415,37.726h-4.038v-0.972h9.026v0.972h-3.974v7.06h4.444v0.974h-9.969v-0.974h4.51V37.726z"/>
		<path fill="#413D3C" d="M167.8,46.249h-0.883v-2.168c-1.548,0.925-2.961,1.479-4.244,1.656l-0.341-0.901
			c1.523-0.226,2.948-0.738,4.275-1.535h-3.965v-0.845h4.275v-0.607h-3.719V41.09h3.719v-0.647H162.9v-0.762h2.405
			c-0.149-0.398-0.293-0.729-0.429-0.993h-2.358v-0.845h1.858c-0.236-0.483-0.452-0.855-0.651-1.12l0.729-0.449
			c0.268,0.342,0.524,0.784,0.766,1.325l-0.459,0.244h1.279v-1.687h0.848v1.687h0.991v-1.687h0.849v1.687h1.055l-0.334-0.244
			c0.424-0.542,0.721-0.999,0.897-1.365l0.729,0.446c-0.186,0.36-0.432,0.751-0.74,1.163h1.811v0.845h-2.479
			c-0.099,0.3-0.229,0.631-0.39,0.993h2.527v0.762h-4.001v0.647h3.7v0.759h-3.7v0.607h4.254v0.845h-3.802
			c1.147,0.775,2.521,1.324,4.135,1.645l-0.462,0.833c-1.632-0.425-3.005-1.024-4.125-1.794v2.265H167.8z M168.338,39.678
			c0.171-0.376,0.311-0.709,0.425-0.993h-2.933c0.125,0.293,0.25,0.624,0.385,0.993H168.338z"/>
		<path fill="#413D3C" d="M185.425,41.764c-0.008,0.947-0.09,1.873-0.245,2.778c-0.114,0.697-0.249,1.246-0.406,1.654l-0.929-0.376
			c0.435-1.225,0.649-2.695,0.649-4.412v-4.579c0-0.235,0.122-0.354,0.354-0.354h8.334c0.237,0,0.36,0.119,0.36,0.354v1.951
			c-0.006,0.25-0.13,0.378-0.373,0.378h-7.744v0.789h7.839c0.08,0,0.144,0.013,0.194,0.044c0.104,0.059,0.158,0.211,0.158,0.464
			c0,1.109-0.014,2.086-0.044,2.943c-0.049,1.45-0.295,2.318-0.744,2.605c-0.467,0.32-1.325,0.354-2.588,0.095l-0.115-1.088
			c1.143,0.29,1.866,0.318,2.169,0.075c0.1-0.092,0.186-0.262,0.254-0.505c0.033-0.148,0.066-0.34,0.085-0.575
			c0.08-1.945,0.082-2.976,0.012-3.09c-0.028-0.046-0.07-0.072-0.116-0.072h-7.106v0.92H185.425z M185.425,38.226h7.039
			c0.1-0.005,0.151-0.054,0.151-0.148v-0.524c-0.007-0.097-0.058-0.148-0.151-0.148h-6.889c-0.1,0.008-0.15,0.059-0.15,0.148V38.226
			z M191.554,44.496h-5.296c-0.079,0-0.12-0.044-0.12-0.128v-2.69c0.01-0.079,0.048-0.121,0.12-0.121h5.296
			c0.088,0.01,0.131,0.048,0.131,0.121v2.69C191.685,44.452,191.645,44.496,191.554,44.496z M187.062,42.402
			c-0.029,0-0.041,0.01-0.031,0.034v1.173c-0.01,0.022,0.002,0.035,0.031,0.044h3.692c0.03-0.009,0.044-0.023,0.044-0.044v-1.173
			c0-0.024-0.014-0.034-0.044-0.034H187.062z"/>
		<g>
			<path fill="#413D3C" d="M76.317,15.222h1.38v6.843h-1.38V15.222z"/>
			<path fill="#413D3C" d="M82.221,19.91h0.021v-4.688h1.266v6.843h-1.573l-1.688-4.792h-0.018v4.792h-1.267v-6.843h1.591
				L82.221,19.91z"/>
			<path fill="#413D3C" d="M87.032,15.222c0.478,0,0.864,0.08,1.158,0.237c0.292,0.155,0.524,0.379,0.686,0.668
				c0.163,0.288,0.273,0.642,0.331,1.052c0.06,0.407,0.087,0.866,0.087,1.368c0,0.602-0.04,1.124-0.111,1.569
				c-0.076,0.444-0.199,0.808-0.379,1.1c-0.182,0.285-0.421,0.5-0.719,0.642c-0.299,0.142-0.679,0.209-1.14,0.209h-2.179v-6.844
				L87.032,15.222L87.032,15.222z M86.761,21.051c0.245,0,0.439-0.042,0.584-0.127c0.147-0.082,0.267-0.219,0.352-0.411
				c0.088-0.191,0.143-0.444,0.173-0.757c0.026-0.313,0.041-0.704,0.041-1.17c0-0.387-0.01-0.731-0.036-1.027
				c-0.027-0.291-0.08-0.534-0.159-0.729c-0.08-0.196-0.198-0.344-0.354-0.441c-0.158-0.097-0.368-0.148-0.629-0.148h-0.583v4.811
				L86.761,21.051L86.761,21.051z"/>
			<path fill="#413D3C" d="M91.737,19.997c0,0.17,0.01,0.331,0.03,0.474c0.023,0.143,0.067,0.267,0.127,0.374
				c0.059,0.104,0.145,0.187,0.249,0.25c0.106,0.061,0.24,0.089,0.396,0.089c0.166,0,0.298-0.028,0.401-0.089
				c0.104-0.063,0.184-0.146,0.247-0.25c0.058-0.107,0.103-0.231,0.122-0.374c0.026-0.143,0.036-0.304,0.036-0.474v-4.774h1.375
				v4.774c0,0.433-0.059,0.794-0.178,1.078c-0.122,0.282-0.285,0.51-0.492,0.673c-0.203,0.168-0.437,0.28-0.699,0.335
				c-0.257,0.059-0.533,0.087-0.814,0.087c-0.28,0-0.552-0.025-0.812-0.076c-0.264-0.054-0.496-0.155-0.7-0.313
				c-0.208-0.155-0.369-0.379-0.49-0.665c-0.124-0.289-0.183-0.661-0.183-1.12v-4.774h1.382v4.774H91.737z"/>
			<path fill="#413D3C" d="M96.947,20.131c0,0.16,0.018,0.308,0.041,0.435c0.022,0.133,0.073,0.243,0.14,0.333
				c0.074,0.087,0.167,0.158,0.285,0.211c0.121,0.051,0.269,0.076,0.448,0.076c0.208,0,0.398-0.068,0.569-0.207
				c0.167-0.138,0.252-0.349,0.252-0.636c0-0.155-0.022-0.286-0.061-0.397c-0.045-0.112-0.112-0.214-0.207-0.304
				c-0.095-0.087-0.224-0.17-0.382-0.24c-0.155-0.076-0.35-0.15-0.578-0.229c-0.306-0.102-0.572-0.214-0.797-0.336
				c-0.223-0.122-0.409-0.263-0.559-0.428c-0.15-0.163-0.26-0.349-0.333-0.566c-0.069-0.211-0.103-0.458-0.103-0.741
				c0-0.675,0.188-1.183,0.563-1.516c0.377-0.331,0.896-0.495,1.554-0.495c0.302,0,0.589,0.031,0.847,0.097
				c0.259,0.068,0.484,0.178,0.67,0.331c0.189,0.147,0.336,0.337,0.441,0.573c0.106,0.234,0.158,0.512,0.158,0.838v0.191h-1.321
				c0-0.326-0.059-0.576-0.174-0.75c-0.112-0.178-0.305-0.268-0.573-0.268c-0.153,0-0.28,0.025-0.384,0.068
				c-0.102,0.046-0.183,0.104-0.245,0.178c-0.063,0.07-0.102,0.158-0.125,0.254c-0.024,0.095-0.03,0.194-0.03,0.296
				c0,0.209,0.043,0.389,0.133,0.532c0.087,0.146,0.28,0.278,0.573,0.398l1.064,0.459c0.257,0.114,0.473,0.235,0.644,0.362
				c0.162,0.122,0.297,0.26,0.394,0.4c0.098,0.143,0.169,0.303,0.205,0.476c0.037,0.17,0.057,0.362,0.057,0.57
				c0,0.727-0.209,1.251-0.628,1.579c-0.415,0.329-1,0.493-1.748,0.493c-0.78,0-1.338-0.17-1.67-0.504
				c-0.337-0.34-0.503-0.828-0.503-1.46V19.93h1.376v0.202H96.947z"/>
			<path fill="#413D3C" d="M105.057,16.357h-1.497v5.709h-1.375v-5.709h-1.501v-1.134h4.375L105.057,16.357L105.057,16.357z"/>
			<path fill="#413D3C" d="M108.44,15.222c0.573,0,1.021,0.146,1.34,0.438c0.319,0.291,0.479,0.731,0.479,1.328
				c0,0.457-0.093,0.833-0.278,1.126c-0.186,0.289-0.471,0.476-0.861,0.558v0.02c0.343,0.051,0.598,0.163,0.757,0.336
				c0.158,0.173,0.259,0.452,0.294,0.833c0.016,0.13,0.023,0.27,0.03,0.417c0.005,0.15,0.015,0.316,0.02,0.505
				c0.012,0.362,0.031,0.642,0.06,0.831c0.037,0.191,0.12,0.325,0.249,0.393v0.058h-1.497c-0.069-0.096-0.113-0.206-0.135-0.331
				c-0.02-0.126-0.029-0.252-0.037-0.39l-0.035-1.312c-0.016-0.268-0.082-0.479-0.205-0.632c-0.119-0.153-0.328-0.23-0.613-0.23
				h-0.739v2.894h-1.376v-6.844h2.549V15.222z M107.843,18.212c0.333,0,0.588-0.076,0.768-0.233
				c0.182-0.158,0.268-0.421,0.268-0.792c0-0.632-0.318-0.947-0.957-0.947h-0.655v1.972h0.577V18.212z"/>
			<path fill="#413D3C" d="M111.523,15.222h1.381v6.843h-1.381V15.222z"/>
			<path fill="#413D3C" d="M117.208,15.222l1.809,6.843h-1.436l-0.315-1.447h-1.821l-0.318,1.447h-1.435l1.812-6.843H117.208z
				 M117.025,19.49l-0.664-3.08h-0.018l-0.661,3.08H117.025z"/>
			<path fill="#413D3C" d="M119.738,15.222h1.377v5.712h2.444v1.131h-3.821V15.222z"/>
			<path fill="#413D3C" d="M129.279,15.222c0.481,0,0.867,0.08,1.16,0.237c0.297,0.155,0.522,0.379,0.686,0.668
				c0.165,0.288,0.274,0.642,0.333,1.052c0.059,0.407,0.085,0.866,0.085,1.368c0,0.602-0.036,1.124-0.11,1.569
				c-0.074,0.445-0.195,0.808-0.376,1.1c-0.182,0.285-0.421,0.5-0.72,0.642c-0.302,0.141-0.684,0.209-1.14,0.209h-2.176v-6.844
				L129.279,15.222L129.279,15.222z M129.015,21.051c0.238,0,0.438-0.042,0.584-0.127c0.147-0.082,0.264-0.219,0.349-0.411
				c0.087-0.191,0.146-0.444,0.177-0.757c0.025-0.313,0.04-0.704,0.04-1.17c0-0.387-0.015-0.731-0.038-1.027
				c-0.025-0.291-0.079-0.534-0.156-0.729c-0.083-0.196-0.198-0.344-0.356-0.441c-0.155-0.097-0.366-0.148-0.627-0.148H128.4v4.811
				L129.015,21.051L129.015,21.051z"/>
			<path fill="#413D3C" d="M136.517,16.357h-2.444v1.607h2.301v1.132h-2.301v1.839h2.539v1.131h-3.917v-6.844h3.822V16.357z"/>
			<path fill="#413D3C" d="M139.533,20.284h0.031l1.016-5.061h1.425l-1.574,6.844h-1.77l-1.571-6.844h1.474L139.533,20.284z"/>
			<path fill="#413D3C" d="M146.578,16.357h-2.443v1.607h2.298v1.132h-2.298v1.839h2.54v1.131h-3.919v-6.844h3.822V16.357
				L146.578,16.357z"/>
			<path fill="#413D3C" d="M147.605,15.222h1.377v5.712h2.445v1.131h-3.822V15.222L147.605,15.222z"/>
			<path fill="#413D3C" d="M152.207,17.211c0.049-0.438,0.153-0.813,0.318-1.124c0.163-0.313,0.396-0.558,0.702-0.733
				c0.309-0.178,0.719-0.263,1.238-0.263s0.93,0.084,1.233,0.263c0.312,0.175,0.542,0.42,0.706,0.733
				c0.161,0.311,0.269,0.688,0.316,1.124c0.047,0.438,0.068,0.915,0.068,1.433c0,0.525-0.021,1.003-0.068,1.44
				c-0.048,0.433-0.155,0.803-0.316,1.119c-0.165,0.311-0.395,0.55-0.706,0.719c-0.304,0.165-0.714,0.247-1.233,0.247
				s-0.93-0.082-1.238-0.247c-0.307-0.168-0.542-0.408-0.702-0.719c-0.165-0.316-0.27-0.688-0.318-1.119
				c-0.047-0.438-0.07-0.915-0.07-1.44C152.137,18.126,152.16,17.649,152.207,17.211z M153.551,19.817
				c0.021,0.329,0.065,0.586,0.133,0.788c0.065,0.202,0.162,0.349,0.287,0.44c0.124,0.095,0.286,0.141,0.493,0.141
				c0.203,0,0.369-0.046,0.491-0.141c0.125-0.09,0.225-0.237,0.292-0.44c0.065-0.202,0.107-0.459,0.132-0.788
				c0.023-0.32,0.034-0.711,0.034-1.172c0-0.458-0.013-0.851-0.034-1.167c-0.025-0.32-0.068-0.583-0.132-0.787
				c-0.069-0.204-0.169-0.355-0.292-0.444c-0.122-0.092-0.285-0.141-0.491-0.141c-0.207,0-0.372,0.049-0.493,0.141
				c-0.127,0.089-0.223,0.24-0.287,0.444c-0.07,0.204-0.111,0.466-0.133,0.787c-0.024,0.318-0.037,0.709-0.037,1.167
				C153.514,19.105,153.526,19.497,153.551,19.817z"/>
			<path fill="#413D3C" d="M160.263,15.222c0.35,0,0.647,0.058,0.884,0.178c0.243,0.12,0.438,0.275,0.583,0.466
				s0.251,0.411,0.313,0.655c0.064,0.245,0.099,0.5,0.099,0.752c0,0.352-0.054,0.658-0.158,0.92
				c-0.108,0.262-0.253,0.476-0.44,0.642c-0.189,0.167-0.416,0.291-0.687,0.374c-0.27,0.083-0.563,0.125-0.893,0.125h-0.735v2.731
				h-1.382v-6.843H160.263z M159.843,18.32c0.273,0,0.493-0.08,0.663-0.25c0.167-0.163,0.254-0.422,0.254-0.777
				c0-0.342-0.073-0.604-0.219-0.785c-0.148-0.178-0.393-0.268-0.738-0.268h-0.577v2.08H159.843z"/>
			<path fill="#413D3C" d="M165.14,15.222l0.979,4.833h0.02l0.983-4.833h2.047v6.843H167.9v-5.462h-0.02l-1.217,5.462h-1.073
				l-1.217-5.462h-0.017v5.462h-1.27v-6.843H165.14z"/>
			<path fill="#413D3C" d="M174.217,16.357h-2.445v1.607h2.299v1.132h-2.299v1.839h2.539v1.131h-3.919v-6.844h3.825V16.357
				L174.217,16.357z"/>
			<path fill="#413D3C" d="M178.496,19.91h0.021v-4.688h1.266v6.843h-1.573l-1.684-4.792h-0.021v4.792h-1.263v-6.843h1.593
				L178.496,19.91z"/>
			<path fill="#413D3C" d="M184.985,16.357h-1.492v5.709h-1.384v-5.709h-1.493v-1.134h4.37L184.985,16.357L184.985,16.357z"/>
			<path fill="#413D3C" d="M190.67,15.222c0.279,0,0.541,0.028,0.78,0.087s0.44,0.155,0.614,0.287
				c0.175,0.133,0.309,0.313,0.404,0.537c0.097,0.226,0.145,0.5,0.145,0.826c0,0.369-0.085,0.688-0.259,0.953
				c-0.174,0.267-0.432,0.446-0.774,0.545v0.015c0.382,0.054,0.686,0.217,0.909,0.489c0.222,0.277,0.334,0.642,0.334,1.105
				c0,0.267-0.033,0.522-0.107,0.763c-0.068,0.247-0.188,0.456-0.356,0.639s-0.39,0.329-0.659,0.438
				c-0.276,0.106-0.609,0.163-1.013,0.163h-2.329v-6.844L190.67,15.222L190.67,15.222z M190.132,18.032
				c0.383,0,0.665-0.068,0.84-0.206c0.176-0.139,0.262-0.37,0.262-0.695c0-0.326-0.077-0.556-0.235-0.69
				c-0.165-0.133-0.414-0.201-0.762-0.201h-0.496v1.792L190.132,18.032L190.132,18.032z M190.275,21.051
				c0.337,0,0.602-0.074,0.808-0.224c0.201-0.148,0.304-0.415,0.304-0.811c0-0.199-0.026-0.364-0.081-0.495
				c-0.05-0.129-0.128-0.235-0.223-0.316c-0.09-0.078-0.199-0.135-0.329-0.168c-0.127-0.034-0.269-0.049-0.423-0.049h-0.594v2.062
				H190.275z"/>
			<path fill="#413D3C" d="M195.224,19.997c0,0.17,0.01,0.331,0.03,0.474c0.023,0.143,0.064,0.267,0.125,0.374
				c0.061,0.104,0.144,0.187,0.248,0.25c0.106,0.061,0.238,0.089,0.398,0.089c0.167,0,0.301-0.028,0.4-0.089
				c0.106-0.063,0.186-0.146,0.248-0.25c0.058-0.107,0.1-0.231,0.125-0.374c0.018-0.143,0.035-0.304,0.035-0.474v-4.774h1.374v4.774
				c0,0.433-0.06,0.794-0.182,1.078c-0.121,0.282-0.284,0.51-0.488,0.673c-0.205,0.168-0.439,0.28-0.699,0.335
				c-0.263,0.059-0.534,0.087-0.814,0.087c-0.283,0-0.555-0.025-0.813-0.076c-0.263-0.054-0.496-0.155-0.702-0.313
				c-0.202-0.155-0.367-0.379-0.485-0.665c-0.123-0.289-0.183-0.661-0.183-1.12v-4.774h1.38v4.774H195.224z"/>
			<path fill="#413D3C" d="M201.868,15.222c0.579,0,1.024,0.146,1.348,0.438c0.315,0.291,0.477,0.731,0.477,1.328
				c0,0.457-0.096,0.833-0.279,1.126c-0.186,0.289-0.472,0.476-0.861,0.558v0.02c0.344,0.051,0.599,0.163,0.759,0.336
				c0.158,0.173,0.255,0.452,0.295,0.833c0.014,0.13,0.021,0.27,0.03,0.417c0.006,0.15,0.01,0.316,0.016,0.505
				c0.014,0.362,0.031,0.642,0.063,0.831c0.034,0.191,0.119,0.325,0.244,0.393v0.058h-1.491c-0.071-0.096-0.116-0.206-0.138-0.331
				c-0.017-0.126-0.033-0.252-0.037-0.39l-0.036-1.312c-0.014-0.268-0.082-0.479-0.201-0.632c-0.125-0.153-0.325-0.23-0.611-0.23
				h-0.739v2.894h-1.384v-6.844h2.548V15.222z M201.275,18.212c0.333,0,0.591-0.076,0.768-0.233
				c0.183-0.158,0.272-0.421,0.272-0.792c0-0.632-0.322-0.947-0.96-0.947h-0.65v1.972h0.57V18.212z"/>
			<path fill="#413D3C" d="M208.713,16.357h-2.442v1.607h2.299v1.132h-2.299v1.839h2.538v1.131h-3.919v-6.844h3.823V16.357z"/>
			<path fill="#413D3C" d="M212.779,15.222l1.81,6.843h-1.438l-0.321-1.447h-1.817l-0.315,1.447h-1.437l1.809-6.843H212.779z
				 M212.595,19.49l-0.662-3.08h-0.018l-0.662,3.08H212.595z"/>
			<path fill="#413D3C" d="M216.6,19.997c0,0.17,0.011,0.331,0.034,0.474c0.021,0.143,0.065,0.267,0.127,0.374
				c0.06,0.104,0.141,0.187,0.248,0.25c0.104,0.061,0.236,0.089,0.395,0.089c0.168,0,0.301-0.028,0.4-0.089
				c0.104-0.063,0.184-0.146,0.246-0.25c0.062-0.107,0.104-0.231,0.126-0.374c0.021-0.143,0.034-0.304,0.034-0.474v-4.774h1.379
				v4.774c0,0.433-0.061,0.794-0.182,1.078c-0.123,0.282-0.287,0.51-0.49,0.673c-0.205,0.168-0.438,0.28-0.701,0.335
				c-0.26,0.059-0.532,0.087-0.814,0.087c-0.277,0-0.549-0.025-0.813-0.076c-0.26-0.054-0.492-0.155-0.701-0.313
				c-0.204-0.155-0.365-0.379-0.486-0.665c-0.123-0.289-0.184-0.661-0.184-1.12v-4.774h1.381L216.6,19.997L216.6,19.997z"/>
			<path fill="#413D3C" d="M222.008,21.818c0,0.235-0.021,0.459-0.056,0.675c-0.037,0.214-0.1,0.397-0.194,0.555
				c-0.095,0.156-0.229,0.282-0.389,0.382c-0.164,0.1-0.375,0.163-0.63,0.187v-0.67c0.166-0.031,0.287-0.122,0.375-0.27
				c0.084-0.146,0.124-0.309,0.124-0.489v-0.125h-0.498v-1.493h1.268V21.818L222.008,21.818z"/>
			<path fill="#413D3C" d="M78.328,24.638l0.979,4.833h0.019l0.988-4.833h2.043v6.844h-1.268v-5.464H81.07l-1.213,5.464h-1.078
				l-1.216-5.464h-0.02v5.464h-1.265v-6.844H78.328z"/>
			<path fill="#413D3C" d="M83.648,24.638h1.381v6.844h-1.381V24.638z"/>
			<path fill="#413D3C" d="M89.552,29.325h0.021v-4.688h1.265v6.845h-1.572l-1.688-4.793H87.56v4.793h-1.266v-6.844h1.587
				L89.552,29.325z"/>
			<path fill="#413D3C" d="M92.102,24.638h1.377v6.844h-1.377V24.638z"/>
			<path fill="#413D3C" d="M95.856,29.546c0,0.16,0.011,0.307,0.035,0.435c0.026,0.132,0.079,0.24,0.148,0.332
				c0.067,0.091,0.165,0.16,0.283,0.214c0.116,0.048,0.266,0.076,0.445,0.076c0.208,0,0.399-0.069,0.569-0.204
				c0.168-0.136,0.254-0.353,0.254-0.64c0-0.153-0.021-0.285-0.063-0.397c-0.044-0.111-0.111-0.214-0.206-0.304
				c-0.097-0.087-0.224-0.17-0.377-0.242c-0.159-0.073-0.352-0.148-0.582-0.227c-0.306-0.102-0.573-0.213-0.795-0.336
				c-0.224-0.121-0.412-0.265-0.563-0.425c-0.148-0.167-0.26-0.353-0.33-0.563c-0.068-0.219-0.104-0.464-0.104-0.747
				c0-0.678,0.186-1.182,0.563-1.516c0.378-0.332,0.896-0.496,1.551-0.496c0.308,0,0.593,0.032,0.849,0.099
				c0.259,0.068,0.482,0.178,0.674,0.326c0.188,0.153,0.335,0.341,0.44,0.578c0.103,0.234,0.16,0.51,0.16,0.835v0.194h-1.325
				c0-0.326-0.055-0.578-0.172-0.751c-0.118-0.177-0.307-0.265-0.573-0.265c-0.155,0-0.285,0.021-0.388,0.067
				c-0.1,0.044-0.181,0.104-0.242,0.178c-0.061,0.072-0.104,0.157-0.125,0.252c-0.024,0.095-0.035,0.194-0.035,0.299
				c0,0.209,0.047,0.389,0.138,0.532c0.085,0.144,0.282,0.276,0.571,0.396l1.062,0.462c0.265,0.114,0.478,0.234,0.647,0.361
				c0.165,0.124,0.296,0.258,0.396,0.399c0.1,0.144,0.17,0.302,0.206,0.475c0.039,0.173,0.06,0.364,0.06,0.576
				c0,0.724-0.211,1.248-0.63,1.576c-0.419,0.33-1.001,0.493-1.748,0.493c-0.781,0-1.338-0.169-1.675-0.508
				c-0.333-0.338-0.5-0.823-0.5-1.457v-0.278h1.38L95.856,29.546L95.856,29.546z"/>
			<path fill="#413D3C" d="M103.961,25.77h-1.492v5.712h-1.38V25.77h-1.497v-1.132h4.369V25.77z"/>
			<path fill="#413D3C" d="M107.346,24.638c0.575,0,1.021,0.146,1.342,0.438c0.321,0.288,0.481,0.733,0.481,1.325
				c0,0.459-0.095,0.838-0.281,1.127c-0.183,0.291-0.474,0.479-0.86,0.561v0.02c0.346,0.051,0.596,0.163,0.757,0.336
				c0.158,0.173,0.259,0.448,0.298,0.833c0.01,0.13,0.022,0.27,0.029,0.418c0.005,0.15,0.007,0.318,0.017,0.502
				c0.015,0.364,0.03,0.645,0.056,0.833c0.039,0.191,0.124,0.324,0.25,0.393v0.059h-1.493c-0.073-0.095-0.117-0.206-0.134-0.333
				c-0.02-0.123-0.031-0.25-0.041-0.386l-0.034-1.315c-0.015-0.267-0.08-0.478-0.201-0.631c-0.124-0.153-0.328-0.232-0.613-0.232
				h-0.74v2.897h-1.38v-6.844H107.346z M106.755,27.63c0.329,0,0.587-0.08,0.763-0.235c0.18-0.155,0.27-0.42,0.27-0.792
				c0-0.634-0.318-0.947-0.96-0.947h-0.65v1.975H106.755z"/>
			<path fill="#413D3C" d="M112.195,27.282h0.016l0.963-2.645h1.493l-1.772,4.15v2.693h-1.38v-2.693l-1.772-4.15h1.552
				L112.195,27.282z"/>
			<path fill="#413D3C" d="M117.88,26.627c0.049-0.438,0.156-0.813,0.318-1.127c0.163-0.313,0.398-0.556,0.704-0.73
				c0.308-0.178,0.718-0.265,1.237-0.265c0.516,0,0.928,0.087,1.236,0.265c0.306,0.175,0.54,0.417,0.703,0.73
				c0.16,0.313,0.265,0.689,0.315,1.127c0.049,0.438,0.07,0.913,0.07,1.433c0,0.522-0.021,1.001-0.07,1.437
				c-0.051,0.437-0.155,0.808-0.315,1.122c-0.163,0.313-0.397,0.55-0.703,0.718c-0.309,0.166-0.721,0.248-1.236,0.248
				c-0.52,0-0.93-0.082-1.237-0.248c-0.306-0.168-0.542-0.404-0.704-0.718c-0.162-0.314-0.27-0.688-0.318-1.122
				c-0.046-0.438-0.071-0.914-0.071-1.437C117.81,27.54,117.834,27.064,117.88,26.627z M119.226,29.235
				c0.02,0.323,0.066,0.583,0.133,0.784s0.16,0.35,0.285,0.439c0.124,0.095,0.287,0.141,0.495,0.141c0.202,0,0.367-0.046,0.49-0.141
				c0.128-0.089,0.223-0.236,0.289-0.439c0.068-0.203,0.114-0.461,0.134-0.784c0.022-0.323,0.034-0.717,0.034-1.176
				s-0.014-0.85-0.034-1.169c-0.021-0.319-0.065-0.582-0.134-0.786c-0.067-0.2-0.162-0.353-0.289-0.445
				c-0.123-0.092-0.287-0.137-0.49-0.137c-0.208,0-0.373,0.045-0.495,0.137c-0.127,0.093-0.222,0.245-0.285,0.445
				c-0.067,0.204-0.114,0.467-0.133,0.786c-0.024,0.32-0.035,0.71-0.035,1.169S119.202,28.912,119.226,29.235z"/>
			<path fill="#413D3C" d="M127.347,24.638v1.132h-2.443v1.61h2.3v1.132h-2.3v2.97h-1.382v-6.844H127.347z"/>
			<path fill="#413D3C" d="M134.56,25.77h-2.441v1.61h2.299v1.132h-2.299v1.838h2.538v1.132h-3.92v-6.844h3.823V25.77z"/>
			<path fill="#413D3C" d="M138.336,25.862c-0.122-0.229-0.338-0.343-0.652-0.343c-0.169,0-0.31,0.046-0.424,0.139
				c-0.114,0.092-0.199,0.245-0.265,0.449c-0.063,0.209-0.111,0.48-0.134,0.815c-0.024,0.339-0.04,0.746-0.04,1.232
				c0,0.516,0.019,0.936,0.055,1.257s0.089,0.566,0.165,0.741c0.074,0.177,0.165,0.294,0.279,0.354
				c0.109,0.061,0.238,0.092,0.387,0.092c0.123,0,0.234-0.022,0.34-0.063c0.106-0.043,0.194-0.124,0.274-0.247
				c0.075-0.122,0.134-0.301,0.182-0.53c0.044-0.224,0.067-0.524,0.067-0.896h1.378c0,0.372-0.029,0.724-0.083,1.057
				c-0.057,0.334-0.167,0.622-0.319,0.872c-0.156,0.25-0.377,0.443-0.665,0.586c-0.285,0.14-0.649,0.209-1.106,0.209
				c-0.517,0-0.93-0.082-1.236-0.248c-0.307-0.167-0.542-0.405-0.702-0.719c-0.164-0.313-0.269-0.687-0.315-1.122
				c-0.049-0.437-0.075-0.915-0.075-1.438c0-0.52,0.026-0.995,0.075-1.433c0.047-0.438,0.151-0.813,0.315-1.126
				c0.161-0.313,0.396-0.556,0.702-0.73c0.307-0.179,0.72-0.265,1.236-0.265c0.493,0,0.879,0.079,1.165,0.239
				c0.282,0.16,0.496,0.361,0.637,0.609c0.142,0.243,0.229,0.51,0.266,0.794c0.037,0.285,0.053,0.549,0.053,0.803h-1.379
				C138.511,26.449,138.447,26.088,138.336,25.862z"/>
			<path fill="#413D3C" d="M140.9,26.627c0.046-0.438,0.152-0.813,0.315-1.127c0.164-0.313,0.398-0.556,0.704-0.73
				c0.304-0.178,0.717-0.265,1.236-0.265c0.518,0,0.93,0.087,1.236,0.265c0.306,0.175,0.543,0.417,0.705,0.73
				c0.16,0.313,0.268,0.689,0.315,1.127c0.047,0.438,0.072,0.913,0.072,1.433c0,0.522-0.025,1.001-0.072,1.437
				c-0.048,0.437-0.155,0.808-0.315,1.122c-0.164,0.313-0.399,0.55-0.705,0.718c-0.307,0.166-0.719,0.248-1.236,0.248
				c-0.52,0-0.933-0.082-1.236-0.248c-0.306-0.168-0.541-0.404-0.704-0.718c-0.163-0.314-0.27-0.688-0.315-1.122
				c-0.049-0.438-0.073-0.914-0.073-1.437C140.827,27.54,140.852,27.064,140.9,26.627z M142.243,29.235
				c0.021,0.323,0.065,0.583,0.131,0.784c0.068,0.201,0.165,0.35,0.29,0.439c0.123,0.095,0.288,0.141,0.492,0.141
				s0.371-0.046,0.493-0.141c0.126-0.089,0.222-0.236,0.286-0.439c0.068-0.201,0.114-0.461,0.135-0.784
				c0.023-0.323,0.033-0.717,0.033-1.176s-0.013-0.85-0.033-1.169s-0.067-0.582-0.135-0.786c-0.065-0.2-0.16-0.353-0.286-0.445
				c-0.124-0.092-0.289-0.137-0.493-0.137s-0.369,0.045-0.492,0.137c-0.127,0.093-0.222,0.245-0.29,0.445
				c-0.066,0.204-0.111,0.467-0.131,0.786c-0.024,0.32-0.036,0.71-0.036,1.169S142.219,28.912,142.243,29.235z"/>
			<path fill="#413D3C" d="M149.798,29.325h0.019v-4.688h1.267v6.845h-1.572l-1.687-4.793h-0.018v4.793h-1.264v-6.844h1.589
				L149.798,29.325z"/>
			<path fill="#413D3C" d="M152.207,26.627c0.049-0.438,0.153-0.813,0.318-1.127c0.163-0.313,0.396-0.556,0.702-0.73
				c0.309-0.178,0.719-0.265,1.238-0.265s0.93,0.087,1.233,0.265c0.312,0.175,0.542,0.417,0.706,0.73
				c0.161,0.313,0.269,0.689,0.316,1.127c0.047,0.438,0.068,0.913,0.068,1.433c0,0.522-0.021,1.001-0.068,1.437
				c-0.048,0.437-0.155,0.808-0.316,1.122c-0.165,0.313-0.395,0.55-0.706,0.718c-0.304,0.166-0.714,0.248-1.233,0.248
				s-0.93-0.082-1.238-0.248c-0.307-0.168-0.542-0.404-0.702-0.718c-0.165-0.314-0.27-0.688-0.318-1.122
				c-0.047-0.438-0.07-0.914-0.07-1.437C152.137,27.54,152.16,27.064,152.207,26.627z M153.551,29.235
				c0.021,0.323,0.065,0.583,0.133,0.784c0.065,0.201,0.162,0.35,0.287,0.439c0.124,0.095,0.286,0.141,0.493,0.141
				c0.203,0,0.369-0.046,0.491-0.141c0.125-0.089,0.225-0.236,0.292-0.439c0.065-0.201,0.107-0.461,0.132-0.784
				c0.023-0.323,0.034-0.717,0.034-1.176s-0.013-0.85-0.034-1.169c-0.025-0.319-0.068-0.582-0.132-0.786
				c-0.069-0.2-0.169-0.353-0.292-0.445c-0.122-0.092-0.285-0.137-0.491-0.137c-0.207,0-0.372,0.045-0.493,0.137
				c-0.127,0.093-0.223,0.245-0.287,0.445c-0.07,0.204-0.111,0.467-0.133,0.786c-0.024,0.32-0.037,0.71-0.037,1.169
				S153.526,28.912,153.551,29.235z"/>
			<path fill="#413D3C" d="M159.929,24.638l0.978,4.833h0.017l0.989-4.833h2.042v6.844h-1.266v-5.464h-0.021l-1.217,5.464h-1.074
				l-1.213-5.464h-0.024v5.464h-1.266v-6.844H159.929z"/>
			<path fill="#413D3C" d="M165.248,24.638h1.375v6.844h-1.375V24.638z"/>
			<path fill="#413D3C" d="M170.638,25.862c-0.119-0.229-0.336-0.343-0.648-0.343c-0.174,0-0.312,0.046-0.427,0.139
				c-0.111,0.092-0.2,0.245-0.262,0.449c-0.065,0.209-0.11,0.48-0.135,0.815c-0.024,0.339-0.042,0.746-0.042,1.232
				c0,0.516,0.021,0.936,0.054,1.257c0.036,0.321,0.093,0.566,0.165,0.741c0.075,0.177,0.168,0.294,0.279,0.354
				c0.109,0.061,0.239,0.092,0.389,0.092c0.123,0,0.235-0.022,0.34-0.063c0.104-0.043,0.194-0.124,0.272-0.247
				c0.079-0.122,0.138-0.301,0.182-0.53c0.047-0.224,0.07-0.524,0.07-0.896h1.376c0,0.372-0.025,0.724-0.081,1.057
				c-0.059,0.334-0.168,0.622-0.32,0.872c-0.161,0.25-0.382,0.443-0.666,0.586c-0.284,0.14-0.65,0.209-1.106,0.209
				c-0.517,0-0.93-0.082-1.234-0.248c-0.309-0.167-0.544-0.405-0.704-0.719c-0.165-0.313-0.268-0.687-0.318-1.122
				c-0.049-0.437-0.07-0.915-0.07-1.438c0-0.52,0.021-0.995,0.07-1.433c0.051-0.438,0.153-0.813,0.318-1.126
				c0.161-0.313,0.396-0.556,0.704-0.73c0.305-0.179,0.718-0.265,1.234-0.265c0.492,0,0.88,0.079,1.167,0.239
				c0.281,0.16,0.496,0.361,0.637,0.609c0.139,0.243,0.226,0.51,0.264,0.794c0.032,0.285,0.055,0.549,0.055,0.803h-1.382
				C170.814,26.449,170.757,26.088,170.638,25.862z"/>
			<path fill="#413D3C" d="M178.496,24.638l1.812,6.844h-1.433l-0.32-1.444h-1.821l-0.316,1.444h-1.435l1.812-6.844H178.496z
				 M178.315,28.905l-0.659-3.078h-0.018l-0.664,3.078H178.315z"/>
			<path fill="#413D3C" d="M184.854,24.638v1.132h-2.445v1.61h2.3v1.132h-2.3v2.97h-1.379v-6.844H184.854z"/>
			<path fill="#413D3C" d="M189.529,24.638v1.132h-2.446v1.61h2.304v1.132h-2.304v2.97h-1.375v-6.844H189.529z"/>
			<path fill="#413D3C" d="M192.897,24.638l1.813,6.844h-1.434l-0.319-1.444h-1.821l-0.313,1.444h-1.437l1.808-6.844H192.897z
				 M192.718,28.905l-0.661-3.078h-0.018l-0.662,3.078H192.718z"/>
			<path fill="#413D3C" d="M195.496,24.638h1.382v6.844h-1.382V24.638z"/>
			<path fill="#413D3C" d="M200.691,24.638c0.579,0,1.021,0.146,1.345,0.438c0.317,0.288,0.477,0.733,0.477,1.325
				c0,0.459-0.091,0.838-0.274,1.127c-0.19,0.291-0.478,0.479-0.869,0.561v0.02c0.351,0.051,0.599,0.163,0.761,0.336
				c0.159,0.173,0.256,0.448,0.302,0.833c0.007,0.13,0.016,0.27,0.024,0.418c0.007,0.15,0.015,0.318,0.02,0.502
				c0.012,0.364,0.032,0.645,0.061,0.833c0.032,0.191,0.117,0.324,0.248,0.393v0.059h-1.496c-0.072-0.095-0.117-0.206-0.135-0.333
				c-0.019-0.123-0.033-0.25-0.038-0.386l-0.039-1.315c-0.011-0.267-0.077-0.478-0.201-0.631c-0.12-0.153-0.325-0.232-0.608-0.232
				h-0.739v2.897h-1.381v-6.844H200.691z M200.098,27.63c0.334,0,0.588-0.08,0.77-0.235c0.18-0.155,0.265-0.42,0.265-0.792
				c0-0.634-0.317-0.947-0.956-0.947h-0.651v1.975H200.098z"/>
			<path fill="#413D3C" d="M204.823,29.546c0,0.16,0.013,0.307,0.039,0.435c0.024,0.132,0.073,0.24,0.14,0.332
				c0.071,0.091,0.167,0.16,0.285,0.214c0.118,0.048,0.268,0.076,0.444,0.076c0.209,0,0.401-0.069,0.568-0.204
				c0.173-0.136,0.254-0.353,0.254-0.64c0-0.153-0.017-0.285-0.059-0.397c-0.041-0.111-0.108-0.214-0.207-0.304
				c-0.098-0.087-0.221-0.17-0.379-0.242c-0.155-0.073-0.35-0.148-0.58-0.227c-0.307-0.102-0.571-0.213-0.795-0.336
				c-0.222-0.121-0.412-0.265-0.563-0.425c-0.146-0.167-0.261-0.353-0.33-0.563c-0.071-0.219-0.106-0.464-0.106-0.747
				c0-0.678,0.19-1.182,0.567-1.516c0.375-0.332,0.895-0.496,1.552-0.496c0.309,0,0.589,0.032,0.85,0.099
				c0.255,0.068,0.481,0.178,0.669,0.326c0.188,0.153,0.337,0.341,0.441,0.578c0.104,0.234,0.162,0.51,0.162,0.835v0.194h-1.323
				c0-0.326-0.062-0.578-0.176-0.751c-0.113-0.177-0.309-0.265-0.574-0.265c-0.155,0-0.284,0.021-0.384,0.067
				c-0.103,0.044-0.184,0.104-0.243,0.178c-0.063,0.072-0.104,0.157-0.128,0.252c-0.025,0.095-0.032,0.194-0.032,0.299
				c0,0.209,0.044,0.389,0.13,0.532c0.09,0.144,0.285,0.276,0.579,0.396l1.067,0.462c0.254,0.114,0.473,0.234,0.639,0.361
				c0.166,0.124,0.296,0.258,0.396,0.399c0.102,0.144,0.168,0.302,0.208,0.475c0.036,0.173,0.06,0.364,0.06,0.576
				c0,0.724-0.21,1.248-0.629,1.576c-0.422,0.33-1.005,0.493-1.749,0.493c-0.781,0-1.337-0.169-1.672-0.508
				c-0.339-0.338-0.5-0.823-0.5-1.457v-0.278h1.374v0.2H204.823z"/>
		</g>
	</g>
	<g>
		<g>
			<rect x="-18.089" y="11.317" fill="#003656" width="9.227" height="35.007"/>
		</g>
		<g>
			<path fill="#600020" d="M30.93,29.879c1.124-1.799,1.693-4.021,1.693-6.604c0-3.9-1.194-6.851-3.653-9.019
				c-0.873-0.777-1.809-1.401-2.814-1.883V34.24C28.096,33.337,29.676,31.892,30.93,29.879z"/>
			<path fill="#600020" d="M66.778,23.275c3.456-3.995,3.326-7.098,3.294-9.634c-0.051-4.228-1.63-7.593-4.87-9.947
				c-3.181-2.311-6.931-3.448-12.795-3.448l-17.41-0.02h-4.437c2.998,1.139,5.644,2.844,7.905,5.106
				c1.259,1.256,2.335,2.635,3.25,4.12h9.918c2.877,0,4.839-0.092,6.173,0.316c1.158,0.356,2.956,1.562,3.03,4.278
				c0.036,1.277-0.792,3.445-2.692,4.121c-1.772,0.631-3.219,0.491-5.68,0.491h-7.498c0.218,1.477,0.332,3.011,0.332,4.616
				c0,1.601-0.117,3.138-0.336,4.612h8.514c2.462,0,4.332-0.022,5.681,0.5c2.051,0.797,2.757,2.963,2.692,4.114
				c-0.117,2.142-1.297,3.698-2.747,4.162c-1.475,0.474-2.379,0.431-6.457,0.431H41.69c-0.913,1.475-1.99,2.846-3.243,4.1
				c-2.271,2.27-4.913,3.985-7.904,5.132H35h17.647c3.825,0,7.272-0.139,10.059-1.17c5.674-2.12,8.376-6.592,8.376-12.653
				C71.08,28.868,69.669,25.345,66.778,23.275z"/>
			<g>
				<polygon fill="#600020" points="-8.862,9.453 -8.862,0.227 -8.95,0.227 -10.449,0.227 -18.089,0.227 -18.089,9.453 -8.95,9.453 
									"/>
			</g>
		</g>
		<path fill="#00416F" d="M20.467,0.227H-7.005v9.241h27.472c1.074,0,2.179,0.082,3.235,0.282c1.7,0.318,3.355,1.006,4.8,1.95
			c1.532,1.003,2.878,2.492,3.837,4.051c1.29,2.098,1.951,4.617,1.951,7.579c0,2.928-0.651,5.433-1.955,7.519
			c-2.617,4.202-6.574,6.303-11.868,6.303H9.501V18.735l-9.225,0.002v27.589h20.197c6.9,0,12.465-2.064,16.7-6.296
			c4.229-4.229,6.346-9.795,6.346-16.701c0-1.679-0.142-3.41-0.402-5.071c-0.424-2.708-1.461-5.292-2.813-7.669
			C38.875,8.071,36.762,6,34.43,4.296c-1.717-1.256-3.641-2.205-5.665-2.851c-0.592-0.189-1.191-0.352-1.795-0.491
			C24.846,0.459,22.646,0.227,20.467,0.227"/>
	</g>
</g>
</svg>
