<?xml version="1.0" encoding="utf-8"?>
<!-- Generator: Adobe Illustrator 16.0.0, SVG Export Plug-In . SVG Version: 6.00 Build 0)  -->
<!DOCTYPE svg PUBLIC "-//W3C//DTD SVG 1.1//EN" "http://www.w3.org/Graphics/SVG/1.1/DTD/svg11.dtd">
<svg version="1.1" id="圖層_1" xmlns="http://www.w3.org/2000/svg" xmlns:xlink="http://www.w3.org/1999/xlink" x="0px" y="0px"
	 width="131.741px" height="101.795px" viewBox="0 0 131.741 101.795" enable-background="new 0 0 131.741 101.795"
	 xml:space="preserve">
<path fill="#FFFFFF" d="M131.089,78.259V20.841c0-4.227-3.429-7.656-7.657-7.656H8.598c-4.229,0-7.657,3.429-7.657,7.656v57.418
	c0,4.227,3.429,7.656,7.657,7.656h114.834C127.66,85.915,131.089,82.486,131.089,78.259z M125.348,36.152v26.795
	c0,0.527-0.43,0.957-0.958,0.957c-0.527,0-0.958-0.43-0.958-0.957V36.152c0-0.528,0.431-0.957,0.958-0.957
	C124.918,35.196,125.348,35.625,125.348,36.152z M6.683,49.549c0-2.112,1.716-3.828,3.828-3.828s3.827,1.715,3.827,3.828
	c0,2.112-1.715,3.829-3.827,3.829S6.683,51.661,6.683,49.549z M18.168,80.173V18.927h101.436v61.246H18.168z"/>
</svg>
