<?xml version="1.0" encoding="utf-8"?>
<!-- Generator: Adobe Illustrator 16.0.0, SVG Export Plug-In . SVG Version: 6.00 Build 0)  -->
<!DOCTYPE svg PUBLIC "-//W3C//DTD SVG 1.1//EN" "http://www.w3.org/Graphics/SVG/1.1/DTD/svg11.dtd">
<svg version="1.1" id="圖層_1" xmlns="http://www.w3.org/2000/svg" xmlns:xlink="http://www.w3.org/1999/xlink" x="0px" y="0px"
	 width="758.385px" height="602.932px" viewBox="0 0 758.385 602.932" enable-background="new 0 0 758.385 602.932"
	 xml:space="preserve">
<path fill="none" stroke="#040000" stroke-width="18" stroke-miterlimit="10" d="M749.385,540.826
	c-122.881-64.421-245.612-68.583-370.192,0c-127.602-42.51-250.955-42.065-370.192,0V41.444
	c126.772-43.779,250.089-42.728,370.192,0c126.868-42.581,250.375-43.931,370.192,0V540.826z"/>
<rect x="377.772" y="41.444" fill="#CBCBCB" stroke="#040000" stroke-width="18" stroke-miterlimit="10" width="2.839" height="497.802"/>
<path fill="none" stroke="#040000" stroke-width="17" stroke-miterlimit="10" d="M38.479,88.233c0,0,52.355-29.922,150.914-29.922
	c98.558,0,150.914,29.922,150.914,29.922"/>
<path fill="none" stroke="#040000" stroke-width="17" stroke-miterlimit="10" d="M38.479,131.969c0,0,52.355-29.923,150.914-29.923
	c98.558,0,150.914,29.923,150.914,29.923"/>
<path fill="none" stroke="#040000" stroke-width="17" stroke-miterlimit="10" d="M38.479,274.913c0,0,52.355-29.922,150.914-29.922
	c98.558,0,150.914,29.922,150.914,29.922"/>
<path fill="#040000" d="M709.521,305.897c0,0-57.898-30.68-138.911-30.68s-138.912,30.68-138.912,30.68v-224.4
	c0,0,55.925-23.186,138.912-23.186s138.911,23.186,138.911,23.186V305.897z"/>
<path stroke="#040000" stroke-width="18" stroke-miterlimit="10" d="M749.385,586.966c0,0-91.189-27-178.774-27
	s-191.419,27-191.419,27s-75.43-24.333-189.798-24.333S9,586.966,9,586.966v-46.14c0,0,180.394-100.86,370.981-2.21
	c208.711-110.65,369.403,2.21,369.403,2.21V586.966z"/>
</svg>
