<?xml version="1.0" encoding="utf-8"?>
<!-- Generator: Adobe Illustrator 16.0.0, SVG Export Plug-In . SVG Version: 6.00 Build 0)  -->
<!DOCTYPE svg PUBLIC "-//W3C//DTD SVG 1.1//EN" "http://www.w3.org/Graphics/SVG/1.1/DTD/svg11.dtd">
<svg version="1.1"
	 id="svg5" xmlns:svg="http://www.w3.org/2000/svg" xmlns:rdf="http://www.w3.org/1999/02/22-rdf-syntax-ns#" xmlns:cc="http://creativecommons.org/ns#" xmlns:dc="http://purl.org/dc/elements/1.1/"
	 xmlns="http://www.w3.org/2000/svg" xmlns:xlink="http://www.w3.org/1999/xlink" x="0px" y="0px" width="587.821px"
	 height="467.765px" viewBox="91.649 292.323 587.821 467.765" enable-background="new 91.649 292.323 587.821 467.765"
	 xml:space="preserve">
<path fill="#4D4D4D" d="M674.998,631.305l-1.945-95.172V490.33c0-18.067-13.938-32.611-31.253-32.611s-31.253,14.545-31.253,32.611
	v-8.942c0-18.066-13.939-32.611-31.254-32.611s-31.253,14.545-31.253,32.611v-8.941c0-18.066-13.938-32.611-31.253-32.611
	s-31.253,14.545-31.253,32.611v-143.07c0-18.066-13.939-32.611-31.254-32.611c-17.313,0-31.253,14.545-31.253,32.611v161.736v79.063
	c0,2.687-39.479-67.608-39.479-67.608c-9.021-15.646-28.354-21.264-43.349-12.594c-14.995,8.669-19.804,28.244-10.783,43.891
	c0,0,39.307,76.142,58.96,114.212c11.856,22.969,20.858,41.444,39.98,61.01C512.076,794.75,677.596,758.4,674.998,631.305z"/>
<path fill="none" stroke="#4D4D4D" stroke-width="40" stroke-linecap="round" stroke-linejoin="round" stroke-miterlimit="10" d="
	M208.75,530.5V324.133l98.601,91.632l-98.601-91.632l-98.601,91.632"/>
<path fill="none" stroke="#4D4D4D" stroke-width="40" stroke-linecap="round" stroke-linejoin="round" stroke-miterlimit="10" d="
	M1043.5,203.5"/>
</svg>
