<?xml version="1.0" encoding="utf-8"?>
<!-- Generator: Adobe Illustrator 16.0.0, SVG Export Plug-In . SVG Version: 6.00 Build 0)  -->
<!DOCTYPE svg PUBLIC "-//W3C//DTD SVG 1.1//EN" "http://www.w3.org/Graphics/SVG/1.1/DTD/svg11.dtd">
<svg version="1.1"
	 id="svg5" xmlns:svg="http://www.w3.org/2000/svg" xmlns:rdf="http://www.w3.org/1999/02/22-rdf-syntax-ns#" xmlns:cc="http://creativecommons.org/ns#" xmlns:dc="http://purl.org/dc/elements/1.1/"
	 xmlns="http://www.w3.org/2000/svg" xmlns:xlink="http://www.w3.org/1999/xlink" x="0px" y="0px" width="587.821px"
	 height="467.765px" viewBox="91.649 292.323 587.821 467.765" enable-background="new 91.649 292.323 587.821 467.765"
	 xml:space="preserve">
<g id="g931" transform="matrix(0.89294739,0,0,0.89418911,-379.09502,215.45069)">
	<g id="g1952" transform="translate(190.47143,-854.34538)">
		<path id="path923" fill="none" stroke="#4D4D4D" stroke-width="8.8829" stroke-linecap="round" stroke-linejoin="round" d="
			M777.816,1183.463v-41.711c0-20.204,15.61-36.47,35-36.47l0,0c19.39,0,35,16.266,35,36.47v51.549"/>
		<path id="path925" fill="none" stroke="#4D4D4D" stroke-width="8.8829" stroke-linecap="round" stroke-linejoin="round" d="
			M847.816,1193.301v-41.55c0-20.204,15.61-36.47,35-36.47l0,0c19.39,0,35.001,16.266,35.001,36.47v51.388"/>
		<path id="path927" fill="none" stroke="#4D4D4D" stroke-width="8.8829" stroke-linecap="round" stroke-linejoin="round" d="
			M917.816,1203.139v-41.387c0-20.204,15.61-36.47,35-36.47l0,0c19.39,0,35,16.265,35,36.47v51.223"/>
		<path id="path929" fill="none" stroke="#4D4D4D" stroke-width="8.8829" d="M987.816,1212.974l2.179,106.434
			c2.909,142.135-182.454,182.786-276.21,86.985c-21.415-21.881-31.496-42.542-44.774-68.229
			c-22.01-42.575-66.029-127.727-66.029-127.727c-10.102-17.498-4.717-39.39,12.076-49.084l0,0
			c16.792-9.696,38.444-3.414,48.546,14.084c0,0,44.211,78.613,44.211,75.609v-88.419V981.752c0-20.204,15.611-36.47,35-36.47l0,0
			c19.39,0,35.001,16.266,35.001,36.47v201.71"/>
	</g>
</g>
<polyline fill="none" stroke="#4D4D4D" stroke-width="30" stroke-linecap="round" stroke-linejoin="round" stroke-miterlimit="10" points="
	110.149,422.734 208.75,324.133 307.351,422.734 208.75,324.133 208.75,715.133 "/>
</svg>
