<?xml version="1.0" encoding="utf-8"?>
<!-- Generator: Adobe Illustrator 16.0.0, SVG Export Plug-In . SVG Version: 6.00 Build 0)  -->
<!DOCTYPE svg PUBLIC "-//W3C//DTD SVG 1.1//EN" "http://www.w3.org/Graphics/SVG/1.1/DTD/svg11.dtd">
<svg version="1.1" id="圖層_1" xmlns="http://www.w3.org/2000/svg" xmlns:xlink="http://www.w3.org/1999/xlink" x="0px" y="0px"
	 width="99.36px" height="98.524px" viewBox="219.423 7.026 99.36 98.524" enable-background="new 219.423 7.026 99.36 98.524"
	 xml:space="preserve">
<path fill="#FFFFFF" d="M295.887,45.426c0,4.205-0.073,8.411,0.033,12.612c0.047,1.85-0.485,2.584-2.438,2.529
	c-4.201-0.121-8.407-0.043-12.609-0.037c-2.832,0.006-5.313-0.92-7.339-2.885c-0.899-0.875-1.884-1.357-3.102-1.59
	c-5.416-1.042-9.241-5.538-9.248-10.79c-0.004-5.13,4.025-9.768,9.387-10.728c0.892-0.16,1.679-0.351,2.334-1.044
	c2.345-2.484,5.367-3.416,8.667-3.478c4.077-0.077,8.157,0.016,12.235-0.04c1.517-0.021,2.163,0.511,2.101,2.086
	c-0.092,2.255-0.021,4.517-0.021,6.776C295.889,41.034,295.887,43.231,295.887,45.426z"/>
<path fill="#FFFFFF" d="M261.58,45.273c-1.971-6-3.937-11.997-5.898-17.995c-1.952-5.947-3.901-11.885-5.85-17.834
	c-0.681-2.079-0.646-2.102,0.693-2.297c1.673-0.239,3.41-0.091,5.173,0.164c0.815,0.114,1.339,0.647,1.753,1.913
	c3.721,11.398,7.322,22.384,11.073,33.771"/>
<path fill="#FFFFFF" d="M285.693,102.722c-1.979-0.094-4.646-0.455-7.302-0.951c-2.768-0.516-3.521-0.17-5.024,2.143
	c-1.04,1.604-2.739,1.838-4.979,0.619c-1.679-0.912-1.233-2.215-0.569-3.551c2.058-4.143,5.938-6.277,10.511-5.543
	c3.229,0.518,6.439,1.033,9.725,0.844c1.078-0.063,2.123-0.213,3.095-0.707c1.198-0.611,1.771-1.545,1.487-2.924
	c-0.623-3.055-0.604-6,1.547-8.561c0.152-0.186,0.369-0.52,0.302-0.658c-0.966-1.982-0.031-3.553,1.005-5.141
	c0.275-0.422-0.109-0.807-0.367-1.172c-1.003-1.424-0.535-3.025-0.43-4.551c0.049-0.727,0.873-0.785,1.467-0.971
	c5.172-1.615,5.188-1.668,1.977-5.939c-0.113-0.148-0.246-0.291-0.336-0.455c-0.262-0.479-0.967-0.877-0.717-1.438
	c0.311-0.695,1.111-0.309,1.697-0.373c0.872-0.094,1.82,0.063,2.609-0.229c2.054-0.76,3.145,0.244,4.143,1.822
	c2.21,3.5,1.57,7.469-1.879,9.982c-1.248,0.912-1.432,2.008-1.852,3.359c-1.016,3.295-0.35,7.086-2.873,9.945
	c-0.637,0.721-0.426,1.672-0.277,2.539c1.012,5.959-1.523,9.877-7.389,11.326C289.676,102.534,288.057,102.749,285.693,102.722z"/>
<path fill="#FFFFFF" d="M223.85,53.786c1.142,0.433,2.936,0.18,2.473,2.521c-1.784,9.002,0.19,17.512,4.015,25.586
	c3.09,6.521,1.763,12.277-1.977,17.893c-1.219,1.83-2.718,3.434-4.218,5.043c-1.081,1.162-1.744,0.811-2.483-0.287
	c-1.383-2.051-1.307-4.389,0.352-6.641c1.57-2.133,3.017-4.305,3.605-6.957c0.412-1.844,0.281-3.541-0.508-5.299
	c-3.764-8.387-6.439-17.021-5.494-26.396c0.096-0.936,0.221-1.865,0.325-2.801C220.319,53.065,220.527,52.917,223.85,53.786z"/>
<rect x="298.34" y="29.975" fill="#FFFFFF" width="20.443" height="30.595"/>
<path fill="#FFFFFF" d="M225.431,24.668c8.009-9.736,20.09-15.432,35.428-15.425c9.174,0.422,19.801,3.976,28.472,12.406
	c0.979,0.951,1.809,2.056,2.684,3.11c0.697,0.841,0.777,1.46-0.61,1.453c-1.808-0.01-3.614-0.019-5.421-0.005
	c-0.893,0.006-1.493-0.494-2.109-1.048c-15.219-13.69-60.605-19.434-58.217,25.685c-1.894,2.763-2.231-15.254-5.438-16.075"/>
</svg>
